<svg xmlns="http://www.w3.org/2000/svg" width="75" height="23" fill="none" viewBox="0 0 75 23"><g filter="url(#a)"><mask id="d" width="72" height="15" x="1.285" y="2.618" fill="#000" maskUnits="userSpaceOnUse"><path fill="#fff" d="M1.285 2.618h72v15h-72z"/><path d="M10.678 15.618h-8.33l.374-2.21 4.726-4.165q1.31-1.155 1.428-1.853.086-.424-.136-.697-.22-.272-.663-.272-1.02 0-1.802 1.292L3.81 6.2q.8-1.342 2.023-2.04a5.24 5.24 0 0 1 2.635-.697q1.667 0 2.703 1.14 1.072 1.121.765 2.872a4.7 4.7 0 0 1-.714 1.802q-.526.783-1.598 1.717l-1.972 1.683h3.536zm10.833-11.9L21 6.625h-4.166L16.513 7.9h.732q1.717 0 2.736 1.105 1.038 1.089.697 3.043-.339 1.87-1.683 2.856-1.343.97-3.161.97-3.23 0-4.132-2.687l2.806-1.462q.374 1.19 1.649 1.19.612 0 1.02-.289t.493-.799-.204-.816q-.272-.306-.867-.306h-3.825l1.717-6.987zm14.031 6.12q-.51 2.822-2.023 4.437-1.496 1.599-3.842 1.598-2.329 0-3.383-1.768-1.037-1.784-.56-4.607.474-2.787 2.005-4.42 1.53-1.615 3.86-1.615t3.382 1.785q1.055 1.769.561 4.59m-5.474 3.077q1.852 0 2.448-3.247.561-3.246-1.309-3.247t-2.43 3.247q-.596 3.247 1.291 3.247M46.25 9.838q-.51 2.822-2.023 4.437-1.496 1.599-3.842 1.598-2.329 0-3.383-1.768-1.037-1.784-.56-4.607.474-2.787 2.005-4.42 1.53-1.615 3.86-1.615t3.382 1.785q1.055 1.769.561 4.59m-5.474 3.077q1.853 0 2.448-3.247.561-3.246-1.309-3.247t-2.43 3.247q-.596 3.247 1.291 3.247m16.182-3.077q-.51 2.822-2.023 4.437-1.496 1.599-3.842 1.598-2.329 0-3.383-1.768-1.037-1.784-.56-4.607.475-2.787 2.005-4.42 1.53-1.615 3.86-1.615t3.382 1.785q1.055 1.769.561 4.59m-5.474 3.077q1.853 0 2.448-3.247.561-3.246-1.309-3.247t-2.43 3.247q-.597 3.247 1.291 3.247m10.106 4.25V15.67h10.472v1.496zM63.205 5.3c1.07-1.088 2.38-1.615 3.893-1.615 1.122 0 2.142.306 2.992.918a5.8 5.8 0 0 1 2.006 2.414l-1.564.442a3.94 3.94 0 0 0-1.377-1.649c-.578-.408-1.275-.629-2.057-.629h-.034a3.7 3.7 0 0 0-2.737 1.173q-1.122 1.2-1.122 2.907 0 1.658 1.122 2.856c.73.782 1.666 1.173 2.77 1.173.783 0 1.48-.187 2.058-.595.612-.442 1.07-.969 1.343-1.649l1.564.425a5.9 5.9 0 0 1-1.972 2.448c-.85.578-1.853.884-2.992.884-1.513 0-2.822-.527-3.893-1.615S61.59 10.79 61.59 9.26c0-1.547.544-2.856 1.615-3.96"/></mask><path fill="url(#b)" d="M10.678 15.618h-8.33l.374-2.21 4.726-4.165q1.31-1.155 1.428-1.853.086-.424-.136-.697-.22-.272-.663-.272-1.02 0-1.802 1.292L3.81 6.2q.8-1.342 2.023-2.04a5.24 5.24 0 0 1 2.635-.697q1.667 0 2.703 1.14 1.072 1.121.765 2.872a4.7 4.7 0 0 1-.714 1.802q-.526.783-1.598 1.717l-1.972 1.683h3.536zm10.833-11.9L21 6.625h-4.166L16.513 7.9h.732q1.717 0 2.736 1.105 1.038 1.089.697 3.043-.339 1.87-1.683 2.856-1.343.97-3.161.97-3.23 0-4.132-2.687l2.806-1.462q.374 1.19 1.649 1.19.612 0 1.02-.289t.493-.799-.204-.816q-.272-.306-.867-.306h-3.825l1.717-6.987zm14.031 6.12q-.51 2.822-2.023 4.437-1.496 1.599-3.842 1.598-2.329 0-3.383-1.768-1.037-1.784-.56-4.607.474-2.787 2.005-4.42 1.53-1.615 3.86-1.615t3.382 1.785q1.055 1.769.561 4.59m-5.474 3.077q1.852 0 2.448-3.247.561-3.246-1.309-3.247t-2.43 3.247q-.596 3.247 1.291 3.247M46.25 9.838q-.51 2.822-2.023 4.437-1.496 1.599-3.842 1.598-2.329 0-3.383-1.768-1.037-1.784-.56-4.607.474-2.787 2.005-4.42 1.53-1.615 3.86-1.615t3.382 1.785q1.055 1.769.561 4.59m-5.474 3.077q1.853 0 2.448-3.247.561-3.246-1.309-3.247t-2.43 3.247q-.596 3.247 1.291 3.247m16.182-3.077q-.51 2.822-2.023 4.437-1.496 1.599-3.842 1.598-2.329 0-3.383-1.768-1.037-1.784-.56-4.607.475-2.787 2.005-4.42 1.53-1.615 3.86-1.615t3.382 1.785q1.055 1.769.561 4.59m-5.474 3.077q1.853 0 2.448-3.247.561-3.246-1.309-3.247t-2.43 3.247q-.597 3.247 1.291 3.247m10.106 4.25V15.67h10.472v1.496zM63.205 5.3c1.07-1.088 2.38-1.615 3.893-1.615 1.122 0 2.142.306 2.992.918a5.8 5.8 0 0 1 2.006 2.414l-1.564.442a3.94 3.94 0 0 0-1.377-1.649c-.578-.408-1.275-.629-2.057-.629h-.034a3.7 3.7 0 0 0-2.737 1.173q-1.122 1.2-1.122 2.907 0 1.658 1.122 2.856c.73.782 1.666 1.173 2.77 1.173.783 0 1.48-.187 2.058-.595.612-.442 1.07-.969 1.343-1.649l1.564.425a5.9 5.9 0 0 1-1.972 2.448c-.85.578-1.853.884-2.992.884-1.513 0-2.822-.527-3.893-1.615S61.59 10.79 61.59 9.26c0-1.547.544-2.856 1.615-3.96"/><path fill="url(#c)" d="M10.678 15.618v.238h.2l.034-.197zm-8.33 0-.234-.04-.047.278h.281zm.374-2.21-.157-.178-.063.056-.014.083zm4.726-4.165.157.178zM8.876 7.39l-.233-.046v.006zm-.136-.697.185-.15zm-2.465 1.02-.124.203.204.125.124-.205zM3.81 6.2l-.204-.121-.12.201.2.123zm2.023-2.04-.117-.206zm5.338.442-.175.16.004.004zm.765 2.873.234.043v-.002zm-.714 1.802-.197-.133zm-1.598 1.717.155.181.002-.002zm-1.972 1.683-.154-.18-.49.418h.644zm3.536 0 .234.04.049-.277h-.283zm-.51 2.941v-.237h-8.33v.475h8.33zm-8.33 0 .235.04.374-2.21-.235-.04-.234-.04-.374 2.21zm.374-2.21.158.178 4.726-4.165-.158-.178-.157-.178-4.726 4.165zm4.726-4.165.158.178c.442-.39.792-.749 1.042-1.074.248-.322.413-.629.463-.917l-.235-.04-.234-.04c-.03.177-.142.411-.37.707-.226.293-.55.628-.98 1.008zM8.876 7.39l.233.047c.067-.335.018-.644-.184-.894l-.185.15-.184.15c.092.114.134.269.087.5zm-.136-.697.185-.15c-.204-.25-.502-.36-.848-.36v.476c.244 0 .388.072.479.184zm-.663-.272v-.237c-.798 0-1.463.51-2.005 1.406l.203.123.204.123c.5-.827 1.037-1.177 1.598-1.177zM6.275 7.713l.125-.202-2.465-1.513-.125.202-.124.203 2.465 1.513zM3.81 6.2l.205.122q.771-1.294 1.936-1.955l-.118-.207-.117-.206q-1.283.732-2.11 2.125zm2.023-2.04.118.207A5 5 0 0 1 8.468 3.7v-.475q-1.473 0-2.752.728zm2.635-.697v.238c1.05 0 1.885.356 2.528 1.061l.175-.16.176-.16c-.74-.813-1.707-1.216-2.879-1.216zm2.703 1.14L11 4.765c.653.685.896 1.563.702 2.668l.234.041.234.041c.215-1.23-.053-2.267-.827-3.078zm.765 2.872-.233-.043a4.5 4.5 0 0 1-.678 1.712l.197.133.197.133q.557-.828.751-1.892zm-.714 1.802-.197-.133c-.335.498-.851 1.055-1.557 1.671l.156.18.157.178c.722-.63 1.271-1.218 1.638-1.763zm-1.598 1.717-.154-.18-1.972 1.682.154.181.155.18 1.972-1.682zm-1.972 1.683v.238h3.536v-.475H7.652zm3.536 0-.234-.04-.51 2.94.234.041.234.04.51-2.94zm10.323-8.959.233.041.05-.278h-.284zM21 6.625v.238h.199l.035-.197zm-4.166 0v-.237h-.184l-.046.179zM16.513 7.9l-.23-.058-.075.296h.305zm3.468 1.105-.174.161.002.003zm.697 3.043.234.043v-.002zm-1.683 2.856.14.193.001-.001zm-7.292-1.717-.11-.21-.18.093.064.193zm2.805-1.462.226-.071-.085-.27-.251.13zm2.669.901-.138-.194zm.493-.799.234.04zm-.204-.816-.178.158.005.005zm-4.692-.306-.231-.056-.073.294h.304zm1.717-6.987v-.237h-.187l-.044.18zm7.02 0-.234-.04-.51 2.906.235.041.233.041.51-2.907zM21 6.625v-.237h-4.164v.475H21zm-4.164 0-.23-.058-.324 1.275.23.058.23.059.324-1.275zM16.513 7.9v.238h.73v-.475h-.73zm.73 0v.238c1.09 0 1.934.348 2.563 1.028l.174-.16.175-.162c-.732-.792-1.71-1.181-2.911-1.181zm2.738 1.105-.173.164c.624.654.854 1.583.635 2.839l.234.04.235.04c.235-1.35 0-2.45-.76-3.247zm.696 3.043-.233-.042c-.218 1.196-.75 2.09-1.59 2.707l.14.191.141.192c.951-.699 1.54-1.708 1.776-3.005zm-1.683 2.856-.139-.192c-.85.614-1.855.924-3.023.924v.475c1.258 0 2.362-.336 3.302-1.014zm-3.161.97v-.238c-1.045 0-1.88-.217-2.519-.633-.637-.415-1.101-1.039-1.387-1.891l-.226.075-.225.076c.315.938.84 1.657 1.58 2.138.737.48 1.668.71 2.777.71zM11.7 13.186l.11.21 2.805-1.461-.11-.21-.11-.212-2.804 1.463zm2.806-1.462-.227.072c.136.434.362.779.687 1.013.324.235.726.343 1.188.343v-.475c-.387 0-.685-.09-.91-.253-.225-.162-.399-.412-.512-.771zm1.649 1.19v.238c.446 0 .836-.106 1.157-.333l-.137-.194-.138-.194c-.224.159-.512.246-.883.246zm1.02-.289.137.194c.325-.23.523-.554.59-.954l-.234-.039-.235-.039a.94.94 0 0 1-.396.644zm.493-.799.234.04c.066-.395-.01-.749-.266-1.019l-.172.163-.173.163c.13.138.19.329.142.614zm-.204-.816.177-.158c-.244-.274-.611-.385-1.044-.385v.475c.36 0 .57.092.689.226zm-.867-.306v-.237h-3.825v.475h3.825zm-3.825 0 .23.057 1.717-6.987-.23-.057-.231-.056-1.717 6.987zm1.717-6.987v.238h7.02V3.48h-7.02zm21.052 6.12.234.042zm-2.023 4.437-.173-.162zm-7.225-.17-.205.12.001.002zm-.56-4.607-.235-.04zm2.005-4.42-.172-.163h-.001zm7.242.17-.205.121h.001zm-2.465 4.42.234.043v-.002zm-3.74 0 .234.043v-.002zm6.766.17-.234-.042c-.334 1.85-.993 3.282-1.962 4.317l.173.162.174.163c1.047-1.119 1.737-2.644 2.083-4.558zm-2.023 4.437-.173-.162c-.95 1.014-2.165 1.523-3.669 1.523v.475c1.625 0 2.97-.556 4.016-1.673zm-3.842 1.598v-.237c-1.482 0-2.525-.556-3.179-1.652l-.204.121-.204.122c.752 1.261 1.964 1.884 3.587 1.884zm-3.383-1.768.206-.12c-.655-1.125-.844-2.6-.533-4.447l-.234-.04-.234-.04c-.323 1.916-.139 3.513.59 4.767zm-.56-4.607.233.04c.312-1.825.965-3.251 1.945-4.297l-.173-.163-.173-.162c-1.06 1.13-1.744 2.65-2.067 4.542zm2.005-4.42.173.164c.972-1.027 2.195-1.541 3.686-1.541v-.475c-1.614 0-2.964.562-4.031 1.689zm3.86-1.615V3.7c1.48 0 2.524.56 3.177 1.668l.205-.12.205-.122c-.752-1.272-1.964-1.901-3.588-1.901zm3.382 1.785-.204.122c.664 1.114.854 2.58.531 4.427l.234.041.234.041c.335-1.915.15-3.509-.59-4.752zm-4.913 7.667v.238c.7 0 1.28-.312 1.728-.907.44-.583.752-1.436.954-2.535l-.234-.043-.234-.043c-.195 1.066-.49 1.837-.865 2.335-.368.489-.814.718-1.349.718zm2.448-3.247.234.04c.19-1.093.183-1.96-.06-2.564a1.5 1.5 0 0 0-.571-.72c-.258-.165-.566-.24-.912-.24v.475c.277 0 .491.06.655.165.162.104.293.265.387.498.193.478.218 1.235.033 2.306zM31.206 6.42v-.237c-.705 0-1.287.311-1.733.907-.437.584-.742 1.438-.932 2.537l.234.04.234.04c.184-1.065.472-1.835.845-2.333.364-.487.81-.716 1.352-.716zm-2.43 3.247-.235-.043c-.2 1.094-.202 1.96.039 2.566.123.31.311.555.57.721s.569.24.917.24v-.474c-.28 0-.496-.06-.66-.166a1 1 0 0 1-.386-.496c-.19-.477-.208-1.234-.012-2.305zm17.473.17.234.042zm-2.023 4.437-.173-.162zm-7.225-.17-.205.12.001.002zm-.56-4.607-.235-.04zm2.005-4.42-.172-.163h-.001zm7.242.17-.205.121h.001zm-2.465 4.42.234.043v-.002zm-3.74 0 .234.043v-.002zm6.766.17-.234-.042c-.334 1.85-.993 3.282-1.962 4.317l.173.162.174.163c1.047-1.119 1.737-2.644 2.083-4.558zm-2.023 4.437-.173-.162c-.95 1.014-2.165 1.523-3.669 1.523v.475c1.625 0 2.97-.556 4.016-1.673zm-3.842 1.598v-.237c-1.482 0-2.525-.556-3.179-1.652l-.204.121-.204.122c.752 1.261 1.964 1.884 3.587 1.884zm-3.383-1.768.206-.12c-.655-1.125-.844-2.6-.533-4.447l-.234-.04-.234-.04c-.323 1.916-.139 3.513.59 4.767zm-.56-4.607.233.04c.312-1.825.965-3.251 1.945-4.297l-.173-.163-.173-.162c-1.06 1.13-1.744 2.65-2.067 4.542zm2.005-4.42.173.164c.972-1.027 2.195-1.541 3.686-1.541v-.475c-1.614 0-2.964.562-4.031 1.689zm3.86-1.615V3.7c1.48 0 2.524.56 3.177 1.668l.205-.12.205-.122c-.752-1.272-1.964-1.901-3.588-1.901zm3.382 1.785-.204.122c.664 1.114.854 2.58.531 4.427l.234.041.234.041c.335-1.915.15-3.509-.59-4.752zm-4.913 7.667v.238c.7 0 1.28-.312 1.728-.907.44-.583.753-1.436.954-2.535l-.234-.043-.234-.043c-.195 1.066-.489 1.837-.865 2.335-.368.489-.814.718-1.349.718zm2.448-3.247.234.04c.19-1.093.184-1.96-.06-2.564a1.5 1.5 0 0 0-.571-.72c-.258-.165-.566-.24-.912-.24v.475c.277 0 .491.06.655.165.162.104.293.265.387.498.193.478.218 1.235.033 2.306zM41.914 6.42v-.237c-.705 0-1.287.311-1.733.907-.437.584-.742 1.438-.932 2.537l.234.04.234.04c.184-1.065.472-1.835.845-2.333.364-.487.81-.716 1.352-.716zm-2.43 3.247-.235-.043c-.2 1.094-.202 1.96.039 2.566.123.31.311.555.57.721s.569.24.917.24v-.474c-.28 0-.496-.06-.66-.166a1 1 0 0 1-.386-.496c-.19-.477-.208-1.234-.012-2.305zm17.473.17.234.042zm-2.023 4.437-.173-.162zm-7.225-.17-.205.12.001.002zm-.56-4.607-.235-.04zm2.005-4.42-.172-.163h-.001zm7.242.17-.204.121zm-2.465 4.42.234.043v-.002zm-3.74 0 .234.043v-.002zm6.766.17-.234-.042c-.334 1.85-.993 3.282-1.962 4.317l.173.162.173.163c1.049-1.119 1.738-2.644 2.084-4.558zm-2.023 4.437-.173-.162c-.95 1.014-2.165 1.523-3.669 1.523v.475c1.625 0 2.97-.556 4.016-1.673zm-3.842 1.598v-.237c-1.482 0-2.525-.556-3.179-1.652l-.204.121-.204.122c.752 1.261 1.964 1.884 3.587 1.884zm-3.383-1.768.206-.12c-.655-1.125-.844-2.6-.533-4.447l-.234-.04-.234-.04c-.323 1.916-.139 3.513.59 4.767zm-.56-4.607.233.04c.312-1.825.965-3.251 1.945-4.297l-.173-.163-.173-.162c-1.06 1.13-1.744 2.65-2.067 4.542zm2.005-4.42.173.164C50.3 4.215 51.523 3.7 53.014 3.7v-.475c-1.614 0-2.964.562-4.031 1.689zm3.86-1.615V3.7c1.48 0 2.524.56 3.178 1.668l.204-.12.205-.122c-.752-1.272-1.964-1.901-3.588-1.901zm3.382 1.785-.204.122c.664 1.114.854 2.58.531 4.427l.234.041.234.041c.335-1.915.15-3.509-.59-4.752zm-4.913 7.667v.238c.7 0 1.28-.312 1.728-.907.44-.583.752-1.436.954-2.535l-.234-.043-.234-.043c-.195 1.066-.489 1.837-.865 2.335-.368.489-.814.718-1.349.718zm2.448-3.247.234.04c.19-1.093.184-1.96-.06-2.564a1.5 1.5 0 0 0-.571-.72c-.257-.165-.566-.24-.912-.24v.475c.277 0 .491.06.655.165.162.104.293.265.387.498.193.478.218 1.235.033 2.306zM52.622 6.42v-.237c-.705 0-1.287.311-1.733.907-.437.584-.742 1.438-.932 2.537l.234.04.234.04c.184-1.065.472-1.835.845-2.333.364-.487.81-.716 1.352-.716zm-2.43 3.247-.235-.043c-.2 1.094-.202 1.96.039 2.566.123.31.311.555.57.721s.569.24.917.24v-.474c-.28 0-.496-.06-.66-.166a1 1 0 0 1-.386-.496c-.19-.477-.209-1.234-.012-2.305zm11.397 7.497h-.238v.238h.238zm0-1.496v-.237h-.238v.237zm10.472 0h.237v-.237h-.237zm0 1.496v.238h.237v-.238zM63.205 5.3l-.17-.166zm6.885-.697-.14.193.004.003zm2.006 2.414.064.229.265-.075-.112-.251zm-1.564.442-.217.098.084.187.197-.056zM69.155 5.81l-.137.194.001.001zm-4.828.544-.172-.164-.002.002zm0 5.763.173-.162zm4.828.578.137.194.002-.001zm1.343-1.649.062-.229-.204-.056-.079.197zm1.564.425.218.094.108-.251-.264-.072zm-1.972 2.448.133.197.007-.005zm-6.885-.73-.17.166zm-1.615 3.977h.237V15.67h-.475v1.496zm0-1.496v.238h10.472v-.475H61.59zm10.472 0h-.238v1.496h.475V15.67zm0 1.496v-.237H61.59v.475h10.472zM63.205 5.3l.169.167c1.025-1.041 2.272-1.544 3.724-1.544v-.475c-1.575 0-2.945.55-4.063 1.686zm3.893-1.615v.238c1.077 0 2.047.293 2.853.873l.139-.193.138-.193c-.894-.644-1.964-.962-3.13-.962zm2.992.918-.136.196a5.55 5.55 0 0 1 1.925 2.315l.217-.097.216-.097a6 6 0 0 0-2.087-2.512zm2.006 2.414-.065-.228-1.564.442.065.228.064.229 1.564-.442zm-1.564.442.216-.097a4.17 4.17 0 0 0-1.458-1.747l-.135.195-.136.195a3.7 3.7 0 0 1 1.296 1.552zM69.155 5.81l.137-.194c-.62-.438-1.366-.672-2.194-.672v.475c.735 0 1.384.207 1.92.585zm-2.057-.629v-.237h-.034v.475h.033zm-.034 0v-.237a3.93 3.93 0 0 0-2.91 1.246l.173.164.172.164a3.45 3.45 0 0 1 2.565-1.1zm-2.737 1.173-.174-.162c-.79.845-1.186 1.873-1.186 3.07h.475c0-1.082.353-1.992 1.058-2.745zM63.205 9.26h-.238c0 1.165.397 2.175 1.186 3.019l.174-.163.173-.162c-.706-.755-1.058-1.648-1.058-2.694zm1.122 2.856-.174.162c.778.833 1.777 1.249 2.945 1.249v-.475c-1.043 0-1.914-.367-2.598-1.098zm2.77 1.173v.238c.821 0 1.569-.197 2.195-.639l-.137-.194-.137-.194c-.53.374-1.177.552-1.92.552zm2.058-.595.139.193c.64-.463 1.132-1.023 1.424-1.754l-.22-.088-.22-.088c-.253.63-.679 1.123-1.262 1.545zm1.343-1.649-.063.23L72 11.7l.063-.23.062-.229-1.564-.425zm1.564.425-.218-.094a5.64 5.64 0 0 1-1.894 2.35l.14.192.14.192a6.1 6.1 0 0 0 2.05-2.546zm-1.972 2.448-.134-.196c-.808.55-1.764.843-2.858.843v.475c1.183 0 2.233-.319 3.125-.925zm-2.992.884v-.237c-1.452 0-2.7-.503-3.724-1.544l-.17.166-.169.167c1.118 1.135 2.488 1.686 4.063 1.686zm-3.893-1.615.169-.166c-1.028-1.045-1.547-2.294-1.547-3.76h-.475c0 1.592.57 2.961 1.683 4.093zM61.59 9.26h.237c0-1.484.52-2.734 1.548-3.795l-.17-.166-.17-.165C61.92 6.282 61.351 7.65 61.351 9.26z" mask="url(#d)"/></g><defs><linearGradient id="b" x1="37.993" x2="37.993" y1="-10.921" y2="34.247" gradientUnits="userSpaceOnUse"><stop offset=".333" stop-color="#fff4cd"/><stop offset=".4" stop-color="#ffe68e"/><stop offset=".477" stop-color="#ffa34e"/><stop offset=".557" stop-color="#fff387"/><stop offset=".726" stop-color="#ffa841"/></linearGradient><linearGradient id="c" x1="37.785" x2="37.785" y1=".618" y2="21.618" gradientUnits="userSpaceOnUse"><stop offset=".214" stop-color="#fffdeb"/><stop offset=".505" stop-color="#fff389"/><stop offset=".849" stop-color="#ffe922"/></linearGradient><filter id="a" width="74.492" height="18.312" x="0" y="3.226" color-interpolation-filters="sRGB" filterUnits="userSpaceOnUse"><feFlood flood-opacity="0" result="BackgroundImageFix"/><feColorMatrix in="SourceAlpha" result="hardAlpha" values="0 0 0 0 0 0 0 0 0 0 0 0 0 0 0 0 0 0 127 0"/><feOffset dy="2.067"/><feGaussianBlur stdDeviation="1.034"/><feComposite in2="hardAlpha" operator="out"/><feColorMatrix values="0 0 0 0 0 0 0 0 0 0 0 0 0 0 0 0 0 0 0.2 0"/><feBlend in2="BackgroundImageFix" result="effect1_dropShadow_129_40208"/><feBlend in="SourceGraphic" in2="effect1_dropShadow_129_40208" result="shape"/></filter></defs></svg>