<svg xmlns="http://www.w3.org/2000/svg" width="79" height="15" fill="none" viewBox="0 0 79 15"><g filter="url(#a)"><mask id="d" width="75" height="12" x="1.612" y="-.752" fill="#000" maskUnits="userSpaceOnUse"><path fill="#fff" d="M1.612-.752h75v12h-75z"/><path d="M9.208 10.248h-6.86l.308-1.82 3.892-3.43q1.078-.953 1.176-1.526.07-.35-.112-.574-.181-.225-.546-.224-.84 0-1.484 1.064l-2.03-1.246Q4.21 1.385 5.218.812a4.3 4.3 0 0 1 2.17-.574q1.372 0 2.226.938.882.923.63 2.366a3.9 3.9 0 0 1-.588 1.484q-.434.643-1.316 1.414L6.716 7.826h2.912zm12.175-9.8-.42 2.394h-3.43l-.266 1.05h.602q1.413 0 2.254.91.853.895.574 2.506-.28 1.539-1.386 2.352-1.107.798-2.604.798-2.661 0-3.402-2.212l2.31-1.204q.308.98 1.358.98.504 0 .84-.238a.97.97 0 0 0 .406-.658q.069-.42-.168-.672-.225-.252-.714-.252h-3.15L15.6.448zm8.301 5.04q-.42 2.323-1.666 3.654-1.232 1.316-3.164 1.316-1.917 0-2.786-1.456-.854-1.47-.462-3.794.393-2.296 1.652-3.64 1.26-1.33 3.178-1.33 1.919 0 2.786 1.47.869 1.455.462 3.78m-4.508 2.534q1.527 0 2.016-2.674.462-2.674-1.078-2.674-1.54-.001-2.002 2.674-.49 2.673 1.064 2.674m13.327-2.534q-.42 2.323-1.666 3.654-1.233 1.316-3.164 1.316-1.92 0-2.786-1.456-.855-1.47-.462-3.794.391-2.296 1.652-3.64 1.26-1.33 3.178-1.33t2.786 1.47q.867 1.455.462 3.78m-4.508 2.534q1.526 0 2.016-2.674.462-2.674-1.078-2.674-1.54-.001-2.002 2.674-.49 2.673 1.064 2.674m16.498-2.534q-.42 2.323-1.666 3.654-1.233 1.316-3.164 1.316-1.918 0-2.786-1.456-.855-1.47-.462-3.794.392-2.296 1.652-3.64 1.26-1.33 3.178-1.33t2.786 1.47q.868 1.455.462 3.78m-4.508 2.534q1.526 0 2.016-2.674.462-2.674-1.078-2.674-1.54-.001-2.002 2.674-.49 2.673 1.064 2.674M59.31 5.488q-.42 2.323-1.666 3.654-1.232 1.316-3.164 1.316-1.918 0-2.786-1.456-.854-1.47-.462-3.794.392-2.296 1.652-3.64 1.26-1.33 3.178-1.33t2.786 1.47q.868 1.455.462 3.78m-4.508 2.534q1.527 0 2.016-2.674.462-2.674-1.078-2.674-1.54-.001-2.002 2.674-.49 2.673 1.064 2.674M68.13 5.488q-.42 2.323-1.666 3.654-1.23 1.316-3.163 1.316-1.92 0-2.786-1.456-.855-1.47-.463-3.794.393-2.296 1.652-3.64 1.26-1.33 3.178-1.33 1.92 0 2.787 1.47.867 1.455.461 3.78m-4.508 2.534q1.527 0 2.017-2.674.461-2.674-1.079-2.674-1.54-.001-2.001 2.674-.49 2.673 1.063 2.674M69.619.448h6.636l-.322 1.932-4.368 5.446h3.5l-.42 2.422h-6.818l.337-1.932 4.382-5.446h-3.36z"/></mask><path fill="url(#b)" d="M9.208 10.248h-6.86l.308-1.82 3.892-3.43q1.078-.953 1.176-1.526.07-.35-.112-.574-.181-.225-.546-.224-.84 0-1.484 1.064l-2.03-1.246Q4.21 1.385 5.218.812a4.3 4.3 0 0 1 2.17-.574q1.372 0 2.226.938.882.923.63 2.366a3.9 3.9 0 0 1-.588 1.484q-.434.643-1.316 1.414L6.716 7.826h2.912zm12.175-9.8-.42 2.394h-3.43l-.266 1.05h.602q1.413 0 2.254.91.853.895.574 2.506-.28 1.539-1.386 2.352-1.107.798-2.604.798-2.661 0-3.402-2.212l2.31-1.204q.308.98 1.358.98.504 0 .84-.238a.97.97 0 0 0 .406-.658q.069-.42-.168-.672-.225-.252-.714-.252h-3.15L15.6.448zm8.301 5.04q-.42 2.323-1.666 3.654-1.232 1.316-3.164 1.316-1.917 0-2.786-1.456-.854-1.47-.462-3.794.393-2.296 1.652-3.64 1.26-1.33 3.178-1.33 1.919 0 2.786 1.47.869 1.455.462 3.78m-4.508 2.534q1.527 0 2.016-2.674.462-2.674-1.078-2.674-1.54-.001-2.002 2.674-.49 2.673 1.064 2.674m13.327-2.534q-.42 2.323-1.666 3.654-1.233 1.316-3.164 1.316-1.92 0-2.786-1.456-.855-1.47-.462-3.794.391-2.296 1.652-3.64 1.26-1.33 3.178-1.33t2.786 1.47q.867 1.455.462 3.78m-4.508 2.534q1.526 0 2.016-2.674.462-2.674-1.078-2.674-1.54-.001-2.002 2.674-.49 2.673 1.064 2.674m16.498-2.534q-.42 2.323-1.666 3.654-1.233 1.316-3.164 1.316-1.918 0-2.786-1.456-.855-1.47-.462-3.794.392-2.296 1.652-3.64 1.26-1.33 3.178-1.33t2.786 1.47q.868 1.455.462 3.78m-4.508 2.534q1.526 0 2.016-2.674.462-2.674-1.078-2.674-1.54-.001-2.002 2.674-.49 2.673 1.064 2.674M59.31 5.488q-.42 2.323-1.666 3.654-1.232 1.316-3.164 1.316-1.918 0-2.786-1.456-.854-1.47-.462-3.794.392-2.296 1.652-3.64 1.26-1.33 3.178-1.33t2.786 1.47q.868 1.455.462 3.78m-4.508 2.534q1.527 0 2.016-2.674.462-2.674-1.078-2.674-1.54-.001-2.002 2.674-.49 2.673 1.064 2.674M68.13 5.488q-.42 2.323-1.666 3.654-1.23 1.316-3.163 1.316-1.92 0-2.786-1.456-.855-1.47-.463-3.794.393-2.296 1.652-3.64 1.26-1.33 3.178-1.33 1.92 0 2.787 1.47.867 1.455.461 3.78m-4.508 2.534q1.527 0 2.017-2.674.461-2.674-1.079-2.674-1.54-.001-2.001 2.674-.49 2.673 1.063 2.674M69.619.448h6.636l-.322 1.932-4.368 5.446h3.5l-.42 2.422h-6.818l.337-1.932 4.382-5.446h-3.36z"/><path fill="url(#c)" d="M9.208 10.248v.237h.2l.034-.197zm-6.86 0-.234-.04-.047.277h.281zm.308-1.82L2.5 8.249l-.063.056-.014.083zm3.892-3.43.157.178zm1.176-1.526-.233-.047v.007zm-.112-.574.185-.15zm-2.03.84-.124.202.204.125.123-.204zm-2.03-1.246-.204-.122-.12.201.2.123zM5.218.812 5.101.605zm4.396.364-.175.16.003.004zm.63 2.366.234.042v-.002zm-.588 1.484-.197-.133zM8.34 6.44l.154.18.002-.001zM6.716 7.826l-.154-.181-.49.418h.644zm2.912 0 .234.04.049-.278h-.283zm-.42 2.422v-.238h-6.86v.475h6.86zm-6.86 0 .235.04.307-1.82-.234-.04-.234-.04-.308 1.82zm.308-1.82.157.178 3.892-3.43-.157-.178-.157-.179L2.5 8.25zm3.892-3.43.158.178q.55-.485.863-.89c.206-.268.347-.528.39-.774l-.235-.04-.234-.04c-.023.135-.11.322-.297.563q-.274.357-.802.824zm1.176-1.526.233.046c.057-.285.016-.553-.16-.77l-.185.15-.184.15c.066.081.1.195.063.377zm-.112-.574.185-.15c-.178-.22-.437-.312-.73-.312v.475c.19 0 .296.057.36.136zm-.546-.224v-.238c-.679 0-1.237.435-1.687 1.179l.203.123.204.123c.408-.676.839-.95 1.28-.95zM5.582 3.738l.125-.203-2.03-1.246-.125.203-.124.202 2.03 1.246zm-2.03-1.246.204.121q.63-1.057 1.58-1.595L5.218.812 5.101.605q-1.068.61-1.753 1.765zM5.218.812l.118.206A4.1 4.1 0 0 1 7.388.475V0a4.55 4.55 0 0 0-2.287.605zm2.17-.574v.237c.854 0 1.53.289 2.05.86l.176-.16.176-.16C9.172.337 8.364 0 7.388 0zm2.226.938-.172.164c.528.553.725 1.261.568 2.16l.234.042.234.04c.18-1.023-.044-1.891-.692-2.57zm.63 2.366-.233-.043a3.6 3.6 0 0 1-.552 1.394l.197.133.197.132q.464-.69.625-1.574zm-.588 1.484-.197-.133q-.408.609-1.275 1.368l.156.179.156.179c.597-.521 1.052-1.008 1.357-1.46zM8.34 6.44l-.154-.181-1.624 1.386.154.18.154.181L8.494 6.62zM6.716 7.826v.237h2.912v-.475H6.716zm2.912 0-.234-.041-.42 2.422.234.04.234.041.42-2.422zM21.383.448l.234.04.049-.278h-.283zm-.42 2.394v.237h.2l.034-.196zm-3.43 0v-.238h-.185l-.046.18zm-.266 1.05-.23-.059-.076.296h.306zm2.856.91-.175.16.003.003zm.574 2.506.233.042v-.002zM19.31 9.66l.139.192h.001zm-6.006-1.414-.11-.211-.18.094.064.192zm2.31-1.204.226-.072-.085-.27-.251.13zm2.198.742-.138-.194zm.406-.658.234.039zm-.168-.672-.178.157.005.006zm-3.864-.252-.231-.057-.072.294h.303zM15.6.448V.21h-.187l-.044.18zm5.782 0-.234-.041-.42 2.394.234.04.234.042.42-2.394zm-.42 2.394v-.238h-3.43v.475h3.43zm-3.43 0-.23-.059-.267 1.05.23.059.231.058.266-1.05zm-.266 1.05v.237h.602v-.475h-.602zm.602 0v.237c.886 0 1.57.283 2.08.834l.174-.161.174-.162c-.611-.662-1.43-.986-2.428-.986zm2.254.91-.172.163c.501.527.69 1.277.512 2.302l.234.04.234.041c.195-1.121 0-2.042-.636-2.71zm.574 2.506-.234-.043c-.178.976-.611 1.703-1.293 2.203l.14.192.141.191c.793-.582 1.284-1.424 1.48-2.5zM19.31 9.66l-.14-.193c-.692.5-1.51.753-2.464.753v.475c1.043 0 1.96-.279 2.743-.843zm-2.604.798v-.238c-.855 0-1.533-.178-2.051-.515-.516-.335-.893-.84-1.126-1.535l-.225.076-.226.075c.262.78.7 1.38 1.318 1.783.615.4 1.391.591 2.31.591zm-3.402-2.212.11.21 2.31-1.204-.11-.21-.11-.211-2.31 1.204zm2.31-1.204-.227.07c.114.365.305.658.581.857.276.2.617.29 1.004.29v-.475c-.313 0-.55-.073-.726-.2s-.315-.325-.406-.614zm1.358.98v.237c.374 0 .705-.089.977-.282l-.137-.193-.138-.194c-.175.124-.404.194-.702.194zm.84-.238.137.193c.278-.196.446-.472.503-.812l-.234-.04-.235-.038a.73.73 0 0 1-.309.503zm.406-.658.234.039c.056-.335-.008-.64-.23-.875l-.172.164-.173.163c.096.101.144.244.106.47zm-.168-.672.177-.158c-.212-.238-.528-.332-.891-.332v.475c.29 0 .45.075.536.172zm-.714-.252v-.238h-3.15v.475h3.15zm-3.15 0 .23.056L15.831.504l-.23-.056L15.37.39l-1.414 5.754zM15.6.448v.237h5.782V.21H15.6zm14.083 5.04.234.042v-.002zm-1.666 3.654-.173-.163zm-5.95-.14-.205.119.001.002zm-.462-3.794-.234-.04zm1.652-3.64-.172-.164-.001.001zm5.964.14-.204.12v.001zm-2.03 3.64.234.042v-.002zm-3.08 0 .234.042v-.002zm5.572.14-.234-.043c-.274 1.518-.814 2.69-1.605 3.534l.173.163.174.162c.87-.929 1.44-2.193 1.726-3.774zm-1.666 3.654-.173-.163c-.773.826-1.763 1.241-2.99 1.241v.475c1.348 0 2.467-.462 3.337-1.391zm-3.164 1.316v-.238c-1.208 0-2.052-.452-2.582-1.34l-.204.122-.204.121c.628 1.053 1.641 1.572 2.99 1.572zm-2.786-1.456.206-.12c-.533-.916-.69-2.12-.434-3.635l-.234-.04-.234-.039c-.267 1.583-.116 2.91.49 3.953zm-.462-3.794.234.04c.256-1.497.79-2.664 1.592-3.518l-.174-.162-.173-.163c-.88.938-1.446 2.198-1.713 3.763zm1.652-3.64.173.163C24.224.894 25.219.475 26.436.475V0c-1.34 0-2.463.468-3.35 1.404zm3.178-1.33v.237c1.207 0 2.052.456 2.582 1.353l.204-.12.205-.121C28.799.524 27.787 0 26.437 0zm2.786 1.47-.204.121c.54.906.697 2.103.432 3.618l.234.04.234.041c.277-1.583.126-2.906-.492-3.942zm-4.046 6.314v.237c.591 0 1.081-.264 1.457-.763.368-.488.627-1.198.793-2.106l-.234-.042-.233-.043c-.16.875-.401 1.502-.706 1.905-.296.393-.65.574-1.077.574zm2.016-2.674.234.04c.156-.902.153-1.626-.052-2.135a1.27 1.27 0 0 0-.486-.612 1.4 1.4 0 0 0-.774-.205v.475a.93.93 0 0 1 .517.13.8.8 0 0 1 .302.39c.154.382.177.996.025 1.876zm-1.078-2.674v-.238c-.595 0-1.086.264-1.46.764-.366.488-.619 1.2-.776 2.107l.234.04.234.041c.151-.875.387-1.501.688-1.904.293-.391.649-.573 1.08-.573zm-2.002 2.674-.233-.043c-.166.902-.17 1.626.034 2.136.104.261.264.471.486.613.22.142.484.205.777.205v-.475a.95.95 0 0 1-.52-.13.8.8 0 0 1-.302-.389c-.152-.381-.17-.994-.008-1.875zm14.39.14.234.042v-.002zm-1.665 3.654-.174-.163zm-5.95-.14-.206.119.002.002zm-.462-3.794-.235-.04zm1.652-3.64-.173-.164v.001zm5.964.14-.205.12v.001zm-2.03 3.64.233.042v-.002zm-3.08 0 .233.042v-.002zm5.572.14-.234-.043c-.274 1.518-.814 2.69-1.606 3.534l.174.163.173.162c.87-.929 1.44-2.193 1.726-3.774zm-1.666 3.654-.174-.163c-.773.826-1.763 1.241-2.99 1.241v.475c1.348 0 2.467-.462 3.337-1.391zm-3.164 1.316v-.238c-1.209 0-2.053-.452-2.582-1.34l-.204.122-.204.121c.627 1.053 1.64 1.572 2.99 1.572zm-2.786-1.456.205-.12c-.532-.916-.689-2.12-.433-3.635l-.234-.04-.235-.039c-.267 1.583-.115 2.91.491 3.953zm-.462-3.794.234.04c.255-1.497.79-2.664 1.59-3.518l-.172-.162-.174-.163c-.88.938-1.445 2.198-1.713 3.763zm1.652-3.64.172.163c.794-.837 1.79-1.256 3.007-1.256V0c-1.34 0-2.464.468-3.35 1.404zm3.178-1.33v.237c1.207 0 2.051.456 2.581 1.353l.205-.12.204-.121C37.618.524 36.605 0 35.255 0zm2.786 1.47-.204.121c.54.906.696 2.103.432 3.618l.234.04.234.041c.276-1.583.125-2.906-.492-3.942zm-4.046 6.314v.237c.59 0 1.08-.264 1.456-.763.368-.488.627-1.198.793-2.106l-.233-.042-.234-.043c-.16.875-.401 1.502-.705 1.905-.296.393-.651.574-1.077.574zm2.016-2.674.234.04c.156-.902.153-1.626-.053-2.135a1.27 1.27 0 0 0-.486-.612 1.4 1.4 0 0 0-.773-.205v.475c.222 0 .39.048.516.13.125.08.228.205.303.39.154.382.177.996.024 1.876zm-1.078-2.674v-.238c-.596 0-1.087.264-1.461.764-.366.488-.619 1.2-.776 2.107l.235.04.234.041c.15-.875.386-1.501.687-1.904.294-.391.65-.573 1.08-.573zM32.93 5.348l-.234-.043c-.165.902-.17 1.626.034 2.136.104.261.264.471.486.613.22.142.485.205.778.205v-.475a.95.95 0 0 1-.521-.13.8.8 0 0 1-.302-.389c-.151-.381-.169-.994-.008-1.875zm17.562.14.234.042v-.002zm-1.666 3.654-.174-.163zm-5.95-.14-.206.119.002.002zm-.462-3.794-.234-.04zm1.652-3.64-.173-.164v.001zm5.964.14-.205.12v.001zM48 5.348l.233.042v-.002zm-3.08 0 .233.042v-.002zm5.572.14-.234-.043c-.274 1.518-.814 2.69-1.606 3.534l.174.163.173.162c.87-.929 1.44-2.193 1.727-3.774zm-1.666 3.654-.174-.163c-.773.826-1.763 1.241-2.99 1.241v.475c1.348 0 2.468-.462 3.337-1.391zm-3.164 1.316v-.238c-1.208 0-2.053-.452-2.582-1.34l-.204.122-.204.121c.628 1.053 1.64 1.572 2.99 1.572zm-2.786-1.456.205-.12c-.532-.916-.688-2.12-.433-3.635l-.234-.04-.234-.039c-.267 1.583-.116 2.91.49 3.953zm-.462-3.794.234.04c.256-1.497.79-2.664 1.591-3.518l-.173-.162-.173-.163c-.88.938-1.446 2.198-1.713 3.763zm1.652-3.64.172.163c.794-.837 1.79-1.256 3.007-1.256V0c-1.34 0-2.463.468-3.35 1.404zm3.178-1.33v.237c1.207 0 2.051.456 2.581 1.353l.205-.12.204-.121C49.608.524 48.595 0 47.245 0zm2.786 1.47-.204.121c.54.906.697 2.103.432 3.618l.234.04.234.041c.277-1.583.125-2.906-.492-3.942zm-4.046 6.314v.237c.591 0 1.08-.264 1.456-.763.368-.488.627-1.198.793-2.106L48 5.348l-.234-.043c-.16.875-.4 1.502-.705 1.905-.296.393-.651.574-1.077.574zM48 5.348l.234.04c.156-.902.153-1.626-.052-2.135a1.27 1.27 0 0 0-.487-.612 1.4 1.4 0 0 0-.773-.205v.475c.222 0 .39.048.516.13.126.08.228.205.303.39.154.382.177.996.025 1.876zm-1.078-2.674v-.238c-.595 0-1.087.264-1.46.764-.367.488-.62 1.2-.776 2.107l.234.04.234.041c.151-.875.386-1.501.688-1.904.293-.391.648-.573 1.08-.573zM44.92 5.348l-.234-.043c-.165.902-.169 1.626.034 2.136.104.261.264.471.486.613s.485.205.778.205v-.475a.95.95 0 0 1-.521-.13.8.8 0 0 1-.301-.389c-.152-.381-.17-.994-.008-1.875zm14.39.14.234.042v-.002zm-1.666 3.654-.173-.163zm-5.95-.14-.205.119.001.002zm-.462-3.794L51 5.168zm1.652-3.64-.172-.164-.001.001zm5.964.14-.204.12v.001zm-2.03 3.64.234.042v-.002zm-3.08 0 .234.042v-.002zm5.572.14-.234-.043c-.274 1.518-.814 2.69-1.605 3.534l.173.163.174.162c.87-.929 1.44-2.193 1.726-3.774zm-1.666 3.654-.173-.163c-.773.826-1.763 1.241-2.99 1.241v.475c1.348 0 2.467-.462 3.337-1.391zm-3.164 1.316v-.238c-1.208 0-2.052-.452-2.582-1.34l-.204.122-.204.121c.628 1.053 1.641 1.572 2.99 1.572zm-2.786-1.456.206-.12c-.533-.916-.69-2.12-.434-3.635l-.234-.04L51 5.169c-.267 1.583-.116 2.91.49 3.953zm-.462-3.794.234.04c.256-1.497.79-2.664 1.592-3.518l-.174-.162-.173-.163c-.88.938-1.446 2.198-1.713 3.763zm1.652-3.64.173.163C53.85.894 54.846.475 56.063.475V0c-1.34 0-2.463.468-3.35 1.404zm3.178-1.33v.237c1.207 0 2.052.456 2.582 1.353l.204-.12.205-.121C58.426.524 57.414 0 56.064 0zm2.786 1.47-.204.121c.54.906.697 2.103.432 3.618l.234.04.234.041c.277-1.583.126-2.906-.492-3.942zm-4.046 6.314v.237c.591 0 1.081-.264 1.457-.763.368-.488.627-1.198.793-2.106l-.234-.042-.233-.043c-.16.875-.401 1.502-.706 1.905-.296.393-.65.574-1.077.574zm2.016-2.674.234.04c.156-.902.153-1.626-.052-2.135a1.27 1.27 0 0 0-.486-.612 1.4 1.4 0 0 0-.774-.205v.475a.93.93 0 0 1 .517.13.8.8 0 0 1 .302.39c.154.382.177.996.025 1.876zM55.74 2.674v-.238c-.595 0-1.086.264-1.46.764-.367.488-.62 1.2-.776 2.107l.234.04.234.041c.151-.875.386-1.501.688-1.904.293-.391.649-.573 1.08-.573zm-2 2.674-.233-.043c-.166.902-.17 1.626.033 2.136.104.261.265.471.487.613.22.142.484.205.777.205v-.475a.95.95 0 0 1-.52-.13.8.8 0 0 1-.302-.389c-.152-.381-.17-.994-.008-1.875zm14.39.14.234.042v-.002zm-1.666 3.654-.173-.163zm-5.95-.14-.205.119.002.002zm-.462-3.794-.234-.04zm1.652-3.64-.172-.164v.001zm5.965.14-.205.12v.001zm-2.03 3.64.233.042v-.002zm-3.08 0 .233.042v-.002zm5.571.14-.233-.043c-.275 1.518-.814 2.69-1.606 3.534l.173.163.174.162c.87-.929 1.44-2.193 1.726-3.774zm-1.666 3.654-.173-.163c-.773.826-1.763 1.241-2.99 1.241v.475c1.348 0 2.467-.462 3.337-1.391zM63.3 10.458v-.238c-1.209 0-2.053-.452-2.582-1.34l-.205.122-.203.121c.627 1.053 1.64 1.572 2.99 1.572zm-2.786-1.456.205-.12c-.532-.916-.689-2.12-.433-3.635l-.235-.04-.234-.039c-.267 1.583-.115 2.91.491 3.953zm-.463-3.794.235.04c.255-1.497.79-2.664 1.59-3.518l-.172-.162-.174-.163c-.88.938-1.446 2.198-1.713 3.763zm1.652-3.64.173.163C62.669.894 63.665.475 64.882.475V0c-1.34 0-2.464.468-3.35 1.404zm3.178-1.33v.237c1.208 0 2.052.456 2.582 1.353l.205-.12.204-.121C67.245.524 66.232 0 64.882 0zm2.787 1.47-.205.121c.54.906.697 2.103.433 3.618l.233.04.235.041c.276-1.583.125-2.906-.492-3.942zM63.62 8.022v.237c.592 0 1.081-.264 1.457-.763.368-.488.627-1.198.793-2.106l-.233-.042-.234-.043c-.16.875-.401 1.502-.705 1.905-.296.393-.651.574-1.078.574zm2.017-2.674.234.04c.156-.902.153-1.626-.053-2.135a1.27 1.27 0 0 0-.486-.612 1.4 1.4 0 0 0-.773-.205v.475c.222 0 .39.048.516.13.125.08.228.205.303.39.154.382.176.996.024 1.876zm-1.079-2.674v-.238c-.595 0-1.086.264-1.46.764-.366.488-.619 1.2-.776 2.107l.234.04.235.041c.15-.875.386-1.501.687-1.904.293-.391.65-.573 1.08-.573zm-2.001 2.674-.234-.043c-.166.902-.17 1.626.034 2.136.104.261.264.471.486.613.22.142.485.205.777.205v-.475a.95.95 0 0 1-.52-.13.8.8 0 0 1-.302-.389c-.151-.381-.17-.994-.008-1.875zm7.06-4.9V.21h-.198l-.035.196zm6.636 0 .235.039.046-.277h-.28zm-.322 1.932.186.148.039-.048.01-.061zm-4.368 5.446-.185-.15-.31.387h.495zm3.5 0 .235.04.048-.278h-.282zm-.42 2.422v.237h.2l.035-.197zm-6.818 0-.234-.041-.048.278h.282zm.337-1.932-.186-.15-.038.048-.01.06zm4.382-5.446.185.148.31-.386h-.496zm-3.36 0-.234-.042-.05.28h.284zm.433-2.422v.237h6.636V.21h-6.636zm6.636 0-.234-.04-.322 1.932.235.04.234.039.322-1.932zm-.322 1.932-.185-.15-4.368 5.447.185.149.186.148 4.368-5.446zm-4.368 5.446v.237h3.5v-.475h-3.5zm3.5 0-.234-.041-.42 2.422.234.04.235.041.42-2.422zm-.42 2.422v-.238h-6.818v.475h6.819zm-6.818 0 .235.04.335-1.932-.234-.04-.234-.041-.336 1.932zm.337-1.932.185.148 4.382-5.446-.186-.148-.185-.15-4.382 5.447zm4.382-5.446v-.238h-3.36v.475h3.36zm-3.36 0 .233.041.434-2.422-.234-.041-.233-.042-.434 2.422z" mask="url(#d)"/></g><defs><linearGradient id="b" x1="39.327" x2="39.327" y1="-12.643" y2="26.072" gradientUnits="userSpaceOnUse"><stop offset=".333" stop-color="#fff4cd"/><stop offset=".4" stop-color="#ffe68e"/><stop offset=".477" stop-color="#ffa34e"/><stop offset=".557" stop-color="#fff387"/><stop offset=".726" stop-color="#ffa841"/></linearGradient><linearGradient id="c" x1="39.112" x2="39.112" y1="-2.752" y2="15.248" gradientUnits="userSpaceOnUse"><stop offset=".214" stop-color="#fffdeb"/><stop offset=".505" stop-color="#fff389"/><stop offset=".849" stop-color="#ffe922"/></linearGradient><filter id="a" width="78.603" height="14.83" x="0" y="0" color-interpolation-filters="sRGB" filterUnits="userSpaceOnUse"><feFlood flood-opacity="0" result="BackgroundImageFix"/><feColorMatrix in="SourceAlpha" result="hardAlpha" values="0 0 0 0 0 0 0 0 0 0 0 0 0 0 0 0 0 0 127 0"/><feOffset dy="2.067"/><feGaussianBlur stdDeviation="1.034"/><feComposite in2="hardAlpha" operator="out"/><feColorMatrix values="0 0 0 0 0 0 0 0 0 0 0 0 0 0 0 0 0 0 0.2 0"/><feBlend in2="BackgroundImageFix" result="effect1_dropShadow_129_40252"/><feBlend in="SourceGraphic" in2="effect1_dropShadow_129_40252" result="shape"/></filter></defs></svg>