<svg xmlns="http://www.w3.org/2000/svg" width="74" height="18" fill="none" viewBox="0 0 74 18"><g filter="url(#a)"><mask id="d" width="71" height="14" x="1.177" y="-.029" fill="#000" maskUnits="userSpaceOnUse"><path fill="#fff" d="M1.177-.029h71v14h-71z"/><path d="M4.393 1.07h7.735l-.425 2.398L9.306 6q1.054.424 1.58 1.343.528.9.324 2.09-.34 1.904-1.683 2.84-1.343.951-3.18.952-1.512 0-2.55-.68-1.035-.68-1.444-2.006L5.14 9.095q.357 1.173 1.53 1.173 1.326 0 1.53-1.122.084-.51-.221-.8-.29-.305-.918-.305h-.63l-.866-1.734 2.21-2.33H3.883zm16.916 0-.51 2.908h-4.165l-.323 1.275h.731q1.717 0 2.737 1.105 1.037 1.088.697 3.043-.34 1.869-1.683 2.856-1.343.969-3.162.969-3.23 0-4.13-2.686l2.804-1.462q.375 1.19 1.65 1.19.61 0 1.02-.29.407-.288.492-.798t-.204-.816q-.271-.306-.867-.306h-3.825l1.717-6.987zm14.032 6.12q-.51 2.822-2.023 4.438-1.497 1.598-3.842 1.598-2.329 0-3.383-1.768-1.038-1.785-.561-4.607.476-2.789 2.006-4.42Q29.068.816 31.397.816T34.78 2.6q1.054 1.767.56 4.59m-5.474 3.078q1.853 0 2.448-3.247.56-3.247-1.31-3.247-1.869 0-2.43 3.247-.595 3.247 1.292 3.247M46.049 7.19q-.51 2.82-2.023 4.437-1.496 1.598-3.842 1.598-2.329 0-3.383-1.768-1.038-1.785-.561-4.607.476-2.789 2.006-4.42Q39.776.816 42.105.816T45.488 2.6q1.054 1.767.56 4.59m-5.474 3.077q1.852 0 2.448-3.247.56-3.247-1.31-3.247-1.869 0-2.43 3.247-.595 3.247 1.292 3.247M56.757 7.19q-.51 2.82-2.023 4.437-1.496 1.598-3.842 1.598-2.329 0-3.383-1.768-1.038-1.785-.561-4.607.476-2.789 2.006-4.42Q50.484.816 52.813.816T56.196 2.6q1.054 1.767.56 4.59m-5.474 3.077q1.852 0 2.448-3.247.56-3.247-1.31-3.247-1.869 0-2.43 3.247-.595 3.247 1.292 3.247m19.965-5.831v1.87h-5.576v3.876q0 .476.136.714.136.22.612.22.39 0 .765-.118.375-.136.68-.34.306-.222.493-.51.187-.29.187-.595a.4.4 0 0 0-.136-.29q-.135-.135-.527-.135-.306 0-.544.05l-.272-1.733q.305-.085.68-.12.39-.033.8-.033 1.002 0 1.614.459t.612 1.428q0 .918-.425 1.632a3.75 3.75 0 0 1-1.122 1.19 5.6 5.6 0 0 1-3.128.969q-.714 0-1.207-.17a2.2 2.2 0 0 1-.765-.442 3.4 3.4 0 0 1-.357-.425 2.2 2.2 0 0 1-.255-.663q-.085-.425-.085-1.14V6.308H62v-1.87zm-7.99-4.2q.561 0 .986.137.426.135.714.425.34.323.527.9.187.579.187 1.633v1.173h-2.244V3.417q0-.426-.068-.714a.67.67 0 0 0-.272-.425q-.204-.153-.612-.153-.22 0-.476.05a3 3 0 0 0-.493.154L60.861.697a8 8 0 0 1 1.19-.34 5.5 5.5 0 0 1 1.207-.12"/></mask><path fill="url(#b)" d="M4.393 1.07h7.735l-.425 2.398L9.306 6q1.054.424 1.58 1.343.528.9.324 2.09-.34 1.904-1.683 2.84-1.343.951-3.18.952-1.512 0-2.55-.68-1.035-.68-1.444-2.006L5.14 9.095q.357 1.173 1.53 1.173 1.326 0 1.53-1.122.084-.51-.221-.8-.29-.305-.918-.305h-.63l-.866-1.734 2.21-2.33H3.883zm16.916 0-.51 2.908h-4.165l-.323 1.275h.731q1.717 0 2.737 1.105 1.037 1.088.697 3.043-.34 1.869-1.683 2.856-1.343.969-3.162.969-3.23 0-4.13-2.686l2.804-1.462q.375 1.19 1.65 1.19.61 0 1.02-.29.407-.288.492-.798t-.204-.816q-.271-.306-.867-.306h-3.825l1.717-6.987zm14.032 6.12q-.51 2.822-2.023 4.438-1.497 1.598-3.842 1.598-2.329 0-3.383-1.768-1.038-1.785-.561-4.607.476-2.789 2.006-4.42Q29.068.816 31.397.816T34.78 2.6q1.054 1.767.56 4.59m-5.474 3.078q1.853 0 2.448-3.247.56-3.247-1.31-3.247-1.869 0-2.43 3.247-.595 3.247 1.292 3.247M46.049 7.19q-.51 2.82-2.023 4.437-1.496 1.598-3.842 1.598-2.329 0-3.383-1.768-1.038-1.785-.561-4.607.476-2.789 2.006-4.42Q39.776.816 42.105.816T45.488 2.6q1.054 1.767.56 4.59m-5.474 3.077q1.852 0 2.448-3.247.56-3.247-1.31-3.247-1.869 0-2.43 3.247-.595 3.247 1.292 3.247M56.757 7.19q-.51 2.82-2.023 4.437-1.496 1.598-3.842 1.598-2.329 0-3.383-1.768-1.038-1.785-.561-4.607.476-2.789 2.006-4.42Q50.484.816 52.813.816T56.196 2.6q1.054 1.767.56 4.59m-5.474 3.077q1.852 0 2.448-3.247.56-3.247-1.31-3.247-1.869 0-2.43 3.247-.595 3.247 1.292 3.247m19.965-5.831v1.87h-5.576v3.876q0 .476.136.714.136.22.612.22.39 0 .765-.118.375-.136.68-.34.306-.222.493-.51.187-.29.187-.595a.4.4 0 0 0-.136-.29q-.135-.135-.527-.135-.306 0-.544.05l-.272-1.733q.305-.085.68-.12.39-.033.8-.033 1.002 0 1.614.459t.612 1.428q0 .918-.425 1.632a3.75 3.75 0 0 1-1.122 1.19 5.6 5.6 0 0 1-3.128.969q-.714 0-1.207-.17a2.2 2.2 0 0 1-.765-.442 3.4 3.4 0 0 1-.357-.425 2.2 2.2 0 0 1-.255-.663q-.085-.425-.085-1.14V6.308H62v-1.87zm-7.99-4.2q.561 0 .986.137.426.135.714.425.34.323.527.9.187.579.187 1.633v1.173h-2.244V3.417q0-.426-.068-.714a.67.67 0 0 0-.272-.425q-.204-.153-.612-.153-.22 0-.476.05a3 3 0 0 0-.493.154L60.861.697a8 8 0 0 1 1.19-.34 5.5 5.5 0 0 1 1.207-.12"/><path fill="url(#c)" d="M4.393 1.07V.834h-.2l-.034.197zm7.735 0 .233.042.05-.279h-.283zm-.425 2.398.172.163.05-.052.011-.07zM9.306 6l-.173-.164-.24.254.324.13zm1.58 1.343-.205.118v.002zm.324 2.09.233.042v-.001zm-1.683 2.84-.136-.195h-.002zm-5.73.272-.13.198zM2.354 10.54l-.11-.211-.176.09.059.19zM5.14 9.095l.227-.07-.083-.273-.254.132zm3.06.05.233.043v-.003zm-.221-.798-.173.163.01.01zM6.433 8.04l-.213.106.066.131h.147zm-.867-1.734-.173-.164-.114.12.074.15zm2.21-2.33.172.164.38-.401h-.552zm-3.893 0-.234-.04-.05.278h.284zm.51-2.906v.237h7.735V.833H4.393zm7.735 0-.234-.042-.425 2.397.234.042.234.041.425-2.397zm-.425 2.397-.173-.164-2.397 2.533.173.164.172.163 2.397-2.533zM9.306 6l-.09.22c.658.265 1.142.679 1.465 1.24l.206-.117.206-.119c-.38-.661-.95-1.143-1.699-1.445zm1.58 1.343-.204.12c.318.544.422 1.183.293 1.93l.235.04.234.04c.144-.839.032-1.594-.352-2.25zm.324 2.09-.234-.041c-.218 1.22-.75 2.105-1.585 2.686l.136.195.135.195c.957-.666 1.546-1.673 1.781-2.993zm-1.683 2.84-.138-.194c-.85.603-1.86.908-3.041.908v.475c1.267 0 2.376-.33 3.316-.996zm-3.18.952v-.238c-.972 0-1.774-.218-2.42-.641l-.13.199-.13.198c.738.484 1.636.72 2.68.72zm-2.55-.68.13-.2c-.639-.418-1.09-1.039-1.347-1.876l-.227.07-.227.07c.286.93.798 1.647 1.541 2.134zM2.354 10.54l.109.21L5.25 9.307l-.11-.211-.109-.211-2.788 1.445zM5.14 9.095l-.228.069c.13.425.34.766.644.999.305.234.682.342 1.114.342v-.475c-.35 0-.62-.087-.825-.244-.206-.158-.37-.404-.478-.76zm1.53 1.173v.237c.473 0 .876-.1 1.186-.326.313-.23.5-.57.577-.99L8.2 9.146l-.234-.043c-.06.327-.195.548-.391.692-.201.148-.494.235-.905.235zM8.2 9.146l.234.039c.066-.398-.017-.751-.292-1.011l-.163.173-.164.172c.133.126.197.305.15.588zm-.221-.8.172-.163c-.255-.27-.638-.38-1.09-.38v.475c.386 0 .615.094.745.232zm-.918-.305v-.238h-.63v.475h.63zm-.63 0 .213-.107L5.778 6.2l-.212.107-.213.106.867 1.734zm-.866-1.734.172.163 2.21-2.329-.172-.163-.173-.164-2.21 2.329zm2.21-2.33V3.74H3.883v.475h3.893zm-3.893 0 .234.042.51-2.907-.234-.041-.234-.041-.51 2.907zm17.426-2.906.234.04.049-.278h-.283zm-.51 2.907v.237h.2l.034-.196zm-4.165 0V3.74h-.185l-.045.18zm-.323 1.275-.23-.059-.075.296h.305zm3.468 1.105-.174.16.002.003zm.697 3.043.234.042v-.002zm-1.683 2.856.14.192zM11.5 10.54l-.11-.211-.18.094.065.192zm2.805-1.462.227-.072-.085-.27-.252.13zm2.67.9-.138-.193zm.492-.798.234.039zm-.204-.816-.178.157.005.006zm-4.692-.306L12.341 8l-.073.294h.303zm1.717-6.987V.833h-.186l-.045.18zm7.021 0-.234-.041-.51 2.907.234.04.234.042.51-2.907zm-.51 2.907V3.74h-4.165v.475H20.8zm-4.165 0-.23-.059-.323 1.275.23.059.23.058.323-1.275zm-.323 1.275v.237h.731v-.475h-.73zm.731 0v.237c1.089 0 1.934.348 2.563 1.029l.174-.161.175-.162c-.732-.792-1.711-1.181-2.912-1.181zm2.737 1.105-.172.163c.624.655.853 1.584.635 2.839l.234.04.234.041c.235-1.351 0-2.45-.759-3.247zm.697 3.043-.234-.043c-.217 1.196-.75 2.09-1.59 2.707l.141.192.14.191c.952-.698 1.54-1.708 1.777-3.005zm-1.683 2.856-.139-.193c-.85.614-1.855.924-3.023.924v.475c1.258 0 2.361-.336 3.301-1.014zm-3.162.969v-.238c-1.045 0-1.879-.217-2.518-.633-.637-.414-1.102-1.039-1.388-1.891l-.225.076-.225.075c.314.938.839 1.657 1.579 2.138.737.48 1.669.71 2.777.71zm-4.13-2.686.109.21 2.805-1.462-.11-.21-.11-.211-2.805 1.462zm2.804-1.462-.227.07c.137.435.362.78.687 1.015s.727.342 1.19.342v-.475c-.389 0-.687-.09-.912-.253-.224-.162-.398-.412-.511-.77zm1.65 1.19v.237c.445 0 .836-.106 1.156-.333l-.137-.193-.137-.194c-.224.158-.513.245-.883.245zm1.02-.29.136.194c.326-.23.524-.553.59-.953l-.234-.04-.234-.038a.94.94 0 0 1-.396.644zm.492-.798.234.039c.066-.395-.01-.748-.265-1.019l-.173.164-.173.163c.13.137.19.328.143.614zm-.204-.816.178-.158c-.244-.274-.612-.386-1.045-.386v.475c.36 0 .57.093.69.226zm-.867-.306V7.82h-3.825v.475h3.825zm-3.825 0 .23.056 1.718-6.987-.23-.056-.232-.057L12.34 8zm1.717-6.987v.237h7.021V.833h-7.02zm21.053 6.12.233.042V7.23zm-2.023 4.437-.174-.163zm-7.225-.17-.206.119.002.002zm-.561-4.607-.235-.04zm2.006-4.42-.173-.164v.001zm7.242.17-.205.12v.001zm-2.465 4.42.233.042v-.002zm-3.74 0 .233.042v-.002zm6.766.17-.234-.043c-.334 1.85-.993 3.283-1.963 4.317l.174.163.173.162c1.048-1.119 1.738-2.644 2.084-4.557zm-2.023 4.437-.174-.163c-.949 1.014-2.165 1.523-3.668 1.523v.475c1.624 0 2.97-.556 4.015-1.673zm-3.842 1.598v-.238c-1.482 0-2.526-.556-3.18-1.652l-.203.122-.204.121c.752 1.261 1.963 1.884 3.587 1.884zm-3.383-1.768.205-.12c-.654-1.126-.844-2.6-.532-4.448l-.234-.04-.235-.039c-.323 1.915-.138 3.512.59 4.766zm-.561-4.607.234.04c.311-1.825.964-3.252 1.945-4.298l-.173-.162-.174-.163c-1.059 1.13-1.743 2.65-2.067 4.543zm2.006-4.42.172.163c.973-1.027 2.196-1.54 3.687-1.54V.577c-1.615 0-2.965.563-4.032 1.69zM31.397.816v.237c1.48 0 2.524.56 3.178 1.668l.205-.12.204-.121C34.233 1.207 33.021.578 31.397.578zM34.78 2.6l-.204.121c.663 1.114.853 2.58.53 4.428l.235.04.234.041c.334-1.915.15-3.508-.591-4.752zm-4.913 7.667v.237c.7 0 1.28-.312 1.728-.906.44-.584.752-1.437.953-2.536l-.233-.042-.234-.043c-.195 1.066-.49 1.836-.866 2.335-.368.488-.813.717-1.348.717zm2.448-3.247.234.04c.189-1.093.183-1.96-.06-2.564a1.5 1.5 0 0 0-.572-.72c-.257-.166-.565-.241-.911-.241v.475c.277 0 .49.06.654.165.163.105.294.265.388.498.192.478.218 1.235.033 2.306zm-1.31-3.247v-.238c-.704 0-1.287.312-1.732.907-.438.584-.743 1.438-.932 2.537l.234.04.234.041c.184-1.066.471-1.835.844-2.333.365-.487.811-.717 1.353-.717zm-2.43 3.247-.234-.043c-.2 1.093-.203 1.96.038 2.566.123.309.312.554.571.72s.568.241.917.241v-.475c-.28 0-.496-.06-.66-.165a1 1 0 0 1-.386-.497c-.19-.477-.209-1.233-.013-2.305zm17.474.17.233.042V7.23zm-2.023 4.437-.174-.163zm-7.225-.17-.206.119.002.002zM36.24 6.85l-.235-.04zm2.006-4.42-.173-.164v.001zm7.242.17-.205.12v.001zm-2.465 4.42.233.042V7.06zm-3.74 0 .233.042V7.06zm6.766.17-.234-.043c-.334 1.85-.993 3.283-1.963 4.317l.174.163.173.162c1.048-1.119 1.738-2.644 2.084-4.557zm-2.023 4.437-.174-.163c-.949 1.014-2.165 1.523-3.668 1.523v.475c1.624 0 2.97-.556 4.015-1.673zm-3.842 1.598v-.238c-1.482 0-2.526-.556-3.18-1.652l-.203.122-.204.121c.752 1.261 1.963 1.884 3.587 1.884zM36.8 11.458l.205-.12c-.654-1.126-.844-2.6-.532-4.448l-.234-.04-.235-.039c-.323 1.915-.138 3.512.59 4.766zm-.56-4.608.234.04c.312-1.825.964-3.252 1.945-4.298l-.173-.162-.174-.163c-1.059 1.13-1.743 2.65-2.067 4.543zm2.006-4.42.172.163c.973-1.027 2.196-1.54 3.687-1.54V.577c-1.615 0-2.965.563-4.032 1.69zM42.105.816v.237c1.48 0 2.524.56 3.178 1.668l.205-.12.204-.121C44.941 1.207 43.73.578 42.105.578zM45.488 2.6l-.204.121c.663 1.114.853 2.58.53 4.428l.235.04.234.041c.334-1.915.15-3.508-.591-4.752zm-4.913 7.667v.237c.7 0 1.28-.312 1.728-.906.44-.584.752-1.437.953-2.536l-.233-.042-.234-.043c-.195 1.066-.49 1.836-.866 2.335-.368.488-.813.717-1.348.717zm2.448-3.247.234.04c.189-1.093.183-1.96-.06-2.564a1.5 1.5 0 0 0-.572-.72c-.257-.166-.565-.241-.911-.241v.475c.277 0 .49.06.654.165.163.105.294.265.388.498.192.478.218 1.235.033 2.306zm-1.31-3.247v-.238c-.705 0-1.287.312-1.732.907-.438.584-.743 1.438-.932 2.537l.234.04.234.041c.184-1.066.471-1.835.844-2.333.365-.487.811-.717 1.353-.717zm-2.43 3.247-.234-.043c-.2 1.093-.203 1.96.038 2.566.123.309.312.554.571.72s.568.241.917.241v-.475c-.28 0-.496-.06-.66-.165a1 1 0 0 1-.386-.497c-.19-.477-.209-1.233-.013-2.305zm17.474.17.233.042V7.23zm-2.023 4.437-.174-.163zm-7.225-.17-.206.119.002.002zm-.561-4.607-.234-.04zm2.006-4.42-.173-.164v.001zm7.242.17-.205.12v.001zM53.73 7.02l.233.042V7.06zm-3.74 0 .233.042V7.06zm6.766.17-.234-.043c-.334 1.85-.993 3.283-1.963 4.317l.174.163.173.162c1.048-1.119 1.738-2.644 2.084-4.557zm-2.023 4.437-.174-.163c-.949 1.014-2.165 1.523-3.668 1.523v.475c1.624 0 2.97-.556 4.015-1.673zm-3.842 1.598v-.238c-1.482 0-2.526-.556-3.18-1.652l-.203.122-.204.121c.752 1.261 1.964 1.884 3.587 1.884zm-3.383-1.768.205-.12c-.654-1.126-.844-2.6-.532-4.448l-.234-.04-.235-.039c-.323 1.915-.138 3.512.59 4.766zm-.561-4.607.234.04c.311-1.825.964-3.252 1.945-4.298l-.173-.162-.174-.163c-1.059 1.13-1.743 2.65-2.066 4.543zm2.006-4.42.172.163c.973-1.027 2.196-1.54 3.687-1.54V.577c-1.615 0-2.965.563-4.032 1.69zm3.86-1.614v.237c1.48 0 2.524.56 3.178 1.668l.205-.12.204-.121C55.65 1.207 54.437.578 52.813.578zM56.196 2.6l-.204.121c.664 1.114.853 2.58.53 4.428l.235.04.234.041c.334-1.915.15-3.508-.591-4.752zm-4.913 7.667v.237c.7 0 1.28-.312 1.728-.906.44-.584.752-1.437.953-2.536l-.233-.042-.234-.043c-.195 1.066-.49 1.836-.865 2.335-.369.488-.814.717-1.35.717zM53.73 7.02l.234.04c.189-1.093.183-1.96-.06-2.564a1.5 1.5 0 0 0-.572-.72c-.257-.166-.565-.241-.911-.241v.475c.277 0 .49.06.654.165.163.105.294.265.388.498.192.478.218 1.235.033 2.306zm-1.31-3.247v-.238c-.704 0-1.287.312-1.732.907-.438.584-.743 1.438-.932 2.537l.234.04.234.041c.184-1.066.471-1.835.844-2.333.365-.487.811-.717 1.353-.717zM49.99 7.02l-.234-.043c-.2 1.093-.203 1.96.038 2.566.123.309.312.554.571.72s.568.241.917.241v-.475c-.28 0-.496-.06-.66-.165a1 1 0 0 1-.386-.497c-.19-.477-.209-1.233-.013-2.305zm21.257-2.584h.238v-.238h-.238zm0 1.87v.237h.238v-.237zm-5.576 0v-.238h-.237v.238zm.136 4.59-.206.117.004.007zm1.377.102.072.226.01-.003zm.68-.34.132.197.007-.005zm.544-1.394-.168.168zm-1.07-.085-.235.036.038.249.246-.053zm-.273-1.734-.063-.23-.204.057.033.21zm.68-.12-.02-.236h-.001zm2.601 3.486-.204-.122zm-1.122 1.19-.134-.197zm-1.53.73.067.229.003-.001zm-2.805.069-.08.223.003.001zm-.765-.442-.168.168.005.005zm-.357-.425-.2.128.007.01zm-.255-.663-.233.046.002.009zm-.085-4.964h.238v-.238h-.238zm-1.428 0h-.237v.237H62zm0-1.87v-.238h-.237v.238zM64.244.374l.073-.227zm.714.425-.168.168.005.004zm.527.9.226-.073zm.187 2.806v.237h.238v-.237zm-2.244 0h-.237v.237h.237zm-.068-1.802.232-.055zm-.272-.425-.142.19.01.007zM62 2.176l-.046-.233h-.004zm-.493.153-.22.087.087.222.221-.089zM60.861.697l-.08-.224-.23.083.09.228zm1.19-.34.045.233.008-.002zm9.197 4.08h-.237v1.87h.475v-1.87zm0 1.87v-.238h-5.576v.475h5.576zm-5.576 0h-.237v3.876h.475V6.307zm0 3.876h-.237c0 .332.046.62.167.832l.206-.118.207-.118c-.06-.105-.105-.294-.105-.596zm.136.714-.202.124c.16.26.482.334.814.334v-.475c-.302 0-.388-.074-.41-.108zm.612.22v.238q.428 0 .837-.13l-.072-.226-.072-.227a2.3 2.3 0 0 1-.693.108zm.765-.118.081.223q.4-.145.731-.366l-.132-.197-.131-.198a3 3 0 0 1-.63.314zm.68-.34.14.192q.338-.244.553-.573l-.2-.13-.2-.128q-.159.248-.432.446zm.493-.51.2.129c.146-.226.225-.47.225-.724h-.475a.85.85 0 0 1-.15.466zm.187-.595h.238a.64.64 0 0 0-.206-.457l-.168.168-.168.168c.058.058.067.097.067.12zm-.136-.29.168-.167c-.163-.164-.427-.206-.695-.206v.475c.254 0 .341.049.36.067zm-.527-.135V8.89q-.325 0-.594.056l.05.233.05.232q.208-.045.494-.046zm-.544.05.235-.036-.272-1.734-.235.037-.234.036.272 1.734zm-.272-1.733.064.229q.282-.08.638-.112l-.022-.236-.021-.237a4 4 0 0 0-.722.127zm.68-.12.02.237q.381-.033.78-.033v-.475q-.42 0-.82.035zm.8-.033v.237c.632 0 1.116.145 1.472.412l.142-.19.143-.19c-.46-.346-1.054-.507-1.758-.507zm1.614.459-.142.19c.332.249.517.644.517 1.238h.475c0-.7-.224-1.256-.707-1.618zm.612 1.428h-.237q-.002.858-.392 1.51l.204.122.204.121q.46-.776.459-1.753zm-.425 1.632-.204-.122a3.5 3.5 0 0 1-1.052 1.115l.134.197.134.196q.74-.506 1.192-1.265zm-1.122 1.19-.134-.197a5.4 5.4 0 0 1-1.465.7l.07.228.069.227a5.8 5.8 0 0 0 1.594-.762zm-1.53.73-.066-.227a5.5 5.5 0 0 1-1.532.228v.475q.819 0 1.665-.247zm-1.598.239v-.238q-.686-.002-1.13-.157l-.077.225-.077.224c.36.125.791.183 1.284.183zm-1.207-.17.08-.224a1.9 1.9 0 0 1-.682-.391l-.163.173-.163.173c.222.209.508.37.848.492zm-.765-.442.168-.168a3 3 0 0 1-.331-.396l-.194.139-.193.138q.18.252.382.455zm-.357-.425.2-.129c-.082-.127-.159-.32-.224-.59l-.23.056-.232.055c.072.297.164.546.286.736zm-.255-.663.233-.047q-.079-.39-.08-1.092h-.475q-.002.726.09 1.185zm-.085-1.14h.238V6.308h-.475v3.825zm0-3.824v-.238H62v.475h1.428zm-1.428 0h.238v-1.87h-.475v1.87zm0-1.87v.237h9.248V4.2H62zm1.258-4.2v.238q.533.001.914.125l.072-.226.073-.227A3.5 3.5 0 0 0 63.258 0zm.986.137L64.172.6q.374.12.618.367l.168-.168.168-.168a2 2 0 0 0-.81-.484zm.714.425-.163.172c.19.181.348.443.464.802l.226-.073.226-.074c-.133-.412-.326-.75-.59-1zm.527.9-.226.074c.114.35.176.865.176 1.559h.475c0-.713-.063-1.285-.199-1.706zm.187 1.633h-.237v1.173h.475V3.332zm0 1.173v-.238h-2.244v.475h2.244zm-2.244 0h.238V3.417h-.475v1.088zm0-1.088h.238q0-.444-.074-.769l-.232.055-.231.054q.061.252.062.66zm-.068-.714.232-.055a.9.9 0 0 0-.372-.568l-.132.198-.132.197c.076.05.138.135.173.282zm-.272-.425.143-.19c-.195-.147-.46-.201-.755-.201v.475c.25 0 .393.048.47.106zm-.612-.153v-.238q-.248.001-.522.056l.046.233.047.233q.235-.047.43-.047zm-.476.05-.05-.232q-.26.056-.531.165l.088.22.089.221q.238-.095.454-.141zm-.493.154.221-.088L61.082.61l-.22.088-.222.087.646 1.632zM60.861.697l.08.223a8 8 0 0 1 1.155-.33l-.045-.233-.045-.234q-.55.107-1.225.35zm1.19-.34.053.231q.494-.112 1.154-.113V0q-.7-.001-1.26.125z" mask="url(#d)"/></g><defs><linearGradient id="b" x1="37.382" x2="37.382" y1="-13.569" y2="31.599" gradientUnits="userSpaceOnUse"><stop offset=".333" stop-color="#fff4cd"/><stop offset=".4" stop-color="#ffe68e"/><stop offset=".477" stop-color="#ffa34e"/><stop offset=".557" stop-color="#fff387"/><stop offset=".726" stop-color="#ffa841"/></linearGradient><linearGradient id="c" x1="37.177" x2="37.177" y1="-2.029" y2="18.971" gradientUnits="userSpaceOnUse"><stop offset=".214" stop-color="#fffdeb"/><stop offset=".505" stop-color="#fff389"/><stop offset=".849" stop-color="#ffe922"/></linearGradient><filter id="a" width="73.553" height="17.598" x="0" y="0" color-interpolation-filters="sRGB" filterUnits="userSpaceOnUse"><feFlood flood-opacity="0" result="BackgroundImageFix"/><feColorMatrix in="SourceAlpha" result="hardAlpha" values="0 0 0 0 0 0 0 0 0 0 0 0 0 0 0 0 0 0 127 0"/><feOffset dy="2.067"/><feGaussianBlur stdDeviation="1.034"/><feComposite in2="hardAlpha" operator="out"/><feColorMatrix values="0 0 0 0 0 0 0 0 0 0 0 0 0 0 0 0 0 0 0.2 0"/><feBlend in2="BackgroundImageFix" result="effect1_dropShadow_121_40094"/><feBlend in="SourceGraphic" in2="effect1_dropShadow_121_40094" result="shape"/></filter></defs></svg>