<svg xmlns="http://www.w3.org/2000/svg" width="81" height="18" fill="none" viewBox="0 0 81 18"><g filter="url(#a)"><mask id="d" width="77" height="14" x="2.016" y="-.607" fill="#000" maskUnits="userSpaceOnUse"><path fill="#fff" d="M2.016-.607h77v14h-77z"/><path d="M2.323 1.649 5.757.493h2.618l-2.091 11.9H3.24l1.513-8.568-2.16.527zM17.844.493l-.51 2.907H13.17l-.323 1.275h.731q1.717 0 2.737 1.105 1.038 1.088.697 3.043-.339 1.869-1.683 2.856-1.343.969-3.162.969-3.23 0-4.13-2.686L10.84 8.5q.375 1.19 1.65 1.19.61 0 1.02-.29.407-.288.492-.798t-.204-.816q-.271-.306-.867-.306H9.106L10.823.493zm10.08 6.12q-.51 2.82-2.022 4.437-1.497 1.598-3.842 1.598-2.329 0-3.383-1.768-1.038-1.785-.561-4.607.476-2.789 2.006-4.42Q21.652.238 23.98.238t3.383 1.785q1.054 1.767.56 4.59M22.452 9.69q1.852 0 2.448-3.247.56-3.247-1.31-3.247-1.869 0-2.43 3.247-.595 3.247 1.292 3.247m20.033-3.077q-.51 2.82-2.023 4.437-1.496 1.598-3.842 1.598-2.328 0-3.383-1.768-1.037-1.785-.56-4.607.475-2.789 2.005-4.42 1.53-1.615 3.86-1.615 2.328 0 3.382 1.785 1.054 1.767.561 4.59M37.01 9.69q1.854 0 2.448-3.247.561-3.247-1.309-3.247t-2.43 3.247Q35.122 9.69 37.01 9.69m16.182-3.077q-.51 2.82-2.023 4.437-1.496 1.598-3.842 1.598-2.328 0-3.383-1.768-1.037-1.785-.56-4.607.475-2.789 2.005-4.42Q46.92.238 49.25.238q2.328 0 3.382 1.785 1.054 1.767.561 4.59M47.718 9.69q1.854 0 2.448-3.247.561-3.247-1.309-3.247t-2.43 3.247q-.597 3.247 1.29 3.247M63.9 6.613q-.51 2.82-2.023 4.437-1.496 1.598-3.842 1.598-2.328 0-3.383-1.768-1.037-1.785-.56-4.607.475-2.789 2.005-4.42 1.53-1.615 3.86-1.615 2.328 0 3.382 1.785 1.054 1.767.561 4.59M58.426 9.69q1.854 0 2.448-3.247.561-3.247-1.309-3.247t-2.43 3.247q-.596 3.247 1.291 3.247m11.704 2.703 1.41-6.613h-2.957l.459-2.176h8.347l-.46 2.176h-2.855l-1.411 6.613zm-.833-9.962.459-2.176h8.347l-.46 2.176z"/></mask><path fill="url(#b)" d="M2.323 1.649 5.757.493h2.618l-2.091 11.9H3.24l1.513-8.568-2.16.527zM17.844.493l-.51 2.907H13.17l-.323 1.275h.731q1.717 0 2.737 1.105 1.038 1.088.697 3.043-.339 1.869-1.683 2.856-1.343.969-3.162.969-3.23 0-4.13-2.686L10.84 8.5q.375 1.19 1.65 1.19.61 0 1.02-.29.407-.288.492-.798t-.204-.816q-.271-.306-.867-.306H9.106L10.823.493zm10.08 6.12q-.51 2.82-2.022 4.437-1.497 1.598-3.842 1.598-2.329 0-3.383-1.768-1.038-1.785-.561-4.607.476-2.789 2.006-4.42Q21.652.238 23.98.238t3.383 1.785q1.054 1.767.56 4.59M22.452 9.69q1.852 0 2.448-3.247.56-3.247-1.31-3.247-1.869 0-2.43 3.247-.595 3.247 1.292 3.247m20.033-3.077q-.51 2.82-2.023 4.437-1.496 1.598-3.842 1.598-2.328 0-3.383-1.768-1.037-1.785-.56-4.607.475-2.789 2.005-4.42 1.53-1.615 3.86-1.615 2.328 0 3.382 1.785 1.054 1.767.561 4.59M37.01 9.69q1.854 0 2.448-3.247.561-3.247-1.309-3.247t-2.43 3.247Q35.122 9.69 37.01 9.69m16.182-3.077q-.51 2.82-2.023 4.437-1.496 1.598-3.842 1.598-2.328 0-3.383-1.768-1.037-1.785-.56-4.607.475-2.789 2.005-4.42Q46.92.238 49.25.238q2.328 0 3.382 1.785 1.054 1.767.561 4.59M47.718 9.69q1.854 0 2.448-3.247.561-3.247-1.309-3.247t-2.43 3.247q-.597 3.247 1.29 3.247M63.9 6.613q-.51 2.82-2.023 4.437-1.496 1.598-3.842 1.598-2.328 0-3.383-1.768-1.037-1.785-.56-4.607.475-2.789 2.005-4.42 1.53-1.615 3.86-1.615 2.328 0 3.382 1.785 1.054 1.767.561 4.59M58.426 9.69q1.854 0 2.448-3.247.561-3.247-1.309-3.247t-2.43 3.247q-.596 3.247 1.291 3.247m11.704 2.703 1.41-6.613h-2.957l.459-2.176h8.347l-.46 2.176h-2.855l-1.411 6.613zm-.833-9.962.459-2.176h8.347l-.46 2.176z"/><path fill="url(#c)" d="m2.323 1.649-.076-.226-.18.06.02.19zM5.757.493V.255h-.04l-.036.012zm2.618 0 .234.04.049-.278h-.283zm-2.091 11.9v.237h.199l.035-.196zm-3.043 0-.234-.042-.05.28h.284zm1.513-8.568.234.04.063-.358-.354.087zm-2.16.527-.236.023.028.272.265-.065zm-.271-2.703.075.225L5.832.718 5.757.493 5.68.267 2.247 1.423zM5.757.493V.73h2.618V.255H5.757zm2.618 0L8.14.45l-2.091 11.9.234.042.234.04 2.09-11.9zm-2.091 11.9v-.238H3.24v.475h3.043zm-3.043 0 .234.04 1.513-8.567-.234-.041-.234-.042-1.513 8.568zm1.513-8.568-.057-.231-2.159.527.057.23.056.231 2.159-.527zm-2.16.527.237-.024-.272-2.703-.236.024-.237.023.272 2.703zm15.25-3.86.234.042.05-.279h-.284zm-.51 2.908v.237h.2l.034-.196zm-4.165 0v-.238h-.185l-.045.18zm-.323 1.275-.23-.059-.075.296h.305zm3.468 1.105-.174.16.002.003zm.697 3.043.234.042v-.002zm-1.683 2.856.14.192zM8.035 9.962l-.11-.211-.18.094.065.192zM10.84 8.5l.227-.072-.085-.27-.252.13zm2.67.9-.138-.193zm.492-.798.235.039zm-.204-.816-.177.157.005.006zM9.106 7.48l-.23-.057-.073.294h.303zM10.823.493V.255h-.186l-.045.18zm7.021 0L17.61.452l-.51 2.907.234.04.234.042.51-2.907zm-.51 2.907v-.238H13.17v.475h4.165zm-4.165 0-.23-.059-.323 1.275.23.059.23.058.323-1.275zm-.323 1.275v.237h.731v-.475h-.73zm.731 0v.237c1.089 0 1.934.348 2.563 1.029l.174-.161.175-.162c-.732-.792-1.711-1.181-2.912-1.181zm2.737 1.105-.172.163c.624.655.853 1.584.635 2.839l.234.04.234.041c.235-1.351 0-2.45-.759-3.247zm.697 3.043-.233-.043c-.218 1.196-.751 2.09-1.59 2.707l.14.192.14.191c.952-.698 1.541-1.708 1.777-3.005zm-1.683 2.856-.139-.193q-1.273.922-3.023.924v.475c1.258 0 2.361-.336 3.301-1.014zm-3.162.969v-.238c-1.045 0-1.878-.217-2.518-.633-.637-.414-1.102-1.038-1.388-1.891l-.225.076-.225.075c.315.938.839 1.657 1.579 2.138.737.48 1.669.71 2.777.71zm-4.13-2.686.109.21L10.95 8.71l-.11-.21-.11-.211L7.925 9.75zM10.84 8.5l-.226.07c.136.435.361.78.686 1.015s.727.342 1.19.342v-.475c-.389 0-.686-.09-.912-.253-.224-.162-.398-.412-.511-.77zm1.65 1.19v.237c.445 0 .836-.106 1.156-.333l-.137-.193-.137-.194c-.224.158-.513.245-.883.245zm1.02-.29.136.194c.326-.23.524-.553.59-.953l-.234-.04-.234-.038a.94.94 0 0 1-.396.644zm.492-.798.235.039c.065-.395-.01-.748-.266-1.019l-.173.164-.172.163c.13.137.19.328.142.614zm-.204-.816.178-.158c-.244-.274-.612-.386-1.045-.386v.475c.36 0 .57.093.69.226zm-.867-.306v-.238H9.106v.475h3.825zm-3.825 0 .23.056L11.055.55l-.23-.056-.232-.057-1.717 6.987zM10.823.493V.73h7.021V.255h-7.02zm17.102 6.12.233.042v-.002zm-2.023 4.437-.174-.163zm-7.225-.17-.206.119.002.002zm-.561-4.607-.235-.04zm2.006-4.42-.173-.164v.001zm7.242.17-.205.12v.001zm-2.465 4.42.233.042v-.002zm-3.74 0 .233.042v-.002zm6.766.17-.234-.043c-.334 1.85-.993 3.282-1.963 4.317l.174.163.173.162c1.048-1.119 1.738-2.644 2.084-4.557zm-2.023 4.437-.174-.163c-.949 1.014-2.165 1.523-3.668 1.523v.475c1.624 0 2.97-.556 4.015-1.673zm-3.842 1.598v-.238c-1.482 0-2.526-.556-3.18-1.652l-.203.122-.204.121c.752 1.261 1.963 1.884 3.587 1.884zm-3.383-1.768.205-.12c-.654-1.126-.844-2.6-.532-4.448l-.234-.04-.235-.039c-.323 1.915-.138 3.512.59 4.766zm-.561-4.607.234.04c.311-1.825.964-3.252 1.945-4.298l-.173-.162-.174-.163c-1.059 1.13-1.743 2.65-2.067 4.543zm2.006-4.42.172.163C21.267.989 22.49.476 23.981.476V0c-1.615 0-2.965.563-4.032 1.69zM23.98.238v.237c1.48 0 2.524.56 3.178 1.668l.205-.12.204-.121C26.817.629 25.605 0 23.981 0zm3.383 1.785-.204.121c.663 1.114.853 2.58.53 4.428l.235.04.234.041c.334-1.915.15-3.508-.591-4.752zM22.45 9.69v.237c.7 0 1.28-.312 1.728-.906.44-.584.752-1.437.953-2.536l-.233-.042-.234-.043c-.195 1.066-.49 1.836-.866 2.335-.368.488-.813.717-1.348.717zm2.448-3.247.234.04c.189-1.093.183-1.96-.06-2.564a1.5 1.5 0 0 0-.572-.72c-.257-.166-.565-.241-.911-.241v.475c.277 0 .49.06.654.165.163.105.294.265.388.498.192.478.218 1.235.033 2.306zm-1.31-3.247v-.238c-.705 0-1.287.312-1.732.907-.438.584-.743 1.438-.932 2.537l.234.04.234.041c.184-1.066.471-1.835.844-2.333.365-.487.811-.717 1.353-.717zm-2.43 3.247-.234-.043c-.2 1.093-.203 1.96.038 2.566.123.309.312.554.571.72s.568.241.917.241v-.475c-.28 0-.496-.06-.66-.165a1 1 0 0 1-.386-.497c-.19-.477-.209-1.233-.013-2.305zm21.325.17.234.042v-.002zM40.46 11.05l-.173-.163zm-7.225-.17-.205.119.001.002zm-.56-4.607-.235-.04zm2.005-4.42-.172-.164-.001.001zm7.242.17-.204.12v.001zm-2.465 4.42.234.042v-.002zm-3.74 0 .234.042v-.002zm6.766.17-.233-.043c-.335 1.85-.994 3.282-1.963 4.317l.173.163.174.162c1.048-1.119 1.737-2.644 2.083-4.557zM40.46 11.05l-.173-.163c-.95 1.014-2.165 1.523-3.669 1.523v.475c1.625 0 2.97-.556 4.016-1.673zm-3.842 1.598v-.238c-1.482 0-2.525-.556-3.179-1.652l-.204.122-.204.121c.752 1.261 1.964 1.884 3.587 1.884zm-3.383-1.768.206-.12c-.655-1.126-.844-2.6-.532-4.448l-.235-.04-.234-.039c-.323 1.915-.139 3.512.59 4.766zm-.56-4.607.233.04c.312-1.825.965-3.252 1.946-4.298l-.174-.162-.173-.163c-1.06 1.13-1.744 2.65-2.067 4.543zm2.005-4.42.173.163C35.827.989 37.049.476 38.54.476V0c-1.614 0-2.964.563-4.031 1.69zM38.54.238v.237c1.48 0 2.524.56 3.178 1.668l.204-.12.205-.121C41.376.629 40.164 0 38.54 0zm3.382 1.785-.204.121c.664 1.114.854 2.58.531 4.428l.234.04.234.041c.335-1.915.15-3.508-.59-4.752zM37.01 9.69v.237c.7 0 1.28-.312 1.729-.906.44-.584.752-1.437.953-2.536l-.234-.042-.233-.043c-.196 1.066-.49 1.836-.866 2.335-.368.488-.814.717-1.349.717zm2.448-3.247.234.04c.19-1.093.184-1.96-.06-2.564a1.5 1.5 0 0 0-.571-.72c-.257-.166-.566-.241-.912-.241v.475c.277 0 .491.06.655.165.162.105.293.265.387.498.193.478.218 1.235.033 2.306zM38.15 3.196v-.238c-.705 0-1.287.312-1.733.907-.437.584-.742 1.438-.932 2.537l.234.04.234.041c.184-1.066.472-1.835.845-2.333.364-.487.81-.717 1.352-.717zm-2.43 3.247-.234-.043c-.2 1.093-.203 1.96.038 2.566.123.309.311.554.57.72s.569.241.917.241v-.475c-.28 0-.496-.06-.66-.165a1 1 0 0 1-.386-.497c-.19-.477-.208-1.233-.012-2.305zm17.473.17.234.042v-.002zM51.17 11.05l-.173-.163zm-7.225-.17-.205.119.001.002zm-.56-4.607-.235-.04zm2.005-4.42-.172-.164-.001.001zm7.242.17-.204.12v.001zm-2.465 4.42.234.042v-.002zm-3.74 0 .234.042v-.002zm6.766.17-.233-.043c-.335 1.85-.994 3.282-1.963 4.317l.173.163.174.162c1.048-1.119 1.737-2.644 2.083-4.557zM51.17 11.05l-.173-.163c-.95 1.014-2.165 1.523-3.669 1.523v.475c1.625 0 2.97-.556 4.016-1.673zm-3.842 1.598v-.238c-1.482 0-2.525-.556-3.179-1.652l-.204.122-.204.121c.752 1.261 1.964 1.884 3.587 1.884zm-3.383-1.768.206-.12c-.655-1.126-.844-2.6-.532-4.448l-.235-.04-.234-.039c-.323 1.915-.139 3.512.59 4.766zm-.56-4.607.233.04c.312-1.825.965-3.252 1.946-4.298l-.174-.162-.173-.163c-1.06 1.13-1.744 2.65-2.067 4.543zm2.005-4.42.173.163c.973-1.027 2.195-1.54 3.686-1.54V0c-1.614 0-2.964.563-4.031 1.69zM49.25.238v.237c1.48 0 2.524.56 3.178 1.668l.204-.12.205-.121C52.085.629 50.873 0 49.248 0zm3.382 1.785-.204.121c.664 1.114.854 2.58.531 4.428l.234.04.234.041c.335-1.915.15-3.508-.59-4.752zM47.718 9.69v.237c.7 0 1.28-.312 1.728-.906.44-.584.753-1.437.954-2.536l-.234-.042-.233-.043c-.196 1.066-.49 1.836-.866 2.335-.368.488-.814.717-1.349.717zm2.448-3.247.234.04c.19-1.093.184-1.96-.06-2.564a1.5 1.5 0 0 0-.571-.72c-.257-.166-.566-.241-.912-.241v.475c.278 0 .491.06.655.165.162.105.293.265.387.498.193.478.218 1.235.033 2.306zm-1.309-3.247v-.238c-.705 0-1.287.312-1.733.907-.437.584-.742 1.438-.932 2.537l.234.04.234.041c.184-1.066.472-1.835.845-2.333.364-.487.81-.717 1.352-.717zm-2.43 3.247-.234-.043c-.2 1.093-.203 1.96.038 2.566.123.309.311.554.57.72s.569.241.917.241v-.475c-.28 0-.496-.06-.66-.165a1 1 0 0 1-.386-.497c-.19-.477-.208-1.233-.012-2.305zm17.473.17.234.042v-.002zm-2.023 4.437-.173-.163zm-7.225-.17-.205.119.001.002zm-.56-4.607-.235-.04zm2.005-4.42-.172-.164-.001.001zm7.242.17-.204.12v.001zm-2.465 4.42.234.042v-.002zm-3.74 0 .234.042v-.002zm6.766.17-.233-.043c-.335 1.85-.994 3.282-1.963 4.317l.173.163.174.162c1.048-1.119 1.737-2.644 2.083-4.557zm-2.023 4.437-.173-.163c-.95 1.014-2.165 1.523-3.669 1.523v.475c1.625 0 2.97-.556 4.016-1.673zm-3.842 1.598v-.238c-1.482 0-2.525-.556-3.179-1.652l-.204.122-.204.121c.752 1.261 1.964 1.884 3.587 1.884zm-3.383-1.768.206-.12c-.655-1.126-.844-2.6-.532-4.448l-.235-.04-.234-.039c-.323 1.915-.138 3.512.59 4.766zm-.56-4.607.233.04c.312-1.825.965-3.252 1.946-4.298l-.174-.162-.173-.163c-1.06 1.13-1.744 2.65-2.067 4.543zm2.005-4.42.173.163c.973-1.027 2.195-1.54 3.686-1.54V0c-1.614 0-2.964.563-4.031 1.69zm3.86-1.615v.237c1.48 0 2.524.56 3.178 1.668l.204-.12.205-.121C62.793.629 61.58 0 59.956 0zm3.382 1.785-.204.121c.664 1.114.854 2.58.531 4.428l.234.04.234.041c.335-1.915.15-3.508-.59-4.752zM58.426 9.69v.237c.7 0 1.28-.312 1.728-.906.44-.584.753-1.437.954-2.536l-.234-.042-.233-.043c-.196 1.066-.49 1.836-.866 2.335-.368.488-.814.717-1.349.717zm2.448-3.247.234.04c.19-1.093.184-1.96-.06-2.564a1.5 1.5 0 0 0-.571-.72c-.257-.166-.566-.241-.912-.241v.475c.278 0 .491.06.655.165.162.105.293.265.387.498.193.478.218 1.235.033 2.306zm-1.309-3.247v-.238c-.705 0-1.287.312-1.733.907-.437.584-.742 1.438-.932 2.537l.234.04.234.041c.184-1.066.472-1.835.845-2.333.364-.487.81-.717 1.352-.717zm-2.43 3.247L56.9 6.4c-.2 1.093-.203 1.96.038 2.566.123.309.311.554.57.72s.569.241.917.241v-.475c-.28 0-.496-.06-.66-.165a1 1 0 0 1-.386-.497c-.19-.477-.208-1.233-.012-2.305zm12.995 5.95-.233-.05-.06.287h.293zm1.41-6.613.233.05.062-.288h-.294zm-2.957 0-.233-.05-.06.287h.293zm.459-2.176v-.238h-.193l-.04.189zm8.347 0 .232.049.06-.287h-.292zm-.46 2.176v.237h.194l.04-.188zm-2.855 0v-.238h-.192l-.04.188zm-1.411 6.613v.237h.192l.04-.188zM69.297 2.43l-.233-.05-.06.287h.293zm.459-2.176V.017h-.193l-.04.189zm8.347 0 .232.049.06-.287h-.292zm-.46 2.176v.237h.194l.04-.188zm-7.513 9.962.232.05 1.411-6.614-.232-.05-.233-.049-1.41 6.613zm1.41-6.613v-.238h-2.957v.475h2.958zm-2.957 0 .232.049.46-2.176-.233-.05-.233-.048-.459 2.176zm.459-2.176v.237h8.347v-.475h-8.347zm8.347 0-.233-.05-.459 2.177.233.049.232.049.46-2.176zm-.46 2.176v-.238h-2.855v.475h2.856zm-2.855 0-.233-.05-1.41 6.613.232.05.232.05 1.411-6.614zm-1.411 6.613v-.238H70.13v.475h2.533zM69.297 2.43l.232.049.46-2.176-.233-.05-.233-.048-.459 2.176zm.459-2.176v.237h8.347V.017h-8.347zm8.347 0-.233-.05-.459 2.177.233.049.232.049.46-2.176zm-.46 2.176v-.238h-8.346v.475h8.347z" mask="url(#d)"/></g><defs><linearGradient id="b" x1="39.239" x2="39.239" y1="-14.147" y2="31.021" gradientUnits="userSpaceOnUse"><stop offset=".333" stop-color="#fff4cd"/><stop offset=".4" stop-color="#ffe68e"/><stop offset=".477" stop-color="#ffa34e"/><stop offset=".557" stop-color="#fff387"/><stop offset=".726" stop-color="#ffa841"/></linearGradient><linearGradient id="c" x1="39.016" x2="39.016" y1="-2.607" y2="18.393" gradientUnits="userSpaceOnUse"><stop offset=".214" stop-color="#fffdeb"/><stop offset=".505" stop-color="#fff389"/><stop offset=".849" stop-color="#ffe922"/></linearGradient><filter id="a" width="80.463" height="17.02" x="0" y="0" color-interpolation-filters="sRGB" filterUnits="userSpaceOnUse"><feFlood flood-opacity="0" result="BackgroundImageFix"/><feColorMatrix in="SourceAlpha" result="hardAlpha" values="0 0 0 0 0 0 0 0 0 0 0 0 0 0 0 0 0 0 127 0"/><feOffset dy="2.067"/><feGaussianBlur stdDeviation="1.034"/><feComposite in2="hardAlpha" operator="out"/><feColorMatrix values="0 0 0 0 0 0 0 0 0 0 0 0 0 0 0 0 0 0 0.2 0"/><feBlend in2="BackgroundImageFix" result="effect1_dropShadow_128_40172"/><feBlend in="SourceGraphic" in2="effect1_dropShadow_128_40172" result="shape"/></filter></defs></svg>