<svg xmlns="http://www.w3.org/2000/svg" width="76" height="19" fill="none" viewBox="0 0 76 19"><g filter="url(#a)"><mask id="d" width="73" height="15" x="1.322" y="-.607" fill="#000" maskUnits="userSpaceOnUse"><path fill="#fff" d="M1.322-.607h73v15h-73z"/><path d="M4.393.493h7.735l-.425 2.397-2.397 2.533q1.054.424 1.58 1.343.528.9.324 2.09-.34 1.904-1.683 2.84-1.343.952-3.18.952-1.512 0-2.55-.68-1.035-.68-1.444-2.006L5.14 8.517Q5.498 9.69 6.67 9.69q1.326 0 1.53-1.122.084-.51-.221-.8-.29-.305-.918-.305h-.63l-.866-1.734 2.21-2.33H3.883zm17.932 6.12q-.51 2.82-2.023 4.437-1.496 1.598-3.842 1.598-2.329 0-3.383-1.768-1.037-1.785-.56-4.607.475-2.789 2.005-4.42 1.53-1.615 3.86-1.615t3.382 1.785q1.054 1.767.561 4.59M16.851 9.69q1.852 0 2.448-3.247.561-3.247-1.309-3.247t-2.43 3.247q-.598 3.247 1.29 3.247m20.034-3.077q-.51 2.82-2.023 4.437-1.496 1.598-3.842 1.598-2.329 0-3.383-1.768-1.038-1.785-.561-4.607.476-2.789 2.006-4.42Q30.612.238 32.94.238t3.383 1.785q1.054 1.767.56 4.59M31.41 9.69q1.852 0 2.448-3.247.56-3.247-1.31-3.247-1.869 0-2.43 3.247-.595 3.247 1.292 3.247m16.182-3.077q-.51 2.82-2.023 4.437-1.496 1.598-3.842 1.598-2.329 0-3.383-1.768-1.038-1.785-.561-4.607.476-2.789 2.006-4.42Q41.32.238 43.649.238t3.383 1.785q1.054 1.767.56 4.59M42.119 9.69q1.853 0 2.448-3.247.56-3.247-1.31-3.247-1.869 0-2.43 3.247-.595 3.247 1.292 3.247M58.3 6.613q-.51 2.82-2.023 4.437-1.496 1.598-3.842 1.598-2.329 0-3.383-1.768-1.038-1.785-.561-4.607.476-2.789 2.006-4.42Q52.028.238 54.357.238t3.383 1.785q1.054 1.767.56 4.59M52.827 9.69q1.853 0 2.448-3.247.56-3.247-1.31-3.247-1.869 0-2.43 3.247-.595 3.247 1.292 3.247m10.105 4.25v-1.496h10.472v1.496zm1.615-11.866C65.618.986 66.927.459 68.44.459c1.122 0 2.142.306 2.992.918a5.8 5.8 0 0 1 2.006 2.414l-1.564.442a3.94 3.94 0 0 0-1.377-1.65c-.578-.407-1.275-.628-2.057-.628h-.034a3.7 3.7 0 0 0-2.737 1.173q-1.122 1.199-1.122 2.907 0 1.658 1.122 2.856c.731.782 1.666 1.173 2.771 1.173.782 0 1.48-.187 2.057-.595.612-.442 1.071-.97 1.343-1.65l1.564.426a5.9 5.9 0 0 1-1.972 2.448c-.85.578-1.853.884-2.992.884-1.513 0-2.822-.527-3.893-1.615s-1.615-2.397-1.615-3.927c0-1.547.544-2.856 1.615-3.961"/></mask><path fill="url(#b)" d="M4.393.493h7.735l-.425 2.397-2.397 2.533q1.054.424 1.58 1.343.528.9.324 2.09-.34 1.904-1.683 2.84-1.343.952-3.18.952-1.512 0-2.55-.68-1.035-.68-1.444-2.006L5.14 8.517Q5.498 9.69 6.67 9.69q1.326 0 1.53-1.122.084-.51-.221-.8-.29-.305-.918-.305h-.63l-.866-1.734 2.21-2.33H3.883zm17.932 6.12q-.51 2.82-2.023 4.437-1.496 1.598-3.842 1.598-2.329 0-3.383-1.768-1.037-1.785-.56-4.607.475-2.789 2.005-4.42 1.53-1.615 3.86-1.615t3.382 1.785q1.054 1.767.561 4.59M16.851 9.69q1.852 0 2.448-3.247.561-3.247-1.309-3.247t-2.43 3.247q-.598 3.247 1.29 3.247m20.034-3.077q-.51 2.82-2.023 4.437-1.496 1.598-3.842 1.598-2.329 0-3.383-1.768-1.038-1.785-.561-4.607.476-2.789 2.006-4.42Q30.612.238 32.94.238t3.383 1.785q1.054 1.767.56 4.59M31.41 9.69q1.852 0 2.448-3.247.56-3.247-1.31-3.247-1.869 0-2.43 3.247-.595 3.247 1.292 3.247m16.182-3.077q-.51 2.82-2.023 4.437-1.496 1.598-3.842 1.598-2.329 0-3.383-1.768-1.038-1.785-.561-4.607.476-2.789 2.006-4.42Q41.32.238 43.649.238t3.383 1.785q1.054 1.767.56 4.59M42.119 9.69q1.853 0 2.448-3.247.56-3.247-1.31-3.247-1.869 0-2.43 3.247-.595 3.247 1.292 3.247M58.3 6.613q-.51 2.82-2.023 4.437-1.496 1.598-3.842 1.598-2.329 0-3.383-1.768-1.038-1.785-.561-4.607.476-2.789 2.006-4.42Q52.028.238 54.357.238t3.383 1.785q1.054 1.767.56 4.59M52.827 9.69q1.853 0 2.448-3.247.56-3.247-1.31-3.247-1.869 0-2.43 3.247-.595 3.247 1.292 3.247m10.105 4.25v-1.496h10.472v1.496zm1.615-11.866C65.618.986 66.927.459 68.44.459c1.122 0 2.142.306 2.992.918a5.8 5.8 0 0 1 2.006 2.414l-1.564.442a3.94 3.94 0 0 0-1.377-1.65c-.578-.407-1.275-.628-2.057-.628h-.034a3.7 3.7 0 0 0-2.737 1.173q-1.122 1.199-1.122 2.907 0 1.658 1.122 2.856c.731.782 1.666 1.173 2.771 1.173.782 0 1.48-.187 2.057-.595.612-.442 1.071-.97 1.343-1.65l1.564.426a5.9 5.9 0 0 1-1.972 2.448c-.85.578-1.853.884-2.992.884-1.513 0-2.822-.527-3.893-1.615s-1.615-2.397-1.615-3.927c0-1.547.544-2.856 1.615-3.961"/><path fill="url(#c)" d="M4.393.493V.255h-.2L4.16.452zm7.735 0 .233.041.05-.279h-.283zm-.425 2.397.172.163.05-.052.011-.07zM9.306 5.423l-.173-.164-.24.254.324.13zm1.58 1.343-.205.118v.002zm.324 2.09.233.042v-.001zm-1.683 2.84L9.39 11.5h-.002zm-5.73.272-.13.198zM2.354 9.962l-.11-.211-.176.09.059.19zM5.14 8.517l.227-.07-.083-.273-.254.132zm3.06.05.233.043v-.003zm-.22-.797-.173.163.01.01zm-1.547-.306-.213.106.066.131h.147zM5.566 5.73l-.173-.164-.114.12.074.15zm2.21-2.33.172.164.38-.401h-.552zm-3.893 0-.234-.04-.05.278h.284zm.51-2.906V.73h7.735V.255H4.393zm7.735 0L11.894.45l-.425 2.397.234.042.234.041.425-2.397zm-.425 2.397-.173-.164L9.133 5.26l.173.164.172.163 2.397-2.533zM9.306 5.423l-.09.22c.658.265 1.142.679 1.465 1.24l.206-.117.206-.119c-.38-.661-.95-1.143-1.699-1.445zm1.58 1.343-.204.12c.318.544.422 1.183.293 1.93l.235.04.234.04c.144-.839.032-1.594-.352-2.25zm.324 2.09-.234-.041c-.218 1.22-.75 2.105-1.585 2.686l.136.195.135.195c.957-.666 1.546-1.673 1.781-2.993zm-1.683 2.84-.138-.194c-.85.603-1.86.908-3.041.908v.475c1.267 0 2.376-.33 3.316-.996zm-3.18.952v-.238c-.972 0-1.774-.218-2.42-.641l-.13.199-.13.198c.738.484 1.636.72 2.68.72zm-2.55-.68.13-.2c-.639-.418-1.09-1.039-1.347-1.876l-.227.07-.227.07c.286.93.798 1.647 1.541 2.134zM2.354 9.962l.109.21L5.25 8.729l-.11-.211-.109-.211L2.243 9.75zM5.14 8.517l-.228.069c.13.425.34.766.644.999.305.234.682.342 1.114.342v-.475c-.35 0-.62-.087-.825-.244-.206-.158-.37-.404-.478-.76zM6.67 9.69v.237c.473 0 .876-.1 1.186-.326.313-.23.5-.57.577-.99L8.2 8.568l-.234-.043c-.06.327-.195.548-.391.692-.201.148-.494.235-.905.235zM8.2 8.568l.234.039c.066-.398-.017-.751-.292-1.011l-.163.173-.164.172c.133.126.197.305.15.588zm-.221-.8.172-.163c-.255-.27-.638-.38-1.09-.38V7.7c.386 0 .615.094.745.232zm-.918-.305v-.238h-.63V7.7h.63zm-.63 0 .213-.107-.867-1.734-.212.107-.213.106.867 1.734zm-.866-1.734.172.163 2.21-2.329-.172-.163-.173-.164-2.21 2.329zm2.21-2.33v-.237H3.883v.475h3.893zm-3.893 0 .234.042.51-2.907-.234-.041-.234-.041-.51 2.907zm18.442 3.214.234.042v-.002zm-2.023 4.437-.173-.163zm-7.225-.17-.205.119.001.002zm-.56-4.607-.235-.04zm2.005-4.42-.172-.164-.001.001zm7.242.17-.204.12v.001zM19.3 6.443l.234.042v-.002zm-3.74 0 .234.042v-.002zm6.766.17-.234-.043c-.334 1.85-.993 3.282-1.962 4.317l.173.163.173.162c1.048-1.119 1.738-2.644 2.084-4.557zm-2.023 4.437-.173-.163c-.95 1.014-2.165 1.523-3.669 1.523v.475c1.624 0 2.97-.556 4.015-1.673zm-3.842 1.598v-.238c-1.482 0-2.525-.556-3.179-1.652l-.204.122-.204.121c.752 1.261 1.964 1.884 3.587 1.884zm-3.383-1.768.206-.12c-.655-1.126-.844-2.6-.533-4.448l-.234-.04-.234-.039c-.323 1.915-.139 3.512.59 4.766zm-.56-4.607.233.04c.312-1.825.965-3.252 1.945-4.298l-.173-.162-.173-.163c-1.06 1.13-1.744 2.65-2.067 4.543zm2.005-4.42.172.163C15.668.989 16.89.476 18.382.476V0c-1.614 0-2.964.563-4.031 1.69zm3.86-1.615v.237c1.48 0 2.523.56 3.177 1.668l.205-.12.205-.121C21.217.629 20.005 0 18.38 0zm3.382 1.785-.204.121c.664 1.114.854 2.58.531 4.428l.234.04.234.041c.335-1.915.15-3.508-.59-4.752zM16.851 9.69v.237c.7 0 1.28-.312 1.728-.906.44-.584.752-1.437.954-2.536l-.234-.042-.234-.043c-.195 1.066-.49 1.836-.865 2.335-.368.488-.814.717-1.349.717zM19.3 6.443l.234.04c.19-1.093.183-1.96-.06-2.564a1.5 1.5 0 0 0-.571-.72c-.258-.166-.566-.241-.912-.241v.475c.277 0 .491.06.655.165.162.105.293.265.387.498.193.478.218 1.235.033 2.306zm-1.31-3.247v-.238c-.705 0-1.287.312-1.733.907-.437.584-.742 1.438-.932 2.537l.234.04.234.041c.184-1.066.472-1.835.845-2.333.364-.487.81-.717 1.352-.717zm-2.43 3.247-.235-.043c-.2 1.093-.202 1.96.039 2.566.123.309.311.554.57.72s.569.241.917.241v-.475c-.28 0-.496-.06-.66-.165a1 1 0 0 1-.386-.497c-.19-.477-.209-1.233-.012-2.305zm21.325.17.233.042v-.002zm-2.023 4.437-.174-.163zm-7.225-.17-.206.119.002.002zm-.561-4.607-.235-.04zm2.006-4.42-.173-.164v.001zm7.242.17-.205.12v.001zm-2.465 4.42.233.042v-.002zm-3.74 0 .233.042v-.002zm6.766.17-.234-.043c-.334 1.85-.993 3.282-1.963 4.317l.174.163.173.162c1.048-1.119 1.738-2.644 2.083-4.557zm-2.023 4.437-.174-.163c-.949 1.014-2.165 1.523-3.668 1.523v.475c1.624 0 2.97-.556 4.015-1.673zm-3.842 1.598v-.238c-1.482 0-2.526-.556-3.18-1.652l-.203.122-.204.121c.751 1.261 1.963 1.884 3.587 1.884zm-3.383-1.768.205-.12c-.654-1.126-.844-2.6-.532-4.448l-.234-.04-.235-.039c-.323 1.915-.138 3.512.59 4.766zm-.561-4.607.234.04c.311-1.825.964-3.252 1.945-4.298l-.173-.162-.174-.163c-1.059 1.13-1.743 2.65-2.067 4.543zm2.006-4.42.172.163C30.227.989 31.45.476 32.941.476V0c-1.615 0-2.965.563-4.032 1.69zM32.94.238v.237c1.48 0 2.524.56 3.178 1.668l.205-.12.204-.121C35.777.629 34.565 0 32.941 0zm3.383 1.785-.204.121c.663 1.114.853 2.58.53 4.428l.235.04.234.041c.334-1.915.15-3.508-.591-4.752zM31.41 9.69v.237c.7 0 1.28-.312 1.728-.906.44-.584.752-1.437.953-2.536l-.233-.042-.234-.043c-.195 1.066-.49 1.836-.866 2.335-.368.488-.813.717-1.348.717zm2.448-3.247.234.04c.189-1.093.183-1.96-.06-2.564a1.5 1.5 0 0 0-.572-.72c-.257-.166-.565-.241-.911-.241v.475c.277 0 .49.06.654.165.163.105.294.265.388.498.192.478.218 1.235.032 2.306zm-1.31-3.247v-.238c-.705 0-1.287.312-1.732.907-.438.584-.743 1.438-.933 2.537l.235.04.234.041c.184-1.066.471-1.835.844-2.333.365-.487.811-.717 1.353-.717zm-2.43 3.247-.234-.043c-.2 1.093-.203 1.96.038 2.566.123.309.312.554.571.72s.568.241.917.241v-.475c-.28 0-.496-.06-.66-.165a1 1 0 0 1-.386-.497c-.19-.477-.209-1.233-.013-2.305zm17.474.17.233.042v-.002zM45.57 11.05l-.174-.163zm-7.225-.17-.206.119.002.002zm-.561-4.607-.234-.04zm2.006-4.42-.173-.164v.001zm7.242.17-.205.12v.001zm-2.465 4.42.233.042v-.002zm-3.74 0 .233.042v-.002zm6.766.17-.234-.043c-.334 1.85-.993 3.282-1.963 4.317l.174.163.173.162c1.048-1.119 1.738-2.644 2.083-4.557zM45.57 11.05l-.174-.163c-.949 1.014-2.165 1.523-3.668 1.523v.475c1.624 0 2.97-.556 4.015-1.673zm-3.842 1.598v-.238c-1.483 0-2.526-.556-3.18-1.652l-.203.122-.204.121c.751 1.261 1.963 1.884 3.587 1.884zm-3.383-1.768.205-.12c-.654-1.126-.844-2.6-.532-4.448l-.234-.04-.235-.039c-.323 1.915-.138 3.512.59 4.766zm-.561-4.607.234.04c.311-1.825.964-3.252 1.945-4.298l-.173-.162-.174-.163c-1.059 1.13-1.743 2.65-2.066 4.543zm2.006-4.42.172.163C40.935.989 42.158.476 43.65.476V0c-1.615 0-2.965.563-4.032 1.69zM43.649.238v.237c1.48 0 2.524.56 3.178 1.668l.205-.12.204-.121C46.485.629 45.273 0 43.65 0zm3.383 1.785-.204.121c.663 1.114.853 2.58.53 4.428l.235.04.234.041c.334-1.915.15-3.508-.591-4.752zM42.119 9.69v.237c.7 0 1.28-.312 1.728-.906.44-.584.752-1.437.953-2.536l-.233-.042-.234-.043c-.195 1.066-.49 1.836-.866 2.335-.368.488-.813.717-1.348.717zm2.448-3.247.234.04c.189-1.093.183-1.96-.06-2.564a1.5 1.5 0 0 0-.572-.72c-.257-.166-.565-.241-.911-.241v.475c.277 0 .49.06.654.165.163.105.294.265.388.498.192.478.218 1.235.033 2.306zm-1.31-3.247v-.238c-.705 0-1.287.312-1.732.907-.438.584-.743 1.438-.932 2.537l.234.04.234.041c.184-1.066.471-1.835.844-2.333.365-.487.811-.717 1.353-.717zm-2.43 3.247-.234-.043c-.2 1.093-.203 1.96.038 2.566.123.309.312.554.571.72s.568.241.917.241v-.475c-.28 0-.496-.06-.66-.165a1 1 0 0 1-.386-.497c-.19-.477-.209-1.233-.013-2.305zm17.474.17.233.042v-.002zm-2.023 4.437-.174-.163zm-7.225-.17-.206.119.002.002zm-.561-4.607-.234-.04zm2.006-4.42-.173-.164v.001zm7.242.17-.205.12v.001zm-2.465 4.42.233.042v-.002zm-3.74 0 .233.042v-.002zm6.766.17-.234-.043c-.334 1.85-.993 3.282-1.963 4.317l.174.163.173.162c1.048-1.119 1.738-2.644 2.083-4.557zm-2.023 4.437-.174-.163c-.949 1.014-2.165 1.523-3.668 1.523v.475c1.624 0 2.97-.556 4.015-1.673zm-3.842 1.598v-.238c-1.483 0-2.526-.556-3.18-1.652l-.203.122-.204.121c.751 1.261 1.963 1.884 3.587 1.884zm-3.383-1.768.205-.12c-.654-1.126-.844-2.6-.532-4.448l-.234-.04-.235-.039c-.323 1.915-.138 3.512.59 4.766zm-.561-4.607.234.04c.311-1.825.964-3.252 1.945-4.298l-.173-.162-.174-.163c-1.059 1.13-1.743 2.65-2.066 4.543zm2.006-4.42.172.163c.973-1.027 2.196-1.54 3.687-1.54V0c-1.615 0-2.965.563-4.032 1.69zM54.357.238v.237c1.48 0 2.524.56 3.178 1.668l.205-.12.204-.121C57.193.629 55.981 0 54.357 0zm3.383 1.785-.204.121c.663 1.114.853 2.58.53 4.428l.235.04.234.041c.334-1.915.15-3.508-.591-4.752zM52.827 9.69v.237c.7 0 1.28-.312 1.728-.906.44-.584.752-1.437.953-2.536l-.233-.042-.234-.043c-.195 1.066-.49 1.836-.866 2.335-.368.488-.813.717-1.348.717zm2.448-3.247.234.04c.189-1.093.183-1.96-.06-2.564a1.5 1.5 0 0 0-.572-.72c-.257-.166-.565-.241-.911-.241v.475c.277 0 .49.06.654.165.163.105.294.265.388.498.192.478.218 1.235.032 2.306zm-1.31-3.247v-.238c-.705 0-1.287.312-1.732.907-.438.584-.743 1.438-.932 2.537l.234.04.234.041c.184-1.066.471-1.835.844-2.333.365-.487.811-.717 1.353-.717zm-2.43 3.247L51.3 6.4c-.2 1.093-.203 1.96.038 2.566.123.309.312.554.571.72s.568.241.917.241v-.475c-.28 0-.496-.06-.66-.165a1 1 0 0 1-.386-.497c-.19-.477-.209-1.233-.013-2.305zm11.397 7.497h-.237v.237h.237zm0-1.496v-.238h-.237v.238zm10.472 0h.238v-.238h-.238zm0 1.496v.237h.238v-.237zM64.547 2.074l-.17-.167v.001zm6.885-.697-.139.192.004.003zm2.006 2.414.065.228.264-.075-.112-.25zm-1.564.442-.216.097.084.187.197-.056zm-1.377-1.65-.137.195h.002zm-4.828.545-.172-.165-.001.002zm0 5.763.174-.163zm4.828.578.137.194.002-.002zm1.343-1.65.063-.229-.205-.055-.078.196zm1.564.426.218.094.109-.252-.264-.072zm-1.972 2.448.134.196.006-.005zm-6.885-.731-.17.166zm-1.615 3.978h.238v-1.496h-.475v1.496zm0-1.496v.237h10.472v-.475H62.932zm10.472 0h-.237v1.496h.475v-1.496zm0 1.496v-.238H62.932v.475h10.472zM64.547 2.074l.17.166C65.74 1.2 66.989.696 68.44.696V.221c-1.574 0-2.945.551-4.062 1.686zM68.44.459v.237c1.078 0 2.048.294 2.853.873l.14-.192.138-.193C70.676.54 69.607.22 68.441.22zm2.992.918-.135.195c.849.587 1.5 1.37 1.924 2.316l.217-.097.217-.098a6 6 0 0 0-2.088-2.512zm2.006 2.414-.064-.229-1.564.442.064.229.065.228 1.564-.442zm-1.564.442.217-.098a4.2 4.2 0 0 0-1.458-1.747l-.136.196-.135.195a3.7 3.7 0 0 1 1.296 1.551zm-1.377-1.65.137-.194c-.62-.437-1.365-.672-2.194-.672v.475c.736 0 1.384.207 1.92.586zm-2.057-.628v-.238h-.033v.475h.033zm-.034 0v-.238a3.93 3.93 0 0 0-2.909 1.246l.172.165.172.164a3.45 3.45 0 0 1 2.565-1.1zM65.67 3.128l-.173-.163c-.791.845-1.186 1.873-1.186 3.07h.475c0-1.082.353-1.992 1.058-2.745zm-1.122 2.907h-.237c0 1.164.396 2.174 1.186 3.018l.173-.162.174-.163c-.707-.754-1.058-1.648-1.058-2.693zM65.67 8.89l-.173.162c.778.832 1.777 1.248 2.944 1.248v-.475c-1.043 0-1.913-.366-2.597-1.098zm2.771 1.173v.237c.82 0 1.568-.196 2.194-.638l-.137-.194-.137-.195c-.53.375-1.176.552-1.92.552zm2.057-.595.14.192c.64-.462 1.132-1.023 1.424-1.753l-.22-.088-.221-.089c-.252.63-.678 1.124-1.262 1.545zm1.343-1.65-.062.23 1.564.425.062-.23.063-.229-1.564-.425zm1.564.426-.218-.094a5.64 5.64 0 0 1-1.894 2.35l.14.192.14.191a6.1 6.1 0 0 0 2.05-2.545zm-1.972 2.448-.133-.197c-.809.55-1.764.843-2.859.843v.475c1.184 0 2.234-.319 3.126-.925zm-2.992.884v-.238c-1.451 0-2.699-.503-3.724-1.544l-.169.167-.17.166c1.118 1.135 2.489 1.686 4.063 1.686zm-3.893-1.615.17-.167C63.689 8.75 63.17 7.5 63.17 6.035h-.475c0 1.593.569 2.961 1.683 4.093zm-1.615-3.927h.238c0-1.484.519-2.734 1.548-3.796l-.17-.165-.171-.166c-1.113 1.149-1.682 2.517-1.682 4.127z" mask="url(#d)"/></g><defs><linearGradient id="b" x1="38.533" x2="38.533" y1="-14.147" y2="31.021" gradientUnits="userSpaceOnUse"><stop offset=".333" stop-color="#fff4cd"/><stop offset=".4" stop-color="#ffe68e"/><stop offset=".477" stop-color="#ffa34e"/><stop offset=".557" stop-color="#fff387"/><stop offset=".726" stop-color="#ffa841"/></linearGradient><linearGradient id="c" x1="38.322" x2="38.322" y1="-2.607" y2="18.393" gradientUnits="userSpaceOnUse"><stop offset=".214" stop-color="#fffdeb"/><stop offset=".505" stop-color="#fff389"/><stop offset=".849" stop-color="#ffe922"/></linearGradient><filter id="a" width="75.835" height="18.312" x="0" y="0" color-interpolation-filters="sRGB" filterUnits="userSpaceOnUse"><feFlood flood-opacity="0" result="BackgroundImageFix"/><feColorMatrix in="SourceAlpha" result="hardAlpha" values="0 0 0 0 0 0 0 0 0 0 0 0 0 0 0 0 0 0 127 0"/><feOffset dy="2.067"/><feGaussianBlur stdDeviation="1.034"/><feComposite in2="hardAlpha" operator="out"/><feColorMatrix values="0 0 0 0 0 0 0 0 0 0 0 0 0 0 0 0 0 0 0.2 0"/><feBlend in2="BackgroundImageFix" result="effect1_dropShadow_129_40212"/><feBlend in="SourceGraphic" in2="effect1_dropShadow_129_40212" result="shape"/></filter></defs></svg>