<svg xmlns="http://www.w3.org/2000/svg" width="77" height="18" fill="none" viewBox="0 0 77 18"><g filter="url(#a)"><mask id="d" width="73.119" height="14.635" x="1.333" y="-.776" fill="#000" maskUnits="userSpaceOnUse"><path fill="#fff" d="M1.333-.776h73.119v14.635H1.333z"/><path d="m11.062 8.185 1.19-.01-.469 2.775-1.19.01-.307 1.822-3.026.026.308-1.821-5.22.045.47-2.775L7.48.906l3.468-.03L6.25 8.227l1.785-.016.356-2.145 3.026-.026zm11.89-1.294q-.486 2.827-1.985 4.455-1.482 1.611-3.828 1.631-2.328.02-3.398-1.738-1.053-1.776-.601-4.602.452-2.791 1.967-4.437Q16.625.572 18.953.55q2.33-.02 3.399 1.756 1.07 1.758.6 4.584m-5.447 3.125q1.852-.015 2.42-3.268.532-3.251-1.338-3.236-1.87.016-2.403 3.268-.566 3.252 1.32 3.236m20.006-3.25q-.486 2.826-1.985 4.454-1.482 1.611-3.828 1.632-2.328.02-3.398-1.739-1.052-1.776-.601-4.602.452-2.791 1.967-4.437Q31.184.445 33.512.424q2.33-.02 3.399 1.756 1.07 1.758.6 4.585m-5.447 3.124q1.852-.015 2.42-3.268.532-3.252-1.338-3.235-1.87.015-2.403 3.268-.566 3.252 1.32 3.235m16.154-3.218q-.485 2.827-1.984 4.455-1.482 1.611-3.828 1.631-2.329.02-3.398-1.738-1.053-1.776-.601-4.602.451-2.791 1.967-4.437Q41.89.352 44.22.33q2.329-.02 3.398 1.756 1.07 1.758.601 4.584m-5.447 3.125q1.853-.015 2.42-3.268.533-3.252-1.337-3.236T41.45 6.56q-.567 3.252 1.32 3.236m16.155-3.218q-.485 2.827-1.985 4.455-1.482 1.61-3.827 1.631-2.33.02-3.399-1.738-1.052-1.776-.6-4.602.45-2.792 1.967-4.438Q52.598.258 54.926.238q2.33-.021 3.399 1.755 1.07 1.76.6 4.585m-5.447 3.125q1.853-.016 2.42-3.268.532-3.252-1.338-3.236t-2.4 3.268q-.567 3.252 1.32 3.236M65.509.4l4.625-.04q1.683-.015 2.747 1.2 1.082 1.197.79 2.934-.306 1.856-1.59 2.853-1.266.98-3.289.997l-1.58.014-.114.681 3.485-.03-.274 1.685-3.502.03-.259 1.567-3.042.027.258-1.567-1.105.01.274-1.686 1.122-.01.113-.68-1.105.01.453-2.708 1.105-.01zm5.136 4.035q.097-.545-.194-.865-.274-.321-.802-.316l-1.598.014-.387 2.383 1.58-.014q.528-.005.916-.33.405-.327.485-.872"/></mask><path fill="url(#b)" d="m11.062 8.185 1.19-.01-.469 2.775-1.19.01-.307 1.822-3.026.026.308-1.821-5.22.045.47-2.775L7.48.906l3.468-.03L6.25 8.227l1.785-.016.356-2.145 3.026-.026zm11.89-1.294q-.486 2.827-1.985 4.455-1.482 1.611-3.828 1.631-2.328.02-3.398-1.738-1.053-1.776-.601-4.602.452-2.791 1.967-4.437Q16.625.572 18.953.55q2.33-.02 3.399 1.756 1.07 1.758.6 4.584m-5.447 3.125q1.852-.015 2.42-3.268.532-3.251-1.338-3.236-1.87.016-2.403 3.268-.566 3.252 1.32 3.236m20.006-3.25q-.486 2.826-1.985 4.454-1.482 1.611-3.828 1.632-2.328.02-3.398-1.739-1.052-1.776-.601-4.602.452-2.791 1.967-4.437Q31.184.445 33.512.424q2.33-.02 3.399 1.756 1.07 1.758.6 4.585m-5.447 3.124q1.852-.015 2.42-3.268.532-3.252-1.338-3.235-1.87.015-2.403 3.268-.566 3.252 1.32 3.235m16.154-3.218q-.485 2.827-1.984 4.455-1.482 1.611-3.828 1.631-2.329.02-3.398-1.738-1.053-1.776-.601-4.602.451-2.791 1.967-4.437Q41.89.352 44.22.33q2.329-.02 3.398 1.756 1.07 1.758.601 4.584m-5.447 3.125q1.853-.015 2.42-3.268.533-3.252-1.337-3.236T41.45 6.56q-.567 3.252 1.32 3.236m16.155-3.218q-.485 2.827-1.985 4.455-1.482 1.61-3.827 1.631-2.33.02-3.399-1.738-1.052-1.776-.6-4.602.45-2.792 1.967-4.438Q52.598.258 54.926.238q2.33-.021 3.399 1.755 1.07 1.76.6 4.585m-5.447 3.125q1.853-.016 2.42-3.268.532-3.252-1.338-3.236t-2.4 3.268q-.567 3.252 1.32 3.236M65.509.4l4.625-.04q1.683-.015 2.747 1.2 1.082 1.197.79 2.934-.306 1.856-1.59 2.853-1.266.98-3.289.997l-1.58.014-.114.681 3.485-.03-.274 1.685-3.502.03-.259 1.567-3.042.027.258-1.567-1.105.01.274-1.686 1.122-.01.113-.68-1.105.01.453-2.708 1.105-.01zm5.136 4.035q.097-.545-.194-.865-.274-.321-.802-.316l-1.598.014-.387 2.383 1.58-.014q.528-.005.916-.33.405-.327.485-.872"/><path fill="url(#c)" d="m11.062 8.185-.234-.039-.046.28.282-.003zm1.19-.01.234.04.048-.28-.284.002zm-.469 2.775.003.238.199-.002.033-.197zm-1.19.01-.002-.237-.199.001-.033.197zm-.307 1.822.002.238.2-.002.033-.197zm-3.026.026-.234-.04-.047.28.283-.002zm.308-1.821.234.04.047-.28-.284.002zm-5.22.045-.234-.04-.047.28.284-.002zm.47-2.775-.201-.127-.026.04-.008.047zM7.48.906 7.478.668l-.13.002-.069.109zm3.468-.03.2.128.236-.37-.438.004zM6.25 8.227l-.2-.128-.236.37.439-.004zm1.785-.016.002.238.2-.002.033-.197zm.356-2.145L8.39 5.83l-.2.001-.033.197zm3.026-.026.234.039.046-.28-.282.003zm-.356 2.145.002.238 1.19-.01-.002-.238-.002-.238-1.19.01zm1.19-.01-.234-.04-.469 2.775.234.04.235.04.468-2.776zm-.469 2.775-.002-.238-1.19.01.002.238.002.238 1.19-.01zm-1.19.01-.234-.04-.307 1.822.234.04.235.04.307-1.822zm-.307 1.822-.002-.238-3.026.027.002.237.002.238 3.026-.026zm-3.026.026.235.04.307-1.822-.234-.04-.235-.039-.307 1.822zm.308-1.821-.003-.238-5.218.045.002.238.002.238 5.219-.046zm-5.22.045.235.04.469-2.776-.234-.04-.235-.039-.469 2.775zm.47-2.775.2.127 4.662-7.35-.2-.128-.2-.127-4.663 7.35zM7.48.906l.002.238 3.468-.03-.002-.238-.002-.238-3.468.03zm3.468-.03-.2-.128L6.05 8.099l.2.128.2.128 4.697-7.351zM6.25 8.227l.003.238 1.784-.016-.002-.238-.002-.237-1.785.015zm1.785-.016.235.04.355-2.146-.234-.039-.235-.039-.355 2.146zm.356-2.145.002.238 3.026-.027-.002-.237-.002-.238-3.026.027zm3.026-.026L11.183 6l-.355 2.145.234.04.235.038.355-2.145zm11.534.851.234.04zm-1.985 4.455-.174-.161zm-7.226-.107-.204.121.001.002zm-.601-4.602-.235-.038zM15.107 2.2l-.173-.162h-.001zm7.244.107-.204.122v.001zm-2.427 4.44.234.042v-.003zm-3.74.033.235.041V6.82zm6.768.111-.235-.04c-.318 1.853-.964 3.29-1.924 4.334l.174.16.175.162c1.038-1.128 1.715-2.66 2.044-4.575zm-1.985 4.455-.174-.16c-.94 1.02-2.152 1.54-3.656 1.554l.002.237.003.238c1.624-.014 2.964-.582 4-1.708zm-3.828 1.631-.002-.237c-1.482.013-2.53-.534-3.193-1.625l-.203.124-.203.123c.763 1.255 1.98 1.867 3.604 1.853zm-3.398-1.738.204-.121c-.664-1.12-.866-2.593-.57-4.444l-.235-.037-.235-.038c-.306 1.918-.107 3.514.632 4.761zm-.601-4.602.235.038c.295-1.828.936-3.26 1.907-4.314l-.175-.161-.174-.161c-1.05 1.139-1.72 2.665-2.027 4.56zM15.107 2.2l.174.162c.964-1.036 2.182-1.56 3.673-1.573L18.952.55 18.95.314c-1.614.014-2.96.588-4.016 1.724zM18.953.55l.002.238c1.481-.013 2.53.538 3.193 1.64l.204-.122.203-.123C21.792.918 20.574.299 18.95.314zm3.399 1.756-.203.123c.673 1.108.876 2.573.57 4.423l.234.038.234.04c.318-1.919.12-3.51-.632-4.748zm-4.846 7.709.002.238c.7-.006 1.277-.324 1.72-.922.435-.587.74-1.443.931-2.543l-.234-.041-.234-.04c-.186 1.067-.473 1.84-.845 2.342-.364.491-.807.724-1.342.728zm2.42-3.268.234.038c.18-1.095.166-1.961-.083-2.564a1.5 1.5 0 0 0-.577-.714c-.259-.164-.568-.236-.914-.233l.002.237.002.238c.277-.002.492.056.656.16.163.102.296.262.392.494.197.476.229 1.233.053 2.305zm-1.338-3.236-.002-.237c-.705.006-1.285.323-1.725.922-.432.588-.73 1.445-.91 2.545l.234.038.235.039c.175-1.068.455-1.84.824-2.34.36-.491.805-.724 1.346-.73zM16.184 6.78l-.234-.04c-.19 1.095-.185 1.962.061 2.565.126.308.316.552.577.716s.57.236.919.233l-.002-.238-.002-.238c-.281.003-.497-.055-.662-.16a1 1 0 0 1-.39-.492c-.194-.476-.22-1.232-.033-2.305zm21.327-.015.234.04v-.001zm-1.985 4.454-.174-.16zm-7.226-.107-.204.121.001.002zm-.6-4.602-.235-.038zm1.967-4.437-.173-.162h-.001zm7.244.107-.204.122v.001zm-2.428 4.44.234.04zm-3.74.033.235.04v-.002zm6.768.11-.235-.04c-.318 1.853-.964 3.291-1.924 4.334l.174.161.175.161c1.038-1.128 1.715-2.659 2.044-4.575zm-1.985 4.455-.175-.16c-.94 1.021-2.151 1.54-3.655 1.554l.002.238.003.237c1.624-.014 2.964-.582 4-1.708zm-3.828 1.632-.002-.238c-1.482.013-2.53-.534-3.193-1.624l-.203.123-.203.123c.763 1.255 1.98 1.867 3.604 1.853zM28.3 11.112l.204-.121c-.664-1.12-.866-2.593-.57-4.443l-.235-.038-.235-.037c-.306 1.917-.107 3.513.632 4.76zm-.6-4.602.235.038c.295-1.827.936-3.26 1.907-4.314l-.175-.161-.174-.161c-1.05 1.139-1.72 2.665-2.027 4.56zm1.967-4.437.174.162c.964-1.036 2.183-1.56 3.673-1.573l-.002-.238-.002-.237C31.895.2 30.55.775 29.493 1.91zM33.512.424l.002.238c1.481-.013 2.53.539 3.193 1.64l.204-.122.203-.123C36.351.791 35.133.173 33.51.187zM36.91 2.18l-.203.123c.673 1.108.876 2.573.57 4.423l.234.039.234.039c.318-1.919.12-3.51-.632-4.748zm-4.846 7.71.002.237c.7-.006 1.277-.324 1.72-.921.435-.588.74-1.444.931-2.544l-.234-.04-.234-.042c-.186 1.068-.473 1.84-.845 2.343-.364.491-.807.724-1.342.729zm2.42-3.269.234.038c.18-1.095.166-1.961-.083-2.563a1.5 1.5 0 0 0-.577-.715c-.259-.163-.568-.236-.914-.233l.002.238.002.237c.277-.002.492.056.656.16.163.103.296.262.392.494.197.476.229 1.233.053 2.306zm-1.338-3.235-.002-.238c-.705.006-1.285.323-1.725.922-.432.588-.73 1.445-.91 2.545l.234.039.235.038c.175-1.067.455-1.84.824-2.34.36-.49.805-.724 1.346-.729zm-2.403 3.268-.234-.041c-.19 1.095-.185 1.962.061 2.565.126.308.316.552.577.716s.57.236.919.233l-.002-.238-.002-.237c-.281.002-.497-.056-.662-.16A1 1 0 0 1 31.01 9c-.194-.475-.22-1.232-.033-2.305zm17.475.017.234.04zm-1.984 4.455-.175-.161zm-7.226-.107-.205.121.002.002zm-.601-4.602-.235-.038zm1.967-4.437-.174-.162zm7.243.107-.203.122v.001zm-2.426 4.44.234.042v-.003zm-3.74.033.234.041V6.6zm6.767.111-.234-.04c-.318 1.853-.965 3.29-1.925 4.334l.175.16.175.162c1.038-1.128 1.714-2.66 2.043-4.575zm-1.984 4.455-.175-.16c-.94 1.02-2.152 1.54-3.655 1.554l.002.237.002.238c1.624-.014 2.965-.582 4-1.708zm-3.828 1.631-.002-.237c-1.482.013-2.53-.534-3.193-1.625l-.203.124-.203.123c.763 1.255 1.98 1.867 3.603 1.853zm-3.398-1.738.204-.121c-.664-1.121-.866-2.593-.57-4.444l-.235-.037-.235-.038c-.306 1.918-.108 3.514.631 4.761zm-.601-4.602.234.038c.296-1.828.936-3.26 1.908-4.314l-.175-.161-.175-.161c-1.05 1.139-1.72 2.665-2.027 4.56zm1.967-4.437.174.161C41.512 1.106 42.73.581 44.221.57l-.002-.24-.002-.238c-1.615.015-2.96.589-4.017 1.725zM44.22.33l.002.238c1.481-.013 2.53.538 3.193 1.64l.203-.122.204-.123C47.058.698 45.84.079 44.217.094zm3.398 1.756-.203.123c.674 1.108.876 2.573.57 4.423l.234.038.235.04c.318-1.919.12-3.51-.633-4.748zm-4.846 7.709.002.238c.7-.007 1.278-.324 1.72-.922.435-.587.74-1.443.932-2.543l-.234-.041-.234-.041c-.186 1.068-.474 1.84-.845 2.343-.364.491-.808.724-1.343.728zm2.42-3.268.234.038c.18-1.095.167-1.961-.082-2.564a1.5 1.5 0 0 0-.578-.714c-.258-.164-.567-.236-.913-.233l.002.237.002.238c.277-.002.491.056.656.16.163.102.295.262.391.494.197.476.23 1.233.053 2.305zm-1.337-3.236-.002-.237c-.706.006-1.285.323-1.725.922-.433.588-.73 1.445-.91 2.545l.234.038.234.039c.175-1.068.456-1.84.824-2.34.36-.491.805-.724 1.347-.73zM41.45 6.56l-.234-.04c-.19 1.095-.185 1.962.06 2.565.126.308.317.552.578.716s.57.236.918.233l-.002-.238-.002-.238c-.28.003-.496-.055-.661-.16a1 1 0 0 1-.39-.492c-.194-.476-.22-1.232-.033-2.305zm17.475.018.234.04zm-1.985 4.455-.174-.161zm-7.226-.107-.204.12.001.003zm-.6-4.602-.235-.038zm1.967-4.438-.174-.162-.001.001zm7.243.107-.204.123zm-2.427 4.442.234.04v-.002zm-3.74.032.235.04v-.001zm6.768.111-.234-.04c-.318 1.852-.965 3.29-1.925 4.334l.174.16.175.162c1.038-1.128 1.715-2.66 2.044-4.576zm-1.985 4.455-.174-.161c-.94 1.022-2.152 1.541-3.656 1.555l.003.237.002.238c1.624-.014 2.964-.582 4-1.708zm-3.827 1.631-.002-.237c-1.483.012-2.53-.534-3.194-1.625l-.203.124-.203.123c.763 1.255 1.98 1.867 3.604 1.853zm-3.399-1.738.205-.121c-.665-1.121-.867-2.594-.571-4.444l-.235-.037-.234-.038c-.307 1.918-.108 3.514.631 4.76zm-.6-4.602.234.038c.295-1.828.936-3.26 1.907-4.315l-.174-.16-.175-.162c-1.05 1.14-1.72 2.665-2.027 4.56zm1.967-4.438.174.162c.963-1.035 2.182-1.56 3.672-1.573l-.002-.237L54.924 0c-1.614.014-2.959.589-4.016 1.724zM54.926.238l.002.237c1.482-.013 2.53.54 3.193 1.64l.204-.122.203-.122C57.766.605 56.548-.014 54.924 0zm3.399 1.755-.203.124c.673 1.108.876 2.572.57 4.422l.234.04.234.038c.318-1.918.12-3.51-.632-4.747zm-4.846 7.71.002.237c.7-.006 1.277-.323 1.72-.921.435-.587.74-1.443.931-2.544l-.233-.04-.235-.041c-.186 1.068-.473 1.84-.845 2.342-.364.492-.807.725-1.342.73zm2.42-3.268.234.038c.18-1.095.166-1.961-.083-2.564a1.5 1.5 0 0 0-.577-.715c-.259-.163-.568-.235-.914-.232l.002.237.002.238c.278-.003.492.055.656.16.164.102.296.262.392.494.197.476.229 1.232.053 2.305zM54.56 3.199l-.002-.237c-.705.006-1.284.322-1.725.922-.432.588-.73 1.444-.91 2.545l.235.038.234.039c.175-1.068.456-1.84.824-2.341.36-.49.805-.724 1.346-.728zm-2.4 3.268-.234-.04c-.191 1.094-.186 1.961.06 2.565.126.308.316.552.577.716s.57.235.919.232l-.002-.237-.002-.238c-.28.003-.497-.056-.662-.16a1 1 0 0 1-.39-.493c-.194-.475-.22-1.231-.032-2.304zM65.509.401l-.001-.238-.2.002-.032.196zm7.372 1.16-.178.156.002.003zm.79 2.934-.234-.04v.001zm-1.59 2.853.146.188zm-4.87 1.011-.002-.237-.2.001-.032.197zm-.113.681-.234-.039-.047.28.283-.003zm3.485-.03.234.038.046-.278-.282.002zm-.274 1.685.002.238.2-.002.032-.198zm-3.502.03-.002-.237-.2.002-.033.197zm-.259 1.567.002.238.2-.002.033-.197zm-3.042.027-.235-.04-.046.28.283-.003zm.258-1.567.234.039.046-.279-.282.003zm-1.105.01-.234-.038-.046.278.282-.003zm.274-1.686-.002-.237-.2.002-.032.197zm1.122-.01.002.238.2-.002.033-.196zm.113-.68.235.039.046-.28-.283.003zm-1.105.01-.234-.04-.047.28.283-.003zm.453-2.708-.002-.237-.2.001-.032.197zm1.105-.01.002.238.199-.002.033-.196zm6.024-1.242-.234-.042v.007zm-.194-.865-.18.154.004.006zm-2.4-.302-.002-.238-.2.002-.033.198zm-.387 2.383-.235-.038-.045.278.282-.002zm2.496-.345-.15-.185-.003.004zM65.51.401l.002.237 4.624-.04-.002-.238-.002-.237-4.624.04zm4.624-.04.002.237c1.056-.01 1.904.364 2.567 1.12l.178-.157.179-.157C72.302.54 71.32.112 70.132.123zm2.747 1.2-.176.159c.667.739.916 1.642.733 2.736l.234.039.234.039c.205-1.222-.074-2.275-.848-3.133zm.79 2.934-.234-.039c-.196 1.188-.7 2.082-1.501 2.704l.146.188.145.187c.91-.707 1.466-1.715 1.68-3.001zm-1.59 2.853-.145-.188c-.793.614-1.835.936-3.146.948l.002.237.002.238c1.387-.012 2.538-.355 3.433-1.047zm-3.289.997-.002-.237-1.58.014.001.237.002.238 1.581-.014zm-1.58.014-.235-.039-.113.681.234.04.234.038.114-.68zm-.114.681.002.238 3.485-.03-.002-.238-.002-.238-3.485.03zm3.485-.03-.234-.038-.275 1.685.235.038.234.038.274-1.685zm-.274 1.685-.002-.237-3.502.03.002.238.002.237 3.502-.03zm-3.502.03-.235-.038-.258 1.566.234.04.235.038.258-1.567zm-.259 1.567-.002-.237-3.043.026.003.238.002.237 3.042-.026zm-3.042.027.234.038.258-1.566-.234-.039-.235-.038-.258 1.566zm.258-1.567-.002-.237-1.105.01.002.237.002.237 1.105-.01zm-1.105.01.235.038.274-1.685-.235-.039-.234-.038-.274 1.686zm.274-1.686.002.238 1.122-.01-.002-.237-.002-.238-1.122.01zm1.122-.01.235.04.113-.681-.235-.04-.234-.038-.113.68zm.113-.68-.002-.238-1.105.01.002.237.002.238 1.105-.01zm-1.105.01.235.038.452-2.707-.234-.039-.234-.039-.453 2.707zm.453-2.708.002.238 1.105-.01-.002-.237-.002-.238-1.105.01zm1.105-.01.234.04.89-5.278L65.51.4l-.234-.039-.89 5.278zm6.024-1.242.234.042c.074-.414.005-.784-.253-1.067l-.175.16-.176.16c.131.144.192.35.136.663zm-.194-.865.18-.155c-.24-.28-.582-.402-.984-.399l.002.238.002.237c.3-.002.493.086.62.233zm-.802-.316-.002-.238-1.598.014.002.238.002.237 1.598-.014zm-1.598.014-.235-.038-.387 2.383.235.038.234.038.387-2.383zm-.387 2.383.002.238 1.58-.014-.001-.238-.002-.237-1.581.014zm1.58-.014.003.238a1.64 1.64 0 0 0 1.066-.387l-.153-.182-.153-.181a1.16 1.16 0 0 1-.764.275zm.916-.33.149.184c.32-.257.51-.603.571-1.021l-.235-.035-.235-.035a1.1 1.1 0 0 1-.4.721z" mask="url(#d)"/></g><defs><linearGradient id="b" x1="37.953" x2="38.291" y1="-10.351" y2="28.363" gradientUnits="userSpaceOnUse"><stop offset=".333" stop-color="#fff4cd"/><stop offset=".4" stop-color="#ffe68e"/><stop offset=".477" stop-color="#ffa34e"/><stop offset=".557" stop-color="#fff387"/><stop offset=".726" stop-color="#ffa841"/></linearGradient><linearGradient id="c" x1="37.831" x2="37.988" y1="-.458" y2="17.541" gradientUnits="userSpaceOnUse"><stop offset=".214" stop-color="#fffdeb"/><stop offset=".505" stop-color="#fff389"/><stop offset=".849" stop-color="#ffe922"/></linearGradient><filter id="a" width="76.038" height="17.35" x="0" y="0" color-interpolation-filters="sRGB" filterUnits="userSpaceOnUse"><feFlood flood-opacity="0" result="BackgroundImageFix"/><feColorMatrix in="SourceAlpha" result="hardAlpha" values="0 0 0 0 0 0 0 0 0 0 0 0 0 0 0 0 0 0 127 0"/><feOffset dy="2.067"/><feGaussianBlur stdDeviation="1.034"/><feComposite in2="hardAlpha" operator="out"/><feColorMatrix values="0 0 0 0 0 0 0 0 0 0 0 0 0 0 0 0 0 0 0.2 0"/><feBlend in2="BackgroundImageFix" result="effect1_dropShadow_116_7801"/><feBlend in="SourceGraphic" in2="effect1_dropShadow_116_7801" result="shape"/></filter></defs></svg>