<svg xmlns="http://www.w3.org/2000/svg" width="74" height="23" fill="none" viewBox="0 0 74 23"><g filter="url(#a)"><mask id="d" width="71" height="14" x="1.411" y="2.61" fill="#000" maskUnits="userSpaceOnUse"><path fill="#fff" d="M1.411 2.61h71v14h-71z"/><path d="M10.678 15.61h-8.33l.374-2.21 4.726-4.165q1.31-1.157 1.428-1.853.086-.426-.136-.697-.22-.273-.663-.272-1.02 0-1.802 1.292L3.81 6.192q.8-1.344 2.023-2.04a5.24 5.24 0 0 1 2.635-.697q1.667 0 2.703 1.139 1.072 1.122.765 2.873a4.7 4.7 0 0 1-.714 1.802q-.526.78-1.598 1.717l-1.972 1.682h3.536zm10.833-11.9L21 6.617h-4.166l-.323 1.275h.732q1.717 0 2.736 1.105 1.038 1.088.697 3.043-.339 1.869-1.683 2.856-1.343.968-3.161.968-3.23 0-4.132-2.686l2.806-1.462q.374 1.19 1.649 1.19.612 0 1.02-.289t.493-.799-.204-.816q-.272-.305-.867-.306h-3.825L14.49 3.71zm14.031 6.12q-.51 2.82-2.023 4.437-1.496 1.598-3.842 1.598-2.329 0-3.383-1.768-1.037-1.785-.56-4.607.474-2.789 2.005-4.42 1.53-1.615 3.86-1.615T34.98 5.24q1.055 1.767.561 4.59m-5.474 3.076q1.852 0 2.448-3.246.561-3.247-1.309-3.247t-2.43 3.247q-.596 3.246 1.291 3.246M46.25 9.83q-.51 2.82-2.023 4.437-1.496 1.598-3.842 1.598-2.329 0-3.383-1.768-1.037-1.785-.56-4.607.474-2.789 2.005-4.42 1.53-1.615 3.86-1.615t3.382 1.785q1.055 1.767.561 4.59m-5.474 3.076q1.853 0 2.448-3.246.561-3.247-1.309-3.247t-2.43 3.247q-.596 3.246 1.291 3.246M56.958 9.83q-.51 2.82-2.023 4.437-1.496 1.598-3.842 1.598-2.329 0-3.383-1.768-1.037-1.785-.56-4.607.475-2.789 2.005-4.42 1.53-1.615 3.86-1.615t3.382 1.785q1.055 1.767.561 4.59m-5.474 3.076q1.853 0 2.448-3.246.561-3.247-1.309-3.247t-2.43 3.247q-.597 3.246 1.291 3.246m19.966-5.83v1.87h-5.576v3.876q0 .476.136.714.135.22.612.22.39 0 .765-.119.374-.135.68-.34a1.9 1.9 0 0 0 .493-.51q.186-.288.187-.594a.4.4 0 0 0-.136-.29q-.137-.135-.527-.136-.306 0-.544.052l-.272-1.735q.306-.085.68-.118a9 9 0 0 1 .799-.034q1.002 0 1.615.458.612.459.612 1.428 0 .92-.425 1.633a3.75 3.75 0 0 1-1.122 1.19 5.6 5.6 0 0 1-3.128.969q-.715 0-1.207-.17a2.2 2.2 0 0 1-.765-.442 3.4 3.4 0 0 1-.357-.425 2.2 2.2 0 0 1-.255-.664q-.085-.425-.085-1.139V8.947h-1.428v-1.87zm-7.99-4.2q.56 0 .986.137.425.135.714.425.34.323.527.9.186.579.187 1.633v1.173H63.63V6.056q0-.426-.068-.714a.67.67 0 0 0-.272-.425q-.204-.153-.612-.153-.221 0-.476.05a3 3 0 0 0-.493.154l-.646-1.632a8 8 0 0 1 1.19-.34 5.5 5.5 0 0 1 1.207-.12"/></mask><path fill="url(#b)" d="M10.678 15.61h-8.33l.374-2.21 4.726-4.165q1.31-1.157 1.428-1.853.086-.426-.136-.697-.22-.273-.663-.272-1.02 0-1.802 1.292L3.81 6.192q.8-1.344 2.023-2.04a5.24 5.24 0 0 1 2.635-.697q1.667 0 2.703 1.139 1.072 1.122.765 2.873a4.7 4.7 0 0 1-.714 1.802q-.526.78-1.598 1.717l-1.972 1.682h3.536zm10.833-11.9L21 6.617h-4.166l-.323 1.275h.732q1.717 0 2.736 1.105 1.038 1.088.697 3.043-.339 1.869-1.683 2.856-1.343.968-3.161.968-3.23 0-4.132-2.686l2.806-1.462q.374 1.19 1.649 1.19.612 0 1.02-.289t.493-.799-.204-.816q-.272-.305-.867-.306h-3.825L14.49 3.71zm14.031 6.12q-.51 2.82-2.023 4.437-1.496 1.598-3.842 1.598-2.329 0-3.383-1.768-1.037-1.785-.56-4.607.474-2.789 2.005-4.42 1.53-1.615 3.86-1.615T34.98 5.24q1.055 1.767.561 4.59m-5.474 3.076q1.852 0 2.448-3.246.561-3.247-1.309-3.247t-2.43 3.247q-.596 3.246 1.291 3.246M46.25 9.83q-.51 2.82-2.023 4.437-1.496 1.598-3.842 1.598-2.329 0-3.383-1.768-1.037-1.785-.56-4.607.474-2.789 2.005-4.42 1.53-1.615 3.86-1.615t3.382 1.785q1.055 1.767.561 4.59m-5.474 3.076q1.853 0 2.448-3.246.561-3.247-1.309-3.247t-2.43 3.247q-.596 3.246 1.291 3.246M56.958 9.83q-.51 2.82-2.023 4.437-1.496 1.598-3.842 1.598-2.329 0-3.383-1.768-1.037-1.785-.56-4.607.475-2.789 2.005-4.42 1.53-1.615 3.86-1.615t3.382 1.785q1.055 1.767.561 4.59m-5.474 3.076q1.853 0 2.448-3.246.561-3.247-1.309-3.247t-2.43 3.247q-.597 3.246 1.291 3.246m19.966-5.83v1.87h-5.576v3.876q0 .476.136.714.135.22.612.22.39 0 .765-.119.374-.135.68-.34a1.9 1.9 0 0 0 .493-.51q.186-.288.187-.594a.4.4 0 0 0-.136-.29q-.137-.135-.527-.136-.306 0-.544.052l-.272-1.735q.306-.085.68-.118a9 9 0 0 1 .799-.034q1.002 0 1.615.458.612.459.612 1.428 0 .92-.425 1.633a3.75 3.75 0 0 1-1.122 1.19 5.6 5.6 0 0 1-3.128.969q-.715 0-1.207-.17a2.2 2.2 0 0 1-.765-.442 3.4 3.4 0 0 1-.357-.425 2.2 2.2 0 0 1-.255-.664q-.085-.425-.085-1.139V8.947h-1.428v-1.87zm-7.99-4.2q.56 0 .986.137.425.135.714.425.34.323.527.9.186.579.187 1.633v1.173H63.63V6.056q0-.426-.068-.714a.67.67 0 0 0-.272-.425q-.204-.153-.612-.153-.221 0-.476.05a3 3 0 0 0-.493.154l-.646-1.632a8 8 0 0 1 1.19-.34 5.5 5.5 0 0 1 1.207-.12"/><path fill="url(#c)" d="M10.678 15.61v.237h.2l.034-.197zm-8.33 0-.234-.04-.047.277h.281zm.374-2.21-.157-.179-.063.056-.014.083zm4.726-4.165.157.178zm1.428-1.853-.233-.047v.007zm-.136-.697.185-.15zm-2.465 1.02-.124.202.204.125.124-.204zM3.81 6.192l-.204-.122-.12.201.2.123zm2.023-2.04-.117-.207zm5.338.442-.175.16.004.004zm.765 2.873.234.042v-.002zm-.714 1.802-.197-.133zm-1.598 1.717.155.18.002-.002zm-1.972 1.682-.154-.18-.49.418h.644zm3.536 0 .234.041.049-.278h-.283zm-.51 2.942v-.238h-8.33v.475h8.33zm-8.33 0 .235.04.374-2.21-.235-.04-.234-.04-.374 2.21zm.374-2.21.158.178 4.726-4.165-.158-.178-.157-.179-4.726 4.165zm4.726-4.165.158.178c.442-.391.792-.75 1.042-1.075.248-.321.413-.629.463-.916l-.235-.04-.234-.04c-.03.176-.142.41-.37.706-.226.293-.55.629-.98 1.008zm1.428-1.853.233.046c.067-.335.018-.644-.184-.893l-.185.15-.184.15c.092.113.134.268.087.5zm-.136-.697.185-.15c-.204-.251-.502-.36-.848-.36v.475c.244 0 .388.073.479.184zm-.663-.272v-.238c-.798 0-1.463.511-2.005 1.407l.203.123.204.123C6.979 7 7.516 6.65 8.077 6.65zM6.275 7.705l.125-.203-2.465-1.513-.125.203-.124.202 2.465 1.513zM3.81 6.192l.205.121q.771-1.294 1.936-1.955l-.118-.206-.117-.207c-.856.487-1.558 1.198-2.11 2.125zm2.023-2.04.118.206a5 5 0 0 1 2.517-.666v-.475q-1.473 0-2.752.728zm2.635-.697v.237c1.05 0 1.885.356 2.528 1.061l.175-.16.176-.16c-.74-.813-1.707-1.216-2.879-1.216zm2.703 1.139L11 4.758c.653.684.896 1.562.702 2.668l.234.04.234.041c.215-1.229-.053-2.266-.827-3.078zm.765 2.873-.233-.043a4.5 4.5 0 0 1-.678 1.712l.197.133.197.132q.557-.827.751-1.892zm-.714 1.802-.197-.133c-.335.498-.851 1.055-1.557 1.67l.156.18.157.178c.722-.63 1.271-1.218 1.638-1.763zm-1.598 1.717-.154-.181-1.972 1.683.154.18.155.181 1.972-1.683zm-1.972 1.682v.238h3.536v-.475H7.652zm3.536 0-.234-.04-.51 2.94.234.042.234.04.51-2.94zM21.511 3.71l.233.04.05-.278h-.284zM21 6.617v.237h.199l.035-.196zm-4.166 0v-.238h-.184l-.046.18zm-.323 1.275-.23-.059-.075.296h.305zm3.468 1.105-.174.16.002.003zm.697 3.043.234.042v-.002zm-1.683 2.856.14.192.001-.001zm-7.292-1.718-.11-.21-.18.094.064.192zm2.805-1.462.226-.07-.085-.271-.251.13zm2.669.902-.138-.194zm.493-.8.234.04zm-.204-.816-.178.158.005.006zm-4.692-.306-.231-.056-.073.294h.304zM14.49 3.71v-.238h-.187l-.044.18zm7.02 0-.234-.042-.51 2.907.235.042.233.04.51-2.906zM21 6.617v-.238h-4.164v.475H21zm-4.164 0-.23-.059-.324 1.275.23.059.23.058.324-1.275zm-.323 1.275v.237h.73v-.475h-.73zm.73 0v.237c1.09 0 1.934.348 2.563 1.029l.174-.161.175-.162c-.732-.792-1.71-1.181-2.911-1.181zm2.738 1.105-.173.163c.624.655.854 1.584.635 2.839l.234.04.235.041c.235-1.351 0-2.451-.76-3.247zm.696 3.043-.233-.043c-.218 1.196-.75 2.09-1.59 2.707l.14.191.141.192c.951-.698 1.54-1.708 1.776-3.005zm-1.683 2.856-.139-.193c-.85.614-1.855.924-3.023.924v.475c1.258 0 2.362-.336 3.302-1.014zm-3.161.968v-.237c-1.045 0-1.88-.217-2.519-.633-.637-.414-1.101-1.038-1.387-1.891l-.226.075-.225.076c.315.938.84 1.657 1.58 2.138.737.48 1.668.71 2.777.71zM11.7 13.179l.11.211 2.805-1.462-.11-.21-.11-.211-2.804 1.462zm2.806-1.462-.227.072c.136.434.362.78.687 1.014.324.234.726.342 1.188.342v-.475c-.387 0-.685-.09-.91-.253-.225-.162-.399-.412-.512-.77zm1.649 1.19v.238c.446 0 .836-.106 1.157-.333l-.137-.194-.138-.193c-.224.158-.512.245-.883.245zm1.02-.289.137.194c.325-.23.523-.553.59-.953l-.234-.04-.235-.038a.94.94 0 0 1-.396.644zm.493-.799.234.04c.066-.395-.01-.748-.266-1.019l-.172.163-.173.164c.13.137.19.328.142.614zm-.204-.816.177-.157c-.244-.275-.611-.386-1.044-.386v.475c.36 0 .57.093.689.226zm-.867-.306v-.237h-3.825v.475h3.825zm-3.825 0 .23.057 1.717-6.987-.23-.056-.231-.057-1.717 6.987zM14.49 3.71v.237h7.02v-.475h-7.02zm21.052 6.12.234.042V9.87zm-2.023 4.437-.173-.163zm-7.225-.17-.205.119.001.002zm-.56-4.607-.235-.04zm2.005-4.42-.172-.164-.001.001zm7.242.17-.205.12.001.001zm-2.465 4.42.234.042V9.7zm-3.74 0 .234.042V9.7zm6.766.17-.234-.043c-.334 1.85-.993 3.282-1.962 4.317l.173.163.174.162c1.047-1.119 1.737-2.644 2.083-4.557zm-2.023 4.437-.173-.163c-.95 1.014-2.165 1.523-3.669 1.523v.475c1.625 0 2.97-.556 4.016-1.673zm-3.842 1.598v-.238c-1.482 0-2.525-.556-3.179-1.652l-.204.122-.204.121c.752 1.261 1.964 1.884 3.587 1.884zm-3.383-1.768.206-.12c-.655-1.126-.844-2.6-.533-4.448l-.234-.04-.234-.039c-.323 1.915-.139 3.512.59 4.766zm-.56-4.607.233.04c.312-1.825.965-3.252 1.945-4.298l-.173-.162-.173-.163c-1.06 1.13-1.744 2.65-2.067 4.543zm2.005-4.42.173.163c.972-1.027 2.195-1.54 3.686-1.54v-.476c-1.614 0-2.964.563-4.031 1.69zm3.86-1.615v.237c1.48 0 2.524.56 3.177 1.668l.205-.12.205-.121c-.752-1.273-1.964-1.902-3.588-1.902zM34.98 5.24l-.204.121c.664 1.114.854 2.58.531 4.428l.234.04.234.041c.335-1.915.15-3.508-.59-4.752zm-4.913 7.666v.238c.7 0 1.28-.312 1.728-.906.44-.584.752-1.437.954-2.536l-.234-.042-.234-.043c-.195 1.066-.49 1.836-.865 2.335-.368.488-.814.717-1.349.717zm2.448-3.246.234.04c.19-1.093.183-1.96-.06-2.565a1.5 1.5 0 0 0-.571-.72c-.258-.165-.566-.24-.912-.24v.475c.277 0 .491.06.655.165.162.105.293.265.387.498.193.478.218 1.235.033 2.306zm-1.309-3.247v-.238c-.705 0-1.287.312-1.733.907-.437.584-.742 1.438-.932 2.537l.234.04.234.041c.184-1.066.472-1.835.845-2.333.364-.487.81-.717 1.352-.717zm-2.43 3.247-.235-.043c-.2 1.093-.202 1.96.039 2.566.123.309.311.554.57.72s.569.241.917.241v-.475c-.28 0-.496-.06-.66-.165a1 1 0 0 1-.386-.497c-.19-.477-.208-1.233-.012-2.305zm17.473.17.234.042V9.87zm-2.023 4.437-.173-.163zm-7.225-.17-.205.119.001.002zm-.56-4.607-.235-.04zm2.005-4.42-.172-.164-.001.001zm7.242.17-.205.12.001.001zm-2.465 4.42.234.042V9.7zm-3.74 0 .234.042V9.7zm6.766.17-.234-.043c-.334 1.85-.993 3.282-1.962 4.317l.173.163.174.162c1.047-1.119 1.737-2.644 2.083-4.557zm-2.023 4.437-.173-.163c-.95 1.014-2.165 1.523-3.669 1.523v.475c1.625 0 2.97-.556 4.016-1.673zm-3.842 1.598v-.238c-1.482 0-2.525-.556-3.179-1.652l-.204.122-.204.121c.752 1.261 1.964 1.884 3.587 1.884zm-3.383-1.768.206-.12c-.655-1.126-.844-2.6-.533-4.448l-.234-.04-.234-.039c-.323 1.915-.139 3.512.59 4.766zm-.56-4.607.233.04c.312-1.825.965-3.252 1.945-4.298l-.173-.162-.173-.163c-1.06 1.13-1.744 2.65-2.067 4.543zm2.005-4.42.173.163c.972-1.027 2.195-1.54 3.686-1.54v-.476c-1.614 0-2.964.563-4.031 1.69zm3.86-1.615v.237c1.48 0 2.524.56 3.177 1.668l.205-.12.205-.121c-.752-1.273-1.964-1.902-3.588-1.902zm3.382 1.785-.204.121c.664 1.114.854 2.58.531 4.428l.234.04.234.041c.335-1.915.15-3.508-.59-4.752zm-4.913 7.666v.238c.7 0 1.28-.312 1.728-.906.44-.584.753-1.437.954-2.536l-.234-.042-.234-.043c-.195 1.066-.489 1.836-.865 2.335-.368.488-.814.717-1.349.717zm2.448-3.246.234.04c.19-1.093.184-1.96-.06-2.565a1.5 1.5 0 0 0-.571-.72c-.258-.165-.566-.24-.912-.24v.475c.277 0 .491.06.655.165.162.105.293.265.387.498.193.478.218 1.235.033 2.306zm-1.309-3.247v-.238c-.705 0-1.287.312-1.733.907-.437.584-.742 1.438-.932 2.537l.234.04.234.041c.184-1.066.472-1.835.845-2.333.364-.487.81-.717 1.352-.717zm-2.43 3.247-.235-.043c-.2 1.093-.202 1.96.039 2.566.123.309.311.554.57.72s.569.241.917.241v-.475c-.28 0-.496-.06-.66-.165a1 1 0 0 1-.386-.497c-.19-.477-.208-1.233-.012-2.305zm17.473.17.234.042V9.87zm-2.023 4.437-.173-.163zm-7.225-.17-.205.119.001.002zm-.56-4.607-.235-.04zm2.005-4.42-.172-.164-.001.001zm7.242.17-.204.12v.001zm-2.465 4.42.234.042V9.7zm-3.74 0 .234.042V9.7zm6.766.17-.234-.043c-.334 1.85-.993 3.282-1.962 4.317l.173.163.173.162c1.049-1.119 1.738-2.644 2.084-4.557zm-2.023 4.437-.173-.163c-.95 1.014-2.165 1.523-3.669 1.523v.475c1.625 0 2.97-.556 4.016-1.673zm-3.842 1.598v-.238c-1.482 0-2.525-.556-3.179-1.652l-.204.122-.204.121c.752 1.261 1.964 1.884 3.587 1.884zm-3.383-1.768.206-.12c-.655-1.126-.844-2.6-.533-4.448l-.234-.04-.234-.039c-.323 1.915-.139 3.512.59 4.766zm-.56-4.607.233.04c.312-1.825.965-3.252 1.945-4.298l-.173-.162-.173-.163c-1.06 1.13-1.744 2.65-2.067 4.543zm2.005-4.42.173.163c.972-1.027 2.195-1.54 3.686-1.54v-.476c-1.614 0-2.964.563-4.031 1.69zm3.86-1.615v.237c1.48 0 2.524.56 3.178 1.668l.204-.12.205-.121c-.752-1.273-1.964-1.902-3.588-1.902zm3.382 1.785-.204.121c.664 1.114.854 2.58.531 4.428l.234.04.234.041c.335-1.915.15-3.508-.59-4.752zm-4.913 7.666v.238c.7 0 1.28-.312 1.728-.906.44-.584.752-1.437.954-2.536l-.234-.042-.234-.043c-.195 1.066-.489 1.836-.865 2.335-.368.488-.814.717-1.349.717zm2.448-3.246.234.04c.19-1.093.184-1.96-.06-2.565a1.5 1.5 0 0 0-.571-.72c-.257-.165-.566-.24-.912-.24v.475c.277 0 .491.06.655.165.162.105.293.265.387.498.193.478.218 1.235.033 2.306zm-1.309-3.247v-.238c-.705 0-1.287.312-1.733.907-.437.584-.742 1.438-.932 2.537l.234.04.234.041c.184-1.066.472-1.835.845-2.333.364-.487.81-.717 1.352-.717zm-2.43 3.247-.235-.043c-.2 1.093-.202 1.96.039 2.566.123.309.311.554.57.72s.569.241.917.241v-.475c-.28 0-.496-.06-.66-.165a1 1 0 0 1-.386-.497c-.19-.477-.209-1.233-.012-2.305zM71.45 7.076h.237v-.238h-.237zm0 1.87v.237h.237v-.237zm-5.576 0v-.238h-.238v.238zm.136 4.59-.207.117.004.007zm1.377.101.072.227.009-.003zm.68-.34.132.198.007-.005zm.544-1.394-.168.168zm-1.071-.085-.235.037.039.248.246-.052zm-.272-1.733-.064-.23-.204.057.033.21zm.68-.12-.02-.236h-.002zm2.6 3.486-.204-.122zm-1.121 1.19-.134-.197zm-1.53.73.066.229.003-.001zm-2.805.069-.08.223.002.001zm-.765-.442-.168.168.005.005zm-.357-.425-.2.128.006.01zm-.255-.664-.233.047.002.009zm-.085-4.963h.237v-.238h-.237zm-1.428 0h-.238v.237h.238zm0-1.87v-.238h-.238v.238zm2.244-4.063.072-.227zm.714.425-.168.168.004.004zm.527.9.226-.073zm.187 2.806v.237h.237v-.237zm-2.244 0h-.238v.237h.238zm-.068-1.802.231-.055zm-.272-.425-.143.19.01.007zm-1.088-.102-.047-.233h-.003zm-.493.153-.221.087.087.222.222-.089zm-.646-1.632-.08-.224-.231.083.09.228zm1.19-.34.045.233.007-.002zm9.197 4.08h-.238v1.87h.475v-1.87zm0 1.87v-.238h-5.576v.475h5.576zm-5.576 0h-.238v3.876h.475V8.946zm0 3.876h-.238c0 .332.046.62.167.831l.207-.117.206-.118c-.06-.106-.105-.294-.105-.596zm.136.714-.203.124c.16.26.482.334.815.334v-.475c-.303 0-.389-.074-.41-.108zm.612.22v.238q.427 0 .837-.13l-.072-.227-.072-.226a2.3 2.3 0 0 1-.693.108zm.765-.119.08.224q.4-.145.731-.366l-.131-.197-.132-.198q-.28.188-.63.314zm.68-.34.139.193q.339-.244.553-.573l-.2-.13-.199-.129q-.16.249-.432.447zm.493-.51.2.13a1.3 1.3 0 0 0 .224-.724h-.475a.85.85 0 0 1-.149.466zm.187-.594h.237a.64.64 0 0 0-.205-.457l-.168.167-.168.168c.058.059.066.098.066.122zm-.136-.29.168-.168c-.164-.163-.428-.205-.695-.205v.475c.253 0 .34.048.359.066zm-.527-.136v-.237q-.326 0-.594.056l.05.232.05.233q.207-.046.494-.046zm-.544.052.234-.037-.272-1.734-.234.037-.235.036.272 1.734zm-.272-1.735.063.23q.282-.08.638-.112l-.021-.236-.022-.237a4 4 0 0 0-.722.127zm.68-.118.02.236q.38-.033.779-.033v-.475q-.418 0-.82.035zm.799-.034v.237c.633 0 1.116.145 1.472.412l.143-.19.142-.19c-.46-.346-1.053-.507-1.757-.507zm1.615.458-.143.19c.333.25.517.645.517 1.239h.475c0-.7-.223-1.256-.707-1.619zm.612 1.428h-.238q-.001.86-.392 1.511l.205.121.204.122c.307-.516.458-1.103.458-1.753zm-.425 1.633-.205-.122a3.5 3.5 0 0 1-1.051 1.115l.134.196.134.197q.739-.506 1.192-1.265zm-1.122 1.19-.134-.197a5.4 5.4 0 0 1-1.466.7l.07.227.07.228a5.8 5.8 0 0 0 1.594-.762zm-1.53.73-.067-.228a5.5 5.5 0 0 1-1.531.229v.475q.818 0 1.664-.247zm-1.598.239v-.238q-.686-.002-1.13-.157l-.077.225-.078.224c.361.125.791.183 1.285.183zm-1.207-.17.08-.224a1.9 1.9 0 0 1-.682-.391l-.163.173-.163.173c.222.209.508.37.848.492zm-.765-.442.168-.168a3 3 0 0 1-.332-.396l-.193.139-.194.138q.18.252.383.454zm-.357-.425.2-.129a2 2 0 0 1-.224-.59l-.231.056-.231.055c.07.297.164.546.286.736zm-.255-.664.233-.046q-.08-.39-.08-1.092h-.476c0 .482.029.88.09 1.185zm-.085-1.139h.237V8.947h-.475v3.825zm0-3.824v-.238h-1.428v.475h1.428zm-1.428 0h.237v-1.87h-.475v1.87zm0-1.87v.237h9.248v-.475h-9.248zm1.258-4.2v.238q.531.001.913.125l.073-.226.072-.227a3.5 3.5 0 0 0-1.058-.147zm.986.137-.073.226q.374.12.619.367l.168-.168.168-.168a2 2 0 0 0-.81-.484zm.714.425-.164.172c.19.18.349.443.465.802l.226-.073.226-.074c-.134-.412-.327-.75-.59-1zm.527.9-.226.074c.113.35.175.865.175 1.559h.475c0-.713-.062-1.285-.198-1.706zm.187 1.633h-.238v1.173h.475V5.97zm0 1.173v-.238H63.63v.475h2.244zm-2.244 0h.237V6.056h-.475v1.088zm0-1.088h.237q.001-.444-.074-.769l-.231.055-.232.054q.061.252.062.66zm-.068-.714.231-.055a.9.9 0 0 0-.371-.568l-.132.198-.132.197c.076.05.138.135.172.282zm-.272-.425.142-.19c-.195-.147-.46-.201-.754-.201V5c.249 0 .392.048.47.106zm-.612-.153v-.238q-.249 0-.523.056l.047.233.046.232a2.2 2.2 0 0 1 .43-.046zm-.476.05-.05-.232a3.3 3.3 0 0 0-.532.165l.089.22.088.221q.238-.095.455-.141zm-.493.154.22-.088-.645-1.632-.221.088-.221.087.646 1.632zm-.646-1.632.08.223a8 8 0 0 1 1.155-.33l-.045-.233-.045-.234q-.55.107-1.226.35zm1.19-.34.052.231q.495-.112 1.155-.113V2.64q-.7-.001-1.26.125z" mask="url(#d)"/></g><defs><linearGradient id="b" x1="37.617" x2="37.617" y1="-10.93" y2="34.238" gradientUnits="userSpaceOnUse"><stop offset=".333" stop-color="#fff4cd"/><stop offset=".4" stop-color="#ffe68e"/><stop offset=".477" stop-color="#ffa34e"/><stop offset=".557" stop-color="#fff387"/><stop offset=".726" stop-color="#ffa841"/></linearGradient><linearGradient id="c" x1="37.411" x2="37.411" y1=".61" y2="21.61" gradientUnits="userSpaceOnUse"><stop offset=".214" stop-color="#fffdeb"/><stop offset=".505" stop-color="#fff389"/><stop offset=".849" stop-color="#ffe922"/></linearGradient><filter id="a" width="73.755" height="17.598" x="0" y="2.639" color-interpolation-filters="sRGB" filterUnits="userSpaceOnUse"><feFlood flood-opacity="0" result="BackgroundImageFix"/><feColorMatrix in="SourceAlpha" result="hardAlpha" values="0 0 0 0 0 0 0 0 0 0 0 0 0 0 0 0 0 0 127 0"/><feOffset dy="2.067"/><feGaussianBlur stdDeviation="1.034"/><feComposite in2="hardAlpha" operator="out"/><feColorMatrix values="0 0 0 0 0 0 0 0 0 0 0 0 0 0 0 0 0 0 0.2 0"/><feBlend in2="BackgroundImageFix" result="effect1_dropShadow_121_40090"/><feBlend in="SourceGraphic" in2="effect1_dropShadow_121_40090" result="shape"/></filter></defs></svg>