<svg width="20" height="20" viewBox="0 0 20 20" fill="none" xmlns="http://www.w3.org/2000/svg">
<mask id="mask0_106_27883" style="mask-type:alpha" maskUnits="userSpaceOnUse" x="3" y="4" width="14" height="12">
<path d="M7.33343 13.2542L4.41676 10.3376C4.26272 10.1816 4.05264 10.0938 3.83343 10.0938C3.61422 10.0938 3.40414 10.1816 3.2501 10.3376C2.9251 10.6626 2.9251 11.1792 3.2501 11.5042L6.74176 14.9959C7.06676 15.3209 7.59176 15.3209 7.91676 14.9959L16.7501 6.1709C17.0751 5.8459 17.0751 5.32923 16.7501 5.00423C16.5961 4.84828 16.386 4.7605 16.1668 4.7605C15.9476 4.7605 15.7375 4.84828 15.5834 5.00423L7.33343 13.2542Z" fill="black"/>
</mask>
<g mask="url(#mask0_106_27883)">
<rect width="20" height="20" fill="white" fill-opacity="0.9"/>
</g>
</svg>
