<svg width="24" height="16" viewBox="0 0 24 16" fill="none" xmlns="http://www.w3.org/2000/svg">
<rect width="24" height="16" rx="2" fill="#F22A46"/>
<path d="M13.7529 4.60254L15.9189 3.41309L15.1582 5.64844L17.6631 5.4541L15.9385 7.16113L18.2852 8L15.9385 8.83887L17.6631 10.5449L15.1582 10.3506L15.9189 12.5869L13.7529 11.3975L13.3984 13.7197L12 11.7705L10.6006 13.7197L10.2471 11.3975L8.08008 12.5869L8.84082 10.3506L6.33594 10.5449L8.06055 8.83887L5.71387 8L8.06055 7.16113L6.33594 5.4541L8.84082 5.64844L8.08008 3.41309L10.2471 4.60254L10.6006 2.28027L12 4.22852L13.3984 2.28027L13.7529 4.60254ZM12 4.2666C9.79094 4.2666 8.00012 5.93823 8 8C8.00009 10.0618 9.79092 11.7334 12 11.7334C14.209 11.7333 15.9999 10.0617 16 8C15.9999 5.93832 14.2089 4.26674 12 4.2666ZM11.999 5.33301C13.577 5.33301 14.8564 6.52728 14.8564 8C14.8564 9.47276 13.577 10.667 11.999 10.667C10.4213 10.6668 9.14258 9.47263 9.14258 8C9.14262 6.52741 10.4213 5.33322 11.999 5.33301Z" fill="#FFF04D"/>
</svg>
