<svg width="153" height="31" viewBox="0 0 153 31" fill="none" xmlns="http://www.w3.org/2000/svg">
<g filter="url(#filter0_d_64_2351)">
<path d="M19.7081 1.70014L19.7081 17.5761H22.8041V22.1121H19.7081V26.9001H14.5601L14.5601 22.1121H2.03214L2.03214 17.5761L10.2041 1.70014L19.7081 1.70014ZM14.5601 3.24815L7.21614 17.5761H14.5601V3.24815ZM41.181 23.5521C39.237 26.0241 36.777 27.2601 33.801 27.2601C32.313 27.2601 30.933 26.9361 29.661 26.2881C28.413 25.6161 27.321 24.7041 26.385 23.5521C25.473 22.4001 24.753 21.0321 24.225 19.4481C23.721 17.8641 23.469 16.1481 23.469 14.3001C23.469 12.4521 23.721 10.7361 24.225 9.15215C24.753 7.56815 25.473 6.20015 26.385 5.04814C27.321 3.89615 28.413 2.99615 29.661 2.34815C30.933 1.67615 32.313 1.34015 33.801 1.34015C36.777 1.34015 39.237 2.57614 41.181 5.04814C42.237 6.36814 43.029 7.83215 43.557 9.44015C44.085 11.0241 44.349 12.6441 44.349 14.3001C44.349 15.9561 44.085 17.5761 43.557 19.1601C43.029 20.7441 42.237 22.2081 41.181 23.5521ZM37.365 8.39615C36.429 6.83615 35.241 6.05614 33.801 6.05614C33.081 6.05614 32.409 6.26014 31.785 6.66815C31.185 7.07615 30.657 7.65215 30.201 8.39615C29.769 9.14015 29.421 10.0161 29.157 11.0241C28.917 12.0081 28.797 13.1001 28.797 14.3001C28.797 15.4761 28.917 16.5681 29.157 17.5761C29.421 18.5841 29.769 19.4601 30.201 20.2041C30.657 20.9481 31.185 21.5241 31.785 21.9321C32.409 22.3401 33.081 22.5441 33.801 22.5441C35.241 22.5441 36.429 21.7641 37.365 20.2041C37.893 19.3401 38.289 18.4041 38.553 17.3961C38.817 16.3641 38.949 15.3321 38.949 14.3001C38.949 13.2681 38.817 12.2481 38.553 11.2401C38.289 10.2081 37.893 9.26015 37.365 8.39615ZM72.1748 23.5521C70.2308 26.0241 67.7708 27.2601 64.7948 27.2601C63.3068 27.2601 61.9268 26.9361 60.6548 26.2881C59.4068 25.6161 58.3148 24.7041 57.3788 23.5521C56.4668 22.4001 55.7468 21.0321 55.2188 19.4481C54.7148 17.8641 54.4628 16.1481 54.4628 14.3001C54.4628 12.4521 54.7148 10.7361 55.2188 9.15215C55.7468 7.56815 56.4668 6.20015 57.3788 5.04814C58.3148 3.89615 59.4068 2.99615 60.6548 2.34815C61.9268 1.67615 63.3068 1.34015 64.7948 1.34015C67.7708 1.34015 70.2308 2.57614 72.1748 5.04814C73.2308 6.36814 74.0228 7.83215 74.5508 9.44015C75.0788 11.0241 75.3428 12.6441 75.3428 14.3001C75.3428 15.9561 75.0788 17.5761 74.5508 19.1601C74.0228 20.7441 73.2308 22.2081 72.1748 23.5521ZM68.3588 8.39615C67.4228 6.83615 66.2348 6.05614 64.7948 6.05614C64.0748 6.05614 63.4028 6.26014 62.7788 6.66815C62.1788 7.07615 61.6508 7.65215 61.1948 8.39615C60.7628 9.14015 60.4148 10.0161 60.1508 11.0241C59.9108 12.0081 59.7908 13.1001 59.7908 14.3001C59.7908 15.4761 59.9108 16.5681 60.1508 17.5761C60.4148 18.5841 60.7628 19.4601 61.1948 20.2041C61.6508 20.9481 62.1788 21.5241 62.7788 21.9321C63.4028 22.3401 64.0748 22.5441 64.7948 22.5441C66.2348 22.5441 67.4228 21.7641 68.3588 20.2041C68.8868 19.3401 69.2828 18.4041 69.5468 17.3961C69.8108 16.3641 69.9428 15.3321 69.9428 14.3001C69.9428 13.2681 69.8108 12.2481 69.5468 11.2401C69.2828 10.2081 68.8868 9.26015 68.3588 8.39615ZM93.7888 23.5521C91.8448 26.0241 89.3848 27.2601 86.4088 27.2601C84.9208 27.2601 83.5408 26.9361 82.2688 26.2881C81.0208 25.6161 79.9288 24.7041 78.9928 23.5521C78.0808 22.4001 77.3608 21.0321 76.8328 19.4481C76.3288 17.8641 76.0768 16.1481 76.0768 14.3001C76.0768 12.4521 76.3288 10.7361 76.8328 9.15215C77.3608 7.56815 78.0808 6.20015 78.9928 5.04814C79.9288 3.89615 81.0208 2.99615 82.2688 2.34815C83.5408 1.67615 84.9208 1.34015 86.4088 1.34015C89.3848 1.34015 91.8448 2.57614 93.7888 5.04814C94.8448 6.36814 95.6368 7.83215 96.1648 9.44015C96.6928 11.0241 96.9568 12.6441 96.9568 14.3001C96.9568 15.9561 96.6928 17.5761 96.1648 19.1601C95.6368 20.7441 94.8448 22.2081 93.7888 23.5521ZM89.9728 8.39615C89.0368 6.83615 87.8488 6.05614 86.4088 6.05614C85.6888 6.05614 85.0168 6.26014 84.3928 6.66815C83.7928 7.07615 83.2648 7.65215 82.8088 8.39615C82.3768 9.14015 82.0288 10.0161 81.7648 11.0241C81.5248 12.0081 81.4048 13.1001 81.4048 14.3001C81.4048 15.4761 81.5248 16.5681 81.7648 17.5761C82.0288 18.5841 82.3768 19.4601 82.8088 20.2041C83.2648 20.9481 83.7928 21.5241 84.3928 21.9321C85.0168 22.3401 85.6888 22.5441 86.4088 22.5441C87.8488 22.5441 89.0368 21.7641 89.9728 20.2041C90.5008 19.3401 90.8968 18.4041 91.1608 17.3961C91.4248 16.3641 91.5568 15.3321 91.5568 14.3001C91.5568 13.2681 91.4248 12.2481 91.1608 11.2401C90.8968 10.2081 90.5008 9.26015 89.9728 8.39615ZM115.403 23.5521C113.459 26.0241 110.999 27.2601 108.023 27.2601C106.535 27.2601 105.155 26.9361 103.883 26.2881C102.635 25.6161 101.543 24.7041 100.607 23.5521C99.6949 22.4001 98.9749 21.0321 98.4469 19.4481C97.9429 17.8641 97.6909 16.1481 97.6909 14.3001C97.6909 12.4521 97.9429 10.7361 98.4469 9.15215C98.9749 7.56815 99.6949 6.20015 100.607 5.04814C101.543 3.89615 102.635 2.99615 103.883 2.34815C105.155 1.67615 106.535 1.34015 108.023 1.34015C110.999 1.34015 113.459 2.57614 115.403 5.04814C116.459 6.36814 117.251 7.83215 117.779 9.44015C118.307 11.0241 118.571 12.6441 118.571 14.3001C118.571 15.9561 118.307 17.5761 117.779 19.1601C117.251 20.7441 116.459 22.2081 115.403 23.5521ZM111.587 8.39615C110.651 6.83615 109.463 6.05614 108.023 6.05614C107.303 6.05614 106.631 6.26014 106.007 6.66815C105.407 7.07615 104.879 7.65215 104.423 8.39615C103.991 9.14015 103.643 10.0161 103.379 11.0241C103.139 12.0081 103.019 13.1001 103.019 14.3001C103.019 15.4761 103.139 16.5681 103.379 17.5761C103.643 18.5841 103.991 19.4601 104.423 20.2041C104.879 20.9481 105.407 21.5241 106.007 21.9321C106.631 22.3401 107.303 22.5441 108.023 22.5441C109.463 22.5441 110.651 21.7641 111.587 20.2041C112.115 19.3401 112.511 18.4041 112.775 17.3961C113.039 16.3641 113.171 15.3321 113.171 14.3001C113.171 13.2681 113.039 12.2481 112.775 11.2401C112.511 10.2081 112.115 9.26015 111.587 8.39615ZM138.297 18.8361C138.297 19.4841 138.333 20.0361 138.405 20.4921C138.501 20.9481 138.693 21.3801 138.981 21.7881C139.317 22.3641 139.749 22.7841 140.277 23.0481C140.829 23.2881 141.513 23.3961 142.329 23.3721C143.601 23.3481 144.585 22.9401 145.281 22.1481C145.833 21.4521 146.109 20.7801 146.109 20.1321C146.109 19.7481 146.061 19.4241 145.965 19.1601C145.869 18.8481 145.701 18.6081 145.461 18.4401C145.221 18.2481 144.957 18.1521 144.669 18.1521C144.501 18.1521 144.393 18.1641 144.345 18.1881C143.937 18.3081 143.685 18.5361 143.589 18.8721V19.0161C143.589 19.2561 143.673 19.5321 143.841 19.8441L144.237 20.6001L140.709 21.6081C140.445 21.3921 140.205 21.1281 139.989 20.8161C139.773 20.5041 139.641 20.1681 139.593 19.8081C139.569 19.6881 139.545 19.5561 139.521 19.4121C139.521 19.2681 139.521 19.1001 139.521 18.9081C139.521 17.9961 139.761 17.2041 140.241 16.5321C140.745 15.8361 141.453 15.3201 142.365 14.9841C143.085 14.7201 143.853 14.5881 144.669 14.5881C145.389 14.5881 146.037 14.6721 146.613 14.8401C147.645 15.0801 148.473 15.6201 149.097 16.4601C149.745 17.2761 150.093 18.2601 150.141 19.4121C150.261 21.3321 149.721 23.0001 148.521 24.4161C147.561 25.5681 146.253 26.3241 144.597 26.6841C143.853 26.9001 142.965 27.0081 141.933 27.0081C141.021 27.0081 140.073 26.8881 139.089 26.6481C137.721 26.2881 136.605 25.5921 135.741 24.5601C134.877 23.5281 134.361 22.2921 134.193 20.8521C134.145 20.3961 134.109 20.0001 134.085 19.6641C134.061 19.3041 134.049 19.0041 134.049 18.7641V13.6521V11.7801H130.377V8.07215H132.897H134.049V7.53214C134.049 7.14815 134.049 6.82415 134.049 6.56015C134.049 6.27215 134.037 6.03215 134.013 5.84015C133.989 5.55215 133.881 5.30015 133.689 5.08415C133.521 4.84415 133.317 4.70014 133.077 4.65215C133.005 4.62815 132.861 4.61615 132.645 4.61615C132.381 4.61615 132.129 4.67615 131.889 4.79615C131.673 4.89215 131.517 5.02415 131.421 5.19214C131.253 5.64814 131.145 6.12814 131.097 6.63215H127.065C127.065 5.36014 127.173 4.50815 127.389 4.07615C127.773 2.97215 128.553 2.16815 129.729 1.66415C130.713 1.23215 131.685 1.01614 132.645 1.01614C133.629 1.01614 134.601 1.23215 135.561 1.66415C136.353 2.00015 136.977 2.50415 137.433 3.17615C137.913 3.84815 138.177 4.65215 138.225 5.58815C138.249 5.78015 138.261 6.03214 138.261 6.34415C138.285 6.65615 138.297 7.01615 138.297 7.42415V8.07215H150.645V11.7801H138.297V13.4721V18.8361Z" fill="url(#paint0_linear_64_2351)"/>
</g>
<defs>
<filter id="filter0_d_64_2351" x="-2.36034e-05" y="-1.18017e-05" width="152.677" height="30.3086" filterUnits="userSpaceOnUse" color-interpolation-filters="sRGB">
<feFlood flood-opacity="0" result="BackgroundImageFix"/>
<feColorMatrix in="SourceAlpha" type="matrix" values="0 0 0 0 0 0 0 0 0 0 0 0 0 0 0 0 0 0 127 0" result="hardAlpha"/>
<feOffset dy="1.01613"/>
<feGaussianBlur stdDeviation="1.01613"/>
<feComposite in2="hardAlpha" operator="out"/>
<feColorMatrix type="matrix" values="0 0 0 0 0 0 0 0 0 0 0 0 0 0 0 0 0 0 0.25 0"/>
<feBlend mode="normal" in2="BackgroundImageFix" result="effect1_dropShadow_64_2351"/>
<feBlend mode="normal" in="SourceGraphic" in2="effect1_dropShadow_64_2351" result="shape"/>
</filter>
<linearGradient id="paint0_linear_64_2351" x1="76.6913" y1="-41.3215" x2="76.6913" y2="76.9749" gradientUnits="userSpaceOnUse">
<stop offset="0.33274" stop-color="#FFF4CD"/>
<stop offset="0.400099" stop-color="#FFE68E"/>
<stop offset="0.476571" stop-color="#FFA34E"/>
<stop offset="0.557142" stop-color="#FFF387"/>
<stop offset="0.725754" stop-color="#FFA841"/>
</linearGradient>
</defs>
</svg>
