<svg xmlns="http://www.w3.org/2000/svg" width="76" height="19" fill="none" viewBox="0 0 76 19"><g filter="url(#a)"><mask id="d" width="73.119" height="14.635" x="1.214" y="-.106" fill="#000" maskUnits="userSpaceOnUse"><path fill="#fff" d="M1.214-.106h73.119v14.635H1.214z"/><path d="m11.062 8.854 1.19-.01-.469 2.775-1.19.01-.307 1.822-3.026.026.308-1.822-5.22.046.47-2.775L7.48 1.575l3.468-.03-4.697 7.35 1.785-.015.356-2.145 3.026-.026zm11.89-1.294q-.486 2.828-1.985 4.455-1.482 1.611-3.828 1.631-2.328.02-3.398-1.738-1.053-1.776-.601-4.602.452-2.792 1.967-4.438 1.517-1.628 3.845-1.648 2.33-.02 3.399 1.755 1.07 1.76.6 4.585m-5.447 3.125q1.852-.015 2.42-3.268.532-3.252-1.338-3.236T16.184 7.45q-.566 3.252 1.32 3.236M37.51 7.434q-.486 2.826-1.985 4.454-1.482 1.611-3.828 1.631-2.328.02-3.398-1.738-1.052-1.776-.601-4.602.452-2.791 1.967-4.437 1.517-1.628 3.845-1.649 2.33-.02 3.399 1.756 1.07 1.758.6 4.585m-5.447 3.124q1.852-.015 2.42-3.268.532-3.251-1.338-3.236-1.87.016-2.403 3.268-.566 3.253 1.32 3.236M48.218 7.34q-.485 2.827-1.984 4.455-1.482 1.611-3.828 1.631-2.329.02-3.398-1.738-1.053-1.776-.601-4.602.451-2.792 1.967-4.438Q41.89 1.02 44.22 1t3.398 1.755q1.07 1.76.601 4.585m-5.447 3.125q1.853-.015 2.42-3.268.533-3.252-1.337-3.236T41.45 7.23q-.567 3.252 1.32 3.236m16.155-3.218q-.485 2.827-1.985 4.454-1.482 1.611-3.827 1.632-2.33.02-3.399-1.739-1.052-1.775-.6-4.601.45-2.792 1.967-4.438Q52.598.927 54.926.907q2.33-.021 3.399 1.755 1.07 1.76.6 4.585m-5.447 3.125q1.853-.016 2.42-3.269.532-3.251-1.338-3.235-1.87.015-2.402 3.268-.567 3.252 1.32 3.236m19.914-6.005.016 1.87-5.576.048.034 3.876q.004.476.142.713.138.22.614.216a2.5 2.5 0 0 0 .764-.126q.373-.14.677-.346.304-.223.489-.514.184-.291.181-.597a.4.4 0 0 0-.138-.287q-.136-.135-.528-.132-.306.003-.544.056l-.287-1.732q.305-.087.68-.125.39-.037.798-.04 1.002-.009 1.619.444.616.454.624 1.423.008.918-.41 1.636-.42.717-1.112 1.2a5.6 5.6 0 0 1-3.12.995q-.713.007-1.208-.159a2.2 2.2 0 0 1-.769-.435 3.4 3.4 0 0 1-.36-.422 2.2 2.2 0 0 1-.261-.66q-.09-.425-.095-1.14l-.034-3.824-1.427.012-.017-1.87zM65.367.237q.561-.004.987.128t.717.419q.343.32.535.896t.202 1.63l.01 1.174-2.244.02-.01-1.089a3.2 3.2 0 0 0-.074-.713.67.67 0 0 0-.276-.423q-.204-.15-.613-.148-.221.002-.475.056a3 3 0 0 0-.492.157l-.66-1.626q.66-.245 1.187-.35a5.5 5.5 0 0 1 1.206-.13"/></mask><path fill="url(#b)" d="m11.062 8.854 1.19-.01-.469 2.775-1.19.01-.307 1.822-3.026.026.308-1.822-5.22.046.47-2.775L7.48 1.575l3.468-.03-4.697 7.35 1.785-.015.356-2.145 3.026-.026zm11.89-1.294q-.486 2.828-1.985 4.455-1.482 1.611-3.828 1.631-2.328.02-3.398-1.738-1.053-1.776-.601-4.602.452-2.792 1.967-4.438 1.517-1.628 3.845-1.648 2.33-.02 3.399 1.755 1.07 1.76.6 4.585m-5.447 3.125q1.852-.015 2.42-3.268.532-3.252-1.338-3.236T16.184 7.45q-.566 3.252 1.32 3.236M37.51 7.434q-.486 2.826-1.985 4.454-1.482 1.611-3.828 1.631-2.328.02-3.398-1.738-1.052-1.776-.601-4.602.452-2.791 1.967-4.437 1.517-1.628 3.845-1.649 2.33-.02 3.399 1.756 1.07 1.758.6 4.585m-5.447 3.124q1.852-.015 2.42-3.268.532-3.251-1.338-3.236-1.87.016-2.403 3.268-.566 3.253 1.32 3.236M48.218 7.34q-.485 2.827-1.984 4.455-1.482 1.611-3.828 1.631-2.329.02-3.398-1.738-1.053-1.776-.601-4.602.451-2.792 1.967-4.438Q41.89 1.02 44.22 1t3.398 1.755q1.07 1.76.601 4.585m-5.447 3.125q1.853-.015 2.42-3.268.533-3.252-1.337-3.236T41.45 7.23q-.567 3.252 1.32 3.236m16.155-3.218q-.485 2.827-1.985 4.454-1.482 1.611-3.827 1.632-2.33.02-3.399-1.739-1.052-1.775-.6-4.601.45-2.792 1.967-4.438Q52.598.927 54.926.907q2.33-.021 3.399 1.755 1.07 1.76.6 4.585m-5.447 3.125q1.853-.016 2.42-3.269.532-3.251-1.338-3.235-1.87.015-2.402 3.268-.567 3.252 1.32 3.236m19.914-6.005.016 1.87-5.576.048.034 3.876q.004.476.142.713.138.22.614.216a2.5 2.5 0 0 0 .764-.126q.373-.14.677-.346.304-.223.489-.514.184-.291.181-.597a.4.4 0 0 0-.138-.287q-.136-.135-.528-.132-.306.003-.544.056l-.287-1.732q.305-.087.68-.125.39-.037.798-.04 1.002-.009 1.619.444.616.454.624 1.423.008.918-.41 1.636-.42.717-1.112 1.2a5.6 5.6 0 0 1-3.12.995q-.713.007-1.208-.159a2.2 2.2 0 0 1-.769-.435 3.4 3.4 0 0 1-.36-.422 2.2 2.2 0 0 1-.261-.66q-.09-.425-.095-1.14l-.034-3.824-1.427.012-.017-1.87zM65.367.237q.561-.004.987.128t.717.419q.343.32.535.896t.202 1.63l.01 1.174-2.244.02-.01-1.089a3.2 3.2 0 0 0-.074-.713.67.67 0 0 0-.276-.423q-.204-.15-.613-.148-.221.002-.475.056a3 3 0 0 0-.492.157l-.66-1.626q.66-.245 1.187-.35a5.5 5.5 0 0 1 1.206-.13"/><path fill="url(#c)" d="m11.062 8.854-.234-.039-.046.279.282-.002zm1.19-.01.234.04.048-.28-.284.002zm-.469 2.775.003.237.199-.001.033-.197zm-1.19.01-.002-.237-.199.001-.033.197zm-.307 1.822.002.237.2-.001.033-.197zm-3.026.026-.234-.04-.047.28.283-.002zm.308-1.822.234.04.047-.28-.284.003zm-5.22.046-.234-.04-.047.28.284-.003zm.47-2.775-.201-.128-.026.04-.008.048zM7.48 1.575l-.002-.238-.13.001-.069.11zm3.468-.03.2.128.236-.37-.438.004zM6.25 8.895l-.2-.127-.236.37.439-.005zm1.785-.015.002.238.2-.002.033-.197zm.356-2.145-.002-.237-.2.001-.033.197zm3.026-.026.234.039.046-.28-.282.003zm-.356 2.145.002.238 1.19-.01-.002-.238-.002-.238-1.19.01zm1.19-.01-.234-.04-.469 2.775.234.04.235.04.468-2.776zm-.469 2.775-.002-.238-1.19.01.002.238.002.238 1.19-.01zm-1.19.01-.234-.04-.307 1.822.234.04.235.04.307-1.822zm-.307 1.822-.002-.238-3.026.027.002.237.002.238 3.026-.027zm-3.026.026.235.04.307-1.822-.234-.04-.235-.039-.307 1.822zm.308-1.822-.003-.237-5.218.045.002.238.002.237 5.219-.045zm-5.22.046.235.04.469-2.776-.234-.04-.235-.039-.469 2.775zm.47-2.775.2.127 4.662-7.35-.2-.128-.2-.127-4.663 7.35zM7.48 1.575l.002.237 3.468-.03-.002-.237-.002-.238-3.468.03zm3.468-.03-.2-.128-4.697 7.35.2.129.2.128 4.697-7.351zM6.25 8.895l.003.238 1.784-.015-.002-.238-.002-.237-1.785.015zm1.785-.015.235.04.355-2.146-.234-.039-.235-.039-.355 2.145zm.356-2.145.002.238 3.026-.027-.002-.237-.002-.238-3.026.027zm3.026-.026-.235-.04-.355 2.146.234.039.235.039.355-2.145zm11.534.851.234.04zm-1.985 4.455-.174-.161zm-7.226-.107-.204.12.001.003zm-.601-4.602-.235-.038zm1.967-4.438-.173-.161h-.001zm7.244.107-.204.123zm-2.427 4.442.234.04v-.002zm-3.74.032.234.041v-.002zm6.768.111-.235-.04c-.318 1.852-.964 3.29-1.924 4.334l.174.16.175.162c1.038-1.128 1.715-2.66 2.044-4.575zm-1.985 4.455-.174-.161c-.94 1.022-2.152 1.542-3.656 1.555l.002.237.002.238c1.625-.014 2.965-.582 4.001-1.708zm-3.828 1.631-.002-.237c-1.482.012-2.53-.534-3.193-1.625l-.203.124-.203.123c.763 1.255 1.98 1.867 3.603 1.853zm-3.398-1.738.204-.121c-.664-1.121-.866-2.594-.57-4.444l-.235-.037-.235-.038c-.306 1.918-.107 3.514.632 4.76zm-.601-4.602.234.038c.296-1.828.937-3.26 1.908-4.315l-.175-.16-.174-.162c-1.05 1.14-1.72 2.666-2.027 4.56zm1.967-4.438.174.162c.964-1.035 2.182-1.56 3.673-1.572l-.002-.238-.002-.238c-1.614.014-2.96.589-4.016 1.725zm3.845-1.648.002.238c1.481-.013 2.53.538 3.193 1.64l.204-.123.203-.122c-.762-1.266-1.98-1.885-3.604-1.87zm3.399 1.755-.203.124c.673 1.108.876 2.573.57 4.423l.234.038.234.04c.318-1.92.12-3.51-.632-4.748zm-4.846 7.71.002.237c.7-.006 1.277-.323 1.72-.92.435-.588.74-1.444.931-2.545l-.234-.04-.234-.041c-.186 1.068-.473 1.84-.845 2.342-.364.492-.807.725-1.342.73zm2.42-3.268.234.038c.18-1.095.166-1.961-.083-2.564a1.5 1.5 0 0 0-.577-.715c-.259-.163-.568-.235-.914-.232l.002.237.002.238c.277-.003.492.056.656.16.163.102.296.262.392.494.197.476.229 1.232.053 2.305zM18.586 4.18l-.002-.237c-.705.006-1.285.323-1.725.922-.432.588-.73 1.444-.91 2.545l.234.038.235.039c.175-1.068.455-1.84.824-2.34.36-.491.805-.724 1.346-.73zm-2.402 3.27-.234-.04c-.19 1.094-.185 1.962.061 2.565.126.308.316.552.577.716s.57.236.919.232l-.002-.237-.002-.238c-.281.003-.497-.055-.662-.16a1 1 0 0 1-.39-.493c-.194-.475-.22-1.23-.033-2.304zm21.327-.015.234.04v-.002zm-1.985 4.454-.175-.16zm-7.226-.107-.204.121.001.002zm-.6-4.603-.235-.038zm1.967-4.437-.173-.162h-.001zm7.244.107-.204.122v.001zm-2.427 4.44.234.042v-.003zm-3.74.034.235.04v-.002zm6.768.11-.235-.04c-.318 1.853-.964 3.291-1.925 4.334l.175.161.175.16c1.038-1.127 1.715-2.658 2.044-4.574zm-1.985 4.455-.175-.16c-.94 1.021-2.151 1.54-3.655 1.554l.002.237.003.238c1.624-.014 2.964-.582 4-1.708zm-3.828 1.631-.002-.237c-1.482.013-2.53-.534-3.193-1.624l-.203.123-.203.123c.763 1.255 1.98 1.867 3.604 1.853zM28.3 11.781l.204-.121c-.664-1.12-.866-2.593-.57-4.444l-.235-.037-.235-.037c-.306 1.917-.107 3.513.632 4.76zm-.6-4.602.235.038c.295-1.828.936-3.26 1.907-4.314l-.175-.161-.174-.161c-1.05 1.139-1.72 2.665-2.027 4.56zm1.967-4.437.174.162c.964-1.036 2.183-1.56 3.673-1.573l-.002-.238-.002-.237c-1.614.014-2.96.588-4.016 1.724zm3.845-1.649.002.238c1.481-.013 2.53.538 3.193 1.64l.204-.122.203-.123C36.351 1.46 35.133.841 33.51.856zM36.91 2.85l-.203.123c.673 1.108.876 2.573.57 4.423l.234.039.234.038c.318-1.918.12-3.51-.632-4.747zm-4.846 7.71.002.237c.7-.006 1.277-.324 1.72-.922.435-.587.74-1.443.931-2.543l-.234-.041-.234-.04c-.186 1.067-.473 1.84-.845 2.342-.364.491-.807.724-1.342.729zm2.42-3.27.234.04c.18-1.096.166-1.962-.083-2.565a1.5 1.5 0 0 0-.577-.714c-.259-.163-.568-.236-.914-.233l.002.237.002.238c.277-.002.492.056.656.16.163.103.296.262.392.494.197.476.229 1.233.053 2.306zm-1.338-3.235-.002-.237c-.705.006-1.285.323-1.725.922-.432.588-.73 1.445-.91 2.545l.234.038.235.039c.175-1.068.455-1.84.824-2.34.36-.49.805-.724 1.346-.729zm-2.403 3.268-.234-.04c-.19 1.095-.185 1.962.061 2.565.126.308.316.552.577.716s.57.236.919.233l-.002-.238-.002-.237c-.281.002-.497-.056-.662-.16a1 1 0 0 1-.39-.493c-.194-.475-.22-1.232-.033-2.305zm17.475.018.234.04zm-1.984 4.455-.175-.161zm-7.226-.107-.205.12.002.003zm-.601-4.602-.235-.038zm1.967-4.438-.174-.161zm7.243.107-.203.123zm-2.426 4.442.234.04v-.002zm-3.74.032.234.041v-.002zm6.767.111-.234-.04c-.318 1.852-.965 3.29-1.925 4.334l.175.16.175.162c1.038-1.128 1.714-2.66 2.043-4.575zm-1.984 4.455-.175-.161c-.94 1.022-2.152 1.541-3.655 1.555l.002.237.002.238c1.624-.014 2.965-.582 4-1.708zm-3.828 1.631-.002-.237c-1.482.012-2.53-.534-3.193-1.625l-.203.124-.203.123c.763 1.255 1.98 1.867 3.603 1.853zm-3.398-1.738.204-.121c-.664-1.121-.866-2.594-.57-4.444l-.235-.037-.235-.038c-.306 1.918-.108 3.514.631 4.76zm-.601-4.602.234.038c.296-1.828.936-3.26 1.908-4.315l-.175-.16-.175-.162c-1.05 1.14-1.72 2.666-2.027 4.56zm1.967-4.438.174.162c.964-1.035 2.182-1.56 3.673-1.573L44.219 1l-.002-.238c-1.615.014-2.96.589-4.017 1.725zM44.22 1l.002.237c1.481-.012 2.53.54 3.193 1.641l.203-.123.204-.122c-.763-1.266-1.98-1.885-3.604-1.87zm3.398 1.755-.203.124c.674 1.108.876 2.573.57 4.422l.234.04.235.038c.318-1.918.12-3.51-.633-4.747zm-4.846 7.71.002.238c.7-.007 1.278-.324 1.72-.922.435-.587.74-1.443.932-2.544l-.234-.04-.234-.041c-.186 1.068-.474 1.84-.845 2.342-.364.492-.808.725-1.343.73zm2.42-3.268.234.038c.18-1.095.167-1.961-.082-2.564a1.5 1.5 0 0 0-.578-.715c-.258-.163-.567-.235-.913-.232l.002.237.002.238c.277-.003.491.055.656.16.163.102.295.262.391.494.197.476.23 1.232.053 2.305zM43.854 3.96l-.002-.237c-.706.006-1.285.323-1.725.922-.433.588-.73 1.444-.91 2.545l.234.038.234.039c.175-1.068.456-1.84.824-2.34.36-.491.805-.724 1.347-.73zM41.45 7.23l-.234-.04c-.19 1.094-.185 1.962.06 2.565.126.308.317.552.578.716s.57.236.918.232l-.002-.237-.002-.238c-.28.003-.496-.056-.661-.16a1 1 0 0 1-.39-.493c-.194-.475-.22-1.23-.033-2.304zm17.475.018.234.04v-.001zm-1.985 4.454-.174-.16zm-7.226-.107-.204.122.001.002zm-.6-4.601-.235-.038zm1.967-4.438-.174-.162-.001.001zm7.243.107-.204.123zm-2.427 4.441.234.041v-.002zm-3.74.033.235.04v-.002zm6.768.111-.234-.04c-.318 1.852-.965 3.29-1.925 4.334l.174.16.175.162c1.038-1.128 1.715-2.66 2.044-4.576zm-1.985 4.454-.174-.16c-.94 1.021-2.152 1.541-3.656 1.554l.003.238.002.237c1.624-.014 2.964-.582 4-1.708zm-3.827 1.632-.002-.238c-1.483.013-2.53-.534-3.194-1.624l-.203.123-.203.124c.763 1.255 1.98 1.867 3.604 1.852zm-3.399-1.739.205-.12c-.665-1.121-.867-2.594-.571-4.444l-.235-.037-.234-.038c-.307 1.918-.108 3.513.63 4.76zm-.6-4.601.234.037c.295-1.827.936-3.26 1.907-4.314l-.174-.16-.175-.162c-1.05 1.14-1.72 2.665-2.027 4.56zm1.967-4.438.174.162c.963-1.035 2.182-1.56 3.672-1.573l-.002-.237-.002-.238c-1.614.014-2.959.589-4.016 1.724zM54.926.907l.002.237c1.482-.013 2.53.539 3.193 1.64l.204-.122.203-.122c-.762-1.266-1.98-1.885-3.604-1.87zm3.399 1.755-.203.124c.673 1.107.876 2.572.57 4.422l.234.04.234.038c.318-1.918.12-3.51-.632-4.747zm-4.846 7.71.002.237c.7-.006 1.277-.323 1.72-.921.435-.587.74-1.443.931-2.544l-.233-.04-.235-.041c-.186 1.067-.473 1.84-.845 2.342-.364.492-.807.724-1.342.73zm2.42-3.269.234.039c.18-1.095.166-1.962-.083-2.564a1.5 1.5 0 0 0-.577-.715c-.259-.163-.568-.236-.914-.233l.002.238.002.238c.278-.003.492.055.656.159.164.103.296.262.392.494.197.476.229 1.233.053 2.306zM54.56 3.868l-.002-.238c-.705.007-1.284.323-1.725.922-.432.589-.73 1.445-.91 2.546l.235.038.234.038c.175-1.067.456-1.839.824-2.34.36-.49.805-.724 1.346-.728zm-2.4 3.268-.234-.04c-.191 1.094-.186 1.961.06 2.565.126.308.316.552.577.716s.57.235.919.232l-.002-.237-.002-.238c-.28.002-.497-.056-.662-.16a1 1 0 0 1-.39-.493c-.194-.475-.22-1.231-.032-2.304zm21.234-2.769.237-.002-.002-.238-.237.002zm.016 1.87.002.238.238-.003-.002-.237zm-5.576.048-.002-.237-.237.002.002.238zm.176 4.59-.205.119.004.006zm1.378.09.074.225.01-.003zm.677-.347.134.197.007-.005zm.532-1.398-.166.169zm-1.072-.076-.234.039.041.248.245-.055zm-.287-1.732-.065-.228-.204.058.035.21zm.68-.125-.023-.236h-.001zm2.63 3.463-.205-.12zm-1.111 1.2-.136-.196zm-1.524.744.069.227h.003zm-2.804.092-.078.225h.002zm-.769-.435-.166.17.005.004zm-.36-.422-.2.13.007.01zm-.261-.66-.233.048.002.009zm-.129-4.964.238-.002-.002-.238-.238.002zm-1.427.012-.238.003.002.237.238-.002zm-.017-1.87-.002-.237-.237.002.002.238zM66.354.366l.07-.227zm.717.419-.166.17.004.004zm.535.896.226-.075zm.212 2.804.002.237.237-.002-.002-.238zm-2.244.02-.238.001.002.238.238-.002zm-.084-1.802.23-.057zm-.276-.423-.14.192.01.007zm-1.088-.092-.05-.233h-.002zm-.492.157-.22.09.09.22.22-.09zm-.66-1.626-.082-.223-.23.085.092.227zm1.187-.35.047.232.007-.001zm9.232 3.999-.238.002.017 1.87.237-.002.238-.002-.017-1.87zm.016 1.87L73.407 6l-5.576.049.002.237.002.238 5.576-.048zm-5.576.048-.237.003.033 3.875.238-.002.238-.002-.034-3.876zm.034 3.876-.238.002c.003.333.052.62.175.83l.205-.119.206-.12c-.062-.104-.108-.292-.11-.595zm.142.713-.2.126c.162.26.484.33.816.327l-.002-.237-.002-.238c-.302.003-.39-.07-.41-.104zm.614.216.002.237q.428-.003.836-.137l-.074-.226-.074-.226a2.3 2.3 0 0 1-.692.114zm.764-.126.083.223q.398-.15.728-.372l-.134-.197-.133-.196a3 3 0 0 1-.627.32zm.677-.346.14.192q.339-.247.55-.579l-.201-.127-.2-.127a1.7 1.7 0 0 1-.43.45zm.489-.514.2.127c.145-.227.221-.47.22-.726l-.239.002-.237.002a.85.85 0 0 1-.145.468zm.181-.597.238-.002a.64.64 0 0 0-.21-.455l-.166.17-.166.169c.058.058.067.097.067.12zm-.138-.287.166-.17c-.164-.162-.429-.202-.696-.2l.002.238.002.238c.254-.003.341.045.36.063zm-.528-.132-.002-.237a3 3 0 0 0-.594.061l.052.232.052.232q.208-.047.494-.05zm-.544.056.235-.039-.287-1.732-.235.04-.234.038.287 1.732zm-.287-1.732.066.229q.281-.082.637-.117l-.024-.237-.023-.236q-.392.039-.721.133zm.68-.125.022.237q.38-.037.778-.04l-.002-.238-.002-.237a10 10 0 0 0-.82.042zm.798-.04.002.237c.633-.006 1.118.135 1.476.399l.14-.192.142-.19c-.464-.342-1.058-.498-1.762-.492zm1.619.444-.141.192c.335.246.522.64.528 1.233l.237-.002.238-.002c-.006-.699-.235-1.254-.721-1.612zm.624 1.423-.237.002q.006.859-.379 1.514l.205.12.206.12q.452-.781.443-1.758zm-.41 1.636-.206-.12a3.5 3.5 0 0 1-1.042 1.124l.136.195.135.195q.736-.51 1.182-1.275zm-1.112 1.2-.136-.196a5.4 5.4 0 0 1-1.46.713l.072.227.072.226a5.8 5.8 0 0 0 1.588-.776zm-1.524.744-.068-.228a5.5 5.5 0 0 1-1.53.242l.002.237.002.238a6 6 0 0 0 1.663-.262zm-1.596.251-.002-.237c-.458.004-.833-.048-1.13-.147l-.076.225-.076.225c.362.122.793.176 1.286.172zm-1.208-.159.078-.224a1.9 1.9 0 0 1-.686-.386l-.16.175-.162.174q.338.309.852.486zm-.769-.435.167-.17a3 3 0 0 1-.335-.392l-.193.14-.192.14q.182.25.387.451zm-.36-.422.198-.13a2 2 0 0 1-.229-.588l-.23.057-.23.058c.073.296.168.544.292.733zm-.261-.66.232-.05q-.082-.389-.09-1.091l-.237.002-.238.002q.005.726.1 1.185zm-.095-1.14.237-.001-.033-3.825-.238.002-.237.002.033 3.825zm-.034-3.824-.002-.238-1.428.013.002.237.003.238 1.427-.012zm-1.427.012.237-.002-.016-1.87-.238.003-.237.002.016 1.87zm-.017-1.87.002.238 9.248-.08-.002-.238-.002-.238-9.248.081zm1.222-4.21.002.238q.532-.003.914.117l.07-.227.071-.227A3.5 3.5 0 0 0 65.364 0zm.987.128-.07.227q.374.118.62.361l.167-.17.167-.169a2 2 0 0 0-.814-.476zm.717.419-.162.174c.192.179.353.44.472.797l.225-.075.226-.075c-.137-.41-.334-.748-.598-.995zm.535.896-.225.075c.116.35.183.864.189 1.558l.238-.002.237-.002c-.006-.713-.074-1.285-.213-1.704zm.202 1.63-.238.003.01 1.173.238-.002.237-.003-.01-1.172zm.01 1.174-.002-.238-2.244.02.002.237.002.238 2.244-.02zm-2.244.02.237-.003-.01-1.088-.237.002-.237.002.01 1.088zm-.01-1.089.238-.002a3.4 3.4 0 0 0-.081-.768l-.23.057-.232.056q.063.252.068.66zm-.074-.713.23-.057a.9.9 0 0 0-.376-.565l-.13.2-.13.198c.076.05.14.133.175.28zm-.276-.423.141-.191c-.196-.145-.461-.197-.756-.194l.002.237.002.238c.25-.002.393.045.47.101zm-.613-.148-.002-.237q-.248.002-.522.06l.049.233.048.232a2.2 2.2 0 0 1 .43-.05zm-.475.056-.052-.232q-.26.057-.53.17l.09.219.09.22a3 3 0 0 1 .453-.146zm-.492.157.22-.09-.66-1.626-.22.09-.22.089.66 1.626zm-.66-1.626.082.222A8 8 0 0 1 64.208.6L64.16.367l-.047-.233a8.4 8.4 0 0 0-1.223.36zm1.187-.35.054.23q.494-.116 1.154-.123l-.002-.237L65.365 0a5.8 5.8 0 0 0-1.259.136z" mask="url(#d)"/></g><defs><linearGradient id="b" x1="38.338" x2="38.675" y1="-9.685" y2="29.029" gradientUnits="userSpaceOnUse"><stop offset=".333" stop-color="#fff4cd"/><stop offset=".4" stop-color="#ffe68e"/><stop offset=".477" stop-color="#ffa34e"/><stop offset=".557" stop-color="#fff387"/><stop offset=".726" stop-color="#ffa841"/></linearGradient><linearGradient id="c" x1="38.213" x2="38.37" y1=".207" y2="18.206" gradientUnits="userSpaceOnUse"><stop offset=".214" stop-color="#fffdeb"/><stop offset=".505" stop-color="#fff389"/><stop offset=".849" stop-color="#ffe922"/></linearGradient><filter id="a" width="75.716" height="18.018" x="0" y="0" color-interpolation-filters="sRGB" filterUnits="userSpaceOnUse"><feFlood flood-opacity="0" result="BackgroundImageFix"/><feColorMatrix in="SourceAlpha" result="hardAlpha" values="0 0 0 0 0 0 0 0 0 0 0 0 0 0 0 0 0 0 127 0"/><feOffset dy="2.067"/><feGaussianBlur stdDeviation="1.034"/><feComposite in2="hardAlpha" operator="out"/><feColorMatrix values="0 0 0 0 0 0 0 0 0 0 0 0 0 0 0 0 0 0 0.2 0"/><feBlend in2="BackgroundImageFix" result="effect1_dropShadow_121_40095"/><feBlend in="SourceGraphic" in2="effect1_dropShadow_121_40095" result="shape"/></filter></defs></svg>