<svg xmlns="http://www.w3.org/2000/svg" width="75" height="15" fill="none" viewBox="0 0 75 15"><g filter="url(#a)"><mask id="d" width="71" height="12" x="1.861" y="-.752" fill="#000" maskUnits="userSpaceOnUse"><path fill="#fff" d="M1.861-.752h71v12h-71z"/><path d="M2.323 1.4 5.15.448h2.156l-1.722 9.8H3.079l1.246-7.056-1.778.434zM18.277.448l-.42 2.394h-3.43l-.266 1.05h.602q1.414 0 2.254.91.854.895.574 2.506-.28 1.539-1.386 2.352-1.106.798-2.604.798-2.66 0-3.402-2.212l2.31-1.204q.308.98 1.358.98.504 0 .84-.238a.97.97 0 0 0 .406-.658q.07-.42-.168-.672-.224-.252-.714-.252h-3.15L12.495.448zm8.302 5.04q-.42 2.323-1.666 3.654-1.233 1.316-3.164 1.316-1.919 0-2.786-1.456-.855-1.47-.462-3.794.392-2.296 1.652-3.64 1.26-1.33 3.178-1.33t2.786 1.47q.867 1.455.462 3.78M22.07 8.022q1.526 0 2.016-2.674.461-2.674-1.078-2.674-1.54-.001-2.002 2.674-.49 2.673 1.064 2.674m13.326-2.534q-.42 2.323-1.666 3.654-1.232 1.316-3.164 1.316-1.918 0-2.786-1.456-.854-1.47-.462-3.794.393-2.296 1.652-3.64 1.26-1.33 3.178-1.33t2.786 1.47q.868 1.455.462 3.78M30.89 8.022q1.527 0 2.016-2.674.462-2.674-1.078-2.674-1.54-.001-2.002 2.674-.49 2.673 1.064 2.674m16.498-2.534q-.42 2.323-1.666 3.654-1.232 1.316-3.164 1.316-1.917 0-2.786-1.456-.853-1.47-.462-3.794.392-2.296 1.652-3.64 1.26-1.33 3.178-1.33 1.919 0 2.786 1.47.868 1.455.462 3.78M42.88 8.022q1.527 0 2.016-2.674.462-2.674-1.078-2.674-1.54-.001-2.002 2.674-.49 2.673 1.064 2.674m13.327-2.534q-.42 2.323-1.666 3.654-1.233 1.316-3.164 1.316-1.919 0-2.786-1.456-.855-1.47-.462-3.794.392-2.296 1.652-3.64 1.26-1.33 3.178-1.33t2.786 1.47q.867 1.455.462 3.78m-4.508 2.534q1.526 0 2.016-2.674.462-2.674-1.078-2.674-1.54-.001-2.002 2.674-.49 2.673 1.064 2.674m13.326-2.534q-.42 2.323-1.666 3.654-1.232 1.316-3.164 1.316-1.918 0-2.786-1.456-.854-1.47-.462-3.794.392-2.296 1.652-3.64 1.26-1.33 3.178-1.33t2.786 1.47q.868 1.455.462 3.78m-4.508 2.534q1.526 0 2.016-2.674.462-2.674-1.078-2.674-1.54-.001-2.002 2.674-.49 2.673 1.064 2.674m11.352-6.65L66.8 9.324h5.208v.924h-6.3v-.924l5.068-7.952h-4.928V.448h6.02z"/></mask><path fill="url(#b)" d="M2.323 1.4 5.15.448h2.156l-1.722 9.8H3.079l1.246-7.056-1.778.434zM18.277.448l-.42 2.394h-3.43l-.266 1.05h.602q1.414 0 2.254.91.854.895.574 2.506-.28 1.539-1.386 2.352-1.106.798-2.604.798-2.66 0-3.402-2.212l2.31-1.204q.308.98 1.358.98.504 0 .84-.238a.97.97 0 0 0 .406-.658q.07-.42-.168-.672-.224-.252-.714-.252h-3.15L12.495.448zm8.302 5.04q-.42 2.323-1.666 3.654-1.233 1.316-3.164 1.316-1.919 0-2.786-1.456-.855-1.47-.462-3.794.392-2.296 1.652-3.64 1.26-1.33 3.178-1.33t2.786 1.47q.867 1.455.462 3.78M22.07 8.022q1.526 0 2.016-2.674.461-2.674-1.078-2.674-1.54-.001-2.002 2.674-.49 2.673 1.064 2.674m13.326-2.534q-.42 2.323-1.666 3.654-1.232 1.316-3.164 1.316-1.918 0-2.786-1.456-.854-1.47-.462-3.794.393-2.296 1.652-3.64 1.26-1.33 3.178-1.33t2.786 1.47q.868 1.455.462 3.78M30.89 8.022q1.527 0 2.016-2.674.462-2.674-1.078-2.674-1.54-.001-2.002 2.674-.49 2.673 1.064 2.674m16.498-2.534q-.42 2.323-1.666 3.654-1.232 1.316-3.164 1.316-1.917 0-2.786-1.456-.853-1.47-.462-3.794.392-2.296 1.652-3.64 1.26-1.33 3.178-1.33 1.919 0 2.786 1.47.868 1.455.462 3.78M42.88 8.022q1.527 0 2.016-2.674.462-2.674-1.078-2.674-1.54-.001-2.002 2.674-.49 2.673 1.064 2.674m13.327-2.534q-.42 2.323-1.666 3.654-1.233 1.316-3.164 1.316-1.919 0-2.786-1.456-.855-1.47-.462-3.794.392-2.296 1.652-3.64 1.26-1.33 3.178-1.33t2.786 1.47q.867 1.455.462 3.78m-4.508 2.534q1.526 0 2.016-2.674.462-2.674-1.078-2.674-1.54-.001-2.002 2.674-.49 2.673 1.064 2.674m13.326-2.534q-.42 2.323-1.666 3.654-1.232 1.316-3.164 1.316-1.918 0-2.786-1.456-.854-1.47-.462-3.794.392-2.296 1.652-3.64 1.26-1.33 3.178-1.33t2.786 1.47q.868 1.455.462 3.78m-4.508 2.534q1.526 0 2.016-2.674.462-2.674-1.078-2.674-1.54-.001-2.002 2.674-.49 2.673 1.064 2.674m11.352-6.65L66.8 9.324h5.208v.924h-6.3v-.924l5.068-7.952h-4.928V.448h6.02z"/><path fill="url(#c)" d="m2.323 1.4-.076-.226-.18.06.02.19zM5.15.448V.21h-.04l-.036.012zm2.156 0 .234.04.05-.278h-.283zm-1.722 9.8v.237h.2l.034-.196zm-2.506 0-.234-.042-.05.28h.284zm1.246-7.056.234.04.063-.358-.354.087zm-1.778.434-.237.023.028.272.265-.065zM2.323 1.4l.076.225L5.227.673 5.15.448 5.075.222l-2.828.952zM5.15.448v.237h2.156V.21H5.15zm2.156 0L7.073.406l-1.722 9.8.234.042.234.04L7.54.489zm-1.722 9.8v-.238H3.079v.475h2.506zm-2.506 0 .234.04 1.246-7.055-.234-.041-.234-.042-1.246 7.056zm1.246-7.056-.057-.231-1.778.434.057.23.056.231 1.778-.434zm-1.778.434.236-.024-.224-2.226-.236.024-.237.023.224 2.226zM18.277.448l.234.04.05-.278h-.284zm-.42 2.394v.237h.2l.034-.196zm-3.43 0v-.238h-.185l-.045.18zm-.266 1.05-.23-.059-.075.296h.305zm2.856.91-.174.16.002.003zm.574 2.506.234.042v-.002zM16.205 9.66l.14.192zM10.2 8.246l-.11-.211-.18.094.065.192zm2.31-1.204.227-.072-.085-.27-.252.13zm2.198.742-.137-.194zm.406-.658.235.039zm-.168-.672-.177.157.005.006zm-3.864-.252-.23-.057-.073.294h.303zM12.495.448V.21h-.186l-.044.18zm5.782 0-.234-.041-.42 2.394.234.04.234.042.42-2.394zm-.42 2.394v-.238h-3.43v.475h3.43zm-3.43 0-.23-.059-.266 1.05.23.059.23.058.267-1.05zm-.266 1.05v.237h.602v-.475h-.602zm.602 0v.237c.887 0 1.571.283 2.08.834l.174-.161.175-.162c-.612-.662-1.43-.986-2.429-.986zm2.254.91-.172.163c.502.527.69 1.277.512 2.302l.234.04.234.041c.195-1.121.001-2.042-.636-2.71zm.574 2.506-.233-.043c-.178.976-.612 1.703-1.293 2.203l.14.192.14.191c.794-.582 1.284-1.424 1.48-2.5zM16.205 9.66l-.139-.193c-.693.5-1.51.753-2.465.753v.475q1.568.002 2.743-.843zm-2.604.798v-.238c-.855 0-1.533-.178-2.05-.515-.516-.335-.894-.84-1.126-1.535l-.226.076-.225.075c.262.78.699 1.38 1.317 1.783.616.4 1.392.591 2.31.591zM10.2 8.246l.11.21 2.31-1.204-.11-.21-.11-.211-2.31 1.204zm2.31-1.204-.226.07c.114.365.304.658.58.857.277.2.617.29 1.004.29v-.475c-.313 0-.549-.073-.725-.2s-.315-.325-.406-.614zm1.358.98v.237c.374 0 .705-.089.977-.282l-.137-.193-.137-.194c-.176.124-.405.194-.703.194zm.84-.238.137.193c.278-.196.447-.472.504-.812l-.235-.04-.234-.038a.73.73 0 0 1-.31.503zm.406-.658.235.039c.055-.335-.009-.64-.23-.875l-.173.164-.172.163c.095.101.143.244.106.47zm-.168-.672.178-.158c-.212-.238-.529-.332-.892-.332v.475c.29 0 .45.075.537.172zm-.714-.252v-.238h-3.15v.475h3.15zm-3.15 0 .23.056L12.727.504l-.23-.056-.232-.057-1.413 5.754zM12.495.448v.237h5.782V.21h-5.782zm14.084 5.04.234.042v-.002zm-1.666 3.654-.174-.163zm-5.95-.14-.206.119.002.002zM18.5 5.208l-.234-.04zm1.652-3.64-.173-.164v.001zm5.964.14-.205.12v.001zm-2.03 3.64.233.042v-.002zm-3.08 0 .233.042v-.002zm5.572.14-.234-.043c-.274 1.518-.814 2.69-1.606 3.534l.174.163.173.162c.87-.929 1.44-2.193 1.727-3.774zm-1.666 3.654-.174-.163c-.773.826-1.763 1.241-2.99 1.241v.475c1.348 0 2.468-.462 3.337-1.391zm-3.164 1.316v-.238c-1.208 0-2.053-.452-2.582-1.34l-.204.122-.204.121c.628 1.053 1.64 1.572 2.99 1.572zm-2.786-1.456.205-.12c-.532-.916-.689-2.12-.433-3.635l-.234-.04-.235-.039c-.266 1.583-.115 2.91.491 3.953zM18.5 5.208l.234.04c.256-1.497.79-2.664 1.591-3.518l-.173-.162-.174-.163c-.879.938-1.445 2.198-1.712 3.763zm1.652-3.64.172.163c.794-.837 1.79-1.256 3.007-1.256V0c-1.34 0-2.463.468-3.35 1.404zM23.33.238v.237c1.207 0 2.051.456 2.581 1.353l.205-.12.204-.121C25.694.524 24.681 0 23.331 0zm2.786 1.47-.204.121c.54.906.696 2.103.432 3.618l.234.04.234.041c.276-1.583.125-2.906-.492-3.942zM22.07 8.022v.237c.591 0 1.08-.264 1.456-.763.368-.488.627-1.198.793-2.106l-.233-.042-.234-.043c-.16.875-.4 1.502-.705 1.905-.296.393-.651.574-1.077.574zm2.016-2.674.234.04c.156-.902.153-1.626-.052-2.135a1.27 1.27 0 0 0-.487-.612 1.4 1.4 0 0 0-.773-.205v.475c.222 0 .39.048.516.13.126.08.228.205.303.39.154.382.177.996.025 1.876zm-1.078-2.674v-.238c-.596 0-1.087.264-1.46.764-.367.488-.62 1.2-.776 2.107l.234.04.234.041c.151-.875.386-1.501.688-1.904.293-.391.648-.573 1.08-.573zm-2.002 2.674-.234-.043c-.165.902-.169 1.626.034 2.136.104.261.264.471.486.613s.485.205.778.205v-.475a.95.95 0 0 1-.521-.13.8.8 0 0 1-.302-.389c-.151-.381-.169-.994-.008-1.875zm14.39.14.234.042v-.002zM33.73 9.142l-.173-.163zm-5.95-.14-.205.119.001.002zm-.462-3.794-.234-.04zm1.652-3.64-.172-.164-.001.001zm5.964.14-.205.12.001.001zm-2.03 3.64.234.042v-.002zm-3.08 0 .234.042v-.002zm5.572.14-.234-.043c-.274 1.518-.814 2.69-1.605 3.534l.173.163.173.162c.87-.929 1.441-2.193 1.727-3.774zM33.73 9.142l-.173-.163c-.773.826-1.763 1.241-2.99 1.241v.475c1.348 0 2.467-.462 3.337-1.391zm-3.164 1.316v-.238c-1.208 0-2.052-.452-2.582-1.34l-.204.122-.204.121c.628 1.053 1.64 1.572 2.99 1.572zM27.78 9.002l.206-.12c-.533-.916-.69-2.12-.434-3.635l-.234-.04-.234-.039c-.267 1.583-.116 2.91.49 3.953zm-.462-3.794.234.04c.256-1.497.79-2.664 1.591-3.518l-.173-.162-.173-.163c-.88.938-1.446 2.198-1.713 3.763zm1.652-3.64.173.163C29.936.894 30.932.475 32.149.475V0c-1.34 0-2.463.468-3.35 1.404zm3.18-1.33v.237c1.207 0 2.052.456 2.581 1.353l.205-.12.205-.121C34.512.524 33.5 0 32.15 0zm2.786 1.47-.204.121c.54.906.697 2.103.432 3.618l.234.04.234.041c.277-1.583.126-2.906-.492-3.942zM30.89 8.022v.237c.591 0 1.081-.264 1.457-.763.368-.488.627-1.198.793-2.106l-.234-.042-.234-.043c-.16.875-.4 1.502-.705 1.905-.296.393-.65.574-1.077.574zm2.016-2.674.234.04c.156-.902.153-1.626-.052-2.135a1.27 1.27 0 0 0-.487-.612 1.4 1.4 0 0 0-.773-.205v.475c.222 0 .39.048.516.13.126.08.229.205.303.39.154.382.177.996.025 1.876zm-1.078-2.674v-.238c-.595 0-1.086.264-1.46.764-.367.488-.62 1.2-.776 2.107l.234.04.234.041c.151-.875.386-1.501.688-1.904.293-.391.649-.573 1.08-.573zm-2.002 2.674-.234-.043c-.165.902-.169 1.626.034 2.136.104.261.265.471.487.613.22.142.484.205.777.205v-.475a.95.95 0 0 1-.52-.13.8.8 0 0 1-.302-.389c-.152-.381-.17-.994-.008-1.875zm17.562.14.234.042v-.002zm-1.666 3.654-.173-.163zm-5.95-.14-.205.119.001.002zm-.462-3.794-.234-.04zm1.652-3.64-.172-.164-.001.001zm5.964.14-.204.12v.001zm-2.03 3.64.234.042v-.002zm-3.08 0 .234.042v-.002zm5.572.14-.233-.043c-.275 1.518-.815 2.69-1.606 3.534l.173.163.174.162c.87-.929 1.44-2.193 1.726-3.774zm-1.666 3.654-.173-.163c-.773.826-1.763 1.241-2.99 1.241v.475c1.348 0 2.467-.462 3.337-1.391zm-3.164 1.316v-.238c-1.208 0-2.052-.452-2.582-1.34l-.204.122-.204.121c.628 1.053 1.641 1.572 2.99 1.572zm-2.786-1.456.206-.12c-.533-.916-.689-2.12-.433-3.635l-.235-.04-.234-.039c-.267 1.583-.115 2.91.49 3.953zm-.462-3.794.235.04c.255-1.497.79-2.664 1.59-3.518l-.173-.162-.173-.163c-.88.938-1.446 2.198-1.713 3.763zm1.652-3.64.173.163C41.927.894 42.922.475 44.139.475V0c-1.34 0-2.463.468-3.35 1.404zM44.14.238v.237c1.207 0 2.052.456 2.582 1.353l.204-.12.205-.121C46.503.524 45.49 0 44.14 0zm2.786 1.47-.204.121c.54.906.697 2.103.432 3.618l.234.04.234.041c.277-1.583.126-2.906-.492-3.942zM42.88 8.022v.237c.592 0 1.081-.264 1.457-.763.368-.488.627-1.198.793-2.106l-.234-.042-.233-.043c-.16.875-.401 1.502-.705 1.905-.297.393-.651.574-1.078.574zm2.016-2.674.234.04c.156-.902.153-1.626-.052-2.135a1.27 1.27 0 0 0-.486-.612 1.4 1.4 0 0 0-.774-.205v.475a.93.93 0 0 1 .517.13.8.8 0 0 1 .302.39c.155.382.177.996.025 1.876zm-1.078-2.674v-.238c-.595 0-1.086.264-1.46.764-.366.488-.619 1.2-.776 2.107l.234.04.235.041c.15-.875.386-1.501.687-1.904.293-.391.649-.573 1.08-.573zm-2.002 2.674-.233-.043c-.166.902-.17 1.626.034 2.136.104.261.264.471.486.613.22.142.484.205.777.205v-.475a.95.95 0 0 1-.52-.13.8.8 0 0 1-.302-.389c-.152-.381-.17-.994-.008-1.875zm14.39.14.235.042v-.002zM54.54 9.142l-.174-.163zm-5.95-.14-.206.119.002.002zm-.462-3.794-.234-.04zm1.652-3.64-.173-.164v.001zm5.964.14-.205.12v.001zm-2.03 3.64.233.042v-.002zm-3.08 0 .233.042v-.002zm5.572.14-.234-.043c-.274 1.518-.814 2.69-1.606 3.534l.174.163.173.162c.87-.929 1.44-2.193 1.727-3.774zM54.54 9.142l-.174-.163c-.773.826-1.763 1.241-2.99 1.241v.475c1.348 0 2.467-.462 3.337-1.391zm-3.164 1.316v-.238c-1.208 0-2.053-.452-2.582-1.34l-.204.122-.204.121c.627 1.053 1.64 1.572 2.99 1.572zM48.59 9.002l.205-.12c-.532-.916-.689-2.12-.433-3.635l-.234-.04-.235-.039c-.267 1.583-.115 2.91.491 3.953zm-.462-3.794.234.04c.255-1.497.79-2.664 1.591-3.518l-.173-.162-.174-.163c-.879.938-1.445 2.198-1.712 3.763zm1.652-3.64.172.163C50.745.894 51.741.475 52.958.475V0c-1.34 0-2.464.468-3.35 1.404zm3.178-1.33v.237c1.207 0 2.051.456 2.581 1.353l.205-.12.204-.121C55.321.524 54.308 0 52.958 0zm2.786 1.47-.204.121c.54.906.696 2.103.432 3.618l.234.04.234.041c.276-1.583.125-2.906-.492-3.942zm-4.046 6.314v.237c.59 0 1.08-.264 1.456-.763.368-.488.627-1.198.793-2.106l-.233-.042-.234-.043c-.16.875-.4 1.502-.705 1.905-.296.393-.651.574-1.077.574zm2.016-2.674.234.04c.156-.902.153-1.626-.052-2.135a1.27 1.27 0 0 0-.487-.612 1.4 1.4 0 0 0-.773-.205v.475c.222 0 .39.048.516.13.125.08.228.205.303.39.154.382.177.996.025 1.876zm-1.078-2.674v-.238c-.596 0-1.087.264-1.461.764-.366.488-.618 1.2-.775 2.107l.234.04.234.041c.151-.875.386-1.501.687-1.904.294-.391.65-.573 1.08-.573zm-2.002 2.674-.234-.043c-.165.902-.169 1.626.034 2.136.104.261.264.471.486.613s.485.205.778.205v-.475a.95.95 0 0 1-.521-.13.8.8 0 0 1-.301-.389c-.152-.381-.17-.994-.009-1.875zm14.39.14.234.042v-.002zm-1.666 3.654-.173-.163zm-5.95-.14-.205.119.001.002zm-.462-3.794-.234-.04zm1.652-3.64-.172-.164-.001.001zm5.964.14-.204.12v.001zm-2.03 3.64.234.042v-.002zm-3.08 0 .234.042v-.002zm5.572.14-.234-.043c-.274 1.518-.814 2.69-1.605 3.534l.173.163.174.162c.87-.929 1.44-2.193 1.726-3.774zm-1.666 3.654-.173-.163c-.773.826-1.763 1.241-2.99 1.241v.475c1.347 0 2.467-.462 3.337-1.391zm-3.164 1.316v-.238c-1.208 0-2.052-.452-2.582-1.34l-.204.122-.204.121c.628 1.053 1.64 1.572 2.99 1.572zm-2.786-1.456.206-.12c-.533-.916-.69-2.12-.434-3.635l-.234-.04-.234-.039c-.267 1.583-.116 2.91.49 3.953zm-.462-3.794.234.04c.256-1.497.79-2.664 1.591-3.518l-.173-.162-.173-.163c-.88.938-1.446 2.198-1.713 3.763zm1.652-3.64.173.163C59.563.894 60.559.475 61.776.475V0c-1.34 0-2.463.468-3.35 1.404zm3.178-1.33v.237c1.207 0 2.051.456 2.581 1.353l.205-.12.205-.121C64.139.524 63.127 0 61.777 0zm2.786 1.47-.204.121c.54.906.697 2.103.432 3.618l.234.04.234.041c.277-1.583.126-2.906-.492-3.942zm-4.046 6.314v.237c.591 0 1.08-.264 1.457-.763.368-.488.627-1.198.793-2.106l-.234-.042-.234-.043c-.16.875-.4 1.502-.705 1.905-.296.393-.65.574-1.077.574zm2.016-2.674.234.04c.156-.902.153-1.626-.052-2.135a1.27 1.27 0 0 0-.486-.612 1.4 1.4 0 0 0-.774-.205v.475c.222 0 .39.048.516.13.126.08.229.205.303.39.154.382.177.996.025 1.876zm-1.078-2.674v-.238c-.595 0-1.087.264-1.46.764-.367.488-.62 1.2-.776 2.107l.234.04.234.041c.151-.875.386-1.501.688-1.904.293-.391.649-.573 1.08-.573zm-2.002 2.674-.234-.043c-.165.902-.169 1.626.034 2.136.104.261.264.471.487.613.22.142.484.205.777.205v-.475a.95.95 0 0 1-.521-.13.8.8 0 0 1-.301-.389c-.152-.381-.17-.994-.008-1.875zm12.416-3.976.2.127.038-.058v-.07zM66.8 9.324l-.2-.128-.233.365h.433zm5.208 0h.238v-.238h-.238zm0 .924v.237h.238v-.237zm-6.3 0h-.237v.237h.237zm0-.924-.2-.128-.037.058v.07zm5.068-7.952.2.127.234-.365h-.434zm-4.928 0h-.237v.237h.237zm0-.924V.21h-.237v.238zm6.02 0h.238V.21h-.238zm0 .924-.2-.128L66.6 9.196l.2.128.2.127L72.07 1.5zM66.8 9.324v.237h5.208v-.475H66.8zm5.208 0h-.237v.924h.475v-.924zm0 .924v-.238h-6.3v.475h6.3zm-6.3 0h.238v-.924h-.475v.924zm0-.924.2.127 5.07-7.951-.2-.127-.2-.128-5.069 7.952zm5.068-7.952v-.238h-4.928v.475h4.928zm-4.928 0h.238V.448h-.475v.924zm0-.924v.237h6.02V.21h-6.02zm6.02 0h-.237v.924h.475V.448z" mask="url(#d)"/></g><defs><linearGradient id="b" x1="37.073" x2="37.073" y1="-12.643" y2="26.072" gradientUnits="userSpaceOnUse"><stop offset=".333" stop-color="#fff4cd"/><stop offset=".4" stop-color="#ffe68e"/><stop offset=".477" stop-color="#ffa34e"/><stop offset=".557" stop-color="#fff387"/><stop offset=".726" stop-color="#ffa841"/></linearGradient><linearGradient id="c" x1="36.861" x2="36.861" y1="-2.752" y2="15.248" gradientUnits="userSpaceOnUse"><stop offset=".214" stop-color="#fffdeb"/><stop offset=".505" stop-color="#fff389"/><stop offset=".849" stop-color="#ffe922"/></linearGradient><filter id="a" width="74.313" height="14.83" x="0" y="0" color-interpolation-filters="sRGB" filterUnits="userSpaceOnUse"><feFlood flood-opacity="0" result="BackgroundImageFix"/><feColorMatrix in="SourceAlpha" result="hardAlpha" values="0 0 0 0 0 0 0 0 0 0 0 0 0 0 0 0 0 0 127 0"/><feOffset dy="2.067"/><feGaussianBlur stdDeviation="1.034"/><feComposite in2="hardAlpha" operator="out"/><feColorMatrix values="0 0 0 0 0 0 0 0 0 0 0 0 0 0 0 0 0 0 0.2 0"/><feBlend in2="BackgroundImageFix" result="effect1_dropShadow_129_40250"/><feBlend in="SourceGraphic" in2="effect1_dropShadow_129_40250" result="shape"/></filter></defs></svg>