<svg width="24" height="24" viewBox="0 0 24 24" fill="none" xmlns="http://www.w3.org/2000/svg">
<mask id="path-1-outside-1_116_8361" maskUnits="userSpaceOnUse" x="-1.52542" y="-1.41416" width="26.869" height="26.869" fill="black">
<rect fill="white" x="-1.52542" y="-1.41416" width="26.869" height="26.869"/>
<path fill-rule="evenodd" clip-rule="evenodd" d="M13.4554 10.2159C13.4566 10.3471 13.5639 10.4525 13.6951 10.4514L22.1882 10.3774C22.3195 10.3763 22.4267 10.4817 22.4279 10.6129L22.4488 13.0199C22.45 13.1511 22.3446 13.2584 22.2133 13.2596L13.7202 13.3335C13.589 13.3347 13.4835 13.442 13.4847 13.5732L13.5607 22.3066C13.5619 22.4379 13.4564 22.5451 13.3252 22.5463L10.9182 22.5673C10.787 22.5684 10.6797 22.463 10.6785 22.3317L10.6025 13.5983C10.6013 13.4671 10.4941 13.3616 10.3628 13.3628L1.55204 13.4395C1.42084 13.4406 1.31355 13.3352 1.3124 13.204L1.29144 10.797C1.2903 10.6658 1.39574 10.5585 1.52695 10.5573L10.3378 10.4806C10.469 10.4795 10.5744 10.3722 10.5733 10.241L10.4986 1.67183C10.4975 1.54062 10.6029 1.43333 10.7341 1.43219L13.1412 1.41123C13.2724 1.41009 13.3797 1.51553 13.3808 1.64673L13.4554 10.2159Z"/>
</mask>
<path fill-rule="evenodd" clip-rule="evenodd" d="M13.4554 10.2159C13.4566 10.3471 13.5639 10.4525 13.6951 10.4514L22.1882 10.3774C22.3195 10.3763 22.4267 10.4817 22.4279 10.6129L22.4488 13.0199C22.45 13.1511 22.3446 13.2584 22.2133 13.2596L13.7202 13.3335C13.589 13.3347 13.4835 13.442 13.4847 13.5732L13.5607 22.3066C13.5619 22.4379 13.4564 22.5451 13.3252 22.5463L10.9182 22.5673C10.787 22.5684 10.6797 22.463 10.6785 22.3317L10.6025 13.5983C10.6013 13.4671 10.4941 13.3616 10.3628 13.3628L1.55204 13.4395C1.42084 13.4406 1.31355 13.3352 1.3124 13.204L1.29144 10.797C1.2903 10.6658 1.39574 10.5585 1.52695 10.5573L10.3378 10.4806C10.469 10.4795 10.5744 10.3722 10.5733 10.241L10.4986 1.67183C10.4975 1.54062 10.6029 1.43333 10.7341 1.43219L13.1412 1.41123C13.2724 1.41009 13.3797 1.51553 13.3808 1.64673L13.4554 10.2159Z" fill="url(#paint0_linear_116_8361)"/>
<path fill-rule="evenodd" clip-rule="evenodd" d="M13.1412 1.41123L13.1391 1.17366L13.1412 1.41123ZM13.3808 1.64673L13.1432 1.6488L13.3808 1.64673ZM10.3378 10.4806L10.3398 10.7182L10.3378 10.4806ZM10.5733 10.241L10.8108 10.2389L10.5733 10.241ZM1.29144 10.797L1.05387 10.799L1.29144 10.797ZM1.52695 10.5573L1.52488 10.3197L1.52695 10.5573ZM1.55204 13.4395L1.55411 13.6771L1.55204 13.4395ZM1.3124 13.204L1.07483 13.2061L1.3124 13.204ZM10.6025 13.5983L10.3649 13.6004L10.6025 13.5983ZM10.3628 13.3628L10.3649 13.6004L10.3628 13.3628ZM10.6785 22.3317L10.441 22.3338L10.6785 22.3317ZM13.5607 22.3066L13.7983 22.3046L13.5607 22.3066ZM13.7202 13.3335L13.7222 13.5711L13.7202 13.3335ZM13.4847 13.5732L13.2471 13.5753L13.4847 13.5732ZM22.4488 13.0199L22.6864 13.0179L22.4488 13.0199ZM22.2133 13.2596L22.2154 13.4972L22.2133 13.2596ZM22.1882 10.3774L22.1862 10.1398L22.1882 10.3774ZM22.4279 10.6129L22.6655 10.6108L22.4279 10.6129ZM13.6951 10.4514L13.6971 10.6889L13.6951 10.4514ZM13.4554 10.2159L13.2179 10.2179L13.4554 10.2159ZM13.6951 10.4514L13.6971 10.6889L22.1903 10.615L22.1882 10.3774L22.1862 10.1398L13.693 10.2138L13.6951 10.4514ZM22.4279 10.6129L22.1903 10.615L22.2113 13.022L22.4488 13.0199L22.6864 13.0179L22.6655 10.6108L22.4279 10.6129ZM22.2133 13.2596L22.2113 13.022L13.7181 13.096L13.7202 13.3335L13.7222 13.5711L22.2154 13.4972L22.2133 13.2596ZM13.4847 13.5732L13.2471 13.5753L13.3231 22.3087L13.5607 22.3066L13.7983 22.3046L13.7222 13.5711L13.4847 13.5732ZM13.3252 22.5463L13.3231 22.3087L10.9161 22.3297L10.9182 22.5673L10.9203 22.8048L13.3273 22.7839L13.3252 22.5463ZM10.6785 22.3317L10.9161 22.3297L10.8401 13.5962L10.6025 13.5983L10.3649 13.6004L10.441 22.3338L10.6785 22.3317ZM10.3628 13.3628L10.3608 13.1252L1.54998 13.2019L1.55204 13.4395L1.55411 13.6771L10.3649 13.6004L10.3628 13.3628ZM1.3124 13.204L1.54998 13.2019L1.52902 10.7949L1.29144 10.797L1.05387 10.799L1.07483 13.2061L1.3124 13.204ZM1.52695 10.5573L1.52902 10.7949L10.3398 10.7182L10.3378 10.4806L10.3357 10.243L1.52488 10.3197L1.52695 10.5573ZM10.5733 10.241L10.8108 10.2389L10.7362 1.66976L10.4986 1.67183L10.2611 1.6739L10.3357 10.243L10.5733 10.241ZM10.7341 1.43219L10.7362 1.66976L13.1432 1.6488L13.1412 1.41123L13.1391 1.17366L10.7321 1.19462L10.7341 1.43219ZM13.3808 1.64673L13.1432 1.6488L13.2179 10.2179L13.4554 10.2159L13.693 10.2138L13.6184 1.64466L13.3808 1.64673ZM13.1412 1.41123L13.1432 1.6488L13.1432 1.6488L13.3808 1.64673L13.6184 1.64466C13.6161 1.38225 13.4015 1.17137 13.1391 1.17366L13.1412 1.41123ZM10.4986 1.67183L10.7362 1.66976L10.7362 1.66976L10.7341 1.43219L10.7321 1.19462C10.4697 1.1969 10.2588 1.41148 10.2611 1.6739L10.4986 1.67183ZM10.3378 10.4806L10.3398 10.7182C10.6022 10.7159 10.8131 10.5013 10.8108 10.2389L10.5733 10.241L10.3357 10.243L10.3378 10.4806ZM1.29144 10.797L1.52902 10.7949L1.52902 10.7949L1.52695 10.5573L1.52488 10.3197C1.26246 10.322 1.05158 10.5366 1.05387 10.799L1.29144 10.797ZM1.55204 13.4395L1.54998 13.2019L1.54998 13.2019L1.3124 13.204L1.07483 13.2061C1.07712 13.4685 1.2917 13.6794 1.55411 13.6771L1.55204 13.4395ZM10.6025 13.5983L10.8401 13.5962C10.8378 13.3338 10.6232 13.1229 10.3608 13.1252L10.3628 13.3628L10.3649 13.6004L10.6025 13.5983ZM10.9182 22.5673L10.9161 22.3297L10.6785 22.3317L10.441 22.3338C10.4433 22.5962 10.6578 22.8071 10.9203 22.8048L10.9182 22.5673ZM13.5607 22.3066L13.3231 22.3087L13.3231 22.3087L13.3252 22.5463L13.3273 22.7839C13.5897 22.7816 13.8006 22.567 13.7983 22.3046L13.5607 22.3066ZM13.7202 13.3335L13.7181 13.096C13.4557 13.0983 13.2448 13.3128 13.2471 13.5753L13.4847 13.5732L13.7222 13.5711L13.7202 13.3335ZM22.4488 13.0199L22.2113 13.022L22.2113 13.022L22.2133 13.2596L22.2154 13.4972C22.4778 13.4949 22.6887 13.2803 22.6864 13.0179L22.4488 13.0199ZM22.1882 10.3774L22.1903 10.615L22.1903 10.615L22.4279 10.6129L22.6655 10.6108C22.6632 10.3484 22.4486 10.1375 22.1862 10.1398L22.1882 10.3774ZM13.6951 10.4514L13.693 10.2138L13.693 10.2138L13.4554 10.2159L13.2179 10.2179C13.2201 10.4803 13.4347 10.6912 13.6971 10.6889L13.6951 10.4514Z" fill="url(#paint1_linear_116_8361)" mask="url(#path-1-outside-1_116_8361)"/>
<defs>
<linearGradient id="paint0_linear_116_8361" x1="17.8518" y1="5.94294" x2="6.04735" y2="17.9548" gradientUnits="userSpaceOnUse">
<stop offset="0.213542" stop-color="#FFFDEB"/>
<stop offset="0.505208" stop-color="#FFF389"/>
<stop offset="0.849481" stop-color="#FFE922"/>
</linearGradient>
<linearGradient id="paint1_linear_116_8361" x1="24.3736" y1="-0.622495" x2="-1.01586" y2="25.213" gradientUnits="userSpaceOnUse">
<stop offset="0.33274" stop-color="#FFF4CD"/>
<stop offset="0.400099" stop-color="#FFE68E"/>
<stop offset="0.476571" stop-color="#FFA34E"/>
<stop offset="0.557142" stop-color="#FFF387"/>
<stop offset="0.725754" stop-color="#FFA841"/>
</linearGradient>
</defs>
</svg>
