<svg xmlns="http://www.w3.org/2000/svg" width="76" height="18" fill="none" viewBox="0 0 76 18"><g filter="url(#a)"><mask id="d" width="72" height="14" x="2.067" y="-.607" fill="#000" maskUnits="userSpaceOnUse"><path fill="#fff" d="M2.067-.607h72v14h-72z"/><path d="M4.393.493h7.735l-.425 2.397-2.397 2.533q1.054.424 1.58 1.343.528.9.324 2.09-.34 1.904-1.683 2.84-1.343.952-3.18.952-1.512 0-2.55-.68-1.035-.68-1.444-2.006L5.14 8.517Q5.498 9.69 6.67 9.69q1.326 0 1.53-1.122.084-.51-.221-.8-.29-.305-.918-.305h-.63l-.866-1.734 2.21-2.33H3.883zm17.932 6.12q-.51 2.82-2.023 4.437-1.496 1.598-3.842 1.598-2.329 0-3.383-1.768-1.037-1.785-.56-4.607.475-2.789 2.005-4.42 1.53-1.615 3.86-1.615t3.382 1.785q1.054 1.767.561 4.59M16.851 9.69q1.852 0 2.448-3.247.561-3.247-1.309-3.247t-2.43 3.247q-.598 3.247 1.29 3.247m20.034-3.077q-.51 2.82-2.023 4.437-1.496 1.598-3.842 1.598-2.329 0-3.383-1.768-1.038-1.785-.561-4.607.476-2.789 2.006-4.42Q30.612.238 32.94.238t3.383 1.785q1.054 1.767.56 4.59M31.41 9.69q1.852 0 2.448-3.247.56-3.247-1.31-3.247-1.869 0-2.43 3.247-.595 3.247 1.292 3.247m16.182-3.077q-.51 2.82-2.023 4.437-1.496 1.598-3.842 1.598-2.329 0-3.383-1.768-1.038-1.785-.561-4.607.476-2.789 2.006-4.42Q41.32.238 43.649.238t3.383 1.785q1.054 1.767.56 4.59M42.119 9.69q1.853 0 2.448-3.247.56-3.247-1.31-3.247-1.869 0-2.43 3.247-.595 3.247 1.292 3.247M58.3 6.613q-.51 2.82-2.023 4.437-1.496 1.598-3.842 1.598-2.329 0-3.383-1.768-1.038-1.785-.561-4.607.476-2.789 2.006-4.42Q52.028.238 54.357.238t3.383 1.785q1.054 1.767.56 4.59M52.827 9.69q1.853 0 2.448-3.247.56-3.247-1.31-3.247-1.869 0-2.43 3.247-.595 3.247 1.292 3.247M64.938.493h4.624q1.684 0 2.737 1.224 1.072 1.207.765 2.94-.322 1.854-1.615 2.84-1.275.969-3.298.969h-1.58l-.12.68h3.485l-.289 1.683h-3.502l-.272 1.564H62.83l.272-1.564h-1.105l.29-1.683h1.121l.12-.68h-1.106l.476-2.703h1.105zm5.1 4.08q.102-.545-.187-.867-.271-.324-.799-.323h-1.598l-.408 2.38h1.581q.528 0 .918-.323.409-.324.493-.867"/></mask><path fill="url(#b)" d="M4.393.493h7.735l-.425 2.397-2.397 2.533q1.054.424 1.58 1.343.528.9.324 2.09-.34 1.904-1.683 2.84-1.343.952-3.18.952-1.512 0-2.55-.68-1.035-.68-1.444-2.006L5.14 8.517Q5.498 9.69 6.67 9.69q1.326 0 1.53-1.122.084-.51-.221-.8-.29-.305-.918-.305h-.63l-.866-1.734 2.21-2.33H3.883zm17.932 6.12q-.51 2.82-2.023 4.437-1.496 1.598-3.842 1.598-2.329 0-3.383-1.768-1.037-1.785-.56-4.607.475-2.789 2.005-4.42 1.53-1.615 3.86-1.615t3.382 1.785q1.054 1.767.561 4.59M16.851 9.69q1.852 0 2.448-3.247.561-3.247-1.309-3.247t-2.43 3.247q-.598 3.247 1.29 3.247m20.034-3.077q-.51 2.82-2.023 4.437-1.496 1.598-3.842 1.598-2.329 0-3.383-1.768-1.038-1.785-.561-4.607.476-2.789 2.006-4.42Q30.612.238 32.94.238t3.383 1.785q1.054 1.767.56 4.59M31.41 9.69q1.852 0 2.448-3.247.56-3.247-1.31-3.247-1.869 0-2.43 3.247-.595 3.247 1.292 3.247m16.182-3.077q-.51 2.82-2.023 4.437-1.496 1.598-3.842 1.598-2.329 0-3.383-1.768-1.038-1.785-.561-4.607.476-2.789 2.006-4.42Q41.32.238 43.649.238t3.383 1.785q1.054 1.767.56 4.59M42.119 9.69q1.853 0 2.448-3.247.56-3.247-1.31-3.247-1.869 0-2.43 3.247-.595 3.247 1.292 3.247M58.3 6.613q-.51 2.82-2.023 4.437-1.496 1.598-3.842 1.598-2.329 0-3.383-1.768-1.038-1.785-.561-4.607.476-2.789 2.006-4.42Q52.028.238 54.357.238t3.383 1.785q1.054 1.767.56 4.59M52.827 9.69q1.853 0 2.448-3.247.56-3.247-1.31-3.247-1.869 0-2.43 3.247-.595 3.247 1.292 3.247M64.938.493h4.624q1.684 0 2.737 1.224 1.072 1.207.765 2.94-.322 1.854-1.615 2.84-1.275.969-3.298.969h-1.58l-.12.68h3.485l-.289 1.683h-3.502l-.272 1.564H62.83l.272-1.564h-1.105l.29-1.683h1.121l.12-.68h-1.106l.476-2.703h1.105zm5.1 4.08q.102-.545-.187-.867-.271-.324-.799-.323h-1.598l-.408 2.38h1.581q.528 0 .918-.323.409-.324.493-.867"/><path fill="url(#c)" d="M4.393.493V.255h-.2L4.16.452zm7.735 0 .233.041.05-.279h-.283zm-.425 2.397.172.163.05-.052.011-.07zM9.306 5.423l-.173-.164-.24.254.324.13zm1.58 1.343-.205.118v.002zm.324 2.09.233.042v-.001zm-1.683 2.84L9.39 11.5h-.002zm-5.73.272-.13.198zM2.354 9.962l-.11-.211-.176.09.059.19zM5.14 8.517l.227-.07-.083-.273-.254.132zm3.06.05.233.043v-.003zm-.22-.797-.173.163.01.01zm-1.547-.306-.213.106.066.131h.147zM5.566 5.73l-.173-.164-.114.12.074.15zm2.21-2.33.172.164.38-.401h-.552zm-3.893 0-.234-.04-.05.278h.284zm.51-2.906V.73h7.735V.255H4.393zm7.735 0L11.894.45l-.425 2.397.234.042.234.041.425-2.397zm-.425 2.397-.173-.164L9.133 5.26l.173.164.172.163 2.397-2.533zM9.306 5.423l-.09.22c.658.265 1.142.679 1.465 1.24l.206-.117.206-.119c-.38-.661-.95-1.143-1.699-1.445zm1.58 1.343-.204.12c.318.544.422 1.183.293 1.93l.235.04.234.04c.144-.839.032-1.594-.352-2.25zm.324 2.09-.234-.041c-.218 1.22-.75 2.105-1.585 2.686l.136.195.135.195c.957-.666 1.546-1.673 1.781-2.993zm-1.683 2.84-.138-.194c-.85.603-1.86.908-3.041.908v.475c1.267 0 2.376-.33 3.316-.996zm-3.18.952v-.238c-.972 0-1.774-.218-2.42-.641l-.13.199-.13.198c.738.484 1.636.72 2.68.72zm-2.55-.68.13-.2c-.639-.418-1.09-1.039-1.347-1.876l-.227.07-.227.07c.286.93.798 1.647 1.541 2.134zM2.354 9.962l.109.21L5.25 8.729l-.11-.211-.109-.211L2.243 9.75zM5.14 8.517l-.228.069c.13.425.34.766.644.999.305.234.682.342 1.114.342v-.475c-.35 0-.62-.087-.825-.244-.206-.158-.37-.404-.478-.76zM6.67 9.69v.237c.473 0 .876-.1 1.186-.326.313-.23.5-.57.577-.99L8.2 8.568l-.234-.043c-.06.327-.195.548-.391.692-.201.148-.494.235-.905.235zM8.2 8.568l.234.039c.066-.398-.017-.751-.292-1.011l-.163.173-.164.172c.133.126.197.305.15.588zm-.221-.8.172-.163c-.255-.27-.638-.38-1.09-.38V7.7c.386 0 .615.094.745.232zm-.918-.305v-.238h-.63V7.7h.63zm-.63 0 .213-.107-.867-1.734-.212.107-.213.106.867 1.734zm-.866-1.734.172.163 2.21-2.329-.172-.163-.173-.164-2.21 2.329zm2.21-2.33v-.237H3.883v.475h3.893zm-3.893 0 .234.042.51-2.907-.234-.041-.234-.041-.51 2.907zm18.442 3.214.234.042v-.002zm-2.023 4.437-.173-.163zm-7.225-.17-.205.119.001.002zm-.56-4.607-.235-.04zm2.005-4.42-.172-.164-.001.001zm7.242.17-.204.12v.001zM19.3 6.443l.234.042v-.002zm-3.74 0 .234.042v-.002zm6.766.17-.234-.043c-.334 1.85-.993 3.282-1.962 4.317l.173.163.173.162c1.048-1.119 1.738-2.644 2.084-4.557zm-2.023 4.437-.173-.163c-.95 1.014-2.165 1.523-3.669 1.523v.475c1.624 0 2.97-.556 4.015-1.673zm-3.842 1.598v-.238c-1.482 0-2.525-.556-3.179-1.652l-.204.122-.204.121c.752 1.261 1.964 1.884 3.587 1.884zm-3.383-1.768.206-.12c-.655-1.126-.844-2.6-.533-4.448l-.234-.04-.234-.039c-.323 1.915-.139 3.512.59 4.766zm-.56-4.607.233.04c.312-1.825.965-3.252 1.945-4.298l-.173-.162-.173-.163c-1.06 1.13-1.744 2.65-2.067 4.543zm2.005-4.42.172.163C15.668.989 16.89.476 18.382.476V0c-1.614 0-2.964.563-4.031 1.69zm3.86-1.615v.237c1.48 0 2.523.56 3.177 1.668l.205-.12.205-.121C21.217.629 20.005 0 18.38 0zm3.382 1.785-.204.121c.664 1.114.854 2.58.531 4.428l.234.04.234.041c.335-1.915.15-3.508-.59-4.752zM16.851 9.69v.237c.7 0 1.28-.312 1.728-.906.44-.584.752-1.437.954-2.536l-.234-.042-.234-.043c-.195 1.066-.49 1.836-.865 2.335-.368.488-.814.717-1.349.717zM19.3 6.443l.234.04c.19-1.093.183-1.96-.06-2.564a1.5 1.5 0 0 0-.571-.72c-.258-.166-.566-.241-.912-.241v.475c.277 0 .491.06.655.165.162.105.293.265.387.498.193.478.218 1.235.033 2.306zm-1.31-3.247v-.238c-.705 0-1.287.312-1.733.907-.437.584-.742 1.438-.932 2.537l.234.04.234.041c.184-1.066.472-1.835.845-2.333.364-.487.81-.717 1.352-.717zm-2.43 3.247-.235-.043c-.2 1.093-.202 1.96.039 2.566.123.309.311.554.57.72s.569.241.917.241v-.475c-.28 0-.496-.06-.66-.165a1 1 0 0 1-.386-.497c-.19-.477-.209-1.233-.012-2.305zm21.325.17.233.042v-.002zm-2.023 4.437-.174-.163zm-7.225-.17-.206.119.002.002zm-.561-4.607-.235-.04zm2.006-4.42-.173-.164v.001zm7.242.17-.205.12v.001zm-2.465 4.42.233.042v-.002zm-3.74 0 .233.042v-.002zm6.766.17-.234-.043c-.334 1.85-.993 3.282-1.963 4.317l.174.163.173.162c1.048-1.119 1.738-2.644 2.083-4.557zm-2.023 4.437-.174-.163c-.949 1.014-2.165 1.523-3.668 1.523v.475c1.624 0 2.97-.556 4.015-1.673zm-3.842 1.598v-.238c-1.482 0-2.526-.556-3.18-1.652l-.203.122-.204.121c.751 1.261 1.963 1.884 3.587 1.884zm-3.383-1.768.205-.12c-.654-1.126-.844-2.6-.532-4.448l-.234-.04-.235-.039c-.323 1.915-.138 3.512.59 4.766zm-.561-4.607.234.04c.311-1.825.964-3.252 1.945-4.298l-.173-.162-.174-.163c-1.059 1.13-1.743 2.65-2.067 4.543zm2.006-4.42.172.163C30.227.989 31.45.476 32.941.476V0c-1.615 0-2.965.563-4.032 1.69zM32.94.238v.237c1.48 0 2.524.56 3.178 1.668l.205-.12.204-.121C35.777.629 34.565 0 32.941 0zm3.383 1.785-.204.121c.663 1.114.853 2.58.53 4.428l.235.04.234.041c.334-1.915.15-3.508-.591-4.752zM31.41 9.69v.237c.7 0 1.28-.312 1.728-.906.44-.584.752-1.437.953-2.536l-.233-.042-.234-.043c-.195 1.066-.49 1.836-.866 2.335-.368.488-.813.717-1.348.717zm2.448-3.247.234.04c.189-1.093.183-1.96-.06-2.564a1.5 1.5 0 0 0-.572-.72c-.257-.166-.565-.241-.911-.241v.475c.277 0 .49.06.654.165.163.105.294.265.388.498.192.478.218 1.235.032 2.306zm-1.31-3.247v-.238c-.705 0-1.287.312-1.732.907-.438.584-.743 1.438-.933 2.537l.235.04.234.041c.184-1.066.471-1.835.844-2.333.365-.487.811-.717 1.353-.717zm-2.43 3.247-.234-.043c-.2 1.093-.203 1.96.038 2.566.123.309.312.554.571.72s.568.241.917.241v-.475c-.28 0-.496-.06-.66-.165a1 1 0 0 1-.386-.497c-.19-.477-.209-1.233-.013-2.305zm17.474.17.233.042v-.002zM45.57 11.05l-.174-.163zm-7.225-.17-.206.119.002.002zm-.561-4.607-.234-.04zm2.006-4.42-.173-.164v.001zm7.242.17-.205.12v.001zm-2.465 4.42.233.042v-.002zm-3.74 0 .233.042v-.002zm6.766.17-.234-.043c-.334 1.85-.993 3.282-1.963 4.317l.174.163.173.162c1.048-1.119 1.738-2.644 2.083-4.557zM45.57 11.05l-.174-.163c-.949 1.014-2.165 1.523-3.668 1.523v.475c1.624 0 2.97-.556 4.015-1.673zm-3.842 1.598v-.238c-1.483 0-2.526-.556-3.18-1.652l-.203.122-.204.121c.751 1.261 1.963 1.884 3.587 1.884zm-3.383-1.768.205-.12c-.654-1.126-.844-2.6-.532-4.448l-.234-.04-.235-.039c-.323 1.915-.138 3.512.59 4.766zm-.561-4.607.234.04c.311-1.825.964-3.252 1.945-4.298l-.173-.162-.174-.163c-1.059 1.13-1.743 2.65-2.066 4.543zm2.006-4.42.172.163C40.935.989 42.158.476 43.65.476V0c-1.615 0-2.965.563-4.032 1.69zM43.649.238v.237c1.48 0 2.524.56 3.178 1.668l.205-.12.204-.121C46.485.629 45.273 0 43.65 0zm3.383 1.785-.204.121c.663 1.114.853 2.58.53 4.428l.235.04.234.041c.334-1.915.15-3.508-.591-4.752zM42.119 9.69v.237c.7 0 1.28-.312 1.728-.906.44-.584.752-1.437.953-2.536l-.233-.042-.234-.043c-.195 1.066-.49 1.836-.866 2.335-.368.488-.813.717-1.348.717zm2.448-3.247.234.04c.189-1.093.183-1.96-.06-2.564a1.5 1.5 0 0 0-.572-.72c-.257-.166-.565-.241-.911-.241v.475c.277 0 .49.06.654.165.163.105.294.265.388.498.192.478.218 1.235.033 2.306zm-1.31-3.247v-.238c-.705 0-1.287.312-1.732.907-.438.584-.743 1.438-.932 2.537l.234.04.234.041c.184-1.066.471-1.835.844-2.333.365-.487.811-.717 1.353-.717zm-2.43 3.247-.234-.043c-.2 1.093-.203 1.96.038 2.566.123.309.312.554.571.72s.568.241.917.241v-.475c-.28 0-.496-.06-.66-.165a1 1 0 0 1-.386-.497c-.19-.477-.209-1.233-.013-2.305zm17.474.17.233.042v-.002zm-2.023 4.437-.174-.163zm-7.225-.17-.206.119.002.002zm-.561-4.607-.234-.04zm2.006-4.42-.173-.164v.001zm7.242.17-.205.12v.001zm-2.465 4.42.233.042v-.002zm-3.74 0 .233.042v-.002zm6.766.17-.234-.043c-.334 1.85-.993 3.282-1.963 4.317l.174.163.173.162c1.048-1.119 1.738-2.644 2.083-4.557zm-2.023 4.437-.174-.163c-.949 1.014-2.165 1.523-3.668 1.523v.475c1.624 0 2.97-.556 4.015-1.673zm-3.842 1.598v-.238c-1.483 0-2.526-.556-3.18-1.652l-.203.122-.204.121c.751 1.261 1.963 1.884 3.587 1.884zm-3.383-1.768.205-.12c-.654-1.126-.844-2.6-.532-4.448l-.234-.04-.235-.039c-.323 1.915-.138 3.512.59 4.766zm-.561-4.607.234.04c.311-1.825.964-3.252 1.945-4.298l-.173-.162-.174-.163c-1.059 1.13-1.743 2.65-2.066 4.543zm2.006-4.42.172.163c.973-1.027 2.196-1.54 3.687-1.54V0c-1.615 0-2.965.563-4.032 1.69zM54.357.238v.237c1.48 0 2.524.56 3.178 1.668l.205-.12.204-.121C57.193.629 55.981 0 54.357 0zm3.383 1.785-.204.121c.663 1.114.853 2.58.53 4.428l.235.04.234.041c.334-1.915.15-3.508-.591-4.752zM52.827 9.69v.237c.7 0 1.28-.312 1.728-.906.44-.584.752-1.437.953-2.536l-.233-.042-.234-.043c-.195 1.066-.49 1.836-.866 2.335-.368.488-.813.717-1.348.717zm2.448-3.247.234.04c.189-1.093.183-1.96-.06-2.564a1.5 1.5 0 0 0-.572-.72c-.257-.166-.565-.241-.911-.241v.475c.277 0 .49.06.654.165.163.105.294.265.388.498.192.478.218 1.235.032 2.306zm-1.31-3.247v-.238c-.705 0-1.287.312-1.732.907-.438.584-.743 1.438-.932 2.537l.234.04.234.041c.184-1.066.471-1.835.844-2.333.365-.487.811-.717 1.353-.717zm-2.43 3.247L51.3 6.4c-.2 1.093-.203 1.96.038 2.566.123.309.312.554.571.72s.568.241.917.241v-.475c-.28 0-.496-.06-.66-.165a1 1 0 0 1-.386-.497c-.19-.477-.209-1.233-.013-2.305zM64.938.493V.255h-.199l-.035.196zM72.3 1.717l-.18.155.002.002zm.765 2.94-.234-.04zm-1.615 2.84.144.189zm-4.879.969v-.238h-.2l-.034.197zm-.119.68-.234-.041-.049.278h.283zm3.485 0 .234.04.048-.278h-.282zm-.289 1.683v.237h.2l.034-.197zm-3.502 0v-.238h-.2l-.034.197zm-.272 1.564v.237h.2l.034-.197zm-3.043 0-.234-.041-.048.278h.282zm.272-1.564.234.04.049-.278h-.283zm-1.105 0-.234-.04-.048.277h.282zm.29-1.683v-.238h-.201l-.034.197zm1.121 0v.237h.2l.034-.196zm.12-.68.233.04.049-.278h-.283zm-1.106 0-.234-.042-.049.28h.283zm.476-2.703v-.238h-.2l-.034.196zm1.105 0V6h.2l.034-.196zm6.035-1.19-.233-.044-.002.007zm-.187-.867-.182.153.005.005zm-2.397-.323v-.238h-.2l-.034.197zm-.408 2.38-.234-.04-.048.277h.282zm2.5-.323-.148-.187-.004.003zM64.937.493V.73h4.624V.255h-4.624zm4.624 0V.73c1.056 0 1.902.38 2.557 1.142l.18-.155.18-.155C71.73.69 70.75.255 69.562.255zM72.3 1.717l-.178.157c.662.745.902 1.65.71 2.742l.233.042.234.04c.215-1.22-.054-2.275-.821-3.14zm.765 2.94-.234-.04c-.207 1.186-.719 2.075-1.525 2.69l.144.19.144.188c.917-.699 1.481-1.702 1.705-2.987zm-1.615 2.84-.144-.19c-.798.608-1.843.921-3.154.921v.475c1.387 0 2.54-.332 3.442-1.017zm-3.298.969v-.238h-1.58v.475h1.58zm-1.58 0-.235-.041-.119.68.234.04.234.042.12-.68zm-.12.68v.237h3.485v-.475h-3.485zm3.485 0-.234-.04-.289 1.682.234.04.234.04.29-1.682zm-.289 1.683v-.238h-3.502v.475h3.502zm-3.502 0-.234-.041-.272 1.564.234.04.234.041.272-1.564zm-.272 1.564v-.238H62.83v.475h3.043zm-3.043 0 .234.04.272-1.564-.234-.04-.234-.041-.272 1.564zm.272-1.564v-.238h-1.105v.475h1.105zm-1.105 0 .234.04.29-1.683-.235-.04-.234-.04-.289 1.682zm.29-1.683v.237h1.121v-.475h-1.122zm1.121 0 .234.04.12-.68-.235-.04-.234-.041-.119.68zm.12-.68v-.238h-1.106v.475h1.105zm-1.106 0 .234.04.476-2.702-.234-.041-.234-.042-.476 2.703zm.476-2.703V6h1.105v-.475h-1.105zm1.105 0 .234.041.935-5.27-.234-.041-.234-.042-.935 5.27zm6.035-1.19.234.043c.077-.413.011-.784-.244-1.069l-.177.159-.177.158c.13.146.19.353.13.665zm-.187-.867.182-.153c-.237-.282-.578-.408-.98-.408v.475c.3 0 .491.09.617.239zm-.799-.323v-.238h-1.598v.475h1.598zm-1.598 0-.234-.04-.408 2.38.234.04.234.04.408-2.38zm-.408 2.38V6h1.581v-.475h-1.58zm1.581 0V6c.404 0 .764-.125 1.07-.377l-.152-.183-.151-.184a1.16 1.16 0 0 1-.767.269zm.918-.323.148.186a1.56 1.56 0 0 0 .58-1.017l-.235-.036-.234-.037a1.1 1.1 0 0 1-.406.717z" mask="url(#d)"/></g><defs><linearGradient id="b" x1="37.775" x2="37.775" y1="-14.147" y2="31.021" gradientUnits="userSpaceOnUse"><stop offset=".333" stop-color="#fff4cd"/><stop offset=".4" stop-color="#ffe68e"/><stop offset=".477" stop-color="#ffa34e"/><stop offset=".557" stop-color="#fff387"/><stop offset=".726" stop-color="#ffa841"/></linearGradient><linearGradient id="c" x1="37.567" x2="37.567" y1="-2.607" y2="18.393" gradientUnits="userSpaceOnUse"><stop offset=".214" stop-color="#fffdeb"/><stop offset=".505" stop-color="#fff389"/><stop offset=".849" stop-color="#ffe922"/></linearGradient><filter id="a" width="75.437" height="17.02" x="0" y="0" color-interpolation-filters="sRGB" filterUnits="userSpaceOnUse"><feFlood flood-opacity="0" result="BackgroundImageFix"/><feColorMatrix in="SourceAlpha" result="hardAlpha" values="0 0 0 0 0 0 0 0 0 0 0 0 0 0 0 0 0 0 127 0"/><feOffset dy="2.067"/><feGaussianBlur stdDeviation="1.034"/><feComposite in2="hardAlpha" operator="out"/><feColorMatrix values="0 0 0 0 0 0 0 0 0 0 0 0 0 0 0 0 0 0 0.2 0"/><feBlend in2="BackgroundImageFix" result="effect1_dropShadow_121_40133"/><feBlend in="SourceGraphic" in2="effect1_dropShadow_121_40133" result="shape"/></filter></defs></svg>