<svg xmlns="http://www.w3.org/2000/svg" width="71" height="11" fill="none" viewBox="0 0 71 11"><mask id="c" width="71" height="12" x="-.206" y="-.752" fill="#000" maskUnits="userSpaceOnUse"><path fill="#fff" d="M-.206-.752h71v12h-71z"/><path d="M.255 1.4 3.083.448H5.24l-1.722 9.8H1.011l1.246-7.056-1.778.434zM16.21.448l-.42 2.394h-3.43l-.266 1.05h.602q1.414 0 2.254.91.854.895.574 2.506-.28 1.539-1.386 2.352-1.106.798-2.604.798-2.661 0-3.402-2.212l2.31-1.204q.308.98 1.358.98.504 0 .84-.238a.97.97 0 0 0 .406-.658q.069-.42-.168-.672-.224-.252-.714-.252h-3.15L10.428.448zm8.301 5.04q-.42 2.323-1.666 3.654-1.232 1.316-3.164 1.316-1.917 0-2.786-1.456-.854-1.47-.462-3.794.392-2.296 1.652-3.64 1.26-1.33 3.178-1.33 1.919 0 2.786 1.47.869 1.455.462 3.78m-4.508 2.534q1.527 0 2.016-2.674.462-2.674-1.078-2.674-1.54-.001-2.002 2.674-.49 2.673 1.064 2.674M33.33 5.488q-.42 2.323-1.666 3.654-1.233 1.316-3.164 1.316-1.919 0-2.786-1.456-.855-1.47-.462-3.794.392-2.296 1.652-3.64 1.26-1.33 3.178-1.33t2.786 1.47q.867 1.455.462 3.78m-4.508 2.534q1.526 0 2.016-2.674.461-2.674-1.078-2.674-1.54-.001-2.002 2.674-.49 2.673 1.064 2.674M45.32 5.488q-.42 2.323-1.666 3.654-1.232 1.316-3.164 1.316-1.918 0-2.786-1.456-.854-1.47-.462-3.794.392-2.296 1.652-3.64 1.26-1.33 3.178-1.33t2.786 1.47q.868 1.455.462 3.78m-4.508 2.534q1.526 0 2.016-2.674.462-2.674-1.078-2.674-1.54-.001-2.002 2.674-.49 2.673 1.064 2.674m13.326-2.534q-.42 2.323-1.666 3.654-1.232 1.316-3.164 1.316-1.917 0-2.786-1.456-.854-1.47-.462-3.794.392-2.296 1.652-3.64 1.26-1.33 3.178-1.33 1.919 0 2.786 1.47.868 1.455.462 3.78M49.63 8.022q1.527 0 2.016-2.674.462-2.674-1.078-2.674-1.54-.001-2.002 2.674-.49 2.673 1.064 2.674m13.327-2.534q-.42 2.323-1.666 3.654-1.233 1.316-3.164 1.316-1.919 0-2.786-1.456-.855-1.47-.462-3.794.392-2.296 1.652-3.64 1.26-1.33 3.178-1.33t2.786 1.47q.867 1.455.462 3.78m-4.508 2.534q1.526 0 2.016-2.674.462-2.674-1.078-2.674-1.54-.001-2.002 2.674-.49 2.673 1.064 2.674M69.8 1.372l-5.068 7.952h5.208v.924h-6.3v-.924l5.068-7.952H63.78V.448h6.02z"/></mask><path fill="url(#a)" d="M.255 1.4 3.083.448H5.24l-1.722 9.8H1.011l1.246-7.056-1.778.434zM16.21.448l-.42 2.394h-3.43l-.266 1.05h.602q1.414 0 2.254.91.854.895.574 2.506-.28 1.539-1.386 2.352-1.106.798-2.604.798-2.661 0-3.402-2.212l2.31-1.204q.308.98 1.358.98.504 0 .84-.238a.97.97 0 0 0 .406-.658q.069-.42-.168-.672-.224-.252-.714-.252h-3.15L10.428.448zm8.301 5.04q-.42 2.323-1.666 3.654-1.232 1.316-3.164 1.316-1.917 0-2.786-1.456-.854-1.47-.462-3.794.392-2.296 1.652-3.64 1.26-1.33 3.178-1.33 1.919 0 2.786 1.47.869 1.455.462 3.78m-4.508 2.534q1.527 0 2.016-2.674.462-2.674-1.078-2.674-1.54-.001-2.002 2.674-.49 2.673 1.064 2.674M33.33 5.488q-.42 2.323-1.666 3.654-1.233 1.316-3.164 1.316-1.919 0-2.786-1.456-.855-1.47-.462-3.794.392-2.296 1.652-3.64 1.26-1.33 3.178-1.33t2.786 1.47q.867 1.455.462 3.78m-4.508 2.534q1.526 0 2.016-2.674.461-2.674-1.078-2.674-1.54-.001-2.002 2.674-.49 2.673 1.064 2.674M45.32 5.488q-.42 2.323-1.666 3.654-1.232 1.316-3.164 1.316-1.918 0-2.786-1.456-.854-1.47-.462-3.794.392-2.296 1.652-3.64 1.26-1.33 3.178-1.33t2.786 1.47q.868 1.455.462 3.78m-4.508 2.534q1.526 0 2.016-2.674.462-2.674-1.078-2.674-1.54-.001-2.002 2.674-.49 2.673 1.064 2.674m13.326-2.534q-.42 2.323-1.666 3.654-1.232 1.316-3.164 1.316-1.917 0-2.786-1.456-.854-1.47-.462-3.794.392-2.296 1.652-3.64 1.26-1.33 3.178-1.33 1.919 0 2.786 1.47.868 1.455.462 3.78M49.63 8.022q1.527 0 2.016-2.674.462-2.674-1.078-2.674-1.54-.001-2.002 2.674-.49 2.673 1.064 2.674m13.327-2.534q-.42 2.323-1.666 3.654-1.233 1.316-3.164 1.316-1.919 0-2.786-1.456-.855-1.47-.462-3.794.392-2.296 1.652-3.64 1.26-1.33 3.178-1.33t2.786 1.47q.867 1.455.462 3.78m-4.508 2.534q1.526 0 2.016-2.674.462-2.674-1.078-2.674-1.54-.001-2.002 2.674-.49 2.673 1.064 2.674M69.8 1.372l-5.068 7.952h5.208v.924h-6.3v-.924l5.068-7.952H63.78V.448h6.02z"/><path fill="url(#b)" d="M.255 1.4.18 1.174l-.18.06.019.19zM3.083.448V.21h-.039l-.036.012zm2.156 0 .234.04.05-.278h-.284zm-1.722 9.8v.237h.2l.034-.196zm-2.506 0-.234-.042-.049.28h.283zm1.246-7.056.234.04.064-.358-.354.087zM.48 3.626l-.236.023.027.272.266-.065zM.255 1.4l.076.225L3.16.673 3.083.448 3.008.222.18 1.174zM3.083.448v.237H5.24V.21H3.083zm2.156 0L5.005.406l-1.722 9.8.234.042.234.04 1.722-9.8zm-1.722 9.8v-.238H1.011v.475h2.506zm-2.506 0 .234.04 1.246-7.055-.234-.041-.234-.042-1.246 7.056zm1.246-7.056-.056-.231-1.778.434.056.23.057.231 1.778-.434zM.48 3.626l.237-.024-.224-2.226-.237.024-.236.023.224 2.226zM16.21.448l.235.04.049-.278h-.283zm-.42 2.394v.237h.2l.035-.196zm-3.43 0v-.238h-.184l-.046.18zm-.265 1.05-.23-.059-.075.296h.305zm2.856.91-.175.16.003.003zm.574 2.506.234.042v-.002zM14.138 9.66l.139.192h.001zM8.132 8.246l-.11-.211-.18.094.065.192zm2.31-1.204.226-.072-.084-.27-.252.13zm2.198.742-.138-.194zm.406-.658.234.039zm-.168-.672-.178.157.005.006zm-3.864-.252-.23-.057-.073.294h.303zM10.428.448V.21h-.186l-.045.18zm5.782 0-.234-.041-.42 2.394.234.04.234.042.42-2.394zm-.42 2.394v-.238h-3.43v.475h3.43zm-3.43 0-.23-.059-.267 1.05.23.059.231.058.266-1.05zm-.266 1.05v.237h.602v-.475h-.602zm.602 0v.237c.886 0 1.57.283 2.08.834l.174-.161.174-.162c-.611-.662-1.43-.986-2.428-.986zm2.254.91-.172.163c.501.527.69 1.277.512 2.302l.234.04.234.041c.195-1.121 0-2.042-.636-2.71zm.574 2.506-.234-.043c-.177.976-.611 1.703-1.293 2.203l.14.192.141.191c.794-.582 1.284-1.424 1.48-2.5zM14.138 9.66l-.14-.193c-.692.5-1.51.753-2.464.753v.475c1.043 0 1.961-.279 2.743-.843zm-2.604.798v-.238c-.855 0-1.533-.178-2.051-.515-.516-.335-.893-.84-1.126-1.535l-.225.076-.225.075c.261.78.698 1.38 1.317 1.783.616.4 1.391.591 2.31.591zM8.132 8.246l.11.21 2.31-1.204-.11-.21-.11-.211-2.31 1.204zm2.31-1.204-.227.07c.115.365.305.658.581.857.276.2.617.29 1.004.29v-.475c-.313 0-.55-.073-.726-.2s-.315-.325-.405-.614zm1.358.98v.237c.374 0 .705-.089.977-.282l-.137-.193-.138-.194c-.175.124-.404.194-.702.194zm.84-.238.137.193a1.2 1.2 0 0 0 .503-.812l-.234-.04-.234-.038a.73.73 0 0 1-.31.503zm.406-.658.234.039c.056-.335-.008-.64-.23-.875l-.172.164-.173.163c.096.101.144.244.107.47zm-.168-.672.177-.158c-.211-.238-.528-.332-.891-.332v.475c.29 0 .45.075.536.172zm-.714-.252v-.238h-3.15v.475h3.15zm-3.15 0 .23.056L10.66.504l-.231-.056-.23-.057-1.415 5.754zM10.428.448v.237h5.782V.21h-5.782zm14.083 5.04.234.042v-.002zm-1.666 3.654-.173-.163zm-5.95-.14-.205.119.001.002zm-.462-3.794-.234-.04zm1.652-3.64-.172-.164v.001zm5.964.14-.204.12v.001zm-2.03 3.64.234.042v-.002zm-3.08 0 .234.042v-.002zm5.572.14-.233-.043c-.275 1.518-.815 2.69-1.606 3.534l.173.163.174.162c.87-.929 1.44-2.193 1.726-3.774zm-1.666 3.654-.173-.163c-.773.826-1.763 1.241-2.99 1.241v.475c1.348 0 2.467-.462 3.337-1.391zm-3.164 1.316v-.238c-1.208 0-2.052-.452-2.582-1.34l-.204.122-.204.121c.628 1.053 1.641 1.572 2.99 1.572zm-2.786-1.456.206-.12c-.533-.916-.689-2.12-.433-3.635l-.235-.04-.234-.039c-.267 1.583-.115 2.91.491 3.953zm-.462-3.794.235.04c.255-1.497.79-2.664 1.59-3.518l-.173-.162-.173-.163c-.88.938-1.446 2.198-1.713 3.763zm1.652-3.64.173.163C19.05.894 20.047.475 21.263.475V0c-1.34 0-2.463.468-3.35 1.404zm3.178-1.33v.237c1.207 0 2.052.456 2.582 1.353l.204-.12.205-.121C23.627.524 22.614 0 21.264 0zm2.786 1.47-.204.121c.54.906.697 2.103.432 3.618l.234.04.234.041c.277-1.583.126-2.906-.492-3.942zm-4.046 6.314v.237c.592 0 1.081-.264 1.457-.763.368-.488.627-1.198.793-2.106l-.234-.042-.233-.043c-.16.875-.401 1.502-.705 1.905-.296.393-.651.574-1.078.574zm2.016-2.674.235.04c.155-.902.152-1.626-.053-2.135a1.27 1.27 0 0 0-.486-.612 1.4 1.4 0 0 0-.774-.205v.475a.93.93 0 0 1 .517.13c.125.08.228.205.303.39.154.382.176.996.024 1.876zm-1.078-2.674v-.238c-.595 0-1.086.264-1.46.764-.366.488-.619 1.2-.776 2.107l.234.04.235.041c.15-.875.386-1.501.687-1.904.293-.391.649-.573 1.08-.573zM18.94 5.348l-.233-.043c-.166.902-.17 1.626.034 2.136.104.261.264.471.486.613.22.142.485.205.777.205v-.475a.95.95 0 0 1-.52-.13.8.8 0 0 1-.302-.389c-.152-.381-.17-.994-.008-1.875zm14.39.14.234.042v-.002zm-1.665 3.654-.174-.163zm-5.95-.14-.206.119.002.002zm-.462-3.794-.235-.04zm1.652-3.64-.173-.164v.001zm5.964.14-.205.12v.001zm-2.03 3.64.233.042v-.002zm-3.08 0 .233.042v-.002zm5.572.14-.234-.043c-.274 1.518-.814 2.69-1.606 3.534l.174.163.173.162c.87-.929 1.44-2.193 1.726-3.774zm-1.666 3.654-.174-.163c-.773.826-1.763 1.241-2.99 1.241v.475c1.348 0 2.467-.462 3.337-1.391zM28.5 10.458v-.238c-1.208 0-2.053-.452-2.582-1.34l-.204.122-.204.121c.627 1.053 1.64 1.572 2.99 1.572zm-2.786-1.456.205-.12c-.532-.916-.689-2.12-.433-3.635l-.234-.04-.235-.039c-.267 1.583-.115 2.91.491 3.953zm-.462-3.794.234.04c.255-1.497.79-2.664 1.591-3.518l-.173-.162-.174-.163c-.879.938-1.445 2.198-1.713 3.763zm1.652-3.64.172.163C27.87.894 28.865.475 30.082.475V0c-1.34 0-2.464.468-3.35 1.404zm3.178-1.33v.237c1.207 0 2.051.456 2.581 1.353l.205-.12.204-.121C32.445.524 31.432 0 30.082 0zm2.786 1.47-.204.121c.54.906.696 2.103.432 3.618l.234.04.234.041c.276-1.583.125-2.906-.492-3.942zm-4.046 6.314v.237c.591 0 1.08-.264 1.456-.763.368-.488.627-1.198.793-2.106l-.233-.042-.234-.043c-.16.875-.4 1.502-.705 1.905-.296.393-.651.574-1.077.574zm2.016-2.674.234.04c.156-.902.153-1.626-.052-2.135a1.27 1.27 0 0 0-.487-.612 1.4 1.4 0 0 0-.773-.205v.475c.222 0 .39.048.516.13.125.08.228.205.303.39.154.382.177.996.025 1.876zM29.76 2.674v-.238c-.596 0-1.087.264-1.46.764-.367.488-.62 1.2-.776 2.107l.234.04.234.041c.151-.875.386-1.501.687-1.904.294-.391.65-.573 1.08-.573zm-2.002 2.674-.234-.043c-.165.902-.169 1.626.034 2.136.104.261.264.471.486.613s.485.205.778.205v-.475a.95.95 0 0 1-.521-.13.8.8 0 0 1-.301-.389c-.152-.381-.17-.994-.009-1.875zm17.562.14.234.042v-.002zm-1.666 3.654-.173-.163zm-5.95-.14-.206.119.002.002zm-.462-3.794-.234-.04zm1.652-3.64-.172-.164-.001.001zm5.964.14-.205.12v.001zm-2.03 3.64.234.042v-.002zm-3.08 0 .234.042v-.002zm5.572.14-.234-.043c-.274 1.518-.814 2.69-1.605 3.534l.173.163.173.162c.87-.929 1.441-2.193 1.727-3.774zm-1.666 3.654-.174-.163c-.772.826-1.762 1.241-2.99 1.241v.475c1.348 0 2.468-.462 3.337-1.391zm-3.164 1.316v-.238c-1.208 0-2.053-.452-2.582-1.34l-.204.122-.204.121c.628 1.053 1.64 1.572 2.99 1.572zm-2.786-1.456.205-.12c-.532-.916-.688-2.12-.433-3.635l-.234-.04-.234-.039c-.267 1.583-.116 2.91.49 3.953zm-.462-3.794.234.04c.256-1.497.79-2.664 1.591-3.518l-.173-.162-.173-.163c-.88.938-1.446 2.198-1.713 3.763zm1.652-3.64.172.163C39.86.894 40.856.475 42.072.475V0c-1.34 0-2.463.468-3.35 1.404zm3.178-1.33v.237c1.207 0 2.051.456 2.581 1.353l.205-.12.205-.121C44.435.524 43.423 0 42.072 0zm2.786 1.47-.204.121c.54.906.697 2.103.432 3.618l.234.04.234.041c.277-1.583.125-2.906-.492-3.942zm-4.046 6.314v.237c.591 0 1.08-.264 1.457-.763.368-.488.626-1.198.793-2.106l-.234-.042-.234-.043c-.16.875-.4 1.502-.705 1.905-.296.393-.65.574-1.077.574zm2.016-2.674.234.04c.156-.902.153-1.626-.052-2.135a1.27 1.27 0 0 0-.487-.612 1.4 1.4 0 0 0-.773-.205v.475c.222 0 .39.048.516.13.126.08.229.205.303.39.154.382.177.996.025 1.876zM41.75 2.674v-.238c-.595 0-1.087.264-1.46.764-.367.488-.62 1.2-.776 2.107l.234.04.234.041c.151-.875.386-1.501.688-1.904.293-.391.648-.573 1.08-.573zm-2.002 2.674-.234-.043c-.165.902-.169 1.626.034 2.136.104.261.264.471.486.613s.485.205.778.205v-.475a.95.95 0 0 1-.521-.13.8.8 0 0 1-.301-.389c-.152-.381-.17-.994-.008-1.875zm14.39.14.234.042v-.002zm-1.666 3.654-.173-.163zm-5.95-.14-.205.119.001.002zm-.462-3.794-.234-.04zm1.652-3.64-.172-.164-.001.001zm5.964.14-.204.12v.001zm-2.03 3.64.234.042v-.002zm-3.08 0 .234.042v-.002zm5.572.14-.233-.043c-.275 1.518-.815 2.69-1.606 3.534l.173.163.174.162c.87-.929 1.44-2.193 1.726-3.774zm-1.666 3.654-.173-.163c-.773.826-1.763 1.241-2.99 1.241v.475c1.348 0 2.467-.462 3.337-1.391zm-3.164 1.316v-.238c-1.208 0-2.052-.452-2.582-1.34l-.204.122-.204.121c.628 1.053 1.641 1.572 2.99 1.572zm-2.786-1.456.206-.12c-.533-.916-.689-2.12-.433-3.635l-.235-.04-.234-.039c-.267 1.583-.115 2.91.49 3.953zm-.462-3.794.234.04c.256-1.497.791-2.664 1.592-3.518l-.174-.162-.173-.163c-.88.938-1.446 2.198-1.713 3.763zm1.652-3.64.173.163C48.678.894 49.673.475 50.89.475V0c-1.34 0-2.463.468-3.35 1.404zM50.89.238v.237c1.207 0 2.052.456 2.582 1.353l.204-.12.205-.121C53.254.524 52.24 0 50.89 0zm2.786 1.47-.204.121c.54.906.697 2.103.432 3.618l.234.04.234.041c.277-1.583.126-2.906-.492-3.942zM49.63 8.022v.237c.592 0 1.081-.264 1.457-.763.368-.488.627-1.198.793-2.106l-.234-.042-.233-.043c-.16.875-.401 1.502-.705 1.905-.297.393-.652.574-1.078.574zm2.016-2.674.234.04c.156-.902.153-1.626-.052-2.135a1.27 1.27 0 0 0-.486-.612 1.4 1.4 0 0 0-.774-.205v.475a.93.93 0 0 1 .517.13c.125.08.228.205.303.39.154.382.176.996.024 1.876zm-1.078-2.674v-.238c-.595 0-1.086.264-1.46.764-.366.488-.619 1.2-.776 2.107l.234.04.234.041c.152-.875.387-1.501.688-1.904.293-.391.649-.573 1.08-.573zm-2.002 2.674-.233-.043c-.166.902-.17 1.626.034 2.136.104.261.264.471.486.613.22.142.484.205.777.205v-.475a.95.95 0 0 1-.52-.13.8.8 0 0 1-.302-.389c-.152-.381-.17-.994-.008-1.875zm14.39.14.234.042v-.002zm-1.665 3.654-.174-.163zm-5.95-.14-.206.119.002.002zm-.462-3.794-.234-.04zm1.652-3.64-.173-.164v.001zm5.964.14-.205.12v.001zm-2.03 3.64.233.042v-.002zm-3.08 0 .233.042v-.002zm5.572.14-.234-.043c-.274 1.518-.814 2.69-1.606 3.534l.174.163.173.162c.87-.929 1.44-2.193 1.727-3.774zM61.29 9.142l-.174-.163c-.773.826-1.763 1.241-2.99 1.241v.475c1.348 0 2.467-.462 3.337-1.391zm-3.164 1.316v-.238c-1.208 0-2.053-.452-2.582-1.34l-.204.122-.204.121c.627 1.053 1.64 1.572 2.99 1.572zM55.34 9.002l.205-.12c-.532-.916-.689-2.12-.433-3.635l-.234-.04-.235-.039c-.267 1.583-.115 2.91.491 3.953zm-.462-3.794.234.04c.255-1.497.79-2.664 1.591-3.518l-.173-.162-.174-.163c-.879.938-1.445 2.198-1.712 3.763zm1.652-3.64.172.163C57.496.894 58.492.475 59.71.475V0c-1.34 0-2.464.468-3.35 1.404zm3.178-1.33v.237c1.207 0 2.051.456 2.581 1.353l.205-.12.204-.121C62.072.524 61.06 0 59.71 0zm2.786 1.47-.204.121c.54.906.696 2.103.432 3.618l.234.04.234.041c.276-1.583.125-2.906-.492-3.942zm-4.046 6.314v.237c.59 0 1.08-.264 1.456-.763.368-.488.627-1.198.793-2.106l-.233-.042-.234-.043c-.16.875-.401 1.502-.705 1.905-.296.393-.651.574-1.077.574zm2.016-2.674.234.04c.156-.902.153-1.626-.052-2.135a1.27 1.27 0 0 0-.487-.612 1.4 1.4 0 0 0-.773-.205v.475c.222 0 .39.048.516.13.125.08.228.205.303.39.154.382.177.996.025 1.876zm-1.078-2.674v-.238c-.596 0-1.087.264-1.461.764-.366.488-.619 1.2-.775 2.107l.234.04.234.041c.151-.875.386-1.501.687-1.904.294-.391.65-.573 1.08-.573zm-2.002 2.674-.234-.043c-.165.902-.169 1.626.034 2.136.104.261.264.471.486.613s.485.205.778.205v-.475a.95.95 0 0 1-.521-.13.8.8 0 0 1-.302-.389c-.151-.381-.169-.994-.008-1.875zM69.8 1.372l.2.127.038-.058v-.07zm-5.068 7.952-.2-.128-.233.365h.433zm5.208 0h.238v-.238h-.238zm0 .924v.237h.238v-.237zm-6.3 0h-.237v.237h.237zm0-.924-.2-.128-.038.058v.07zm5.068-7.952.2.127.233-.365h-.433zm-4.928 0h-.237v.237h.237zm0-.924V.21h-.237v.238zm6.02 0h.238V.21H69.8zm0 .924-.2-.128-5.068 7.952.2.128.2.127L70.001 1.5zm-5.068 7.952v.237h5.208v-.475h-5.208zm5.208 0h-.237v.924h.475v-.924zm0 .924v-.238h-6.3v.475h6.3zm-6.3 0h.238v-.924h-.475v.924zm0-.924.2.127L68.91 1.5l-.2-.127-.2-.128-5.068 7.952zm5.068-7.952v-.238H63.78v.475h4.928zm-4.928 0h.238V.448h-.475v.924zm0-.924v.237h6.02V.21h-6.02zm6.02 0h-.237v.924h.475V.448z" mask="url(#c)"/><defs><linearGradient id="a" x1="35.005" x2="35.005" y1="-12.643" y2="26.072" gradientUnits="userSpaceOnUse"><stop offset=".333" stop-color="#fff4cd"/><stop offset=".4" stop-color="#ffe68e"/><stop offset=".477" stop-color="#ffa34e"/><stop offset=".557" stop-color="#fff387"/><stop offset=".726" stop-color="#ffa841"/></linearGradient><linearGradient id="b" x1="34.794" x2="34.794" y1="-2.752" y2="15.248" gradientUnits="userSpaceOnUse"><stop offset=".214" stop-color="#fffdeb"/><stop offset=".505" stop-color="#fff389"/><stop offset=".849" stop-color="#ffe922"/></linearGradient></defs></svg>