<svg width="31" height="31" viewBox="0 0 31 31" fill="none" xmlns="http://www.w3.org/2000/svg">
<path d="M28.1382 15.4417L24.6958 18.9445C24.65 18.9912 24.5749 18.9924 24.5281 18.9467L21.0045 15.5045C20.9287 15.4304 20.981 15.3017 21.087 15.3008L22.1435 15.2916L23.0695 15.2828L23.1889 15.2825L23.1872 15.163C23.1369 10.8202 19.5555 7.32574 15.1895 7.3513L15.1888 7.352C12.6431 7.37423 10.3828 8.60626 8.95275 10.4931C8.90573 10.5552 8.81727 10.5609 8.76576 10.5106L6.96456 8.74051C6.92136 8.69797 6.9181 8.63163 6.95424 8.58661C8.88983 6.17963 11.8661 4.62007 15.1896 4.59113C21.0706 4.54008 25.896 9.25945 25.9713 15.1402L25.973 15.2582L28.0529 15.2401C28.1584 15.2395 28.212 15.3663 28.1382 15.4417Z" fill="url(#paint0_linear_116_8370)" stroke="url(#paint1_linear_116_8370)" stroke-width="0.237582"/>
<path d="M23.5207 22.0768C21.5829 24.4386 18.6514 25.9418 15.3651 25.9591L15.3637 25.9591C9.45867 26.0103 4.63233 21.2675 4.58091 15.3624L4.5816 15.3617C4.58159 15.361 4.58089 15.3596 4.58087 15.3583C4.58085 15.3556 4.58082 15.3517 4.58078 15.3472C4.5807 15.3381 4.58128 15.3255 4.58117 15.3134L4.58014 15.1946L4.46137 15.1956L3.58374 15.204L3.58305 15.2033L2.4935 15.2211C2.38727 15.2228 2.33167 15.0946 2.40611 15.0188L5.84432 11.5202C5.89022 11.4736 5.96533 11.4737 6.01212 11.5194L9.52797 14.9526C9.60335 15.0263 9.55274 15.1549 9.44757 15.1571L8.42085 15.1736L8.42155 15.1743L7.47071 15.1819L7.35195 15.1829L7.35298 15.3017L7.35368 15.3023L7.35299 15.303L7.35311 15.3169C7.35319 15.326 7.35399 15.3385 7.3541 15.3507C7.3923 19.7298 10.9731 23.2488 15.3522 23.2107C17.8199 23.1893 20.0245 22.031 21.4633 20.2275C21.6074 20.047 21.872 20.0267 22.0284 20.1804L23.489 21.6158C23.6176 21.7422 23.6313 21.9419 23.5207 22.0768Z" fill="url(#paint2_linear_116_8370)" stroke="url(#paint3_linear_116_8370)" stroke-width="0.237582"/>
<defs>
<linearGradient id="paint0_linear_116_8370" x1="25.3251" y1="18.4742" x2="10.9141" y2="4.312" gradientUnits="userSpaceOnUse">
<stop offset="0.213542" stop-color="#FFFDEB"/>
<stop offset="0.505208" stop-color="#FFF389"/>
<stop offset="0.849481" stop-color="#FFE922"/>
</linearGradient>
<linearGradient id="paint1_linear_116_8370" x1="33.2189" y1="26.2814" x2="2.2231" y2="-4.17924" gradientUnits="userSpaceOnUse">
<stop offset="0.33274" stop-color="#FFF4CD"/>
<stop offset="0.400099" stop-color="#FFE68E"/>
<stop offset="0.476571" stop-color="#FFA34E"/>
<stop offset="0.557142" stop-color="#FFF387"/>
<stop offset="0.725754" stop-color="#FFA841"/>
</linearGradient>
<linearGradient id="paint2_linear_116_8370" x1="19.6715" y1="26.2235" x2="5.20259" y2="12.0043" gradientUnits="userSpaceOnUse">
<stop offset="0.213542" stop-color="#FFFDEB"/>
<stop offset="0.505208" stop-color="#FFF389"/>
<stop offset="0.849481" stop-color="#FFE922"/>
</linearGradient>
<linearGradient id="paint3_linear_116_8370" x1="27.597" y1="34.0621" x2="-3.52344" y2="3.47899" gradientUnits="userSpaceOnUse">
<stop offset="0.33274" stop-color="#FFF4CD"/>
<stop offset="0.400099" stop-color="#FFE68E"/>
<stop offset="0.476571" stop-color="#FFA34E"/>
<stop offset="0.557142" stop-color="#FFF387"/>
<stop offset="0.725754" stop-color="#FFA841"/>
</linearGradient>
</defs>
</svg>
