<svg xmlns="http://www.w3.org/2000/svg" width="82" height="21" fill="none" viewBox="0 0 82 21"><g filter="url(#a)"><mask id="d" width="79" height="14" x="1.755" y="2" fill="#000" maskUnits="userSpaceOnUse"><path fill="#fff" d="M1.755 2h79v14h-79z"/><path d="M2.323 4.256 5.757 3.1h2.618L6.284 15H3.24l1.513-8.568-2.16.527zM18.694 9.22q-.51 2.822-2.023 4.437-1.496 1.598-3.842 1.598-2.329 0-3.383-1.768-1.037-1.785-.56-4.607.475-2.788 2.005-4.42 1.53-1.615 3.86-1.615 2.328 0 3.382 1.785 1.055 1.769.561 4.59m-5.474 3.077q1.853 0 2.448-3.247.561-3.247-1.309-3.247T11.93 9.05q-.596 3.247 1.291 3.247M29.402 9.22q-.51 2.822-2.023 4.437-1.496 1.598-3.842 1.598-2.328 0-3.383-1.768-1.037-1.785-.56-4.607.475-2.788 2.005-4.42 1.53-1.615 3.86-1.615T28.84 4.63q1.054 1.769.561 4.59m-5.474 3.077q1.853 0 2.448-3.247.561-3.247-1.309-3.247t-2.43 3.247q-.597 3.247 1.291 3.247M43.962 9.22q-.51 2.822-2.023 4.437-1.496 1.598-3.842 1.598-2.329 0-3.383-1.768-1.036-1.785-.561-4.607.476-2.788 2.006-4.42 1.53-1.615 3.859-1.615T43.4 4.63q1.054 1.769.56 4.59m-5.474 3.077q1.852 0 2.448-3.247.562-3.247-1.31-3.247-1.869 0-2.43 3.247-.595 3.247 1.292 3.247M54.67 9.22q-.51 2.822-2.023 4.437-1.496 1.598-3.842 1.598-2.329 0-3.383-1.768-1.036-1.785-.561-4.607.476-2.788 2.006-4.42 1.53-1.615 3.859-1.615t3.383 1.785q1.055 1.769.56 4.59m-5.474 3.077q1.852 0 2.448-3.247.562-3.247-1.31-3.247-1.869 0-2.43 3.247-.595 3.247 1.292 3.247M65.378 9.22q-.51 2.822-2.023 4.437-1.496 1.598-3.842 1.598-2.329 0-3.383-1.768-1.038-1.785-.561-4.607.476-2.788 2.006-4.42 1.53-1.615 3.859-1.615t3.383 1.785q1.055 1.769.56 4.59m-5.474 3.077q1.852 0 2.448-3.247.562-3.247-1.31-3.247-1.869 0-2.43 3.247-.595 3.247 1.292 3.247M71.607 15l1.411-6.613H70.06l.46-2.176h8.346l-.459 2.176h-2.856L74.141 15zm-.833-9.962.46-2.176h8.346l-.459 2.176z"/></mask><path fill="url(#b)" d="M2.323 4.256 5.757 3.1h2.618L6.284 15H3.24l1.513-8.568-2.16.527zM18.694 9.22q-.51 2.822-2.023 4.437-1.496 1.598-3.842 1.598-2.329 0-3.383-1.768-1.037-1.785-.56-4.607.475-2.788 2.005-4.42 1.53-1.615 3.86-1.615 2.328 0 3.382 1.785 1.055 1.769.561 4.59m-5.474 3.077q1.853 0 2.448-3.247.561-3.247-1.309-3.247T11.93 9.05q-.596 3.247 1.291 3.247M29.402 9.22q-.51 2.822-2.023 4.437-1.496 1.598-3.842 1.598-2.328 0-3.383-1.768-1.037-1.785-.56-4.607.475-2.788 2.005-4.42 1.53-1.615 3.86-1.615T28.84 4.63q1.054 1.769.561 4.59m-5.474 3.077q1.853 0 2.448-3.247.561-3.247-1.309-3.247t-2.43 3.247q-.597 3.247 1.291 3.247M43.962 9.22q-.51 2.822-2.023 4.437-1.496 1.598-3.842 1.598-2.329 0-3.383-1.768-1.036-1.785-.561-4.607.476-2.788 2.006-4.42 1.53-1.615 3.859-1.615T43.4 4.63q1.054 1.769.56 4.59m-5.474 3.077q1.852 0 2.448-3.247.562-3.247-1.31-3.247-1.869 0-2.43 3.247-.595 3.247 1.292 3.247M54.67 9.22q-.51 2.822-2.023 4.437-1.496 1.598-3.842 1.598-2.329 0-3.383-1.768-1.036-1.785-.561-4.607.476-2.788 2.006-4.42 1.53-1.615 3.859-1.615t3.383 1.785q1.055 1.769.56 4.59m-5.474 3.077q1.852 0 2.448-3.247.562-3.247-1.31-3.247-1.869 0-2.43 3.247-.595 3.247 1.292 3.247M65.378 9.22q-.51 2.822-2.023 4.437-1.496 1.598-3.842 1.598-2.329 0-3.383-1.768-1.038-1.785-.561-4.607.476-2.788 2.006-4.42 1.53-1.615 3.859-1.615t3.383 1.785q1.055 1.769.56 4.59m-5.474 3.077q1.852 0 2.448-3.247.562-3.247-1.31-3.247-1.869 0-2.43 3.247-.595 3.247 1.292 3.247M71.607 15l1.411-6.613H70.06l.46-2.176h8.346l-.459 2.176h-2.856L74.141 15zm-.833-9.962.46-2.176h8.346l-.459 2.176z"/><path fill="url(#c)" d="m2.323 4.256-.076-.225-.18.06.02.189zM5.757 3.1v-.238h-.04l-.036.013zm2.618 0 .234.041.049-.279h-.283zM6.284 15v.238h.199l.035-.197zM3.24 15l-.234-.041-.05.279h.284zm1.513-8.568.234.041.063-.358-.354.086zm-2.16.527-.236.024.028.272.265-.065zm-.271-2.703.075.225 3.434-1.156-.075-.225-.076-.225L2.247 4.03zM5.757 3.1v.238h2.618v-.476H5.757zm2.618 0-.234-.041-2.091 11.9.234.041.234.041 2.09-11.9zM6.284 15v-.238H3.24v.476h3.043zM3.24 15l.234.041 1.513-8.568-.234-.041-.234-.041-1.513 8.568zm1.513-8.568-.057-.23-2.159.526.057.231.056.23 2.159-.526zm-2.16.527.237-.024-.272-2.703-.236.024-.237.024.272 2.703zm16.1 2.261.234.042v-.001zm-2.023 4.437-.173-.162zm-7.225-.17-.205.12.001.002zm-.56-4.607-.235-.04zm2.005-4.42-.172-.163h-.001zm7.242.17-.204.12v.002zm-2.465 4.42.234.043V9.09zm-3.74 0 .234.043V9.09zm6.766.17-.234-.042c-.334 1.85-.993 3.282-1.962 4.317l.173.162.174.162c1.048-1.118 1.737-2.644 2.083-4.557zm-2.023 4.437-.173-.162c-.95 1.013-2.165 1.522-3.669 1.522v.476c1.625 0 2.97-.557 4.016-1.674zm-3.842 1.598v-.238c-1.482 0-2.525-.556-3.179-1.652l-.204.122-.204.122c.752 1.26 1.964 1.884 3.587 1.884zm-3.383-1.768.206-.12c-.655-1.126-.844-2.6-.533-4.447l-.234-.04-.234-.04c-.323 1.916-.139 3.513.59 4.766zm-.56-4.607.233.04c.312-1.825.965-3.251 1.946-4.298l-.174-.162-.173-.162c-1.06 1.13-1.744 2.65-2.067 4.542zm2.005-4.42.173.163c.973-1.026 2.195-1.54 3.686-1.54v-.476c-1.614 0-2.964.563-4.031 1.69zm3.86-1.615v.238c1.48 0 2.524.56 3.178 1.668l.204-.121.205-.12c-.752-1.273-1.963-1.903-3.588-1.903zm3.382 1.785-.204.122c.664 1.113.854 2.58.531 4.427l.234.041.234.04c.335-1.915.15-3.508-.59-4.752zm-4.913 7.667v.238c.7 0 1.28-.313 1.728-.907.44-.583.753-1.437.954-2.535l-.234-.043-.233-.043c-.196 1.066-.49 1.836-.866 2.335-.368.489-.814.717-1.349.717zm2.448-3.247.234.04c.19-1.093.184-1.96-.06-2.564a1.5 1.5 0 0 0-.571-.72c-.257-.165-.566-.24-.912-.24v.475c.277 0 .491.06.655.165.162.104.293.265.387.498.193.477.218 1.234.033 2.306zM14.36 5.803v-.238c-.705 0-1.287.312-1.733.907-.437.585-.742 1.439-.932 2.538l.234.04.234.04c.184-1.065.472-1.835.845-2.333.364-.487.81-.716 1.352-.716zM11.93 9.05l-.235-.043c-.2 1.093-.202 1.96.039 2.566.123.31.311.555.57.721s.569.24.917.24v-.475c-.28 0-.496-.06-.66-.165a1 1 0 0 1-.386-.497c-.19-.476-.208-1.233-.012-2.304zm17.473.17.234.042v-.001zm-2.023 4.437-.173-.162zm-7.225-.17-.205.12.001.002zm-.56-4.607-.235-.04zM21.6 4.46l-.172-.163h-.001zm7.242.17-.204.12v.002zm-2.465 4.42.234.043V9.09zm-3.74 0 .234.043V9.09zm6.766.17-.234-.042c-.334 1.85-.993 3.282-1.962 4.317l.173.162.174.162c1.048-1.118 1.737-2.644 2.083-4.557zm-2.023 4.437-.173-.162c-.95 1.013-2.165 1.522-3.669 1.522v.476c1.625 0 2.97-.557 4.016-1.674zm-3.842 1.598v-.238c-1.482 0-2.525-.556-3.179-1.652l-.204.122-.204.122c.752 1.26 1.964 1.884 3.587 1.884zm-3.383-1.768.206-.12c-.655-1.126-.844-2.6-.532-4.447l-.235-.04-.234-.04c-.323 1.916-.139 3.513.59 4.766zm-.56-4.607.233.04c.312-1.825.965-3.251 1.945-4.298L21.6 4.46l-.173-.162c-1.06 1.13-1.744 2.65-2.067 4.542zM21.6 4.46l.173.163c.973-1.026 2.195-1.54 3.686-1.54v-.476c-1.614 0-2.964.563-4.031 1.69zm3.86-1.615v.238c1.48 0 2.524.56 3.178 1.668l.204-.121.205-.12c-.752-1.273-1.963-1.903-3.588-1.903zm3.38 1.785-.204.122c.664 1.113.854 2.58.531 4.427l.234.041.234.04c.335-1.915.15-3.508-.59-4.752zm-4.913 7.667v.238c.7 0 1.28-.313 1.728-.907.44-.583.753-1.437.954-2.535l-.234-.043-.234-.043c-.195 1.066-.489 1.836-.865 2.335-.368.489-.814.717-1.349.717zm2.448-3.247.234.04c.19-1.093.184-1.96-.06-2.564a1.5 1.5 0 0 0-.571-.72c-.257-.165-.566-.24-.912-.24v.475c.277 0 .491.06.655.165.162.104.293.265.387.498.193.477.218 1.234.033 2.306zm-1.309-3.247v-.238c-.705 0-1.287.312-1.733.907-.437.585-.742 1.439-.932 2.538l.234.04.234.04c.184-1.065.472-1.835.845-2.333.364-.487.81-.716 1.352-.716zm-2.43 3.247-.235-.043c-.2 1.093-.202 1.96.039 2.566.123.31.311.555.57.721s.569.24.917.24v-.475c-.28 0-.496-.06-.66-.165a1 1 0 0 1-.386-.497c-.19-.476-.208-1.233-.012-2.304zm21.325.17.234.042v-.001zm-2.023 4.437-.174-.162zm-7.225-.17-.206.12.002.002zm-.561-4.607-.234-.04zm2.006-4.42-.173-.163zm7.242.17-.205.12v.002zm-2.465 4.42.233.043V9.09zm-3.74 0 .233.043V9.09zm6.766.17-.234-.042c-.334 1.85-.993 3.282-1.963 4.317l.174.162.173.162c1.048-1.118 1.738-2.644 2.084-4.557zm-2.023 4.437-.174-.162c-.949 1.013-2.165 1.522-3.668 1.522v.476c1.624 0 2.97-.557 4.015-1.674zm-3.842 1.598v-.238c-1.482 0-2.526-.556-3.18-1.652l-.203.122-.204.122c.752 1.26 1.964 1.884 3.587 1.884zm-3.383-1.768.205-.12c-.654-1.126-.844-2.6-.532-4.447l-.234-.04-.234-.04c-.323 1.916-.139 3.513.59 4.766zm-.561-4.607.234.04c.312-1.825.964-3.251 1.945-4.298l-.173-.162-.173-.162c-1.06 1.13-1.744 2.65-2.067 4.542zm2.006-4.42.172.163c.973-1.026 2.196-1.54 3.687-1.54v-.476c-1.615 0-2.965.563-4.032 1.69zm3.859-1.615v.238c1.48 0 2.524.56 3.178 1.668l.205-.121.204-.12c-.751-1.273-1.963-1.903-3.587-1.903zM43.4 4.63l-.204.122c.664 1.113.853 2.58.53 4.427l.235.041.234.04c.335-1.915.15-3.508-.591-4.752zm-4.913 7.667v.238c.7 0 1.28-.313 1.728-.907.44-.583.752-1.437.953-2.535l-.233-.043-.234-.043c-.195 1.066-.49 1.836-.865 2.335-.369.489-.814.717-1.35.717zm2.448-3.247.234.04c.189-1.093.183-1.96-.06-2.564a1.5 1.5 0 0 0-.572-.72c-.257-.165-.565-.24-.911-.24v.475c.277 0 .49.06.654.165.163.104.294.265.388.498.192.477.218 1.234.033 2.306zm-1.31-3.247v-.238c-.704 0-1.286.312-1.732.907-.438.585-.742 1.439-.932 2.538l.234.04.234.04c.184-1.065.471-1.835.844-2.333.365-.487.811-.716 1.353-.716zm-2.43 3.247-.234-.043c-.2 1.093-.202 1.96.038 2.566.123.31.312.555.571.721s.568.24.917.24v-.475c-.28 0-.496-.06-.66-.165a1 1 0 0 1-.386-.497c-.19-.476-.209-1.233-.013-2.304zm17.474.17.234.042v-.001zm-2.023 4.437-.174-.162zm-7.225-.17-.206.12.002.002zM44.86 8.88l-.234-.04zm2.006-4.42-.173-.163zm7.242.17-.205.12v.002zm-2.465 4.42.233.043V9.09zm-3.74 0 .233.043V9.09zm6.766.17-.234-.042c-.334 1.85-.993 3.282-1.963 4.317l.174.162.173.162c1.048-1.118 1.738-2.644 2.084-4.557zm-2.023 4.437-.174-.162c-.949 1.013-2.165 1.522-3.668 1.522v.476c1.624 0 2.97-.557 4.015-1.674zm-3.842 1.598v-.238c-1.482 0-2.526-.556-3.18-1.652l-.203.122-.204.122c.752 1.26 1.964 1.884 3.587 1.884zm-3.383-1.768.205-.12c-.654-1.126-.844-2.6-.532-4.447l-.234-.04-.234-.04c-.324 1.916-.139 3.513.59 4.766zM44.86 8.88l.234.04c.312-1.825.965-3.251 1.945-4.298l-.173-.162-.173-.162c-1.06 1.13-1.744 2.65-2.067 4.542zm2.006-4.42.172.163c.973-1.026 2.196-1.54 3.687-1.54v-.476c-1.615 0-2.965.563-4.032 1.69zm3.859-1.615v.238c1.48 0 2.524.56 3.178 1.668l.205-.121.204-.12c-.751-1.273-1.963-1.903-3.587-1.903zm3.383 1.785-.204.122c.664 1.113.853 2.58.53 4.427l.235.041.234.04c.334-1.915.15-3.508-.591-4.752zm-4.913 7.667v.238c.7 0 1.28-.313 1.728-.907.44-.583.752-1.437.953-2.535l-.233-.043-.234-.043c-.195 1.066-.49 1.836-.865 2.335-.369.489-.814.717-1.35.717zm2.448-3.247.234.04c.189-1.093.183-1.96-.06-2.564a1.5 1.5 0 0 0-.572-.72c-.257-.165-.565-.24-.911-.24v.475c.277 0 .49.06.654.165.163.104.294.265.388.498.192.477.218 1.234.033 2.306zm-1.31-3.247v-.238c-.704 0-1.287.312-1.732.907-.438.585-.742 1.439-.932 2.538l.234.04.234.04c.184-1.065.471-1.835.844-2.333.365-.487.811-.716 1.353-.716zm-2.43 3.247-.234-.043c-.2 1.093-.202 1.96.038 2.566.123.31.312.555.571.721s.568.24.917.24v-.475c-.28 0-.496-.06-.66-.165a1 1 0 0 1-.386-.497c-.19-.476-.209-1.233-.012-2.304zm17.474.17.234.042v-.001zm-2.023 4.437-.174-.162zm-7.225-.17-.206.12.002.002zm-.561-4.607-.234-.04zm2.006-4.42-.173-.163zm7.242.17-.205.12v.002zm-2.465 4.42.234.043V9.09zm-3.74 0 .233.043V9.09zm6.766.17-.234-.042c-.334 1.85-.993 3.282-1.963 4.317l.174.162.173.162c1.048-1.118 1.738-2.644 2.084-4.557zm-2.023 4.437-.174-.162c-.949 1.013-2.165 1.522-3.668 1.522v.476c1.624 0 2.97-.557 4.015-1.674zm-3.842 1.598v-.238c-1.482 0-2.526-.556-3.18-1.652l-.203.122-.204.122c.752 1.26 1.964 1.884 3.587 1.884zm-3.383-1.768.205-.12c-.654-1.126-.844-2.6-.532-4.447l-.234-.04-.235-.04c-.323 1.916-.138 3.513.59 4.766zm-.561-4.607.234.04c.312-1.825.965-3.251 1.945-4.298l-.173-.162-.174-.162c-1.059 1.13-1.743 2.65-2.066 4.542zm2.006-4.42.172.163c.973-1.026 2.196-1.54 3.687-1.54v-.476c-1.615 0-2.965.563-4.032 1.69zm3.859-1.615v.238c1.48 0 2.524.56 3.178 1.668l.205-.121.204-.12c-.751-1.273-1.963-1.903-3.587-1.903zm3.383 1.785-.204.122c.664 1.113.853 2.58.53 4.427l.235.041.234.04c.335-1.915.15-3.508-.591-4.752zm-4.913 7.667v.238c.7 0 1.28-.313 1.728-.907.44-.583.752-1.437.954-2.535l-.234-.043-.234-.043c-.195 1.066-.49 1.836-.865 2.335-.369.489-.814.717-1.35.717zm2.448-3.247.234.04c.189-1.093.183-1.96-.06-2.564a1.5 1.5 0 0 0-.572-.72c-.257-.165-.565-.24-.911-.24v.475c.277 0 .49.06.654.165.163.104.294.265.388.498.192.477.218 1.234.033 2.306zm-1.31-3.247v-.238c-.704 0-1.287.312-1.732.907-.438.585-.742 1.439-.932 2.538l.234.04.234.04c.184-1.065.471-1.835.844-2.333.365-.487.811-.716 1.353-.716zm-2.43 3.247-.234-.043c-.2 1.093-.202 1.96.039 2.566.122.31.31.555.57.721.258.165.568.24.917.24v-.475c-.28 0-.496-.06-.66-.165a1 1 0 0 1-.386-.497c-.19-.476-.209-1.233-.012-2.304zM71.607 15l-.232-.05-.061.288h.293zm1.411-6.613.233.05.061-.288h-.294zm-2.958 0-.232-.049-.06.287h.292zm.46-2.176v-.238h-.193l-.04.189zm8.346 0 .233.049.06-.287h-.293zm-.459 2.176v.238h.193l.04-.189zm-2.856 0v-.238h-.192l-.04.188zM74.141 15v.238h.192l.04-.188zm-3.367-9.962-.232-.049-.06.287h.292zm.46-2.176v-.238h-.193l-.04.189zm8.346 0 .233.049.06-.287h-.293zm-.459 2.176v.238h.193l.04-.189zM71.607 15l.233.05 1.41-6.613-.232-.05-.232-.05-1.411 6.613zm1.411-6.613v-.238H70.06v.476h2.958zm-2.958 0 .233.049.459-2.176-.233-.049-.232-.049-.46 2.176zm.46-2.176v.238h8.346v-.476H70.52zm8.346 0-.232-.049-.46 2.176.233.049.233.049.459-2.176zm-.459 2.176v-.238h-2.856v.476h2.856zm-2.856 0-.232-.05-1.411 6.613.232.05.233.05 1.41-6.613zM74.141 15v-.238h-2.534v.476h2.533zm-3.367-9.962.233.049.459-2.176-.233-.049-.232-.049-.46 2.176zm.46-2.176V3.1h8.346v-.476h-8.347zm8.346 0-.232-.049-.46 2.176.233.049.233.049.459-2.176zm-.459 2.176V4.8h-8.347v.476h8.347z" mask="url(#d)"/></g><defs><linearGradient id="b" x1="39.984" x2="39.984" y1="-11.539" y2="33.629" gradientUnits="userSpaceOnUse"><stop offset=".333" stop-color="#fff4cd"/><stop offset=".4" stop-color="#ffe68e"/><stop offset=".477" stop-color="#ffa34e"/><stop offset=".557" stop-color="#fff387"/><stop offset=".726" stop-color="#ffa841"/></linearGradient><linearGradient id="c" x1="39.755" x2="39.755" y1="0" y2="21" gradientUnits="userSpaceOnUse"><stop offset=".214" stop-color="#fffdeb"/><stop offset=".505" stop-color="#fff389"/><stop offset=".849" stop-color="#ffe922"/></linearGradient><filter id="a" width="81.941" height="17.02" x="0" y="2.607" color-interpolation-filters="sRGB" filterUnits="userSpaceOnUse"><feFlood flood-opacity="0" result="BackgroundImageFix"/><feColorMatrix in="SourceAlpha" result="hardAlpha" values="0 0 0 0 0 0 0 0 0 0 0 0 0 0 0 0 0 0 127 0"/><feOffset dy="2.067"/><feGaussianBlur stdDeviation="1.034"/><feComposite in2="hardAlpha" operator="out"/><feColorMatrix values="0 0 0 0 0 0 0 0 0 0 0 0 0 0 0 0 0 0 0.2 0"/><feBlend in2="BackgroundImageFix" result="effect1_dropShadow_128_40177"/><feBlend in="SourceGraphic" in2="effect1_dropShadow_128_40177" result="shape"/></filter></defs></svg>