<svg xmlns="http://www.w3.org/2000/svg" width="75" height="21" fill="none" viewBox="0 0 75 21"><g filter="url(#a)"><mask id="d" width="71" height="14" x="1.53" y="2" fill="#000" maskUnits="userSpaceOnUse"><path fill="#fff" d="M1.53 2h71v14h-71z"/><path d="M10.678 15h-8.33l.374-2.21 4.726-4.165q1.31-1.155 1.428-1.853.086-.425-.136-.697-.22-.272-.663-.272-1.02 0-1.802 1.292L3.81 5.582q.8-1.343 2.023-2.04a5.24 5.24 0 0 1 2.635-.697q1.667 0 2.703 1.139 1.072 1.122.765 2.873a4.7 4.7 0 0 1-.714 1.802q-.526.782-1.598 1.717l-1.972 1.683h3.536zM21.511 3.1 21 6.007h-4.166l-.323 1.275h.732q1.717 0 2.736 1.105 1.038 1.088.697 3.043-.339 1.87-1.683 2.856-1.343.969-3.161.969-3.23 0-4.132-2.686l2.806-1.462q.374 1.19 1.649 1.19.612 0 1.02-.289.408-.29.493-.799.084-.51-.204-.816-.272-.306-.867-.306h-3.825L14.49 3.1zm14.031 6.12q-.51 2.822-2.023 4.437-1.496 1.598-3.842 1.598-2.329 0-3.383-1.768-1.037-1.785-.56-4.607.474-2.788 2.005-4.42 1.53-1.615 3.86-1.615T34.98 4.63q1.055 1.769.561 4.59m-5.474 3.077q1.852 0 2.448-3.247.561-3.247-1.309-3.247t-2.43 3.247q-.596 3.247 1.291 3.247M46.25 9.22q-.51 2.822-2.023 4.437-1.496 1.598-3.842 1.598-2.329 0-3.383-1.768-1.037-1.785-.56-4.607.474-2.788 2.005-4.42 1.53-1.615 3.86-1.615t3.382 1.785q1.055 1.769.561 4.59m-5.474 3.077q1.853 0 2.448-3.247.561-3.247-1.309-3.247t-2.43 3.247q-.596 3.247 1.291 3.247M56.958 9.22q-.51 2.822-2.023 4.437-1.496 1.598-3.842 1.598-2.329 0-3.383-1.768-1.037-1.785-.56-4.607.475-2.788 2.005-4.42 1.53-1.615 3.86-1.615t3.382 1.785q1.055 1.769.561 4.59m-5.474 3.077q1.853 0 2.448-3.247.561-3.247-1.309-3.247t-2.43 3.247q-.597 3.247 1.291 3.247M63.596 3.1h4.624q1.683 0 2.737 1.224 1.071 1.207.765 2.941-.324 1.853-1.615 2.839-1.275.969-3.298.969h-1.581l-.12.68h3.486l-.29 1.683h-3.501L64.53 15h-3.043l.272-1.564h-1.105l.289-1.683h1.122l.119-.68H61.08l.476-2.703h1.105zm5.1 4.08q.102-.544-.187-.867-.273-.323-.8-.323h-1.597l-.408 2.38h1.58q.528 0 .919-.323.408-.322.493-.867"/></mask><path fill="url(#b)" d="M10.678 15h-8.33l.374-2.21 4.726-4.165q1.31-1.155 1.428-1.853.086-.425-.136-.697-.22-.272-.663-.272-1.02 0-1.802 1.292L3.81 5.582q.8-1.343 2.023-2.04a5.24 5.24 0 0 1 2.635-.697q1.667 0 2.703 1.139 1.072 1.122.765 2.873a4.7 4.7 0 0 1-.714 1.802q-.526.782-1.598 1.717l-1.972 1.683h3.536zM21.511 3.1 21 6.007h-4.166l-.323 1.275h.732q1.717 0 2.736 1.105 1.038 1.088.697 3.043-.339 1.87-1.683 2.856-1.343.969-3.161.969-3.23 0-4.132-2.686l2.806-1.462q.374 1.19 1.649 1.19.612 0 1.02-.289.408-.29.493-.799.084-.51-.204-.816-.272-.306-.867-.306h-3.825L14.49 3.1zm14.031 6.12q-.51 2.822-2.023 4.437-1.496 1.598-3.842 1.598-2.329 0-3.383-1.768-1.037-1.785-.56-4.607.474-2.788 2.005-4.42 1.53-1.615 3.86-1.615T34.98 4.63q1.055 1.769.561 4.59m-5.474 3.077q1.852 0 2.448-3.247.561-3.247-1.309-3.247t-2.43 3.247q-.596 3.247 1.291 3.247M46.25 9.22q-.51 2.822-2.023 4.437-1.496 1.598-3.842 1.598-2.329 0-3.383-1.768-1.037-1.785-.56-4.607.474-2.788 2.005-4.42 1.53-1.615 3.86-1.615t3.382 1.785q1.055 1.769.561 4.59m-5.474 3.077q1.853 0 2.448-3.247.561-3.247-1.309-3.247t-2.43 3.247q-.596 3.247 1.291 3.247M56.958 9.22q-.51 2.822-2.023 4.437-1.496 1.598-3.842 1.598-2.329 0-3.383-1.768-1.037-1.785-.56-4.607.475-2.788 2.005-4.42 1.53-1.615 3.86-1.615t3.382 1.785q1.055 1.769.561 4.59m-5.474 3.077q1.853 0 2.448-3.247.561-3.247-1.309-3.247t-2.43 3.247q-.597 3.247 1.291 3.247M63.596 3.1h4.624q1.683 0 2.737 1.224 1.071 1.207.765 2.941-.324 1.853-1.615 2.839-1.275.969-3.298.969h-1.581l-.12.68h3.486l-.29 1.683h-3.501L64.53 15h-3.043l.272-1.564h-1.105l.289-1.683h1.122l.119-.68H61.08l.476-2.703h1.105zm5.1 4.08q.102-.544-.187-.867-.273-.323-.8-.323h-1.597l-.408 2.38h1.58q.528 0 .919-.323.408-.322.493-.867"/><path fill="url(#c)" d="M10.678 15v.238h.2l.034-.197zm-8.33 0-.234-.04-.047.278h.281zm.374-2.21-.157-.178-.063.055-.014.083zm4.726-4.165.157.178zm1.428-1.853-.233-.047v.007zm-.136-.697.185-.15zm-2.465 1.02-.124.202.204.126.124-.205zM3.81 5.582l-.204-.121-.12.2.2.123zm2.023-2.04-.117-.206zm5.338.442-.175.16.004.004zm.765 2.873.234.043v-.002zm-.714 1.802-.197-.133zm-1.598 1.717.155.18.002-.001zm-1.972 1.683-.154-.18-.49.418h.644zm3.536 0 .234.04.049-.278h-.283zM10.678 15v-.238h-8.33v.476h8.33zm-8.33 0 .235.04.374-2.21-.235-.04-.234-.04-.374 2.21zm.374-2.21.158.178 4.726-4.165-.158-.178-.157-.178-4.726 4.165zm4.726-4.165.158.178c.442-.39.792-.75 1.042-1.074.248-.322.413-.63.463-.917l-.235-.04-.234-.04c-.03.177-.142.41-.37.707-.226.292-.55.628-.98 1.008zm1.428-1.853.233.047c.067-.335.018-.645-.184-.894l-.185.15-.184.15c.092.113.134.269.087.5zm-.136-.697.185-.15c-.204-.25-.502-.36-.848-.36v.476c.244 0 .388.072.479.184zm-.663-.272v-.238c-.798 0-1.463.512-2.005 1.407l.203.123.204.123c.5-.827 1.037-1.177 1.598-1.177zM6.275 7.095l.125-.202L3.935 5.38l-.125.202-.124.202 2.465 1.513zM3.81 5.582l.205.121q.771-1.293 1.936-1.955l-.118-.206-.117-.206q-1.283.732-2.11 2.125zm2.023-2.04.118.206a5 5 0 0 1 2.517-.665v-.476q-1.473 0-2.752.729zm2.635-.697v.238c1.05 0 1.885.355 2.528 1.061l.175-.16.176-.16c-.74-.813-1.707-1.217-2.879-1.217zm2.703 1.139L11 4.148c.653.685.896 1.563.702 2.668l.234.041.234.04c.215-1.228-.053-2.266-.827-3.077zm.765 2.873-.233-.043a4.5 4.5 0 0 1-.678 1.712l.197.133.197.133q.557-.827.751-1.892zm-.714 1.802-.197-.133c-.335.498-.851 1.055-1.557 1.671l.156.179.157.179c.722-.63 1.271-1.218 1.638-1.763zm-1.598 1.717-.154-.18-1.972 1.682.154.181.155.18 1.972-1.682zm-1.972 1.683v.238h3.536v-.476H7.652zm3.536 0-.234-.04-.51 2.94.234.041.234.04.51-2.94zM21.511 3.1l.233.041.05-.279h-.284zM21 6.007v.238h.199l.035-.197zm-4.166 0v-.238h-.184l-.046.18zm-.323 1.275-.23-.058-.075.296h.305zm3.468 1.105-.174.161.002.003zm.697 3.043.234.043v-.002zm-1.683 2.856.14.193.001-.002zm-7.292-1.717-.11-.21-.18.093.064.193zm2.805-1.462.226-.071-.085-.27-.251.13zm2.669.901-.138-.194zm.493-.799.234.04zm-.204-.816-.178.158.005.005zm-4.692-.306-.231-.057-.073.295h.304zM14.49 3.1v-.238h-.187l-.044.181zm7.02 0-.234-.041-.51 2.907.235.041.233.041.51-2.907zM21 6.007v-.238h-4.164v.476H21zm-4.164 0-.23-.058-.324 1.275.23.058.23.058.324-1.275zm-.323 1.275v.238h.73v-.476h-.73zm.73 0v.238c1.09 0 1.934.347 2.563 1.028l.174-.161.175-.161c-.732-.793-1.71-1.182-2.911-1.182zm2.738 1.105-.173.164c.624.654.854 1.583.635 2.838l.234.041.235.04c.235-1.35 0-2.45-.76-3.247zm.696 3.043-.233-.043c-.218 1.197-.75 2.091-1.59 2.707l.14.192.141.191c.951-.698 1.54-1.707 1.776-3.004zm-1.683 2.856-.139-.193c-.85.614-1.855.924-3.023.924v.476c1.258 0 2.362-.336 3.302-1.014zm-3.161.969v-.238c-1.045 0-1.88-.217-2.519-.633-.637-.414-1.101-1.038-1.387-1.89l-.226.075-.225.076c.315.938.84 1.657 1.58 2.138.737.48 1.668.71 2.777.71zM11.7 12.569l.11.21 2.805-1.461-.11-.211-.11-.21-2.804 1.461zm2.806-1.462-.227.071c.136.434.362.78.687 1.014.324.234.726.343 1.188.343v-.476c-.387 0-.685-.09-.91-.252s-.399-.412-.512-.771zm1.649 1.19v.238c.446 0 .836-.106 1.157-.333l-.137-.194-.138-.194c-.224.159-.512.245-.883.245zm1.02-.289.137.194c.325-.23.523-.554.59-.954l-.234-.039-.235-.04a.94.94 0 0 1-.396.645zm.493-.799.234.04c.066-.396-.01-.749-.266-1.02l-.172.164-.173.163c.13.138.19.329.142.614zm-.204-.816.177-.158c-.244-.274-.611-.386-1.044-.386v.476c.36 0 .57.092.689.226zm-.867-.306v-.238h-3.825v.476h3.825zm-3.825 0 .23.057 1.717-6.987-.23-.057-.231-.057-1.717 6.987zM14.49 3.1v.238h7.02v-.476h-7.02zm21.052 6.12.234.042v-.001zm-2.023 4.437-.173-.162zm-7.225-.17-.205.12.001.002zm-.56-4.607-.235-.04zm2.005-4.42-.172-.163h-.001zm7.242.17-.205.12.001.002zm-2.465 4.42.234.043V9.09zm-3.74 0 .234.043V9.09zm6.766.17-.234-.042c-.334 1.85-.993 3.282-1.962 4.317l.173.162.174.162c1.047-1.118 1.737-2.644 2.083-4.557zm-2.023 4.437-.173-.162c-.95 1.013-2.165 1.522-3.669 1.522v.476c1.625 0 2.97-.557 4.016-1.674zm-3.842 1.598v-.238c-1.482 0-2.525-.556-3.179-1.652l-.204.122-.204.122c.752 1.26 1.964 1.884 3.587 1.884zm-3.383-1.768.206-.12c-.655-1.126-.844-2.6-.533-4.447l-.234-.04-.234-.04c-.323 1.916-.139 3.513.59 4.766zm-.56-4.607.233.04c.312-1.825.965-3.251 1.945-4.298l-.173-.162-.173-.162c-1.06 1.13-1.744 2.65-2.067 4.542zm2.005-4.42.173.163c.972-1.026 2.195-1.54 3.686-1.54v-.476c-1.614 0-2.964.563-4.031 1.69zm3.86-1.615v.238c1.48 0 2.524.56 3.177 1.668l.205-.121.205-.12c-.752-1.273-1.964-1.903-3.588-1.903zM34.98 4.63l-.204.122c.664 1.113.854 2.58.531 4.427l.234.041.234.04c.335-1.915.15-3.508-.59-4.752zm-4.913 7.667v.238c.7 0 1.28-.313 1.728-.907.44-.583.752-1.437.954-2.535l-.234-.043-.234-.043c-.195 1.066-.49 1.836-.865 2.335-.368.489-.814.717-1.349.717zm2.448-3.247.234.04c.19-1.093.183-1.96-.06-2.564a1.5 1.5 0 0 0-.571-.72c-.258-.165-.566-.24-.912-.24v.475c.277 0 .491.06.655.165.162.104.293.265.387.498.193.477.218 1.234.033 2.306zm-1.309-3.247v-.238c-.705 0-1.287.312-1.733.907-.437.585-.742 1.439-.932 2.538l.234.04.234.04c.184-1.065.472-1.835.845-2.333.364-.487.81-.716 1.352-.716zm-2.43 3.247-.235-.043c-.2 1.093-.202 1.96.039 2.566.123.31.311.555.57.721s.569.24.917.24v-.475c-.28 0-.496-.06-.66-.165a1 1 0 0 1-.386-.497c-.19-.476-.208-1.233-.012-2.304zm17.473.17.234.042v-.001zm-2.023 4.437-.173-.162zm-7.225-.17-.205.12.001.002zm-.56-4.607-.235-.04zm2.005-4.42-.172-.163h-.001zm7.242.17-.205.12.001.002zm-2.465 4.42.234.043V9.09zm-3.74 0 .234.043V9.09zm6.766.17-.234-.042c-.334 1.85-.993 3.282-1.962 4.317l.173.162.174.162c1.047-1.118 1.737-2.644 2.083-4.557zm-2.023 4.437-.173-.162c-.95 1.013-2.165 1.522-3.669 1.522v.476c1.625 0 2.97-.557 4.016-1.674zm-3.842 1.598v-.238c-1.482 0-2.525-.556-3.179-1.652l-.204.122-.204.122c.752 1.26 1.964 1.884 3.587 1.884zm-3.383-1.768.206-.12c-.655-1.126-.844-2.6-.533-4.447l-.234-.04-.234-.04c-.323 1.916-.139 3.513.59 4.766zm-.56-4.607.233.04c.312-1.825.965-3.251 1.945-4.298l-.173-.162-.173-.162c-1.06 1.13-1.744 2.65-2.067 4.542zm2.005-4.42.173.163c.972-1.026 2.195-1.54 3.686-1.54v-.476c-1.614 0-2.964.563-4.031 1.69zm3.86-1.615v.238c1.48 0 2.524.56 3.177 1.668l.205-.121.205-.12c-.752-1.273-1.964-1.903-3.588-1.903zm3.382 1.785-.204.122c.664 1.113.854 2.58.531 4.427l.234.041.234.04c.335-1.915.15-3.508-.59-4.752zm-4.913 7.667v.238c.7 0 1.28-.313 1.728-.907.44-.583.753-1.437.954-2.535l-.234-.043-.234-.043c-.195 1.066-.489 1.836-.865 2.335-.368.489-.814.717-1.349.717zm2.448-3.247.234.04c.19-1.093.184-1.96-.06-2.564a1.5 1.5 0 0 0-.571-.72c-.258-.165-.566-.24-.912-.24v.475c.277 0 .491.06.655.165.162.104.293.265.387.498.193.477.218 1.234.033 2.306zm-1.309-3.247v-.238c-.705 0-1.287.312-1.733.907-.437.585-.742 1.439-.932 2.538l.234.04.234.04c.184-1.065.472-1.835.845-2.333.364-.487.81-.716 1.352-.716zm-2.43 3.247-.235-.043c-.2 1.093-.202 1.96.039 2.566.123.31.311.555.57.721s.569.24.917.24v-.475c-.28 0-.496-.06-.66-.165a1 1 0 0 1-.386-.497c-.19-.476-.208-1.233-.012-2.304zm17.473.17.234.042v-.001zm-2.023 4.437-.173-.162zm-7.225-.17-.205.12.001.002zm-.56-4.607-.235-.04zm2.005-4.42-.172-.163h-.001zm7.242.17-.204.12v.002zm-2.465 4.42.234.043V9.09zm-3.74 0 .234.043V9.09zm6.766.17-.234-.042c-.334 1.85-.993 3.282-1.962 4.317l.173.162.173.162c1.049-1.118 1.738-2.644 2.084-4.557zm-2.023 4.437-.173-.162c-.95 1.013-2.165 1.522-3.669 1.522v.476c1.625 0 2.97-.557 4.016-1.674zm-3.842 1.598v-.238c-1.482 0-2.525-.556-3.179-1.652l-.204.122-.204.122c.752 1.26 1.964 1.884 3.587 1.884zm-3.383-1.768.206-.12c-.655-1.126-.844-2.6-.533-4.447l-.234-.04-.234-.04c-.323 1.916-.139 3.513.59 4.766zm-.56-4.607.233.04c.312-1.825.965-3.251 1.945-4.298l-.173-.162-.173-.162c-1.06 1.13-1.744 2.65-2.067 4.542zm2.005-4.42.173.163c.972-1.026 2.195-1.54 3.686-1.54v-.476c-1.614 0-2.964.563-4.031 1.69zm3.86-1.615v.238c1.48 0 2.524.56 3.178 1.668l.204-.121.205-.12c-.752-1.273-1.964-1.903-3.588-1.903zm3.382 1.785-.204.122c.664 1.113.854 2.58.531 4.427l.234.041.234.04c.335-1.915.15-3.508-.59-4.752zm-4.913 7.667v.238c.7 0 1.28-.313 1.728-.907.44-.583.752-1.437.954-2.535l-.234-.043-.234-.043c-.195 1.066-.489 1.836-.865 2.335-.368.489-.814.717-1.349.717zm2.448-3.247.234.04c.19-1.093.184-1.96-.06-2.564a1.5 1.5 0 0 0-.571-.72c-.257-.165-.566-.24-.912-.24v.475c.277 0 .491.06.655.165.162.104.293.265.387.498.193.477.218 1.234.033 2.306zm-1.309-3.247v-.238c-.705 0-1.287.312-1.733.907-.437.585-.742 1.439-.932 2.538l.234.04.234.04c.184-1.065.472-1.835.845-2.333.364-.487.81-.716 1.352-.716zm-2.43 3.247-.235-.043c-.2 1.093-.202 1.96.039 2.566.123.31.311.555.57.721s.569.24.917.24v-.475c-.28 0-.496-.06-.66-.165a1 1 0 0 1-.386-.497c-.19-.476-.209-1.233-.012-2.304zM63.595 3.1v-.238h-.2l-.034.196zm7.36 1.224-.18.155.003.003zm.766 2.941-.234-.041zm-1.615 2.839.144.19v-.001zm-4.88.969v-.238h-.199l-.034.197zm-.118.68-.234-.041-.05.279h.284zm3.485 0 .234.04.048-.278h-.282zm-.29 1.683v.238h.201l.034-.198zm-3.501 0v-.238h-.2l-.034.197zM64.53 15v.238h.2l.034-.197zm-3.043 0-.234-.04-.049.278h.283zm.272-1.564.234.04.048-.278h-.282zm-1.105 0-.235-.04-.047.278h.282zm.289-1.683v-.238h-.2l-.035.198zm1.122 0v.238h.2l.034-.197zm.119-.68.234.041.049-.279h-.283zm-1.105 0-.234-.041-.05.279h.284zm.476-2.703v-.238h-.2l-.034.197zm1.105 0v.238h.199l.035-.197zm6.035-1.19-.234-.044-.001.007zm-.187-.867-.182.153.005.005zm-2.397-.323v-.238h-.2l-.035.198zm-.408 2.38-.234-.04-.048.278h.282zm2.499-.323-.148-.186-.004.003zM63.596 3.1v.238h4.624v-.476h-4.624zm4.624 0v.238c1.056 0 1.901.38 2.557 1.141l.18-.155.18-.155c-.75-.87-1.73-1.307-2.917-1.307zm2.737 1.224-.178.158c.661.745.901 1.65.709 2.742l.234.041.234.041c.215-1.22-.055-2.275-.822-3.14zm.765 2.941-.234-.04c-.207 1.186-.72 2.075-1.525 2.69l.144.189.144.189c.916-.7 1.48-1.703 1.705-2.987zm-1.615 2.839-.144-.19c-.799.608-1.844.921-3.154.921v.476c1.386 0 2.54-.333 3.442-1.018zm-3.298.969v-.238h-1.581v.476h1.58zm-1.581 0-.234-.041-.12.68.235.041.234.041.119-.68zm-.12.68v.238h3.486v-.476h-3.485zm3.486 0-.234-.04-.29 1.683.235.04.234.04.289-1.683zm-.29 1.683v-.238h-3.501v.476h3.502zm-3.501 0-.234-.04-.272 1.563.234.041.234.04.272-1.563zM64.53 15v-.238h-3.043v.476h3.043zm-3.043 0 .234.04.272-1.563-.234-.041-.234-.04-.272 1.563zm.272-1.564v-.238h-1.105v.476h1.105zm-1.105 0 .234.04.289-1.683-.234-.04-.235-.04-.289 1.683zm.289-1.683v.238h1.122v-.476h-1.122zm1.122 0 .234.041.119-.68-.234-.041-.234-.041-.12.68zm.119-.68v-.238H61.08v.476h1.105zm-1.105 0 .234.041.476-2.703-.234-.041-.234-.041-.476 2.703zm.476-2.703v.238h1.105v-.476h-1.105zm1.105 0 .234.042.935-5.27-.234-.042-.234-.042-.935 5.27zm6.035-1.19.233.044c.078-.413.012-.784-.243-1.07l-.177.159-.177.158c.13.146.189.353.13.665zm-.187-.867.181-.153c-.237-.282-.578-.408-.98-.408v.476c.3 0 .492.09.617.238zm-.8-.323v-.238h-1.597v.476h1.598zm-1.597 0-.234-.04-.409 2.38.235.04.234.04.408-2.38zm-.408 2.38v.238h1.58v-.476h-1.58zm1.58 0v.238c.405 0 .765-.126 1.07-.378l-.151-.183-.152-.183a1.16 1.16 0 0 1-.766.268zm.919-.323.147.186c.322-.254.515-.598.58-1.016l-.234-.037-.235-.037a1.1 1.1 0 0 1-.406.718z" mask="url(#d)"/></g><defs><linearGradient id="b" x1="37.232" x2="37.232" y1="-11.539" y2="33.629" gradientUnits="userSpaceOnUse"><stop offset=".333" stop-color="#fff4cd"/><stop offset=".4" stop-color="#ffe68e"/><stop offset=".477" stop-color="#ffa34e"/><stop offset=".557" stop-color="#fff387"/><stop offset=".726" stop-color="#ffa841"/></linearGradient><linearGradient id="c" x1="37.029" x2="37.029" y1="0" y2="21" gradientUnits="userSpaceOnUse"><stop offset=".214" stop-color="#fffdeb"/><stop offset=".505" stop-color="#fff389"/><stop offset=".849" stop-color="#ffe922"/></linearGradient><filter id="a" width="74.094" height="17.02" x="0" y="2.607" color-interpolation-filters="sRGB" filterUnits="userSpaceOnUse"><feFlood flood-opacity="0" result="BackgroundImageFix"/><feColorMatrix in="SourceAlpha" result="hardAlpha" values="0 0 0 0 0 0 0 0 0 0 0 0 0 0 0 0 0 0 127 0"/><feOffset dy="2.067"/><feGaussianBlur stdDeviation="1.034"/><feComposite in2="hardAlpha" operator="out"/><feColorMatrix values="0 0 0 0 0 0 0 0 0 0 0 0 0 0 0 0 0 0 0.2 0"/><feBlend in2="BackgroundImageFix" result="effect1_dropShadow_121_40138"/><feBlend in="SourceGraphic" in2="effect1_dropShadow_121_40138" result="shape"/></filter></defs></svg>