<svg xmlns="http://www.w3.org/2000/svg" width="86" height="19" fill="none" viewBox="0 0 86 19"><g filter="url(#a)"><mask id="d" width="83.119" height="14.722" x="1.277" y="-.017" fill="#000" maskUnits="userSpaceOnUse"><path fill="#fff" d="M1.277-.017h83.119v14.722H1.277z"/><path d="m10.676 13.624-8.33.072.355-2.213 4.69-4.206Q8.69 6.11 8.802 5.412q.082-.426-.142-.696-.222-.27-.665-.266-1.02.009-1.79 1.308l-2.48-1.492q.788-1.35 2.005-2.057a5.24 5.24 0 0 1 2.63-.72q1.665-.015 2.712 1.115 1.08 1.113.79 2.866a4.7 4.7 0 0 1-.698 1.808q-.52.787-1.583 1.731l-1.957 1.7 3.535-.03zm11.598-5.881q-.485 2.826-1.984 4.454-1.482 1.611-3.828 1.632-2.329.02-3.398-1.739-1.053-1.776-.601-4.602.451-2.791 1.967-4.437 1.515-1.628 3.845-1.649 2.328-.02 3.398 1.756 1.07 1.758.601 4.585m-5.447 3.124q1.853-.015 2.42-3.268.533-3.252-1.337-3.235t-2.403 3.268q-.567 3.252 1.32 3.235M32.982 7.65q-.486 2.825-1.985 4.454-1.482 1.611-3.828 1.631-2.328.02-3.398-1.738-1.052-1.776-.6-4.602.45-2.791 1.967-4.437 1.516-1.628 3.844-1.649 2.33-.02 3.399 1.756 1.07 1.758.6 4.585m-5.447 3.124q1.853-.015 2.42-3.268.532-3.251-1.338-3.236-1.87.016-2.402 3.268-.567 3.252 1.32 3.236M47.54 7.523q-.486 2.826-1.984 4.454-1.483 1.611-3.829 1.632-2.328.02-3.398-1.739-1.052-1.776-.6-4.602.45-2.791 1.967-4.437 1.515-1.628 3.844-1.649 2.33-.02 3.399 1.756 1.07 1.758.6 4.585m-5.447 3.124q1.853-.015 2.42-3.268.532-3.252-1.338-3.235-1.869.016-2.403 3.268-.566 3.252 1.32 3.235M58.248 7.43q-.485 2.828-1.984 4.455-1.482 1.611-3.828 1.631-2.329.02-3.398-1.738-1.053-1.776-.601-4.602.451-2.791 1.967-4.437 1.516-1.629 3.846-1.65t3.398 1.756q1.07 1.758.601 4.584m-5.447 3.125q1.853-.015 2.42-3.268.533-3.251-1.337-3.236-1.87.016-2.403 3.268-.567 3.252 1.32 3.236m16.155-3.218q-.486 2.827-1.984 4.455-1.482 1.61-3.828 1.631-2.33.02-3.398-1.738-1.053-1.776-.602-4.602.452-2.792 1.968-4.438 1.515-1.628 3.845-1.648 2.328-.021 3.398 1.755 1.07 1.76.601 4.585m-5.447 3.125q1.853-.016 2.42-3.268.533-3.252-1.338-3.236T62.19 7.225q-.567 3.252 1.32 3.236m11.727 2.6 1.353-6.624-2.958.026.44-2.18 8.347-.073-.44 2.18-2.856.025-1.353 6.625zm-.92-9.954.44-2.18 8.347-.072-.44 2.18z"/></mask><path fill="url(#b)" d="m10.676 13.624-8.33.072.355-2.213 4.69-4.206Q8.69 6.11 8.802 5.412q.082-.426-.142-.696-.222-.27-.665-.266-1.02.009-1.79 1.308l-2.48-1.492q.788-1.35 2.005-2.057a5.24 5.24 0 0 1 2.63-.72q1.665-.015 2.712 1.115 1.08 1.113.79 2.866a4.7 4.7 0 0 1-.698 1.808q-.52.787-1.583 1.731l-1.957 1.7 3.535-.03zm11.598-5.881q-.485 2.826-1.984 4.454-1.482 1.611-3.828 1.632-2.329.02-3.398-1.739-1.053-1.776-.601-4.602.451-2.791 1.967-4.437 1.515-1.628 3.845-1.649 2.328-.02 3.398 1.756 1.07 1.758.601 4.585m-5.447 3.124q1.853-.015 2.42-3.268.533-3.252-1.337-3.235t-2.403 3.268q-.567 3.252 1.32 3.235M32.982 7.65q-.486 2.825-1.985 4.454-1.482 1.611-3.828 1.631-2.328.02-3.398-1.738-1.052-1.776-.6-4.602.45-2.791 1.967-4.437 1.516-1.628 3.844-1.649 2.33-.02 3.399 1.756 1.07 1.758.6 4.585m-5.447 3.124q1.853-.015 2.42-3.268.532-3.251-1.338-3.236-1.87.016-2.402 3.268-.567 3.252 1.32 3.236M47.54 7.523q-.486 2.826-1.984 4.454-1.483 1.611-3.829 1.632-2.328.02-3.398-1.739-1.052-1.776-.6-4.602.45-2.791 1.967-4.437 1.515-1.628 3.844-1.649 2.33-.02 3.399 1.756 1.07 1.758.6 4.585m-5.447 3.124q1.853-.015 2.42-3.268.532-3.252-1.338-3.235-1.869.016-2.403 3.268-.566 3.252 1.32 3.235M58.248 7.43q-.485 2.828-1.984 4.455-1.482 1.611-3.828 1.631-2.329.02-3.398-1.738-1.053-1.776-.601-4.602.451-2.791 1.967-4.437 1.516-1.629 3.846-1.65t3.398 1.756q1.07 1.758.601 4.584m-5.447 3.125q1.853-.015 2.42-3.268.533-3.251-1.337-3.236-1.87.016-2.403 3.268-.567 3.252 1.32 3.236m16.155-3.218q-.486 2.827-1.984 4.455-1.482 1.61-3.828 1.631-2.33.02-3.398-1.738-1.053-1.776-.602-4.602.452-2.792 1.968-4.438 1.515-1.628 3.845-1.648 2.328-.021 3.398 1.755 1.07 1.76.601 4.585m-5.447 3.125q1.853-.016 2.42-3.268.533-3.252-1.338-3.236T62.19 7.225q-.567 3.252 1.32 3.236m11.727 2.6 1.353-6.624-2.958.026.44-2.18 8.347-.073-.44 2.18-2.856.025-1.353 6.625zm-.92-9.954.44-2.18 8.347-.072-.44 2.18z"/><path fill="url(#c)" d="m10.676 13.624.002.237.2-.001.033-.197zm-8.33.072-.234-.037-.045.277.281-.002zm.355-2.213-.159-.177-.062.057-.013.083zm4.69-4.206.158.177zm1.411-1.865-.233-.045-.001.007zm-.142-.696.184-.151zM6.204 5.758l-.122.203.205.123.122-.205zM3.726 4.266l-.205-.12-.118.203.2.12zM5.731 2.21l-.119-.206zm5.342.395-.174.162.004.004zm.79 2.866.234.041V5.51zm-.698 1.808-.198-.13zM9.582 9.01l.156.18.002-.002zm-1.957 1.7-.156-.179-.487.423.645-.006zm3.535-.03.235.038.046-.278-.283.002zm-.484 2.945-.002-.238-8.33.073.002.238.002.237 8.33-.072zm-8.33.072.235.038.355-2.213-.235-.038-.234-.037-.355 2.213zm.355-2.213.159.177 4.69-4.206-.16-.177-.158-.177-4.69 4.207zm4.69-4.206.158.177q.661-.593 1.034-1.083c.245-.324.407-.633.454-.921l-.235-.038-.234-.038c-.029.177-.139.412-.364.71q-.334.441-.972 1.017zm1.411-1.865.234.045c.064-.336.012-.645-.192-.892l-.184.151-.183.152c.094.112.136.267.092.5zm-.142-.696.184-.151c-.207-.25-.505-.356-.851-.353l.002.238.002.238c.244-.003.389.069.48.18zm-.665-.266-.002-.238C7.194 4.22 6.534 4.736 6 5.636l.204.122.205.12c.493-.83 1.027-1.186 1.588-1.19zm-1.79 1.308.122-.204-2.478-1.491-.123.203-.122.204L6.082 5.96zm-2.48-1.493.206.12c.506-.869 1.146-1.523 1.919-1.972l-.12-.205-.119-.206q-1.277.744-2.09 2.143zM5.731 2.21l.12.205a5 5 0 0 1 2.511-.688L8.36 1.49l-.002-.238a5.5 5.5 0 0 0-2.746.752zm2.63-.72.001.237c1.05-.009 1.888.34 2.537 1.04l.174-.162.174-.161C10.5 1.636 9.53 1.24 8.358 1.25zm2.712 1.115-.17.166c.66.679.91 1.554.726 2.661l.234.04.235.038c.204-1.23-.073-2.266-.855-3.07zm.79 2.866-.234-.04a4.5 4.5 0 0 1-.662 1.717l.198.131.198.132q.55-.833.734-1.899zm-.698 1.808-.198-.13c-.332.5-.843 1.062-1.543 1.684l.158.177.158.178q1.077-.956 1.623-1.777zM9.582 9.01l-.156-.18-1.957 1.701.156.18.155.179 1.958-1.7zm-1.957 1.7.002.238 3.536-.03-.003-.238-.002-.238-3.535.03zm3.535-.03-.234-.039-.484 2.945.234.039.235.038.484-2.945zm11.114-2.936.234.04v-.001zm-1.984 4.454-.175-.16zm-7.226-.107-.205.121.002.002zm-.601-4.602-.235-.038zm1.967-4.437-.174-.162zm7.243.107-.203.122v.001zM19.247 7.6l.234.04v-.001zm-3.74.033.234.04V7.67zm6.767.11-.234-.04c-.318 1.853-.965 3.291-1.925 4.334l.175.161.175.161c1.038-1.128 1.714-2.659 2.043-4.575zm-1.984 4.455-.175-.16c-.94 1.021-2.152 1.54-3.655 1.554l.002.238.002.237c1.624-.014 2.965-.582 4-1.708zm-3.828 1.632-.002-.238c-1.482.013-2.53-.534-3.193-1.624l-.203.123-.203.123c.762 1.255 1.98 1.867 3.603 1.853zm-3.398-1.739.204-.121c-.664-1.12-.866-2.593-.57-4.443l-.235-.038-.235-.037c-.306 1.918-.108 3.513.631 4.76zm-.601-4.602.234.038c.296-1.827.936-3.26 1.908-4.314l-.175-.161-.175-.161c-1.05 1.139-1.72 2.665-2.027 4.56zm1.967-4.437.174.162c.964-1.036 2.182-1.56 3.673-1.573l-.002-.238-.002-.237c-1.615.014-2.96.588-4.017 1.724zm3.845-1.649.002.238c1.48-.013 2.53.539 3.193 1.64l.203-.122.204-.123c-.763-1.266-1.98-1.884-3.604-1.87zm3.398 1.756-.203.123c.674 1.108.876 2.573.57 4.423l.234.039.235.039c.317-1.919.12-3.51-.633-4.748zm-4.846 7.71.002.237c.7-.006 1.278-.324 1.72-.921.435-.588.74-1.444.932-2.544l-.234-.04-.234-.042c-.186 1.068-.474 1.84-.845 2.343-.364.491-.808.724-1.343.729zm2.42-3.269.234.039c.18-1.095.166-1.962-.083-2.564a1.5 1.5 0 0 0-.577-.715c-.259-.163-.568-.236-.914-.233l.003.238.002.237c.277-.002.491.056.656.16.163.103.295.262.391.494.197.476.23 1.233.053 2.306zM17.91 4.364l-.003-.238c-.705.006-1.284.323-1.724.922-.433.588-.73 1.445-.91 2.545l.234.039.234.038c.175-1.067.456-1.84.824-2.34.36-.49.805-.724 1.347-.729zm-2.403 3.268-.234-.041c-.19 1.095-.185 1.962.06 2.565.126.308.317.552.578.716.259.164.57.236.918.233l-.002-.238-.002-.237c-.28.002-.496-.056-.662-.16a1 1 0 0 1-.39-.493c-.193-.475-.219-1.231-.032-2.305zm17.475.018.234.04v-.002zm-1.985 4.454-.174-.161zm-7.226-.107-.204.121.001.002zm-.6-4.602-.235-.038zm1.967-4.437-.174-.162h-.001zm7.243.107-.204.122v.001zm-2.427 4.44.234.042v-.003zm-3.74.033.235.041v-.002zm6.768.112-.234-.04c-.319 1.852-.965 3.29-1.925 4.333l.174.161.175.16c1.039-1.127 1.715-2.658 2.044-4.574zm-1.985 4.454-.174-.16c-.94 1.021-2.152 1.54-3.656 1.554l.002.237.003.238c1.624-.014 2.964-.582 4-1.708zm-3.828 1.631-.002-.237c-1.482.013-2.53-.534-3.193-1.625l-.203.124-.203.123c.763 1.255 1.98 1.867 3.604 1.853zm-3.398-1.738.205-.121c-.665-1.12-.867-2.593-.571-4.444l-.235-.037-.235-.038c-.306 1.918-.107 3.514.632 4.761zm-.6-4.602.234.038c.295-1.828.936-3.26 1.907-4.314l-.174-.161-.175-.161c-1.05 1.139-1.72 2.665-2.027 4.56zm1.967-4.437.173.162c.964-1.036 2.183-1.56 3.674-1.573l-.003-.238-.002-.237c-1.614.014-2.959.588-4.016 1.724zm3.844-1.649.003.238c1.48-.013 2.529.538 3.192 1.64l.204-.122.203-.123c-.762-1.266-1.98-1.885-3.604-1.87zm3.399 1.756-.203.123c.673 1.108.876 2.573.57 4.423l.234.039.234.038c.318-1.918.12-3.51-.632-4.747zm-4.846 7.71.002.237c.7-.007 1.277-.324 1.72-.922.435-.587.74-1.443.931-2.543l-.234-.041-.234-.04c-.186 1.067-.473 1.84-.845 2.342-.364.491-.807.724-1.342.729zm2.42-3.27.234.04c.18-1.096.166-1.962-.083-2.565a1.5 1.5 0 0 0-.577-.714c-.259-.164-.568-.236-.914-.233l.002.237.002.238c.277-.002.492.056.656.16.164.102.296.262.392.494.197.476.229 1.233.053 2.305zM28.616 4.27l-.002-.237c-.705.006-1.284.323-1.725.922-.432.588-.73 1.445-.91 2.545l.235.038.234.039c.175-1.068.455-1.84.824-2.34.36-.491.805-.724 1.346-.729zm-2.402 3.268-.235-.04c-.19 1.095-.185 1.962.061 2.565.126.308.316.552.577.716s.57.236.919.233l-.002-.238-.002-.237c-.28.002-.497-.056-.662-.16a1 1 0 0 1-.39-.493c-.194-.476-.22-1.232-.032-2.305zm21.326-.015.234.04v-.001zm-1.984 4.454-.175-.16zm-7.227-.107-.204.121.001.002zm-.6-4.602-.235-.038zm1.967-4.437-.174-.162h-.001zm7.243.107-.204.122v.001zm-2.427 4.441.235.04v-.002zm-3.74.033.235.04V7.45zm6.768.11-.234-.04c-.319 1.853-.965 3.291-1.925 4.334l.175.161.174.161c1.038-1.128 1.715-2.659 2.044-4.575zm-1.984 4.455-.175-.16c-.94 1.021-2.152 1.54-3.655 1.554l.002.238.002.237c1.624-.014 2.964-.582 4-1.708zm-3.829 1.632-.002-.238c-1.482.013-2.53-.534-3.193-1.624l-.203.123-.203.123c.763 1.255 1.98 1.867 3.604 1.853zM38.33 11.87l.205-.121c-.664-1.12-.867-2.593-.571-4.443l-.235-.038-.234-.037c-.307 1.917-.108 3.513.63 4.76zm-.6-4.602.234.038c.295-1.827.936-3.26 1.907-4.314l-.174-.161-.175-.161c-1.05 1.139-1.72 2.665-2.027 4.56zm1.967-4.437.173.162c.964-1.036 2.183-1.56 3.674-1.573l-.003-.238-.002-.237c-1.614.014-2.959.588-4.016 1.724zm3.844-1.649.003.238c1.48-.013 2.529.539 3.192 1.64l.204-.122.203-.123C46.381 1.55 45.163.931 43.54.945zm3.399 1.756-.203.123c.673 1.108.876 2.573.57 4.423l.234.039.234.039c.318-1.919.12-3.51-.632-4.748zm-4.846 7.71.002.237c.7-.006 1.277-.324 1.72-.921.435-.588.74-1.444.931-2.544l-.234-.04-.234-.042c-.186 1.068-.473 1.84-.845 2.343-.364.491-.807.724-1.342.729zm2.42-3.269.234.038c.18-1.095.166-1.961-.083-2.563a1.5 1.5 0 0 0-.577-.715c-.259-.163-.568-.236-.914-.233l.002.238.002.237c.278-.002.492.056.656.16.164.103.296.262.392.494.197.476.229 1.233.053 2.306zm-1.338-3.235-.002-.238c-.705.006-1.284.323-1.725.922-.432.588-.73 1.445-.91 2.545l.234.039.235.038c.175-1.067.456-1.84.824-2.34.36-.49.805-.724 1.346-.729zm-2.403 3.268-.234-.041c-.19 1.095-.185 1.962.061 2.565.126.308.316.552.577.716s.57.236.919.233l-.002-.238-.002-.237c-.28.002-.497-.056-.662-.16a1 1 0 0 1-.39-.493c-.194-.475-.22-1.232-.032-2.305zm17.475.017.235.04zm-1.984 4.455-.175-.161zm-7.226-.107-.204.121v.002zm-.601-4.602-.235-.038zm1.967-4.437-.174-.162zm7.243.107-.203.122v.001zm-2.426 4.44.234.042v-.003zm-3.74.033.234.041v-.002zm6.767.111-.234-.04c-.318 1.853-.964 3.29-1.925 4.334l.175.16.175.162c1.038-1.128 1.714-2.66 2.044-4.575zm-1.984 4.455-.175-.16c-.94 1.02-2.151 1.54-3.655 1.554l.002.237.002.238c1.625-.014 2.965-.582 4-1.708zm-3.828 1.631-.002-.237c-1.482.013-2.53-.534-3.193-1.625l-.203.124-.203.123c.763 1.255 1.98 1.867 3.603 1.853zm-3.398-1.738.204-.121c-.664-1.12-.866-2.593-.57-4.444l-.235-.037-.235-.038c-.306 1.918-.108 3.514.632 4.761zm-.601-4.602.234.038c.296-1.828.936-3.26 1.908-4.314l-.175-.161-.175-.161c-1.049 1.139-1.72 2.665-2.027 4.56zm1.967-4.437.174.162c.964-1.036 2.182-1.56 3.673-1.573l-.002-.238-.002-.238c-1.614.015-2.96.589-4.017 1.725zm3.845-1.649.002.238c1.481-.013 2.53.538 3.193 1.64l.203-.122.204-.123c-.762-1.266-1.98-1.885-3.604-1.87zm3.398 1.756-.203.123c.674 1.108.877 2.573.57 4.423l.234.038.235.04c.318-1.919.12-3.51-.633-4.748zm-4.846 7.709.002.238c.7-.006 1.278-.324 1.72-.922.435-.587.74-1.443.932-2.543l-.234-.041-.234-.04c-.186 1.067-.474 1.84-.845 2.342-.364.491-.808.724-1.343.729zm2.42-3.268.235.038c.179-1.095.166-1.961-.083-2.564a1.5 1.5 0 0 0-.578-.714c-.258-.164-.567-.236-.913-.233l.002.237.002.238c.277-.002.491.056.656.16.163.102.296.262.392.494.196.476.228 1.233.053 2.305zM53.884 4.05l-.002-.237c-.706.006-1.285.323-1.725.922-.433.588-.73 1.445-.91 2.545l.234.038.235.039c.175-1.068.455-1.84.824-2.34.36-.491.804-.724 1.346-.73zM51.48 7.318l-.234-.04c-.19 1.095-.185 1.962.06 2.565.127.308.317.552.578.716s.57.236.918.233l-.002-.238-.002-.238c-.28.003-.496-.055-.661-.16a1 1 0 0 1-.39-.492c-.194-.476-.22-1.232-.033-2.305zm17.475.018.234.04zm-1.984 4.455-.175-.161zm-7.226-.107-.205.12.002.003zm-.602-4.602-.234-.038zm1.968-4.438-.174-.162v.001zm7.243.107-.204.123h.001zm-2.426 4.442.234.04v-.002zm-3.74.032.234.041v-.002zm6.767.111-.234-.04c-.318 1.852-.965 3.29-1.925 4.334l.175.16.175.162c1.038-1.128 1.714-2.66 2.043-4.576zm-1.984 4.455-.175-.161c-.94 1.022-2.152 1.541-3.655 1.554l.002.238.002.238c1.624-.014 2.965-.582 4-1.709zm-3.828 1.631-.002-.238c-1.482.013-2.53-.533-3.193-1.624l-.203.124-.204.123c.763 1.255 1.98 1.867 3.604 1.853zm-3.398-1.738.204-.121c-.664-1.121-.867-2.594-.571-4.444l-.235-.037-.234-.038c-.307 1.918-.108 3.513.631 4.76zm-.602-4.602.235.038c.296-1.828.936-3.26 1.907-4.315l-.174-.16-.175-.162c-1.05 1.14-1.72 2.666-2.027 4.56zm1.968-4.438.174.162c.963-1.035 2.182-1.56 3.673-1.573l-.002-.237-.002-.238c-1.615.014-2.96.589-4.017 1.724zM64.957.996l.002.237c1.48-.013 2.529.54 3.192 1.64l.204-.122.203-.122c-.762-1.266-1.98-1.885-3.604-1.87zm3.398 1.755-.203.124c.674 1.108.876 2.573.57 4.422l.234.04.234.038c.318-1.918.12-3.51-.632-4.747zm-4.846 7.71.002.237c.7-.006 1.278-.323 1.72-.921.435-.587.74-1.443.932-2.544l-.234-.04-.234-.041c-.186 1.068-.474 1.84-.846 2.342-.364.492-.807.725-1.342.73zm2.42-3.268.234.038c.18-1.095.166-1.961-.083-2.564a1.5 1.5 0 0 0-.577-.715c-.259-.163-.568-.235-.914-.232l.002.237.002.238c.278-.003.492.055.656.16.164.102.296.262.392.494.197.476.229 1.232.053 2.305zM64.59 3.957l-.002-.237c-.705.006-1.284.322-1.725.922-.432.588-.73 1.444-.91 2.545l.235.038.234.039c.175-1.068.456-1.84.824-2.341.36-.49.805-.724 1.346-.728zm-2.4 3.268-.234-.04c-.191 1.094-.186 1.961.06 2.565.126.308.317.552.577.716s.57.235.919.232l-.002-.237-.002-.238c-.28.003-.497-.056-.662-.16a1 1 0 0 1-.39-.493c-.194-.475-.22-1.231-.032-2.304zm13.047 5.837-.233-.048-.059.288.294-.003zm1.353-6.625.233.047.058-.287-.293.002zm-2.958.026-.233-.048-.058.288.293-.003zm.44-2.18-.002-.238-.193.002-.038.189zm8.347-.073.233.047.058-.287-.293.002zm-.44 2.18.002.237.192-.001.039-.19zm-2.856.025-.002-.238-.192.002-.039.188zM77.77 13.04l.002.237.192-.001.038-.189zm-3.453-9.933-.233-.047-.058.288.293-.003zm.44-2.18L74.754.69l-.193.002-.038.188zm8.347-.072.233.047.058-.287-.293.002zm-.44 2.18.002.237.192-.001.038-.19zm-7.427 10.027.232.047 1.354-6.625-.233-.047-.233-.048-1.353 6.625zm1.353-6.625-.002-.238-2.958.026.002.238.002.237 2.958-.026zm-2.958.026.233.047.44-2.18-.233-.047-.233-.047-.44 2.18zm.44-2.18.002.237 8.347-.073-.002-.237-.002-.238-8.347.073zm8.347-.073-.233-.047-.44 2.18.233.047.233.047.44-2.18zm-.44 2.18-.002-.238-2.856.025.002.238.002.237 2.856-.025zm-2.856.025-.233-.048-1.353 6.625.233.048.232.047 1.354-6.625zM77.77 13.04l-.003-.238-2.532.022.002.238.002.237 2.533-.022zm-3.453-9.933.233.047.44-2.18-.233-.047-.233-.047-.44 2.18zm.44-2.18.002.238 8.347-.073-.002-.237L83.1.617 74.754.69zm8.347-.072L82.87.808l-.44 2.18.233.047.233.047.44-2.18zm-.44 2.18-.002-.238-8.347.073.002.237.002.238 8.347-.073z" mask="url(#d)"/></g><defs><linearGradient id="b" x1="42.424" x2="42.761" y1="-9.544" y2="29.17" gradientUnits="userSpaceOnUse"><stop offset=".333" stop-color="#fff4cd"/><stop offset=".4" stop-color="#ffe68e"/><stop offset=".477" stop-color="#ffa34e"/><stop offset=".557" stop-color="#fff387"/><stop offset=".726" stop-color="#ffa841"/></linearGradient><linearGradient id="c" x1="42.275" x2="42.432" y1=".348" y2="18.348" gradientUnits="userSpaceOnUse"><stop offset=".214" stop-color="#fffdeb"/><stop offset=".505" stop-color="#fff389"/><stop offset=".849" stop-color="#ffe922"/></linearGradient><filter id="a" width="85.461" height="17.586" x="0" y=".615" color-interpolation-filters="sRGB" filterUnits="userSpaceOnUse"><feFlood flood-opacity="0" result="BackgroundImageFix"/><feColorMatrix in="SourceAlpha" result="hardAlpha" values="0 0 0 0 0 0 0 0 0 0 0 0 0 0 0 0 0 0 127 0"/><feOffset dy="2.067"/><feGaussianBlur stdDeviation="1.034"/><feComposite in2="hardAlpha" operator="out"/><feColorMatrix values="0 0 0 0 0 0 0 0 0 0 0 0 0 0 0 0 0 0 0.2 0"/><feBlend in2="BackgroundImageFix" result="effect1_dropShadow_128_40194"/><feBlend in="SourceGraphic" in2="effect1_dropShadow_128_40194" result="shape"/></filter></defs></svg>