<svg xmlns="http://www.w3.org/2000/svg" width="74" height="21" fill="none" viewBox="0 0 74 21"><g filter="url(#a)"><mask id="d" width="71" height="14" x="1.411" y="2" fill="#000" maskUnits="userSpaceOnUse"><path fill="#fff" d="M1.411 2h71v14h-71z"/><path d="M10.678 15h-8.33l.374-2.21 4.726-4.165q1.31-1.155 1.428-1.853.086-.425-.136-.697-.22-.272-.663-.272-1.02 0-1.802 1.292L3.81 5.582q.8-1.342 2.023-2.04a5.24 5.24 0 0 1 2.635-.697q1.667 0 2.703 1.14 1.072 1.121.765 2.872a4.7 4.7 0 0 1-.714 1.802q-.526.782-1.598 1.717L7.652 12.06h3.536zM21.511 3.1 21 6.007h-4.166l-.323 1.275h.732q1.717 0 2.736 1.105 1.038 1.088.697 3.043-.339 1.87-1.683 2.856-1.343.97-3.161.97-3.23 0-4.132-2.687l2.806-1.462q.374 1.19 1.649 1.19.612 0 1.02-.289.408-.29.493-.799.084-.51-.204-.816-.272-.306-.867-.306h-3.825L14.49 3.1zm14.031 6.12q-.51 2.821-2.023 4.437-1.496 1.598-3.842 1.598-2.329 0-3.383-1.768-1.037-1.785-.56-4.607.474-2.788 2.005-4.42 1.53-1.615 3.86-1.615T34.98 4.63q1.055 1.768.561 4.59m-5.474 3.077q1.852 0 2.448-3.247.561-3.247-1.309-3.247t-2.43 3.247q-.596 3.247 1.291 3.247M46.25 9.22q-.51 2.821-2.023 4.437-1.496 1.598-3.842 1.598-2.329 0-3.383-1.768-1.037-1.785-.56-4.607.474-2.788 2.005-4.42 1.53-1.615 3.86-1.615t3.382 1.785q1.055 1.768.561 4.59m-5.474 3.077q1.853 0 2.448-3.247.561-3.247-1.309-3.247t-2.43 3.247q-.596 3.247 1.291 3.247M56.958 9.22q-.51 2.821-2.023 4.437-1.496 1.598-3.842 1.598-2.329 0-3.383-1.768-1.037-1.785-.56-4.607.475-2.788 2.005-4.42 1.53-1.615 3.86-1.615t3.382 1.785q1.055 1.768.561 4.59m-5.474 3.077q1.853 0 2.448-3.247.561-3.247-1.309-3.247t-2.43 3.247q-.597 3.247 1.291 3.247m19.966-5.83v1.87h-5.576v3.875q0 .476.136.714.135.22.612.221.39 0 .765-.119.374-.136.68-.34.306-.22.493-.51.186-.289.187-.595a.4.4 0 0 0-.136-.289q-.137-.136-.527-.136-.306 0-.544.051l-.272-1.734q.306-.085.68-.119a9 9 0 0 1 .799-.034q1.002 0 1.615.46.612.458.612 1.427 0 .918-.425 1.632a3.75 3.75 0 0 1-1.122 1.19 5.6 5.6 0 0 1-3.128.97q-.715-.001-1.207-.17a2.2 2.2 0 0 1-.765-.443 3.4 3.4 0 0 1-.357-.425 2.2 2.2 0 0 1-.255-.663q-.085-.425-.085-1.139V8.336h-1.428v-1.87zm-7.99-4.2q.56 0 .986.136.425.135.714.425.34.323.527.901.186.578.187 1.632v1.173H63.63V5.446q0-.425-.068-.714a.67.67 0 0 0-.272-.425q-.204-.153-.612-.153-.221 0-.476.051a3 3 0 0 0-.493.153l-.646-1.632a8 8 0 0 1 1.19-.34 5.5 5.5 0 0 1 1.207-.119"/></mask><path fill="url(#b)" d="M10.678 15h-8.33l.374-2.21 4.726-4.165q1.31-1.155 1.428-1.853.086-.425-.136-.697-.22-.272-.663-.272-1.02 0-1.802 1.292L3.81 5.582q.8-1.342 2.023-2.04a5.24 5.24 0 0 1 2.635-.697q1.667 0 2.703 1.14 1.072 1.121.765 2.872a4.7 4.7 0 0 1-.714 1.802q-.526.782-1.598 1.717L7.652 12.06h3.536zM21.511 3.1 21 6.007h-4.166l-.323 1.275h.732q1.717 0 2.736 1.105 1.038 1.088.697 3.043-.339 1.87-1.683 2.856-1.343.97-3.161.97-3.23 0-4.132-2.687l2.806-1.462q.374 1.19 1.649 1.19.612 0 1.02-.289.408-.29.493-.799.084-.51-.204-.816-.272-.306-.867-.306h-3.825L14.49 3.1zm14.031 6.12q-.51 2.821-2.023 4.437-1.496 1.598-3.842 1.598-2.329 0-3.383-1.768-1.037-1.785-.56-4.607.474-2.788 2.005-4.42 1.53-1.615 3.86-1.615T34.98 4.63q1.055 1.768.561 4.59m-5.474 3.077q1.852 0 2.448-3.247.561-3.247-1.309-3.247t-2.43 3.247q-.596 3.247 1.291 3.247M46.25 9.22q-.51 2.821-2.023 4.437-1.496 1.598-3.842 1.598-2.329 0-3.383-1.768-1.037-1.785-.56-4.607.474-2.788 2.005-4.42 1.53-1.615 3.86-1.615t3.382 1.785q1.055 1.768.561 4.59m-5.474 3.077q1.853 0 2.448-3.247.561-3.247-1.309-3.247t-2.43 3.247q-.596 3.247 1.291 3.247M56.958 9.22q-.51 2.821-2.023 4.437-1.496 1.598-3.842 1.598-2.329 0-3.383-1.768-1.037-1.785-.56-4.607.475-2.788 2.005-4.42 1.53-1.615 3.86-1.615t3.382 1.785q1.055 1.768.561 4.59m-5.474 3.077q1.853 0 2.448-3.247.561-3.247-1.309-3.247t-2.43 3.247q-.597 3.247 1.291 3.247m19.966-5.83v1.87h-5.576v3.875q0 .476.136.714.135.22.612.221.39 0 .765-.119.374-.136.68-.34.306-.22.493-.51.186-.289.187-.595a.4.4 0 0 0-.136-.289q-.137-.136-.527-.136-.306 0-.544.051l-.272-1.734q.306-.085.68-.119a9 9 0 0 1 .799-.034q1.002 0 1.615.46.612.458.612 1.427 0 .918-.425 1.632a3.75 3.75 0 0 1-1.122 1.19 5.6 5.6 0 0 1-3.128.97q-.715-.001-1.207-.17a2.2 2.2 0 0 1-.765-.443 3.4 3.4 0 0 1-.357-.425 2.2 2.2 0 0 1-.255-.663q-.085-.425-.085-1.139V8.336h-1.428v-1.87zm-7.99-4.2q.56 0 .986.136.425.135.714.425.34.323.527.901.186.578.187 1.632v1.173H63.63V5.446q0-.425-.068-.714a.67.67 0 0 0-.272-.425q-.204-.153-.612-.153-.221 0-.476.051a3 3 0 0 0-.493.153l-.646-1.632a8 8 0 0 1 1.19-.34 5.5 5.5 0 0 1 1.207-.119"/><path fill="url(#c)" d="M10.678 15v.238h.2l.034-.197zm-8.33 0-.234-.04-.047.278h.281zm.374-2.21-.157-.178-.063.056-.014.082zm4.726-4.165.157.178zm1.428-1.853-.233-.047v.007zm-.136-.697.185-.15zm-2.465 1.02-.124.203.204.125.124-.205zM3.81 5.582l-.204-.121-.12.201.2.123zm2.023-2.04-.117-.206zm5.338.442-.175.16.004.004zm.765 2.873.234.043v-.002zm-.714 1.802-.197-.133zm-1.598 1.717.155.18.002-.001zM7.652 12.06l-.154-.18-.49.418h.644zm3.536 0 .234.04.049-.277h-.283zm-.51 2.94v-.238h-8.33v.476h8.33zm-8.33 0 .235.04.374-2.21-.235-.04-.234-.04-.374 2.21zm.374-2.21.158.178 4.726-4.165-.158-.178-.157-.178-4.726 4.165zm4.726-4.165.158.178c.442-.39.792-.75 1.042-1.074.248-.322.413-.63.463-.917l-.235-.04-.234-.04c-.03.177-.142.41-.37.707-.226.292-.55.628-.98 1.008zm1.428-1.853.233.047c.067-.335.018-.645-.184-.894l-.185.15-.184.15c.092.113.134.269.087.5zm-.136-.697.185-.15c-.204-.25-.502-.36-.848-.36v.476c.244 0 .388.072.479.184zm-.663-.272v-.238c-.798 0-1.463.512-2.005 1.407l.203.123.204.123c.5-.827 1.037-1.177 1.598-1.177zM6.275 7.095l.125-.202L3.935 5.38l-.125.202-.124.203 2.465 1.513zM3.81 5.582l.205.122c.514-.864 1.16-1.513 1.936-1.955l-.118-.207-.117-.206q-1.283.732-2.11 2.125zm2.023-2.04.118.207a5 5 0 0 1 2.517-.666v-.476q-1.473 0-2.752.729zm2.635-.697v.238c1.05 0 1.885.355 2.528 1.061l.175-.16.176-.16c-.74-.813-1.707-1.217-2.879-1.217zm2.703 1.14L11 4.147c.653.685.896 1.563.702 2.668l.234.041.234.041c.215-1.23-.053-2.267-.827-3.078zm.765 2.872-.233-.043a4.5 4.5 0 0 1-.678 1.712l.197.133.197.133q.557-.827.751-1.892zm-.714 1.802-.197-.133c-.335.498-.851 1.055-1.557 1.671l.156.18.157.178c.722-.63 1.271-1.218 1.638-1.763zm-1.598 1.717-.154-.18-1.972 1.682.154.181.155.18 1.972-1.682zM7.652 12.06v.238h3.536v-.475H7.652zm3.536 0-.234-.04-.51 2.94.234.041.234.04.51-2.94zM21.511 3.1l.233.041.05-.279h-.284zM21 6.007v.238h.199l.035-.197zm-4.166 0V5.77h-.184l-.046.18zm-.323 1.275-.23-.058-.075.296h.305zm3.468 1.105-.174.161.002.003zm.697 3.043.234.043v-.002zm-1.683 2.856.14.193.001-.001zm-7.292-1.717-.11-.21-.18.093.064.193zm2.805-1.462.226-.071-.085-.27-.251.13zm2.669.901-.138-.194zm.493-.799.234.04zm-.204-.816-.178.158.005.005zm-4.692-.306-.231-.057-.073.295h.304zM14.49 3.1v-.238h-.187l-.044.181zm7.02 0-.234-.041-.51 2.907.235.041.233.041.51-2.907zM21 6.007V5.77h-4.164v.476H21zm-4.164 0-.23-.058-.324 1.275.23.058.23.058.324-1.275zm-.323 1.275v.238h.73v-.476h-.73zm.73 0v.238c1.09 0 1.934.347 2.563 1.028l.174-.16.175-.162c-.732-.793-1.71-1.182-2.911-1.182zm2.738 1.105-.173.164c.624.654.854 1.583.635 2.838l.234.041.235.04c.235-1.35 0-2.45-.76-3.247zm.696 3.043-.233-.042c-.218 1.196-.75 2.09-1.59 2.707l.14.191.141.192c.951-.699 1.54-1.708 1.776-3.005zm-1.683 2.856-.139-.193c-.85.614-1.855.925-3.023.925v.475c1.258 0 2.362-.336 3.302-1.014zm-3.161.97v-.239c-1.045 0-1.88-.217-2.519-.633-.637-.414-1.101-1.038-1.387-1.89l-.226.075-.225.076c.315.938.84 1.657 1.58 2.138.737.48 1.668.71 2.777.71zM11.7 12.568l.11.21 2.805-1.461-.11-.21-.11-.212-2.804 1.462zm2.806-1.462-.227.071c.136.434.362.78.687 1.014.324.234.726.343 1.188.343v-.476c-.387 0-.685-.09-.91-.252s-.399-.412-.512-.771zm1.649 1.19v.238c.446 0 .836-.106 1.157-.333l-.137-.194-.138-.194c-.224.159-.512.245-.883.245zm1.02-.289.137.194c.325-.23.523-.554.59-.954l-.234-.039-.235-.039a.94.94 0 0 1-.396.644zm.493-.799.234.04c.066-.396-.01-.749-.266-1.02l-.172.164-.173.163c.13.138.19.329.142.614zm-.204-.816.177-.158c-.244-.274-.611-.386-1.044-.386v.476c.36 0 .57.092.689.226zm-.867-.306V9.85h-3.825v.476h3.825zm-3.825 0 .23.057 1.717-6.987-.23-.057-.231-.057-1.717 6.987zM14.49 3.1v.238h7.02v-.476h-7.02zm21.052 6.12.234.042v-.001zm-2.023 4.437-.173-.162zm-7.225-.17-.205.12.001.002zm-.56-4.607-.235-.04zm2.005-4.42-.172-.163h-.001zm7.242.17-.205.12.001.002zm-2.465 4.42.234.043V9.09zm-3.74 0 .234.043V9.09zm6.766.17-.234-.042c-.334 1.85-.993 3.282-1.962 4.317l.173.162.174.162c1.047-1.118 1.737-2.644 2.083-4.557zm-2.023 4.437-.173-.162c-.95 1.013-2.165 1.523-3.669 1.523v.475c1.625 0 2.97-.556 4.016-1.674zm-3.842 1.598v-.238c-1.482 0-2.525-.555-3.179-1.652l-.204.122-.204.122c.752 1.26 1.964 1.884 3.587 1.884zm-3.383-1.768.206-.12c-.655-1.126-.844-2.6-.533-4.447l-.234-.04-.234-.04c-.323 1.916-.139 3.513.59 4.766zm-.56-4.607.233.04c.312-1.825.965-3.251 1.945-4.297l-.173-.163-.173-.162c-1.06 1.13-1.744 2.65-2.067 4.542zm2.005-4.42.173.163c.972-1.026 2.195-1.54 3.686-1.54v-.476c-1.614 0-2.964.563-4.031 1.69zm3.86-1.615v.238c1.48 0 2.524.56 3.177 1.668l.205-.12.205-.122c-.752-1.272-1.964-1.902-3.588-1.902zM34.98 4.63l-.204.122c.664 1.113.854 2.58.531 4.427l.234.041.234.04c.335-1.915.15-3.508-.59-4.752zm-4.913 7.667v.238c.7 0 1.28-.313 1.728-.907.44-.583.752-1.437.954-2.535l-.234-.043-.234-.043c-.195 1.066-.49 1.837-.865 2.335-.368.489-.814.717-1.349.717zm2.448-3.247.234.04c.19-1.093.183-1.96-.06-2.564a1.5 1.5 0 0 0-.571-.72c-.258-.165-.566-.24-.912-.24v.475c.277 0 .491.06.655.165.162.104.293.265.387.498.193.477.218 1.234.033 2.306zm-1.309-3.247v-.238c-.705 0-1.287.312-1.733.907-.437.585-.742 1.439-.932 2.538l.234.04.234.04c.184-1.065.472-1.835.845-2.333.364-.487.81-.716 1.352-.716zm-2.43 3.247-.235-.043c-.2 1.094-.202 1.96.039 2.566.123.31.311.555.57.721s.569.24.917.24v-.475c-.28 0-.496-.06-.66-.165a1 1 0 0 1-.386-.496c-.19-.477-.208-1.234-.012-2.305zm17.473.17.234.042v-.001zm-2.023 4.437-.173-.162zm-7.225-.17-.205.12.001.002zm-.56-4.607-.235-.04zm2.005-4.42-.172-.163h-.001zm7.242.17-.205.12.001.002zm-2.465 4.42.234.043V9.09zm-3.74 0 .234.043V9.09zm6.766.17-.234-.042c-.334 1.85-.993 3.282-1.962 4.317l.173.162.174.162c1.047-1.118 1.737-2.644 2.083-4.557zm-2.023 4.437-.173-.162c-.95 1.013-2.165 1.523-3.669 1.523v.475c1.625 0 2.97-.556 4.016-1.674zm-3.842 1.598v-.238c-1.482 0-2.525-.555-3.179-1.652l-.204.122-.204.122c.752 1.26 1.964 1.884 3.587 1.884zm-3.383-1.768.206-.12c-.655-1.126-.844-2.6-.533-4.447l-.234-.04-.234-.04c-.323 1.916-.139 3.513.59 4.766zm-.56-4.607.233.04c.312-1.825.965-3.251 1.945-4.297l-.173-.163-.173-.162c-1.06 1.13-1.744 2.65-2.067 4.542zm2.005-4.42.173.163c.972-1.026 2.195-1.54 3.686-1.54v-.476c-1.614 0-2.964.563-4.031 1.69zm3.86-1.615v.238c1.48 0 2.524.56 3.177 1.668l.205-.12.205-.122c-.752-1.272-1.964-1.902-3.588-1.902zm3.382 1.785-.204.122c.664 1.113.854 2.58.531 4.427l.234.041.234.04c.335-1.915.15-3.508-.59-4.752zm-4.913 7.667v.238c.7 0 1.28-.313 1.728-.907.44-.583.753-1.437.954-2.535l-.234-.043-.234-.043c-.195 1.066-.489 1.837-.865 2.335-.368.489-.814.717-1.349.717zm2.448-3.247.234.04c.19-1.093.184-1.96-.06-2.564a1.5 1.5 0 0 0-.571-.72c-.258-.165-.566-.24-.912-.24v.475c.277 0 .491.06.655.165.162.104.293.265.387.498.193.477.218 1.234.033 2.306zm-1.309-3.247v-.238c-.705 0-1.287.312-1.733.907-.437.585-.742 1.439-.932 2.538l.234.04.234.04c.184-1.065.472-1.835.845-2.333.364-.487.81-.716 1.352-.716zm-2.43 3.247-.235-.043c-.2 1.094-.202 1.96.039 2.566.123.31.311.555.57.721s.569.24.917.24v-.475c-.28 0-.496-.06-.66-.165a1 1 0 0 1-.386-.496c-.19-.477-.208-1.234-.012-2.305zm17.473.17.234.042v-.001zm-2.023 4.437-.173-.162zm-7.225-.17-.205.12.001.002zm-.56-4.607-.235-.04zm2.005-4.42-.172-.163h-.001zm7.242.17-.204.12v.002zm-2.465 4.42.234.043V9.09zm-3.74 0 .234.043V9.09zm6.766.17-.234-.042c-.334 1.85-.993 3.282-1.962 4.317l.173.162.173.162c1.049-1.118 1.738-2.644 2.084-4.557zm-2.023 4.437-.173-.162c-.95 1.013-2.165 1.523-3.669 1.523v.475c1.625 0 2.97-.556 4.016-1.674zm-3.842 1.598v-.238c-1.482 0-2.525-.555-3.179-1.652l-.204.122-.204.122c.752 1.26 1.964 1.884 3.587 1.884zm-3.383-1.768.206-.12c-.655-1.126-.844-2.6-.533-4.447l-.234-.04-.234-.04c-.323 1.916-.139 3.513.59 4.766zm-.56-4.607.233.04c.312-1.825.965-3.251 1.945-4.297l-.173-.163-.173-.162c-1.06 1.13-1.744 2.65-2.067 4.542zm2.005-4.42.173.163c.972-1.026 2.195-1.54 3.686-1.54v-.476c-1.614 0-2.964.563-4.031 1.69zm3.86-1.615v.238c1.48 0 2.524.56 3.178 1.668l.204-.12.205-.122c-.752-1.272-1.964-1.902-3.588-1.902zm3.382 1.785-.204.122c.664 1.113.854 2.58.531 4.427l.234.041.234.04c.335-1.915.15-3.508-.59-4.752zm-4.913 7.667v.238c.7 0 1.28-.313 1.728-.907.44-.583.752-1.437.954-2.535l-.234-.043-.234-.043c-.195 1.066-.489 1.837-.865 2.335-.368.489-.814.717-1.349.717zm2.448-3.247.234.04c.19-1.093.184-1.96-.06-2.564a1.5 1.5 0 0 0-.571-.72c-.257-.165-.566-.24-.912-.24v.475c.277 0 .491.06.655.165.162.104.293.265.387.498.193.477.218 1.234.033 2.306zm-1.309-3.247v-.238c-.705 0-1.287.312-1.733.907-.437.585-.742 1.439-.932 2.538l.234.04.234.04c.184-1.065.472-1.835.845-2.333.364-.487.81-.716 1.352-.716zm-2.43 3.247-.235-.043c-.2 1.094-.202 1.96.039 2.566.123.31.311.555.57.721s.569.24.917.24v-.475c-.28 0-.496-.06-.66-.165a1 1 0 0 1-.386-.496c-.19-.477-.209-1.234-.012-2.305zM71.45 6.466h.237v-.238h-.237zm0 1.87v.238h.237v-.238zm-5.576 0v-.238h-.238v.238zm.136 4.59-.207.118.004.007zm1.377.102.072.227.009-.004zm.68-.34.132.198.007-.005zm.544-1.394-.168.168zm-1.071-.085-.235.037.039.248.246-.053zm-.272-1.734-.064-.229-.204.057.033.209zm.68-.119-.02-.237h-.002zm2.6 3.485-.204-.121zm-1.121 1.19-.134-.196zm-1.53.731.066.228h.003zm-2.805.068-.08.224h.002zm-.765-.442-.168.168.005.005zm-.357-.425-.2.129.006.01zm-.255-.663-.233.047.002.008zm-.085-4.964h.237v-.238h-.237zm-1.428 0h-.238v.238h.238zm0-1.87v-.238h-.238v.238zm2.244-4.063.072-.226zm.714.425-.168.168.004.004zm.527.901.226-.073zm.187 2.805v.238h.237v-.238zm-2.244 0h-.238v.238h.238zm-.068-1.802.231-.054zm-.272-.425-.143.19.01.008zm-1.088-.102-.047-.233h-.003zm-.493.153-.221.088.087.221.222-.088zm-.646-1.632-.08-.224-.231.083.09.228zm1.19-.34.045.233.007-.001zm9.197 4.08h-.238v1.87h.475v-1.87zm0 1.87v-.238h-5.576v.476h5.576zm-5.576 0h-.238v3.876h.475V8.336zm0 3.876h-.238c0 .332.046.62.167.832l.207-.118.206-.118c-.06-.105-.105-.293-.105-.596zm.136.714-.203.125c.16.26.482.334.815.334v-.476c-.303 0-.389-.073-.41-.107zm.612.221v.238q.427 0 .837-.13l-.072-.227-.072-.226a2.3 2.3 0 0 1-.693.107zm.765-.119.08.223q.4-.144.731-.365l-.131-.198-.132-.198q-.28.188-.63.315zm.68-.34.139.193q.339-.244.553-.574l-.2-.129-.199-.129q-.16.249-.432.447zm.493-.51.2.13c.145-.227.224-.47.224-.725h-.475a.85.85 0 0 1-.149.466zm.187-.595h.237a.64.64 0 0 0-.205-.457l-.168.168-.168.168c.058.058.066.097.066.121zm-.136-.289.168-.168c-.164-.163-.428-.205-.695-.205v.475c.253 0 .34.048.359.066zm-.527-.136v-.237q-.326 0-.594.056l.05.232.05.232q.207-.045.494-.045zm-.544.051.234-.037-.272-1.734-.234.037-.235.037.272 1.734zm-.272-1.734.063.229q.282-.079.638-.111l-.021-.237-.022-.237a4 4 0 0 0-.722.127zm.68-.119.02.237q.38-.033.779-.033v-.476q-.418 0-.82.035zm.799-.034v.238c.633 0 1.116.144 1.472.411l.143-.19.142-.19c-.46-.345-1.053-.507-1.757-.507zm1.615.46-.143.19c.333.248.517.644.517 1.237h.475c0-.699-.223-1.255-.707-1.618zm.612 1.427h-.238q-.001.86-.392 1.51l.205.122.204.122q.46-.777.458-1.754zm-.425 1.632-.205-.121a3.5 3.5 0 0 1-1.051 1.115l.134.196.134.196q.739-.505 1.192-1.264zm-1.122 1.19-.134-.196a5.4 5.4 0 0 1-1.466.7l.07.227.07.227a5.8 5.8 0 0 0 1.594-.762zm-1.53.731-.067-.228a5.5 5.5 0 0 1-1.531.228v.476q.818 0 1.664-.248zM66.299 15v-.238c-.459 0-.833-.054-1.13-.157l-.077.225-.078.225q.543.184 1.285.183zm-1.207-.17.08-.224a1.9 1.9 0 0 1-.682-.39l-.163.172-.163.173c.222.21.508.371.848.493zm-.765-.442.168-.168a3 3 0 0 1-.332-.395l-.193.138-.194.138q.18.252.383.455zm-.357-.425.2-.128a2 2 0 0 1-.224-.59l-.231.055-.231.055c.07.297.164.547.286.736zm-.255-.663.233-.046q-.08-.391-.08-1.093h-.476q0 .726.09 1.186zm-.085-1.139h.237V8.336h-.475v3.825zm0-3.825v-.238h-1.428v.476h1.428zm-1.428 0h.237v-1.87h-.475v1.87zm0-1.87v.238h9.248v-.476h-9.248zm1.258-4.199v.238q.531.001.913.124l.073-.226.072-.226a3.5 3.5 0 0 0-1.058-.148zm.986.136-.073.226q.374.121.619.367l.168-.168.168-.168a2 2 0 0 0-.81-.483zm.714.425L64.996 3c.19.181.349.444.465.802l.226-.073.226-.073c-.134-.412-.327-.75-.59-1zm.527.901-.226.073c.113.35.175.866.175 1.56h.475c0-.713-.062-1.286-.198-1.706zm.187 1.632h-.238v1.173h.475V5.361zm0 1.173v-.238H63.63v.476h2.244zm-2.244 0h.237V5.446h-.475v1.088zm0-1.088h.237q.001-.442-.074-.768l-.231.054-.232.054q.061.253.062.66zm-.068-.714.231-.054a.9.9 0 0 0-.371-.569l-.132.198-.132.198c.076.05.138.134.172.281zm-.272-.425.142-.19c-.195-.146-.46-.2-.754-.2v.475c.249 0 .392.048.47.105zm-.612-.153v-.238q-.249.001-.523.056l.047.233.046.233a2.2 2.2 0 0 1 .43-.046zm-.476.051-.05-.232q-.26.056-.532.164l.089.221.088.22q.238-.095.455-.14zm-.493.153.22-.087-.645-1.632-.221.087-.221.087.646 1.632zm-.646-1.632.08.224a8 8 0 0 1 1.155-.33l-.045-.234-.045-.233q-.55.106-1.226.35zm1.19-.34.052.232q.495-.113 1.155-.113v-.476q-.7 0-1.26.125z" mask="url(#d)"/></g><defs><linearGradient id="b" x1="37.617" x2="37.617" y1="-11.539" y2="33.629" gradientUnits="userSpaceOnUse"><stop offset=".333" stop-color="#fff4cd"/><stop offset=".4" stop-color="#ffe68e"/><stop offset=".477" stop-color="#ffa34e"/><stop offset=".557" stop-color="#fff387"/><stop offset=".726" stop-color="#ffa841"/></linearGradient><linearGradient id="c" x1="37.411" x2="37.411" y1="0" y2="21" gradientUnits="userSpaceOnUse"><stop offset=".214" stop-color="#fffdeb"/><stop offset=".505" stop-color="#fff389"/><stop offset=".849" stop-color="#ffe922"/></linearGradient><filter id="a" width="73.755" height="17.598" x="0" y="2.029" color-interpolation-filters="sRGB" filterUnits="userSpaceOnUse"><feFlood flood-opacity="0" result="BackgroundImageFix"/><feColorMatrix in="SourceAlpha" result="hardAlpha" values="0 0 0 0 0 0 0 0 0 0 0 0 0 0 0 0 0 0 127 0"/><feOffset dy="2.067"/><feGaussianBlur stdDeviation="1.034"/><feComposite in2="hardAlpha" operator="out"/><feColorMatrix values="0 0 0 0 0 0 0 0 0 0 0 0 0 0 0 0 0 0 0.2 0"/><feBlend in2="BackgroundImageFix" result="effect1_dropShadow_121_40099"/><feBlend in="SourceGraphic" in2="effect1_dropShadow_121_40099" result="shape"/></filter></defs></svg>