<svg xmlns="http://www.w3.org/2000/svg" width="83" height="16" fill="none" viewBox="0 0 83 16"><g filter="url(#a)"><mask id="d" width="80.102" height="12.696" x="1.26" y="-.886" fill="#000" maskUnits="userSpaceOnUse"><path fill="#fff" d="M1.26-.886h80.102V11.81H1.26z"/><path d="m10.368.932-.4 2.397-3.43.03-.256 1.052.602-.005q1.414-.012 2.262.89.861.889.596 2.501-.267 1.543-1.366 2.364-1.099.808-2.597.821-2.66.023-3.421-2.182l2.3-1.224q.316.977 1.366.968.504-.005.838-.246a.97.97 0 0 0 .4-.661q.066-.42-.174-.67-.226-.251-.716-.246l-3.15.027L4.586.982zM21.967 5.87q-.4 2.327-1.634 3.668-1.221 1.327-3.153 1.344-1.917.016-2.798-1.432-.867-1.462-.495-3.79.372-2.299 1.62-3.654Q16.756.666 18.673.649q1.919-.016 2.799 1.446.88 1.449.495 3.776M17.48 8.444q1.525-.014 1.993-2.691.438-2.679-1.102-2.665t-1.978 2.691q-.467 2.679 1.087 2.665m13.304-2.65q-.4 2.328-1.634 3.668-1.221 1.327-3.153 1.344-1.917.017-2.798-1.432-.867-1.462-.495-3.79.372-2.298 1.62-3.654Q25.574.59 27.49.573q1.92-.018 2.8 1.445.88 1.448.495 3.776m-4.486 2.573q1.525-.014 1.993-2.691.438-2.679-1.102-2.665t-1.978 2.692q-.467 2.677 1.087 2.664m13.304-2.65q-.4 2.328-1.634 3.669-1.221 1.326-3.153 1.343-1.917.017-2.798-1.432-.867-1.462-.495-3.79.372-2.298 1.62-3.654Q34.392.513 36.309.496q1.919-.017 2.799 1.445.88 1.45.495 3.776M35.117 8.29q1.525-.013 1.993-2.691.438-2.677-1.102-2.665-1.54.015-1.978 2.692-.467 2.678 1.087 2.664m16.476-2.677q-.4 2.328-1.635 3.668-1.22 1.327-3.152 1.344-1.918.016-2.798-1.432-.867-1.462-.496-3.79.372-2.299 1.62-3.654Q46.382.408 48.3.391q1.919-.016 2.799 1.446.88 1.449.495 3.776m-4.486 2.573q1.526-.014 1.992-2.691.44-2.679-1.1-2.665t-1.98 2.691q-.465 2.679 1.088 2.665m13.304-2.65q-.4 2.328-1.635 3.668-1.22 1.327-3.152 1.344-1.918.017-2.799-1.432-.866-1.462-.495-3.79.372-2.298 1.62-3.654Q55.2.332 57.118.315q1.919-.018 2.799 1.445.88 1.449.495 3.776M55.925 8.11q1.526-.014 1.992-2.691.44-2.679-1.1-2.665t-1.98 2.692q-.466 2.677 1.088 2.664m13.304-2.65q-.4 2.328-1.635 3.669-1.22 1.326-3.152 1.343-1.917.017-2.798-1.432-.867-1.462-.495-3.79.372-2.298 1.62-3.654Q64.017.255 65.935.238t2.799 1.445q.88 1.45.495 3.776m-4.486 2.573q1.525-.013 1.993-2.691.438-2.677-1.102-2.665-1.54.015-1.978 2.692-.468 2.678 1.087 2.664m9.13-7.71c.21-.015.377-.03.49-.032a4.56 4.56 0 0 1 2.145.486c.394.206.83.482 1.014.69l.1.098-1.43 1.51c-.374.382-.707.72-.985 1.017-.291.297-.43.466-.43.48l.618.135.603.12 1.595-1.652 1.582-1.637.364-.004.378-.003-1.65 1.723-.334.352q-1.311 1.377-1.29 1.398l.323.137c.45.178.704.372 1 .663.41.43.624.919.63 1.493.003.406-.106.813-.326 1.249-.317.506-1.012 1.115-1.682 1.386-.544.243-.865.288-1.663.295-.686.006-.882-.007-1.444-.156-.547-.177-1.152-.522-1.491-.84l-.127-.098 1.554-1.595 1.54-1.638c-.014-.013-.94-.215-1.206-.255q-.042 0-1.499 1.525c-.153.155-.236.226-.236.226l-1.693 1.779-.364.003-.406.004 1.804-1.878.458-.48c.736-.749 1.304-1.398 1.234-1.397-.787-.287-1.379-.772-1.65-1.344-.157-.348-.244-.684-.247-.992a3 3 0 0 1 .106-.729c.327-1.024 1.37-1.818 2.614-2.038m-1.248 3.05c.157.32.495.611.903.818.113.055.352.179.464.178.084-.001.181-.044.292-.143.112-.099.32-.31.639-.65l.291-.296 1.11-1.158-.07-.069c-.17-.18-.564-.401-.887-.51a3 3 0 0 0-.925-.118c-.238.002-.42.017-.56.06-.572.132-1.045.5-1.266.894a1.2 1.2 0 0 0-.093.519c.001.182.03.35.102.475m.677 5.356c.393.207.997.355 1.57.35.84-.007 1.483-.223 1.927-.66.292-.27.443-.564.44-.886-.004-.518-.47-1.046-1.257-1.333q-.316-.125-.38-.123c-.041 0-.458.41-1.249 1.243L73.12 8.604z"/></mask><path fill="url(#b)" d="m10.368.932-.4 2.397-3.43.03-.256 1.052.602-.005q1.414-.012 2.262.89.861.889.596 2.501-.267 1.543-1.366 2.364-1.099.808-2.597.821-2.66.023-3.421-2.182l2.3-1.224q.316.977 1.366.968.504-.005.838-.246a.97.97 0 0 0 .4-.661q.066-.42-.174-.67-.226-.251-.716-.246l-3.15.027L4.586.982zM21.967 5.87q-.4 2.327-1.634 3.668-1.221 1.327-3.153 1.344-1.917.016-2.798-1.432-.867-1.462-.495-3.79.372-2.299 1.62-3.654Q16.756.666 18.673.649q1.919-.016 2.799 1.446.88 1.449.495 3.776M17.48 8.444q1.525-.014 1.993-2.691.438-2.679-1.102-2.665t-1.978 2.691q-.467 2.679 1.087 2.665m13.304-2.65q-.4 2.328-1.634 3.668-1.221 1.327-3.153 1.344-1.917.017-2.798-1.432-.867-1.462-.495-3.79.372-2.298 1.62-3.654Q25.574.59 27.49.573q1.92-.018 2.8 1.445.88 1.448.495 3.776m-4.486 2.573q1.525-.014 1.993-2.691.438-2.679-1.102-2.665t-1.978 2.692q-.467 2.677 1.087 2.664m13.304-2.65q-.4 2.328-1.634 3.669-1.221 1.326-3.153 1.343-1.917.017-2.798-1.432-.867-1.462-.495-3.79.372-2.298 1.62-3.654Q34.392.513 36.309.496q1.919-.017 2.799 1.445.88 1.45.495 3.776M35.117 8.29q1.525-.013 1.993-2.691.438-2.677-1.102-2.665-1.54.015-1.978 2.692-.467 2.678 1.087 2.664m16.476-2.677q-.4 2.328-1.635 3.668-1.22 1.327-3.152 1.344-1.918.016-2.798-1.432-.867-1.462-.496-3.79.372-2.299 1.62-3.654Q46.382.408 48.3.391q1.919-.016 2.799 1.446.88 1.449.495 3.776m-4.486 2.573q1.526-.014 1.992-2.691.44-2.679-1.1-2.665t-1.98 2.691q-.465 2.679 1.088 2.665m13.304-2.65q-.4 2.328-1.635 3.668-1.22 1.327-3.152 1.344-1.918.017-2.799-1.432-.866-1.462-.495-3.79.372-2.298 1.62-3.654Q55.2.332 57.118.315q1.919-.018 2.799 1.445.88 1.449.495 3.776M55.925 8.11q1.526-.014 1.992-2.691.44-2.679-1.1-2.665t-1.98 2.692q-.466 2.677 1.088 2.664m13.304-2.65q-.4 2.328-1.635 3.669-1.22 1.326-3.152 1.343-1.917.017-2.798-1.432-.867-1.462-.495-3.79.372-2.298 1.62-3.654Q64.017.255 65.935.238t2.799 1.445q.88 1.45.495 3.776m-4.486 2.573q1.525-.013 1.993-2.691.438-2.677-1.102-2.665-1.54.015-1.978 2.692-.468 2.678 1.087 2.664m9.13-7.71c.21-.015.377-.03.49-.032a4.56 4.56 0 0 1 2.145.486c.394.206.83.482 1.014.69l.1.098-1.43 1.51c-.374.382-.707.72-.985 1.017-.291.297-.43.466-.43.48l.618.135.603.12 1.595-1.652 1.582-1.637.364-.004.378-.003-1.65 1.723-.334.352q-1.311 1.377-1.29 1.398l.323.137c.45.178.704.372 1 .663.41.43.624.919.63 1.493.003.406-.106.813-.326 1.249-.317.506-1.012 1.115-1.682 1.386-.544.243-.865.288-1.663.295-.686.006-.882-.007-1.444-.156-.547-.177-1.152-.522-1.491-.84l-.127-.098 1.554-1.595 1.54-1.638c-.014-.013-.94-.215-1.206-.255q-.042 0-1.499 1.525c-.153.155-.236.226-.236.226l-1.693 1.779-.364.003-.406.004 1.804-1.878.458-.48c.736-.749 1.304-1.398 1.234-1.397-.787-.287-1.379-.772-1.65-1.344-.157-.348-.244-.684-.247-.992a3 3 0 0 1 .106-.729c.327-1.024 1.37-1.818 2.614-2.038m-1.248 3.05c.157.32.495.611.903.818.113.055.352.179.464.178.084-.001.181-.044.292-.143.112-.099.32-.31.639-.65l.291-.296 1.11-1.158-.07-.069c-.17-.18-.564-.401-.887-.51a3 3 0 0 0-.925-.118c-.238.002-.42.017-.56.06-.572.132-1.045.5-1.266.894a1.2 1.2 0 0 0-.093.519c.001.182.03.35.102.475m.677 5.356c.393.207.997.355 1.57.35.84-.007 1.483-.223 1.927-.66.292-.27.443-.564.44-.886-.004-.518-.47-1.046-1.257-1.333q-.316-.125-.38-.123c-.041 0-.458.41-1.249 1.243L73.12 8.604z"/><path fill="url(#c)" d="m10.368.932.234.039.047-.28-.283.003zm-.4 2.397.003.238.2-.002.032-.197zm-3.43.03-.001-.237-.185.001-.044.18zm-.256 1.052-.23-.056-.073.297.305-.003zm2.864.885-.173.163.002.003zm.596 2.501.234.04v-.001zm-1.366 2.364.14.192.002-.001zM2.358 8.8l-.112-.21-.179.095.066.192zm2.3-1.224.225-.074-.087-.27-.25.134zm2.204.722-.14-.192zm.4-.661.235.037zm-.174-.67-.176.159.005.005zm-3.866-.219-.231-.055-.07.295.303-.002zM4.586.982 4.584.744l-.186.002-.043.181zm5.782-.05-.235-.04-.399 2.398.235.04.234.038.4-2.397zm-.4 2.397-.001-.237-3.43.03.002.237.002.238 3.43-.03zm-3.43.03-.23-.056-.257 1.052.231.056.23.057.258-1.053zm-.256 1.052.002.238.602-.005-.002-.238-.002-.237-.602.005zm.602-.005.002.238c.887-.008 1.573.269 2.087.815l.173-.163.173-.162c-.617-.657-1.439-.974-2.437-.965zm2.262.89-.17.166c.505.522.7 1.27.531 2.297l.235.038.234.039c.185-1.123-.017-2.042-.66-2.705zm.596 2.501-.235-.04c-.168.977-.596 1.708-1.273 2.214l.142.19.142.19c.789-.589 1.271-1.434 1.458-2.513zm-1.366 2.364-.14-.191c-.69.506-1.505.766-2.459.774l.002.238.002.238c1.044-.01 1.959-.296 2.736-.867zm-2.597.821-.002-.238c-.855.008-1.534-.164-2.055-.496-.519-.331-.9-.833-1.14-1.526l-.224.078-.225.077c.269.778.711 1.374 1.333 1.771.62.395 1.397.58 2.315.572zM2.358 8.8l.112.21 2.3-1.225-.113-.21-.111-.21-2.3 1.225zm2.3-1.224-.227.073c.118.363.31.654.589.851s.619.285 1.006.281l-.002-.237-.002-.238c-.313.003-.55-.068-.727-.194-.178-.125-.318-.321-.412-.61zm1.366.968.002.237c.374-.003.704-.095.975-.29l-.14-.193-.138-.192c-.175.126-.403.198-.701.2zm.838-.246L7 8.491c.276-.199.442-.476.496-.817l-.235-.037-.235-.037a.73.73 0 0 1-.304.506zm.4-.661.235.037c.053-.335-.014-.64-.237-.872l-.172.164-.171.165c.097.1.146.243.11.469zm-.174-.67.176-.16c-.213-.236-.53-.327-.894-.324l.002.238.002.237c.29-.002.45.07.538.168zm-.716-.246-.002-.238-3.15.028.002.237.002.238 3.15-.028zm-3.15.027.231.055 1.364-5.766-.23-.055-.232-.055L2.99 6.693zM4.586.982l.002.238 5.782-.05-.002-.238-.002-.238-5.782.05zm17.38 4.889.235.04V5.91zm-1.633 3.668-.175-.16zm-5.951-.088-.205.121.002.002zm-.495-3.79-.235-.038zm1.62-3.654-.174-.162v.001zm5.965.088-.204.123zm-1.998 3.658.234.04v-.002zm-3.08.026.234.041v-.002zm5.573.092-.234-.04c-.261 1.52-.791 2.696-1.575 3.547l.175.161.174.161c.862-.936 1.422-2.205 1.694-3.789zm-1.634 3.668-.175-.16c-.766.832-1.752 1.255-2.98 1.266l.002.238.002.237c1.349-.011 2.464-.483 3.326-1.42zm-3.153 1.344-.002-.238c-1.208.01-2.056-.434-2.593-1.317l-.203.123-.203.123c.637 1.048 1.654 1.558 3.003 1.546zM14.382 9.45l.204-.121c-.54-.912-.707-2.114-.465-3.631l-.234-.038-.235-.037c-.253 1.585-.09 2.91.525 3.948zm-.495-3.79.234.038c.243-1.499.767-2.67 1.56-3.531l-.174-.161-.175-.161c-.871.946-1.426 2.21-1.68 3.777zm1.62-3.654.174.162c.785-.844 1.777-1.272 2.994-1.282l-.002-.238-.002-.237c-1.34.011-2.459.489-3.338 1.433zM18.673.649l.002.238c1.207-.01 2.056.438 2.593 1.33l.204-.122.203-.123C21.04.915 20.021.4 18.671.412zm2.799 1.446-.203.123c.548.901.715 2.097.463 3.614l.235.039.234.039c.263-1.586.1-2.908-.526-3.938zM17.48 8.444l.002.238c.591-.006 1.079-.274 1.45-.776.364-.491.616-1.204.775-2.113l-.234-.04-.234-.041c-.153.876-.388 1.505-.689 1.911-.292.395-.646.58-1.072.583zm1.993-2.691.234.038c.148-.904.139-1.627-.07-2.134a1.27 1.27 0 0 0-.493-.608 1.4 1.4 0 0 0-.775-.199l.002.238.002.238a.93.93 0 0 1 .518.124.8.8 0 0 1 .306.388c.157.381.186.995.041 1.876zm-1.102-2.665-.002-.238c-.595.006-1.084.274-1.454.777-.361.492-.608 1.205-.757 2.114l.235.038.234.039c.144-.876.373-1.505.671-1.91.29-.394.644-.579 1.075-.582zm-1.978 2.691-.234-.04c-.158.903-.155 1.627.052 2.135.107.26.268.47.492.61.222.14.486.2.78.198l-.003-.238-.002-.238a.95.95 0 0 1-.522-.125.8.8 0 0 1-.305-.386c-.155-.38-.178-.993-.024-1.875zm14.39.015.235.04v-.001zM29.15 9.462l-.175-.16zm-5.95-.088-.205.121.002.003zm-.495-3.79-.235-.038zm1.62-3.654-.174-.162v.001zm5.965.088-.204.123zm-1.998 3.658.234.04v-.002zm-3.08.027.234.04v-.002zm5.573.091-.234-.04c-.261 1.52-.791 2.696-1.575 3.548l.175.16.174.161c.862-.936 1.422-2.205 1.694-3.789zM29.15 9.462l-.175-.16c-.766.832-1.752 1.256-2.98 1.266l.002.238.002.238c1.349-.012 2.464-.484 3.326-1.42zm-3.153 1.344-.002-.238c-1.208.01-2.056-.434-2.593-1.317l-.203.123-.203.124c.637 1.047 1.654 1.557 3.003 1.546zM23.2 9.374l.204-.12c-.54-.913-.707-2.114-.465-3.632l-.234-.038-.235-.037c-.253 1.585-.09 2.91.525 3.948zm-.495-3.79.234.038c.243-1.499.767-2.67 1.56-3.53l-.174-.162-.175-.16c-.871.945-1.426 2.21-1.68 3.776zm1.62-3.654.174.162c.785-.844 1.777-1.271 2.994-1.282l-.002-.237-.002-.238c-1.34.012-2.459.49-3.338 1.433zM27.49.573l.002.237c1.207-.01 2.056.438 2.593 1.33l.204-.122.203-.122C29.857.839 28.84.323 27.49.335zm2.799 1.445-.203.124c.548.9.715 2.096.463 3.613l.235.04.234.038c.263-1.586.1-2.908-.526-3.938zm-3.991 6.35.002.237c.591-.005 1.079-.274 1.45-.776.364-.491.616-1.203.775-2.112l-.234-.041-.234-.041c-.153.876-.388 1.505-.689 1.911-.293.396-.646.58-1.072.584zm1.993-2.692.234.038c.148-.904.139-1.627-.07-2.134a1.27 1.27 0 0 0-.492-.608 1.4 1.4 0 0 0-.776-.198l.002.237.002.238a.93.93 0 0 1 .518.125c.126.08.23.203.306.387.158.381.186.995.041 1.876zM27.19 3.01l-.002-.237c-.595.005-1.084.273-1.454.776-.361.492-.608 1.205-.757 2.114l.235.039.234.038c.144-.876.373-1.504.671-1.91.29-.394.644-.578 1.075-.582zm-1.978 2.692-.234-.041c-.158.903-.155 1.627.052 2.136.107.26.268.468.492.609.222.14.486.2.78.198l-.003-.238-.002-.237a.95.95 0 0 1-.522-.125.8.8 0 0 1-.305-.387c-.155-.38-.178-.993-.024-1.875zm14.39.014.235.04zm-1.632 3.67-.175-.161zm-5.951-.089-.205.122.002.002zm-.495-3.79-.235-.037zm1.62-3.654-.174-.162v.001zm5.965.088-.204.123zM37.11 5.6l.234.04v-.002zm-3.08.027.234.04v-.002zm5.573.091-.234-.04c-.261 1.52-.791 2.696-1.575 3.548l.175.16.175.162c.861-.937 1.421-2.206 1.693-3.79zm-1.634 3.669-.175-.161c-.766.832-1.752 1.256-2.98 1.267l.002.237.002.238c1.349-.012 2.464-.484 3.326-1.42zm-3.153 1.343-.002-.237c-1.208.01-2.056-.435-2.593-1.318l-.203.123-.203.124c.637 1.048 1.654 1.558 3.003 1.546zm-2.798-1.432.204-.12c-.54-.912-.707-2.114-.465-3.632l-.234-.037-.235-.038c-.253 1.585-.09 2.91.525 3.949zm-.495-3.79.234.039c.243-1.5.767-2.67 1.56-3.532l-.174-.16-.175-.162c-.871.946-1.426 2.21-1.68 3.778zm1.62-3.654.174.162c.785-.843 1.777-1.271 2.994-1.282L36.31.496l-.002-.238c-1.34.012-2.459.49-3.338 1.433zM36.309.496l.002.237c1.207-.01 2.056.438 2.593 1.331l.204-.123.203-.122C38.675.762 37.657.246 36.307.259zm2.799 1.445-.203.124c.548.9.715 2.096.463 3.613l.235.04.234.038c.263-1.586.1-2.908-.526-3.938zm-3.991 6.35.002.237c.591-.005 1.079-.274 1.45-.776.364-.491.616-1.203.775-2.112l-.234-.041-.234-.04c-.153.876-.388 1.505-.689 1.91-.292.396-.646.58-1.072.584zm1.993-2.692.234.038c.148-.903.139-1.627-.07-2.134a1.27 1.27 0 0 0-.492-.608 1.4 1.4 0 0 0-.776-.198l.002.237.002.238a.93.93 0 0 1 .518.125c.126.08.23.203.306.388.158.38.186.994.041 1.876zm-1.102-2.665-.002-.237c-.595.005-1.084.273-1.454.776-.361.492-.608 1.205-.757 2.114l.235.039.234.038c.144-.876.373-1.504.671-1.91.29-.393.644-.578 1.075-.582zM34.03 5.626l-.234-.041c-.158.904-.155 1.628.052 2.136.107.26.269.469.492.61.222.139.486.2.78.197l-.003-.238-.002-.237a.95.95 0 0 1-.522-.125.8.8 0 0 1-.305-.387c-.155-.38-.178-.993-.024-1.874zm17.563-.013.234.04v-.001zM49.958 9.28l-.174-.16zm-5.95-.088-.205.121.002.002zm-.496-3.79-.234-.038zm1.62-3.654-.173-.162-.001.001zm5.966.088-.204.123zM49.1 5.495l.233.04v-.002zm-3.08.026.234.041V5.56zm5.573.092-.235-.04c-.26 1.52-.79 2.696-1.574 3.547l.175.161.174.161c.862-.936 1.422-2.205 1.694-3.789zM49.958 9.28l-.174-.16c-.766.832-1.752 1.255-2.98 1.266l.002.238.002.237c1.349-.011 2.464-.483 3.325-1.42zm-3.152 1.344-.002-.238c-1.208.01-2.056-.434-2.593-1.317l-.203.123-.204.123c.637 1.048 1.655 1.558 3.004 1.546zm-2.798-1.432.204-.121c-.54-.912-.707-2.114-.465-3.631l-.235-.038-.234-.037c-.253 1.585-.09 2.91.525 3.948zm-.496-3.79.235.038c.242-1.499.767-2.67 1.56-3.531l-.174-.161-.175-.161c-.871.946-1.427 2.21-1.68 3.777zm1.62-3.654.175.162C46.092 1.067 47.084.64 48.3.629V.39l-.002-.237c-1.34.011-2.46.489-3.338 1.433zM48.3.391l.002.238c1.207-.01 2.055.438 2.593 1.33l.204-.122.203-.123C50.665.657 49.647.142 48.297.154zm2.799 1.446-.203.123c.547.901.715 2.097.463 3.614l.235.039.234.039c.263-1.586.1-2.908-.526-3.938zm-3.991 6.349.002.238c.591-.006 1.078-.274 1.45-.776.364-.491.616-1.204.775-2.113l-.235-.04-.234-.041c-.152.876-.388 1.505-.688 1.911-.293.396-.646.58-1.072.583zM49.1 5.495l.235.038c.148-.904.139-1.627-.07-2.134a1.27 1.27 0 0 0-.493-.608 1.4 1.4 0 0 0-.775-.199l.002.238.002.238a.93.93 0 0 1 .518.124.8.8 0 0 1 .306.388c.157.381.185.995.041 1.876zM48 2.83l-.003-.238c-.595.006-1.084.274-1.454.777-.361.492-.608 1.205-.757 2.114l.235.038.234.039c.144-.876.373-1.505.671-1.91.29-.394.644-.579 1.075-.582zm-1.98 2.691-.233-.04c-.158.903-.155 1.627.052 2.135.106.26.268.47.492.61.222.14.486.2.779.198l-.002-.238-.002-.238a.95.95 0 0 1-.522-.125.8.8 0 0 1-.305-.386c-.155-.38-.178-.993-.024-1.875zm14.392.015.234.04v-.001zm-1.635 3.668-.174-.16zm-5.95-.088-.205.121.002.003zm-.495-3.79-.235-.038zm1.62-3.654-.174-.162-.001.001zm5.965.088-.204.123zm-1.998 3.658.233.04v-.002zm-3.08.027.234.04v-.002zm5.573.091-.235-.04c-.26 1.52-.79 2.696-1.574 3.548l.175.16.174.161c.862-.936 1.422-2.205 1.694-3.789zm-1.635 3.668-.174-.16c-.766.832-1.752 1.256-2.98 1.266l.002.238.002.238c1.349-.012 2.464-.484 3.325-1.42zm-3.152 1.344-.002-.238c-1.208.01-2.056-.434-2.593-1.317l-.204.123-.203.124c.638 1.047 1.655 1.557 3.004 1.546zm-2.799-1.432.205-.12c-.54-.913-.707-2.114-.465-3.632l-.234-.038-.235-.037c-.253 1.585-.09 2.91.525 3.948zm-.495-3.79.235.038c.242-1.499.767-2.67 1.56-3.53l-.174-.162-.175-.16c-.871.945-1.427 2.21-1.68 3.776zm1.62-3.654.175.162C54.91.99 55.902.563 57.119.552l-.002-.237-.002-.238c-1.34.012-2.46.49-3.338 1.433zM57.118.315l.002.237c1.207-.01 2.055.438 2.593 1.33l.204-.122.203-.122C59.483.58 58.465.065 57.115.077zm2.799 1.445-.203.124c.547.9.715 2.096.463 3.613l.235.04.234.038c.263-1.586.1-2.908-.526-3.938zm-3.991 6.35.002.237c.591-.005 1.078-.274 1.45-.776.364-.491.616-1.203.774-2.112l-.234-.041-.234-.041c-.152.876-.388 1.505-.688 1.911-.293.396-.646.58-1.072.584zm1.992-2.692.235.038c.148-.904.139-1.627-.07-2.134a1.27 1.27 0 0 0-.493-.608c-.22-.14-.484-.2-.775-.198l.002.237.002.238a.93.93 0 0 1 .518.125c.126.08.23.203.306.387.157.381.185.995.041 1.876zm-1.1-2.665-.003-.237c-.595.005-1.084.273-1.454.776-.361.492-.608 1.205-.757 2.114l.235.039.234.038c.144-.876.373-1.504.671-1.91.29-.394.644-.578 1.075-.582zm-1.98 2.692-.234-.041c-.157.903-.154 1.627.053 2.136.106.26.268.468.492.609.222.14.486.2.779.198l-.002-.238-.002-.237a.95.95 0 0 1-.522-.125.8.8 0 0 1-.305-.387c-.155-.38-.178-.993-.024-1.875zm14.392.014.234.04zm-1.635 3.669-.174-.161zm-5.95-.089-.205.122.002.002zm-.495-3.79-.235-.037zm1.62-3.654-.174-.161h-.001zm5.965.088-.204.123zm-1.998 3.658.234.04V5.38zm-3.08.027.234.04v-.002zm5.573.091-.234-.04c-.261 1.52-.791 2.696-1.575 3.548l.174.16.175.162c.862-.937 1.422-2.206 1.694-3.79zm-1.635 3.669-.174-.161c-.766.832-1.752 1.256-2.98 1.267l.002.237.002.238c1.349-.012 2.464-.484 3.325-1.42zm-3.152 1.343-.002-.237c-1.208.01-2.056-.434-2.593-1.318l-.203.123-.203.124c.636 1.048 1.654 1.557 3.003 1.546zM61.644 9.04l.204-.12c-.54-.912-.707-2.114-.465-3.632l-.235-.037-.234-.038c-.253 1.586-.09 2.91.525 3.949zm-.495-3.79.234.039c.242-1.5.767-2.67 1.56-3.532l-.174-.16-.175-.162c-.871.946-1.427 2.21-1.68 3.778zm1.62-3.654.174.162C63.728.914 64.72.486 65.937.475l-.002-.237L65.933 0c-1.34.012-2.46.49-3.338 1.434zM65.935.238l.002.237c1.207-.01 2.056.438 2.593 1.331l.204-.123.203-.122C68.301.504 67.283-.012 65.933 0zm2.799 1.445-.203.124c.547.9.715 2.096.463 3.613l.235.04.234.038c.263-1.586.1-2.908-.526-3.938zm-3.991 6.35.002.237c.591-.005 1.078-.274 1.45-.776.364-.49.616-1.203.775-2.112l-.234-.041-.235-.04c-.152.876-.387 1.505-.688 1.91-.293.396-.646.58-1.072.584zm1.993-2.692.234.038c.148-.903.139-1.627-.07-2.134a1.27 1.27 0 0 0-.493-.608c-.22-.14-.484-.2-.775-.198l.002.237.002.238a.93.93 0 0 1 .518.125c.126.08.23.203.306.388.157.38.186.994.041 1.876zm-1.102-2.665-.002-.237c-.595.005-1.084.273-1.454.776-.361.492-.608 1.205-.757 2.114l.235.039.234.038c.144-.876.373-1.504.671-1.91.29-.393.644-.578 1.075-.582zm-1.978 2.692-.234-.041c-.158.904-.155 1.628.052 2.136.106.26.268.469.492.61.222.139.486.2.779.197l-.002-.238-.002-.237a.95.95 0 0 1-.522-.125.8.8 0 0 1-.305-.387c-.155-.38-.178-.993-.024-1.874zM73.872.323l-.017-.237h-.012L73.83.09zm2.636.453.11-.21-.001-.002zm1.014.69-.178.158.006.006.006.006zm.1.098.172.163.16-.169-.166-.163zm-1.43 1.51.17.167.003-.003zm-.985 1.017.17.167.004-.004zm-.43.48-.237.002.001.19.186.04zm.618.135-.051.232h.004zm.603.12-.047.233.127.026.09-.094zm1.595-1.652.171.165zm1.582-1.637-.002-.238h-.1l-.069.072zm.742-.007.172.164.39-.406-.564.004zm-1.65 1.723-.172-.165-.002.001zm-.334.352.172.164h.001zm-1.29 1.398-.166.17.032.03.041.018zm.323.137-.092.219.005.002zm1 .663.172-.164-.005-.005zm.304 2.742.202.126.005-.01.005-.01zM76.588 9.93l-.09-.22-.007.003zm-3.107.14-.073.226.012.003zm-1.491-.842.163-.173-.01-.008-.009-.007zm-.127-.097-.17-.165-.187.192.213.162zm1.554-1.595.17.166.003-.003zm1.54-1.638.173.163.16-.17-.166-.162zm-1.206-.255.035-.235-.019-.003h-.018zm-1.499 1.525.17.167.002-.003zm-.236.226-.154-.181-.01.008-.008.01zm-1.693 1.779.002.237h.101l.07-.073zm-.77.007-.17-.165-.392.407.564-.005zm1.804-1.878.171.164h.001zm.458-.48-.17-.167-.002.003zm1.234-1.397-.082.223.04.015h.044zm-1.65-1.344-.217.098.002.004zm-.14-1.72-.227-.073-.002.007-.002.007zm1.366 1.01.213-.105-.003-.006-.003-.007zm.903.818-.107.212.003.001zm.756.035-.158-.177zm.639-.65-.17-.166-.003.004zm.291-.296.17.167.002-.003zm1.11-1.158.172.165.162-.17-.167-.164zm-.07-.069-.174.163.007.006zm-.887-.51.076-.225-.003-.001zm-1.484-.057.053.231.008-.002.009-.002zm-1.267.893-.207-.116-.005.01-.005.01zm.686 6.35-.134.196.011.008.012.006zm3.497-.31-.161-.175-.006.005zm-.817-2.22-.087.222.005.002zm-1.629 1.12.172.165zM73.12 8.605l-.172-.165-.195.203.233.158zm.753-8.281.018.237c.219-.017.373-.031.474-.032L74.362.29 74.36.053c-.122 0-.304.018-.505.033zm.49-.033.002.238a4.3 4.3 0 0 1 2.036.46l.108-.212.109-.212A4.8 4.8 0 0 0 74.36.053zm2.147.486-.11.21c.19.1.39.217.563.332.178.119.312.226.382.306l.178-.157.179-.157a2.5 2.5 0 0 0-.475-.387 7 7 0 0 0-.607-.358zm1.013.69-.166.17.099.098.166-.17.167-.17-.099-.097zm.1.098-.173-.163-1.43 1.51.173.164.173.163 1.429-1.51zm-1.43 1.51-.169-.166c-.374.38-.71.722-.99 1.02l.174.163.174.163c.275-.294.606-.631.98-1.013zm-.985 1.017-.17-.166q-.22.226-.333.355a3 3 0 0 0-.118.147.3.3 0 0 0-.032.061.2.2 0 0 0-.014.085l.237-.002.238-.002a.23.23 0 0 1-.033.12q0 .003.009-.011l.07-.084q.101-.116.316-.336zm-.43.48-.05.232.617.135.05-.232.051-.233-.617-.134zm.618.135-.047.233.603.12.047-.233.046-.233-.603-.12zm.603.12.17.165 1.596-1.652-.17-.165-.171-.165-1.596 1.652zm1.595-1.652.171.165 1.582-1.637-.17-.165-.172-.166-1.582 1.638zm1.582-1.637.002.237.364-.003-.002-.238-.002-.237-.364.003zm.364-.004.002.238.378-.003-.002-.238-.002-.238-.378.004zm.378-.003-.171-.164-1.651 1.722.171.164.172.165 1.65-1.723zm-1.65 1.723-.174-.164-.333.353.173.163.173.163.333-.352zm-.334.352-.172-.163q-.656.689-.98 1.04a13 13 0 0 0-.311.35l-.029.042a.26.26 0 0 0-.036.13c0 .037.01.108.072.168l.166-.17.167-.169a.24.24 0 0 1 .04.282q-.008.014-.002.006.01-.015.047-.058.075-.085.235-.259.32-.346.975-1.035zm-1.29 1.398-.093.218.324.138.093-.22.092-.218-.323-.137zm.323.137-.087.22c.414.165.641.338.92.613l.167-.17.167-.17a2.94 2.94 0 0 0-1.079-.714zm1 .663-.172.164c.373.391.56.823.564 1.33l.237-.001.238-.002c-.006-.64-.248-1.185-.695-1.655zm.63 1.493-.238.002c.003.36-.093.73-.3 1.14l.212.107.212.107c.233-.462.355-.906.35-1.358zm-.326 1.249-.201-.126c-.291.464-.947 1.04-1.57 1.292l.09.22.089.22c.716-.29 1.45-.931 1.794-1.48zM76.588 9.93l-.097-.217c-.259.116-.456.18-.68.219-.227.039-.491.052-.888.055l.002.238.002.237c.4-.003.697-.016.965-.062.273-.046.508-.126.793-.253zm-1.663.295-.002-.238a7 7 0 0 1-.743-.018 4 4 0 0 1-.638-.13l-.06.23-.062.23c.286.076.49.12.712.143.22.022.453.023.795.02zm-1.444-.156.074-.226c-.52-.168-1.093-.497-1.402-.788l-.163.173-.163.173c.369.348 1.006.708 1.581.895zm-1.491-.84.144-.19-.127-.096-.144.188-.144.19.127.096zm-.127-.098.17.166 1.554-1.595-.17-.166-.17-.166-1.554 1.596zm1.554-1.595.173.163 1.54-1.638-.173-.163-.173-.162-1.54 1.637zm1.54-1.638.167-.169c-.033-.032-.067-.046-.068-.047l-.045-.016-.04-.011-.117-.028a24 24 0 0 0-1.068-.22l-.035.236-.035.235a24 24 0 0 1 1.161.244l-.005-.002a.2.2 0 0 1-.037-.018.2.2 0 0 1-.044-.034zm-1.206-.255-.002-.238a.24.24 0 0 0-.15.052l-.037.03-.085.08q-.103.1-.291.29-.377.384-1.106 1.147l.172.164.172.164q.728-.762 1.1-1.141a16 16 0 0 1 .35-.345l.007-.006-.019.012a.2.2 0 0 1-.11.028zm-1.499 1.525-.17-.166a5 5 0 0 1-.218.21h-.002v.001l.154.181.154.181.002-.001.017-.016.05-.045q.064-.059.182-.178zm-.236.226-.172-.164-1.693 1.78.172.163.173.164 1.692-1.78zm-1.693 1.779-.002-.238-.364.003.002.238.002.238.364-.004zm-.364.003-.002-.238-.406.004.002.238.002.237.406-.003zm-.406.004.172.164 1.803-1.878-.17-.164-.172-.165-1.804 1.878zm1.804-1.878.172.164.458-.48-.172-.164-.172-.164-.458.48zm.458-.48.17.166c.37-.376.698-.729.927-.988.114-.13.206-.24.266-.319a1 1 0 0 0 .077-.114c.006-.012.03-.055.036-.11a.243.243 0 0 0-.244-.269l.002.237.002.238a.232.232 0 0 1-.22-.308l.006-.013-.01.014-.027.038q-.076.1-.244.291a26 26 0 0 1-.91.97zm1.234-1.397.081-.223c-.746-.273-1.28-.723-1.516-1.222l-.215.101-.215.102c.306.644.957 1.164 1.783 1.465zm-1.65-1.344.217-.097c-.148-.328-.224-.63-.226-.897l-.238.002-.237.003c.003.35.101.718.267 1.087zm-.247-.992.238-.002a2.7 2.7 0 0 1 .098-.668l-.23-.059-.23-.058a3 3 0 0 0-.113.79zm.106-.729.226.073c.294-.921 1.25-1.668 2.43-1.877l-.042-.234-.041-.234c-1.308.232-2.439 1.071-2.8 2.2zm1.367 1.01-.213.105c.187.384.575.706 1.009.926l.107-.212.107-.212c-.382-.194-.671-.454-.797-.71zm.903.819-.104.213c.051.025.147.074.242.115q.073.031.152.057c.047.015.11.03.176.03l-.002-.237-.002-.238c.009 0 .001.001-.032-.009a1 1 0 0 1-.104-.04c-.08-.034-.16-.075-.222-.105zm.464.178.002.237c.164-.001.315-.084.448-.202l-.158-.178-.158-.177c-.089.08-.133.082-.136.082zm.292-.143.158.178q.178-.16.654-.664l-.173-.163-.173-.163c-.32.34-.522.544-.624.635zm.639-.65.17.167.29-.296-.169-.167-.17-.166-.29.296zm.291-.296.172.164 1.11-1.157-.172-.165-.171-.164-1.11 1.158zm1.11-1.158.167-.17-.07-.068-.167.169-.167.17.07.069zm-.07-.069.173-.163a2 2 0 0 0-.441-.325 3 3 0 0 0-.543-.247l-.076.225-.076.225c.145.049.31.125.46.21.151.086.268.173.33.238zm-.887-.51.073-.226a3.2 3.2 0 0 0-1-.13l.002.238.002.237q.52-.003.85.107zm-.925-.118-.002-.238a2.3 2.3 0 0 0-.628.072l.07.227.07.227c.105-.033.258-.049.492-.05zm-.56.06-.052-.231c-.633.145-1.165.552-1.421 1.009l.207.116.208.116c.185-.331.599-.66 1.112-.778zm-1.266.894L72.4 2.28a1.5 1.5 0 0 0-.114.618l.238-.002.237-.003a1 1 0 0 1 .073-.42zm-.093.519-.238.002c.002.2.034.414.133.59l.207-.117.207-.118a.8.8 0 0 1-.072-.36zm.779 5.83-.11.211c.431.227 1.074.383 1.683.378l-.002-.238-.002-.237c-.54.004-1.103-.137-1.459-.323zm1.57.351.003.238c.878-.008 1.588-.234 2.09-.73l-.166-.169-.167-.169c-.386.38-.96.586-1.761.593zm1.927-.66.161.174c.326-.3.52-.655.517-1.062l-.238.002-.237.002c.002.237-.107.472-.364.709zm.44-.886.238-.002c-.006-.664-.587-1.253-1.414-1.555l-.081.224-.082.223c.746.272 1.099.739 1.102 1.112zm-1.257-1.333.086-.222a5 5 0 0 0-.266-.097l-.097-.028a.4.4 0 0 0-.105-.014l.003.238.002.237c-.02 0-.028-.003-.01.001l.06.018q.086.027.24.088zm-.38-.123-.002-.238a.25.25 0 0 0-.129.037l-.045.03a1 1 0 0 0-.084.071 8 8 0 0 0-.25.24q-.317.314-.91.94l.171.163.173.163q.592-.623.9-.928a7 7 0 0 1 .287-.27l-.003.002-.025.012a.2.2 0 0 1-.08.015zm-1.249 1.243-.17-.165-1.236 1.285.171.165.172.164 1.235-1.285zM73.12 8.604l-.134.196.183.124.134-.196.133-.197-.183-.124z" mask="url(#d)"/></g><defs><linearGradient id="b" x1="41.393" x2="41.73" y1="-11.43" y2="27.284" gradientUnits="userSpaceOnUse"><stop offset=".333" stop-color="#fff4cd"/><stop offset=".4" stop-color="#ffe68e"/><stop offset=".477" stop-color="#ffa34e"/><stop offset=".557" stop-color="#fff387"/><stop offset=".726" stop-color="#ffa841"/></linearGradient><linearGradient id="c" x1="41.25" x2="41.407" y1="-1.537" y2="16.462" gradientUnits="userSpaceOnUse"><stop offset=".214" stop-color="#fffdeb"/><stop offset=".505" stop-color="#fff389"/><stop offset=".849" stop-color="#ffe922"/></linearGradient><filter id="a" width="82.546" height="15.354" x="0" y="0" color-interpolation-filters="sRGB" filterUnits="userSpaceOnUse"><feFlood flood-opacity="0" result="BackgroundImageFix"/><feColorMatrix in="SourceAlpha" result="hardAlpha" values="0 0 0 0 0 0 0 0 0 0 0 0 0 0 0 0 0 0 127 0"/><feOffset dy="2.067"/><feGaussianBlur stdDeviation="1.034"/><feComposite in2="hardAlpha" operator="out"/><feColorMatrix values="0 0 0 0 0 0 0 0 0 0 0 0 0 0 0 0 0 0 0.2 0"/><feBlend in2="BackgroundImageFix" result="effect1_dropShadow_129_40253"/><feBlend in="SourceGraphic" in2="effect1_dropShadow_129_40253" result="shape"/></filter></defs></svg>