<svg xmlns="http://www.w3.org/2000/svg" width="75" height="18" fill="none" viewBox="0 0 75 18"><g filter="url(#a)"><mask id="d" width="71" height="14" x="1.53" y="-.607" fill="#000" maskUnits="userSpaceOnUse"><path fill="#fff" d="M1.53-.607h71v14h-71z"/><path d="M10.678 12.393h-8.33l.374-2.21 4.726-4.165q1.31-1.157 1.428-1.853.086-.426-.136-.697-.22-.272-.663-.272-1.02 0-1.802 1.292L3.81 2.975q.8-1.344 2.023-2.04A5.24 5.24 0 0 1 8.468.238q1.667 0 2.703 1.139 1.072 1.122.765 2.873a4.7 4.7 0 0 1-.714 1.802q-.526.78-1.598 1.717L7.652 9.452h3.536zM21.511.493 21 3.4h-4.166l-.323 1.275h.732q1.717 0 2.736 1.105 1.038 1.088.697 3.043-.339 1.869-1.683 2.856-1.343.969-3.161.969-3.23 0-4.132-2.686L14.508 8.5q.374 1.19 1.649 1.19.612 0 1.02-.29.408-.288.493-.798.084-.51-.204-.816-.272-.306-.867-.306h-3.825L14.49.493zm14.031 6.12q-.51 2.82-2.023 4.437-1.496 1.598-3.842 1.598-2.329 0-3.383-1.768-1.037-1.785-.56-4.607.474-2.789 2.005-4.42Q29.27.238 31.6.238t3.382 1.785q1.055 1.767.561 4.59M30.068 9.69q1.852 0 2.448-3.247.561-3.247-1.309-3.247t-2.43 3.247q-.597 3.247 1.29 3.247M46.25 6.613q-.51 2.82-2.023 4.437-1.496 1.598-3.842 1.598-2.329 0-3.383-1.768-1.037-1.785-.56-4.607.474-2.789 2.005-4.42 1.53-1.615 3.86-1.615t3.382 1.785q1.055 1.767.561 4.59M40.776 9.69q1.853 0 2.448-3.247.561-3.247-1.309-3.247t-2.43 3.247q-.596 3.247 1.291 3.247m16.182-3.077q-.51 2.82-2.023 4.437-1.496 1.598-3.842 1.598-2.329 0-3.383-1.768-1.037-1.785-.56-4.607.475-2.789 2.005-4.42 1.53-1.615 3.86-1.615t3.382 1.785q1.055 1.767.561 4.59M51.484 9.69q1.853 0 2.448-3.247.561-3.247-1.309-3.247t-2.43 3.247q-.597 3.247 1.291 3.247M63.596.493h4.624q1.683 0 2.737 1.224 1.071 1.207.765 2.94-.324 1.854-1.615 2.84-1.275.969-3.298.969h-1.581l-.12.68h3.486l-.29 1.683h-3.501l-.272 1.564h-3.043l.272-1.564h-1.105l.289-1.683h1.122l.119-.68H61.08l.476-2.703h1.105zm5.1 4.08q.102-.545-.187-.867-.273-.324-.8-.323h-1.597l-.408 2.38h1.58q.528 0 .919-.323.408-.324.493-.867"/></mask><path fill="url(#b)" d="M10.678 12.393h-8.33l.374-2.21 4.726-4.165q1.31-1.157 1.428-1.853.086-.426-.136-.697-.22-.272-.663-.272-1.02 0-1.802 1.292L3.81 2.975q.8-1.344 2.023-2.04A5.24 5.24 0 0 1 8.468.238q1.667 0 2.703 1.139 1.072 1.122.765 2.873a4.7 4.7 0 0 1-.714 1.802q-.526.78-1.598 1.717L7.652 9.452h3.536zM21.511.493 21 3.4h-4.166l-.323 1.275h.732q1.717 0 2.736 1.105 1.038 1.088.697 3.043-.339 1.869-1.683 2.856-1.343.969-3.161.969-3.23 0-4.132-2.686L14.508 8.5q.374 1.19 1.649 1.19.612 0 1.02-.29.408-.288.493-.798.084-.51-.204-.816-.272-.306-.867-.306h-3.825L14.49.493zm14.031 6.12q-.51 2.82-2.023 4.437-1.496 1.598-3.842 1.598-2.329 0-3.383-1.768-1.037-1.785-.56-4.607.474-2.789 2.005-4.42Q29.27.238 31.6.238t3.382 1.785q1.055 1.767.561 4.59M30.068 9.69q1.852 0 2.448-3.247.561-3.247-1.309-3.247t-2.43 3.247q-.597 3.247 1.29 3.247M46.25 6.613q-.51 2.82-2.023 4.437-1.496 1.598-3.842 1.598-2.329 0-3.383-1.768-1.037-1.785-.56-4.607.474-2.789 2.005-4.42 1.53-1.615 3.86-1.615t3.382 1.785q1.055 1.767.561 4.59M40.776 9.69q1.853 0 2.448-3.247.561-3.247-1.309-3.247t-2.43 3.247q-.596 3.247 1.291 3.247m16.182-3.077q-.51 2.82-2.023 4.437-1.496 1.598-3.842 1.598-2.329 0-3.383-1.768-1.037-1.785-.56-4.607.475-2.789 2.005-4.42 1.53-1.615 3.86-1.615t3.382 1.785q1.055 1.767.561 4.59M51.484 9.69q1.853 0 2.448-3.247.561-3.247-1.309-3.247t-2.43 3.247q-.597 3.247 1.291 3.247M63.596.493h4.624q1.683 0 2.737 1.224 1.071 1.207.765 2.94-.324 1.854-1.615 2.84-1.275.969-3.298.969h-1.581l-.12.68h3.486l-.29 1.683h-3.501l-.272 1.564h-3.043l.272-1.564h-1.105l.289-1.683h1.122l.119-.68H61.08l.476-2.703h1.105zm5.1 4.08q.102-.545-.187-.867-.273-.324-.8-.323h-1.597l-.408 2.38h1.58q.528 0 .919-.323.408-.324.493-.867"/><path fill="url(#c)" d="M10.678 12.393v.237h.2l.034-.197zm-8.33 0-.234-.04-.047.277h.281zm.374-2.21-.157-.179-.063.056-.014.083zm4.726-4.165.157.178zm1.428-1.853-.233-.047v.007zm-.136-.697.185-.15zm-2.465 1.02-.124.202.204.125.124-.204zM3.81 2.975l-.204-.122-.12.201.2.123zM5.833.935 5.716.728zm5.338.442-.175.16.004.004zm.765 2.873.234.042V4.29zm-.714 1.802-.197-.133zM9.624 7.769l.155.18.002-.001zM7.652 9.452l-.154-.181-.49.418h.644zm3.536 0 .234.04.049-.278h-.283zm-.51 2.94v-.237h-8.33v.475h8.33zm-8.33 0 .235.04.374-2.21-.235-.04-.234-.04-.374 2.21zm.374-2.21.158.179 4.726-4.165-.158-.178-.157-.179-4.726 4.165zm4.726-4.164.158.178c.442-.391.792-.75 1.042-1.075.248-.321.413-.629.463-.916l-.235-.04-.234-.04c-.03.176-.142.41-.37.706-.226.293-.55.629-.98 1.008zm1.428-1.853.233.046c.067-.335.018-.644-.184-.893l-.185.15-.184.15c.092.113.134.268.087.5zm-.136-.697.185-.15c-.204-.251-.502-.36-.848-.36v.475c.244 0 .388.073.479.184zm-.663-.272v-.238c-.798 0-1.463.511-2.005 1.407l.203.123.204.123c.5-.828 1.037-1.178 1.598-1.178zM6.275 4.488l.125-.203-2.465-1.513-.125.203-.124.202L6.151 4.69zM3.81 2.975l.205.121c.514-.864 1.16-1.513 1.936-1.955L5.833.935 5.716.728c-.856.487-1.558 1.198-2.11 2.125zM5.833.935l.118.206A5 5 0 0 1 8.468.475V0Q6.995 0 5.716.728zM8.468.238v.237c1.05 0 1.885.356 2.528 1.062l.175-.16.176-.16C10.607.404 9.64 0 8.468 0zm2.703 1.139L11 1.54c.653.685.896 1.562.702 2.668l.234.04.234.041c.215-1.229-.053-2.266-.827-3.077zm.765 2.873-.233-.043a4.5 4.5 0 0 1-.678 1.712l.197.133.197.132q.557-.827.751-1.892zm-.714 1.802-.197-.133c-.335.498-.851 1.055-1.557 1.67l.156.18.157.179c.722-.631 1.271-1.219 1.638-1.764zM9.624 7.769l-.154-.181L7.498 9.27l.154.18.155.181L9.779 7.95zM7.652 9.452v.237h3.536v-.475H7.652zm3.536 0-.234-.041-.51 2.941.234.04.234.041.51-2.94zM21.511.492l.233.042.05-.279h-.284zM21 3.4v.237h.199l.035-.196zm-4.166 0v-.238h-.184l-.046.18zm-.323 1.275-.23-.059-.075.296h.305zM19.98 5.78l-.174.16.002.003zm.697 3.043.234.042v-.002zm-1.683 2.856.14.192h.001zm-7.292-1.717-.11-.211-.18.094.064.192zM14.506 8.5l.226-.072-.085-.27-.251.13zm2.669.9-.138-.193zm.493-.798.234.039zm-.204-.816-.178.157.005.006zm-4.692-.306-.231-.057-.073.294h.304zM14.49.493V.255h-.187l-.044.18zm7.02 0-.234-.041-.51 2.907.235.04.233.042.51-2.907zM21 3.4v-.238h-4.164v.475H21zm-4.164 0-.23-.059-.324 1.275.23.059.23.058.324-1.275zm-.323 1.275v.237h.73v-.475h-.73zm.73 0v.237c1.09 0 1.934.348 2.563 1.029l.174-.161.175-.162c-.732-.792-1.71-1.181-2.911-1.181zm2.738 1.105-.173.163c.624.655.854 1.584.635 2.839l.234.04.235.041c.235-1.351 0-2.45-.76-3.247zm.696 3.043-.233-.043c-.218 1.196-.75 2.09-1.59 2.707l.14.192.141.191c.951-.698 1.54-1.708 1.776-3.005zm-1.683 2.856-.139-.193c-.85.614-1.855.924-3.023.924v.475c1.258 0 2.362-.336 3.302-1.014zm-3.161.969v-.238c-1.045 0-1.88-.217-2.519-.633-.637-.414-1.101-1.038-1.387-1.891l-.226.076-.225.075c.315.938.84 1.657 1.58 2.138.737.48 1.668.71 2.777.71zM11.7 9.962l.11.21 2.805-1.462-.11-.21-.11-.211-2.804 1.462zM14.508 8.5l-.227.07c.136.435.362.78.687 1.015.324.234.726.342 1.188.342v-.475c-.387 0-.685-.09-.91-.253-.225-.162-.399-.412-.512-.77zm1.649 1.19v.237c.446 0 .836-.106 1.157-.333l-.137-.193-.138-.194c-.224.158-.512.245-.883.245zm1.02-.29.137.194c.325-.23.523-.553.59-.953l-.234-.04-.235-.038a.94.94 0 0 1-.396.644zm.493-.798.234.039c.066-.395-.01-.748-.266-1.019l-.172.164-.173.163c.13.137.19.328.142.614zm-.204-.816.177-.158c-.244-.274-.611-.386-1.044-.386v.475c.36 0 .57.093.689.226zm-.867-.306v-.238h-3.825v.475h3.825zm-3.825 0 .23.056L14.72.55l-.23-.056-.231-.057-1.717 6.987zM14.49.493V.73h7.02V.255h-7.02zm21.052 6.12.234.042v-.002zM33.52 11.05l-.173-.163zm-7.225-.17-.205.119.001.002zm-.56-4.607-.235-.04zm2.005-4.42-.172-.164-.001.001zm7.242.17-.205.12.001.001zm-2.465 4.42.234.042v-.002zm-3.74 0 .234.042v-.002zm6.766.17-.234-.043c-.334 1.85-.993 3.282-1.962 4.317l.173.163.174.162c1.047-1.119 1.737-2.644 2.083-4.557zM33.52 11.05l-.173-.163c-.95 1.014-2.165 1.523-3.669 1.523v.475c1.625 0 2.97-.556 4.016-1.673zm-3.842 1.598v-.238c-1.482 0-2.525-.556-3.179-1.652l-.204.122-.204.121c.752 1.261 1.964 1.884 3.587 1.884zm-3.383-1.768.206-.12c-.655-1.126-.844-2.6-.533-4.448l-.234-.04-.234-.039c-.323 1.915-.139 3.512.59 4.766zm-.56-4.607.233.04c.312-1.825.965-3.252 1.945-4.298l-.173-.162-.173-.163c-1.06 1.13-1.744 2.65-2.067 4.543zm2.005-4.42.173.163c.972-1.027 2.195-1.54 3.686-1.54V0c-1.614 0-2.964.563-4.031 1.69zM31.6.238v.237c1.48 0 2.524.56 3.177 1.668l.205-.12.205-.121C34.434.629 33.222 0 31.598 0zm3.382 1.785-.204.121c.664 1.114.854 2.58.531 4.428l.234.04.234.041c.335-1.915.15-3.508-.59-4.752zM30.068 9.69v.237c.7 0 1.28-.312 1.728-.906.44-.584.752-1.437.954-2.536l-.234-.042-.234-.043c-.195 1.066-.49 1.836-.865 2.335-.368.488-.814.717-1.349.717zm2.448-3.247.234.04c.19-1.093.183-1.96-.06-2.564a1.5 1.5 0 0 0-.571-.72c-.258-.166-.566-.241-.912-.241v.475c.277 0 .491.06.655.165.162.105.293.265.387.498.193.478.218 1.235.033 2.306zm-1.309-3.247v-.238c-.705 0-1.287.312-1.733.907-.437.584-.742 1.438-.932 2.537l.234.04.234.041c.184-1.066.472-1.835.845-2.333.364-.487.81-.717 1.352-.717zm-2.43 3.247-.235-.043c-.2 1.093-.202 1.96.039 2.566.123.309.311.554.57.72s.569.241.917.241v-.475c-.28 0-.496-.06-.66-.165a1 1 0 0 1-.386-.497c-.19-.477-.208-1.233-.012-2.305zm17.473.17.234.042v-.002zm-2.023 4.437-.173-.163zm-7.225-.17-.205.119.001.002zm-.56-4.607-.235-.04zm2.005-4.42-.172-.164-.001.001zm7.242.17-.205.12.001.001zm-2.465 4.42.234.042v-.002zm-3.74 0 .234.042v-.002zm6.766.17-.234-.043c-.334 1.85-.993 3.282-1.962 4.317l.173.163.174.162c1.047-1.119 1.737-2.644 2.083-4.557zm-2.023 4.437-.173-.163c-.95 1.014-2.165 1.523-3.669 1.523v.475c1.625 0 2.97-.556 4.016-1.673zm-3.842 1.598v-.238c-1.482 0-2.525-.556-3.179-1.652l-.204.122-.204.121c.752 1.261 1.964 1.884 3.587 1.884zm-3.383-1.768.206-.12c-.655-1.126-.844-2.6-.533-4.448l-.234-.04-.234-.039c-.323 1.915-.139 3.512.59 4.766zm-.56-4.607.233.04c.312-1.825.965-3.252 1.945-4.298l-.173-.162-.173-.163c-1.06 1.13-1.744 2.65-2.067 4.543zm2.005-4.42.173.163c.972-1.027 2.195-1.54 3.686-1.54V0c-1.614 0-2.964.563-4.031 1.69zm3.86-1.615v.237c1.48 0 2.524.56 3.177 1.668l.205-.12.205-.121C45.142.629 43.93 0 42.306 0zm3.382 1.785-.204.121c.664 1.114.854 2.58.531 4.428l.234.04.234.041c.335-1.915.15-3.508-.59-4.752zM40.776 9.69v.237c.7 0 1.28-.312 1.728-.906.44-.584.753-1.437.954-2.536l-.234-.042-.234-.043c-.195 1.066-.489 1.836-.865 2.335-.368.488-.814.717-1.349.717zm2.448-3.247.234.04c.19-1.093.184-1.96-.06-2.564a1.5 1.5 0 0 0-.571-.72c-.258-.166-.566-.241-.912-.241v.475c.277 0 .491.06.655.165.162.105.293.265.387.498.193.478.218 1.235.033 2.306zm-1.309-3.247v-.238c-.705 0-1.287.312-1.733.907-.437.584-.742 1.438-.932 2.537l.234.04.234.041c.184-1.066.472-1.835.845-2.333.364-.487.81-.717 1.352-.717zm-2.43 3.247L39.25 6.4c-.2 1.093-.202 1.96.039 2.566.123.309.311.554.57.72s.569.241.917.241v-.475c-.28 0-.496-.06-.66-.165a1 1 0 0 1-.386-.497c-.19-.477-.208-1.233-.012-2.305zm17.473.17.234.042v-.002zm-2.023 4.437-.173-.163zm-7.225-.17-.205.119.001.002zm-.56-4.607-.235-.04zm2.005-4.42-.172-.164-.001.001zm7.242.17-.204.12v.001zm-2.465 4.42.234.042v-.002zm-3.74 0 .234.042v-.002zm6.766.17-.234-.043c-.334 1.85-.993 3.282-1.962 4.317l.173.163.173.162c1.049-1.119 1.738-2.644 2.084-4.557zm-2.023 4.437-.173-.163c-.95 1.014-2.165 1.523-3.669 1.523v.475c1.625 0 2.97-.556 4.016-1.673zm-3.842 1.598v-.238c-1.482 0-2.525-.556-3.179-1.652l-.204.122-.204.121c.752 1.261 1.964 1.884 3.587 1.884zM47.71 10.88l.206-.12c-.655-1.126-.844-2.6-.533-4.448l-.234-.04-.234-.039c-.323 1.915-.139 3.512.59 4.766zm-.56-4.607.233.04c.312-1.825.965-3.252 1.945-4.298l-.173-.162-.173-.163c-1.06 1.13-1.744 2.65-2.067 4.543zm2.005-4.42.173.163C50.3.989 51.523.476 53.014.476V0C51.4 0 50.05.563 48.983 1.69zm3.86-1.615v.237c1.48 0 2.524.56 3.178 1.668l.204-.12.205-.121C55.85.629 54.638 0 53.014 0zm3.382 1.785-.204.121c.664 1.114.854 2.58.531 4.428l.234.04.234.041c.335-1.915.15-3.508-.59-4.752zM51.484 9.69v.237c.7 0 1.28-.312 1.728-.906.44-.584.752-1.437.954-2.536l-.234-.042-.234-.043c-.195 1.066-.489 1.836-.865 2.335-.368.488-.814.717-1.349.717zm2.448-3.247.234.04c.19-1.093.184-1.96-.06-2.564a1.5 1.5 0 0 0-.571-.72c-.257-.166-.566-.241-.912-.241v.475c.277 0 .491.06.655.165.162.105.293.265.387.498.193.478.218 1.235.033 2.306zm-1.309-3.247v-.238c-.705 0-1.287.312-1.733.907-.437.584-.742 1.438-.932 2.537l.234.04.234.041c.184-1.066.472-1.835.845-2.333.364-.487.81-.717 1.352-.717zm-2.43 3.247-.235-.043c-.2 1.093-.202 1.96.039 2.566.123.309.311.554.57.72s.569.241.917.241v-.475c-.28 0-.496-.06-.66-.165a1 1 0 0 1-.386-.497c-.19-.477-.209-1.233-.012-2.305zM63.595.493V.255h-.2l-.034.196zm7.36 1.224-.18.155.003.002zm.766 2.94-.234-.04zm-1.615 2.84.144.189zm-4.88.969v-.238h-.199l-.034.197zm-.118.68-.234-.041-.05.278h.284zm3.485 0 .234.04.048-.278h-.282zm-.29 1.683v.237h.201l.034-.197zm-3.501 0v-.238h-.2l-.034.197zm-.272 1.564v.237h.2l.034-.197zm-3.043 0-.234-.041-.049.278h.283zm.272-1.564.234.04.048-.278h-.282zm-1.105 0-.235-.04-.047.277h.282zm.289-1.683v-.238h-.2l-.035.197zm1.122 0v.237h.2l.034-.196zm.119-.68.234.04.049-.278h-.283zm-1.105 0-.234-.042-.05.28h.284zm.476-2.703v-.238h-.2l-.034.196zm1.105 0V6h.199l.035-.196zm6.035-1.19-.234-.044-.001.007zm-.187-.867-.182.153.005.005zm-2.397-.323v-.238h-.2l-.035.197zm-.408 2.38-.234-.04-.048.277h.282zm2.499-.323-.148-.187-.004.003zM63.596.493V.73h4.624V.255h-4.624zm4.624 0V.73c1.056 0 1.901.38 2.557 1.142l.18-.155.18-.155C70.387.69 69.407.255 68.22.255zm2.737 1.224-.178.157c.661.745.901 1.65.709 2.742l.234.042.234.04c.215-1.22-.055-2.275-.822-3.14zm.765 2.94-.234-.04c-.207 1.186-.72 2.075-1.525 2.69l.144.19.144.188c.916-.699 1.48-1.702 1.705-2.987zm-1.615 2.84-.144-.19c-.799.608-1.844.921-3.154.921v.475c1.386 0 2.54-.332 3.442-1.017zm-3.298.969v-.238h-1.581v.475h1.58zm-1.581 0-.234-.041-.12.68.235.04.234.042.119-.68zm-.12.68v.237h3.486v-.475h-3.485zm3.486 0-.234-.04-.29 1.682.235.04.234.04.289-1.682zm-.29 1.683v-.238h-3.501v.475h3.502zm-3.501 0-.234-.041-.272 1.564.234.04.234.041.272-1.564zm-.272 1.564v-.238h-3.043v.475h3.043zm-3.043 0 .234.04.272-1.564-.234-.04-.234-.041-.272 1.564zm.272-1.564v-.238h-1.105v.475h1.105zm-1.105 0 .234.04.289-1.683-.234-.04-.235-.04-.289 1.682zm.289-1.683v.237h1.122v-.475h-1.122zm1.122 0 .234.04.119-.68-.234-.04-.234-.041-.12.68zm.119-.68v-.238H61.08v.475h1.105zm-1.105 0 .234.04.476-2.702-.234-.041-.234-.042-.476 2.703zm.476-2.703V6h1.105v-.475h-1.105zm1.105 0 .234.041.935-5.27-.234-.041-.234-.042-.935 5.27zm6.035-1.19.233.043c.078-.413.012-.784-.243-1.069l-.177.159-.177.158c.13.146.189.353.13.665zm-.187-.867.181-.153c-.237-.282-.578-.408-.98-.408v.475c.3 0 .492.09.617.239zm-.8-.323v-.238h-1.597v.475h1.598zm-1.597 0-.234-.04-.409 2.38.235.04.234.04.408-2.38zm-.408 2.38V6h1.58v-.475h-1.58zm1.58 0V6c.405 0 .765-.125 1.07-.377l-.151-.183-.152-.184a1.16 1.16 0 0 1-.766.269zm.919-.323.147.186a1.56 1.56 0 0 0 .58-1.017l-.234-.036-.235-.037a1.1 1.1 0 0 1-.406.717z" mask="url(#d)"/></g><defs><linearGradient id="b" x1="37.232" x2="37.232" y1="-14.147" y2="31.021" gradientUnits="userSpaceOnUse"><stop offset=".333" stop-color="#fff4cd"/><stop offset=".4" stop-color="#ffe68e"/><stop offset=".477" stop-color="#ffa34e"/><stop offset=".557" stop-color="#fff387"/><stop offset=".726" stop-color="#ffa841"/></linearGradient><linearGradient id="c" x1="37.029" x2="37.029" y1="-2.607" y2="18.393" gradientUnits="userSpaceOnUse"><stop offset=".214" stop-color="#fffdeb"/><stop offset=".505" stop-color="#fff389"/><stop offset=".849" stop-color="#ffe922"/></linearGradient><filter id="a" width="74.094" height="17.02" x="0" y="0" color-interpolation-filters="sRGB" filterUnits="userSpaceOnUse"><feFlood flood-opacity="0" result="BackgroundImageFix"/><feColorMatrix in="SourceAlpha" result="hardAlpha" values="0 0 0 0 0 0 0 0 0 0 0 0 0 0 0 0 0 0 127 0"/><feOffset dy="2.067"/><feGaussianBlur stdDeviation="1.034"/><feComposite in2="hardAlpha" operator="out"/><feColorMatrix values="0 0 0 0 0 0 0 0 0 0 0 0 0 0 0 0 0 0 0.2 0"/><feBlend in2="BackgroundImageFix" result="effect1_dropShadow_121_40131"/><feBlend in="SourceGraphic" in2="effect1_dropShadow_121_40131" result="shape"/></filter></defs></svg>