<svg width="181" height="30" viewBox="0 0 181 30" fill="none" xmlns="http://www.w3.org/2000/svg">
<g filter="url(#filter0_d_64_39794)">
<path d="M13.5881 10.5202C14.5481 10.5202 15.4481 10.6882 16.2881 11.0242C17.1281 11.3602 17.8601 11.8642 18.4841 12.5362C19.1081 13.1842 19.6001 13.9882 19.9601 14.9482C20.3201 15.8842 20.5001 16.9642 20.5001 18.1882C20.5001 19.4362 20.2601 20.6002 19.7801 21.6802C19.3241 22.7602 18.6761 23.6842 17.8361 24.4522C16.9961 25.2202 16.0001 25.8322 14.8481 26.2882C13.7201 26.7202 12.4841 26.9362 11.1401 26.9362C8.52414 26.9362 6.41214 26.2882 4.80414 24.9922C3.19614 23.6722 2.27214 21.8122 2.03214 19.4122L7.32414 18.8002C7.44414 19.8802 7.84014 20.7202 8.51214 21.3202C9.18414 21.9202 10.0601 22.2202 11.1401 22.2202C12.3161 22.2202 13.2761 21.8482 14.0201 21.1042C14.7881 20.3362 15.1721 19.3642 15.1721 18.1882C15.1721 17.0122 14.8121 16.0522 14.0921 15.3082C13.3961 14.5402 12.4721 14.1562 11.3201 14.1562C9.56814 14.1562 8.32014 14.8522 7.57614 16.2442L2.78814 15.6682L4.55214 1.37617L18.5561 1.37617V5.94817H8.62014L7.54014 14.3362C8.57214 11.7922 10.5881 10.5202 13.5881 10.5202ZM48.2066 23.2282C46.2626 25.7002 43.8026 26.9362 40.8266 26.9362C39.3386 26.9362 37.9586 26.6122 36.6866 25.9642C35.4386 25.2922 34.3466 24.3802 33.4106 23.2282C32.4986 22.0762 31.7786 20.7082 31.2506 19.1242C30.7466 17.5402 30.4946 15.8242 30.4946 13.9762C30.4946 12.1282 30.7466 10.4122 31.2506 8.82817C31.7786 7.24417 32.4986 5.87617 33.4106 4.72417C34.3466 3.57217 35.4386 2.67217 36.6866 2.02417C37.9586 1.35217 39.3386 1.01617 40.8266 1.01617C43.8026 1.01617 46.2626 2.25217 48.2066 4.72417C49.2626 6.04417 50.0546 7.50817 50.5826 9.11617C51.1106 10.7002 51.3746 12.3202 51.3746 13.9762C51.3746 15.6322 51.1106 17.2522 50.5826 18.8362C50.0546 20.4202 49.2626 21.8842 48.2066 23.2282ZM44.3906 8.07217C43.4546 6.51217 42.2666 5.73217 40.8266 5.73217C40.1066 5.73217 39.4346 5.93617 38.8106 6.34417C38.2106 6.75217 37.6826 7.32817 37.2266 8.07217C36.7946 8.81617 36.4466 9.69217 36.1826 10.7002C35.9426 11.6842 35.8226 12.7762 35.8226 13.9762C35.8226 15.1522 35.9426 16.2442 36.1826 17.2522C36.4466 18.2602 36.7946 19.1362 37.2266 19.8802C37.6826 20.6242 38.2106 21.2002 38.8106 21.6082C39.4346 22.0162 40.1066 22.2202 40.8266 22.2202C42.2666 22.2202 43.4546 21.4402 44.3906 19.8802C44.9186 19.0162 45.3146 18.0802 45.5786 17.0722C45.8426 16.0402 45.9746 15.0082 45.9746 13.9762C45.9746 12.9442 45.8426 11.9242 45.5786 10.9162C45.3146 9.88417 44.9186 8.93617 44.3906 8.07217ZM69.8207 23.2282C67.8767 25.7002 65.4167 26.9362 62.4407 26.9362C60.9527 26.9362 59.5727 26.6122 58.3007 25.9642C57.0527 25.2922 55.9607 24.3802 55.0247 23.2282C54.1127 22.0762 53.3927 20.7082 52.8647 19.1242C52.3607 17.5402 52.1087 15.8242 52.1087 13.9762C52.1087 12.1282 52.3607 10.4122 52.8647 8.82817C53.3927 7.24417 54.1127 5.87617 55.0247 4.72417C55.9607 3.57217 57.0527 2.67217 58.3007 2.02417C59.5727 1.35217 60.9527 1.01617 62.4407 1.01617C65.4167 1.01617 67.8767 2.25217 69.8207 4.72417C70.8767 6.04417 71.6687 7.50817 72.1967 9.11617C72.7247 10.7002 72.9887 12.3202 72.9887 13.9762C72.9887 15.6322 72.7247 17.2522 72.1967 18.8362C71.6687 20.4202 70.8767 21.8842 69.8207 23.2282ZM66.0047 8.07217C65.0687 6.51217 63.8807 5.73217 62.4407 5.73217C61.7207 5.73217 61.0487 5.93617 60.4247 6.34417C59.8247 6.75217 59.2967 7.32817 58.8407 8.07217C58.4087 8.81617 58.0607 9.69217 57.7967 10.7002C57.5567 11.6842 57.4367 12.7762 57.4367 13.9762C57.4367 15.1522 57.5567 16.2442 57.7967 17.2522C58.0607 18.2602 58.4087 19.1362 58.8407 19.8802C59.2967 20.6242 59.8247 21.2002 60.4247 21.6082C61.0487 22.0162 61.7207 22.2202 62.4407 22.2202C63.8807 22.2202 65.0687 21.4402 66.0047 19.8802C66.5327 19.0162 66.9287 18.0802 67.1927 17.0722C67.4567 16.0402 67.5887 15.0082 67.5887 13.9762C67.5887 12.9442 67.4567 11.9242 67.1927 10.9162C66.9287 9.88417 66.5327 8.93617 66.0047 8.07217ZM91.4348 23.2282C89.4908 25.7002 87.0308 26.9362 84.0548 26.9362C82.5668 26.9362 81.1868 26.6122 79.9148 25.9642C78.6668 25.2922 77.5748 24.3802 76.6388 23.2282C75.7268 22.0762 75.0068 20.7082 74.4788 19.1242C73.9748 17.5402 73.7228 15.8242 73.7228 13.9762C73.7228 12.1282 73.9748 10.4122 74.4788 8.82817C75.0068 7.24417 75.7268 5.87617 76.6388 4.72417C77.5748 3.57217 78.6668 2.67217 79.9148 2.02417C81.1868 1.35217 82.5668 1.01617 84.0548 1.01617C87.0308 1.01617 89.4908 2.25217 91.4348 4.72417C92.4908 6.04417 93.2828 7.50817 93.8108 9.11617C94.3388 10.7002 94.6028 12.3202 94.6028 13.9762C94.6028 15.6322 94.3388 17.2522 93.8108 18.8362C93.2828 20.4202 92.4908 21.8842 91.4348 23.2282ZM87.6188 8.07217C86.6828 6.51217 85.4948 5.73217 84.0548 5.73217C83.3348 5.73217 82.6628 5.93617 82.0388 6.34417C81.4388 6.75217 80.9108 7.32817 80.4548 8.07217C80.0228 8.81617 79.6748 9.69217 79.4108 10.7002C79.1708 11.6842 79.0508 12.7762 79.0508 13.9762C79.0508 15.1522 79.1708 16.2442 79.4108 17.2522C79.6748 18.2602 80.0228 19.1362 80.4548 19.8802C80.9108 20.6242 81.4388 21.2002 82.0388 21.6082C82.6628 22.0162 83.3348 22.2202 84.0548 22.2202C85.4948 22.2202 86.6828 21.4402 87.6188 19.8802C88.1468 19.0162 88.5428 18.0802 88.8068 17.0722C89.0708 16.0402 89.2028 15.0082 89.2028 13.9762C89.2028 12.9442 89.0708 11.9242 88.8068 10.9162C88.5428 9.88417 88.1468 8.93617 87.6188 8.07217ZM122.429 23.2282C120.485 25.7002 118.025 26.9362 115.049 26.9362C113.561 26.9362 112.181 26.6122 110.909 25.9642C109.661 25.2922 108.569 24.3802 107.633 23.2282C106.721 22.0762 106.001 20.7082 105.473 19.1242C104.969 17.5402 104.717 15.8242 104.717 13.9762C104.717 12.1282 104.969 10.4122 105.473 8.82817C106.001 7.24417 106.721 5.87617 107.633 4.72417C108.569 3.57217 109.661 2.67217 110.909 2.02417C112.181 1.35217 113.561 1.01617 115.049 1.01617C118.025 1.01617 120.485 2.25217 122.429 4.72417C123.485 6.04417 124.277 7.50817 124.805 9.11617C125.333 10.7002 125.597 12.3202 125.597 13.9762C125.597 15.6322 125.333 17.2522 124.805 18.8362C124.277 20.4202 123.485 21.8842 122.429 23.2282ZM118.613 8.07217C117.677 6.51217 116.489 5.73217 115.049 5.73217C114.329 5.73217 113.657 5.93617 113.033 6.34417C112.433 6.75217 111.905 7.32817 111.449 8.07217C111.017 8.81617 110.669 9.69217 110.405 10.7002C110.165 11.6842 110.045 12.7762 110.045 13.9762C110.045 15.1522 110.165 16.2442 110.405 17.2522C110.669 18.2602 111.017 19.1362 111.449 19.8802C111.905 20.6242 112.433 21.2002 113.033 21.6082C113.657 22.0162 114.329 22.2202 115.049 22.2202C116.489 22.2202 117.677 21.4402 118.613 19.8802C119.141 19.0162 119.537 18.0802 119.801 17.0722C120.065 16.0402 120.197 15.0082 120.197 13.9762C120.197 12.9442 120.065 11.9242 119.801 10.9162C119.537 9.88417 119.141 8.93617 118.613 8.07217ZM144.043 23.2282C142.099 25.7002 139.639 26.9362 136.663 26.9362C135.175 26.9362 133.795 26.6122 132.523 25.9642C131.275 25.2922 130.183 24.3802 129.247 23.2282C128.335 22.0762 127.615 20.7082 127.087 19.1242C126.583 17.5402 126.331 15.8242 126.331 13.9762C126.331 12.1282 126.583 10.4122 127.087 8.82817C127.615 7.24417 128.335 5.87617 129.247 4.72417C130.183 3.57217 131.275 2.67217 132.523 2.02417C133.795 1.35217 135.175 1.01617 136.663 1.01617C139.639 1.01617 142.099 2.25217 144.043 4.72417C145.099 6.04417 145.891 7.50817 146.419 9.11617C146.947 10.7002 147.211 12.3202 147.211 13.9762C147.211 15.6322 146.947 17.2522 146.419 18.8362C145.891 20.4202 145.099 21.8842 144.043 23.2282ZM140.227 8.07217C139.291 6.51217 138.103 5.73217 136.663 5.73217C135.943 5.73217 135.271 5.93617 134.647 6.34417C134.047 6.75217 133.519 7.32817 133.063 8.07217C132.631 8.81617 132.283 9.69217 132.019 10.7002C131.779 11.6842 131.659 12.7762 131.659 13.9762C131.659 15.1522 131.779 16.2442 132.019 17.2522C132.283 18.2602 132.631 19.1362 133.063 19.8802C133.519 20.6242 134.047 21.2002 134.647 21.6082C135.271 22.0162 135.943 22.2202 136.663 22.2202C138.103 22.2202 139.291 21.4402 140.227 19.8802C140.755 19.0162 141.151 18.0802 141.415 17.0722C141.679 16.0402 141.811 15.0082 141.811 13.9762C141.811 12.9442 141.679 11.9242 141.415 10.9162C141.151 9.88417 140.755 8.93617 140.227 8.07217ZM170.464 21.5362C171.208 21.0082 171.58 20.3122 171.58 19.4482C171.58 18.8002 171.34 18.2722 170.86 17.8642C170.404 17.4322 169.828 17.1082 169.132 16.8922L163.588 20.8162L164.236 21.4642C165.076 22.0642 166.156 22.3642 167.476 22.3642C168.7 22.3642 169.696 22.0882 170.464 21.5362ZM164.164 9.80017C164.572 10.1122 165.112 10.4002 165.784 10.6642L170.68 7.20817C170.584 7.08817 170.476 6.98017 170.356 6.88417C170.26 6.76417 170.152 6.64417 170.032 6.52417C169.288 5.87617 168.304 5.55217 167.08 5.55217C165.976 5.55217 165.088 5.79217 164.416 6.27217C163.72 6.84817 163.372 7.50817 163.372 8.25217C163.372 8.90017 163.636 9.41617 164.164 9.80017ZM174.136 13.7242C175 14.3242 175.66 15.0682 176.116 15.9562C176.596 16.8682 176.836 17.9842 176.836 19.3042C176.836 21.4402 175.924 23.2042 174.1 24.5962C172.276 26.0362 170.02 26.7562 167.332 26.7562C166.444 26.7562 165.556 26.6842 164.668 26.5402C163.78 26.3722 162.94 26.1082 162.148 25.7482C161.356 25.3882 160.624 24.9082 159.952 24.3082C159.28 23.7082 158.728 22.9762 158.296 22.1122L158.476 22.0042L166.648 16.1722C166.552 16.1002 166.432 16.0642 166.288 16.0642C165.904 15.9682 165.472 15.8482 164.992 15.7042C164.536 15.5602 164.02 15.3802 163.444 15.1642C163.42 15.1642 163.336 15.1282 163.192 15.0562L156.928 19.5202L155.74 17.8642L161.068 14.0482C160.924 13.9522 160.84 13.8922 160.816 13.8682C160.096 13.4602 159.46 12.7642 158.908 11.7802C158.38 10.8202 158.116 9.74017 158.116 8.54017C158.116 6.45217 159.004 4.70017 160.78 3.28417C162.628 1.86817 164.788 1.16017 167.26 1.16017C168.004 1.16017 168.7 1.20817 169.348 1.30417C170.02 1.37617 170.656 1.53217 171.256 1.77217C171.88 1.98817 172.468 2.30017 173.02 2.70817C173.596 3.11617 174.172 3.64417 174.748 4.29217H174.784L174.82 4.32817C175.228 4.80817 175.612 5.33617 175.972 5.91217L171.508 9.11617L168.304 11.4202C168.544 11.4682 168.664 11.4922 168.664 11.4922C169.36 11.7082 169.948 11.9002 170.428 12.0682C170.908 12.2122 171.28 12.3322 171.544 12.4282C171.568 12.4522 171.604 12.4642 171.652 12.4642C171.676 12.4642 171.7 12.4762 171.724 12.5002L177.304 8.54017L178.492 10.1602L173.848 13.5082C173.872 13.5802 173.968 13.6522 174.136 13.7242Z" fill="url(#paint0_linear_64_39794)"/>
</g>
<defs>
<filter id="filter0_d_64_39794" x="-2.36034e-05" y="-1.18017e-05" width="180.525" height="29.9847" filterUnits="userSpaceOnUse" color-interpolation-filters="sRGB">
<feFlood flood-opacity="0" result="BackgroundImageFix"/>
<feColorMatrix in="SourceAlpha" type="matrix" values="0 0 0 0 0 0 0 0 0 0 0 0 0 0 0 0 0 0 127 0" result="hardAlpha"/>
<feOffset dy="1.01613"/>
<feGaussianBlur stdDeviation="1.01613"/>
<feComposite in2="hardAlpha" operator="out"/>
<feColorMatrix type="matrix" values="0 0 0 0 0 0 0 0 0 0 0 0 0 0 0 0 0 0 0.25 0"/>
<feBlend mode="normal" in2="BackgroundImageFix" result="effect1_dropShadow_64_39794"/>
<feBlend mode="normal" in="SourceGraphic" in2="effect1_dropShadow_64_39794" result="shape"/>
</filter>
<linearGradient id="paint0_linear_64_39794" x1="89.9924" y1="-41.6455" x2="89.9924" y2="76.6509" gradientUnits="userSpaceOnUse">
<stop offset="0.33274" stop-color="#FFF4CD"/>
<stop offset="0.400099" stop-color="#FFE68E"/>
<stop offset="0.476571" stop-color="#FFA34E"/>
<stop offset="0.557142" stop-color="#FFF387"/>
<stop offset="0.725754" stop-color="#FFA841"/>
</linearGradient>
</defs>
</svg>
