<svg width="149" height="30" viewBox="0 0 149 30" fill="none" xmlns="http://www.w3.org/2000/svg">
<g filter="url(#filter0_d_64_35474)">
<path d="M19.7081 1.37617L19.7081 17.2522H22.8041V21.7882H19.7081V26.5762H14.5601L14.5601 21.7882H2.03214L2.03214 17.2522L10.2041 1.37617L19.7081 1.37617ZM14.5601 2.92417L7.21614 17.2522H14.5601V2.92417ZM41.181 23.2282C39.237 25.7002 36.777 26.9362 33.801 26.9362C32.313 26.9362 30.933 26.6122 29.661 25.9642C28.413 25.2922 27.321 24.3802 26.385 23.2282C25.473 22.0762 24.753 20.7082 24.225 19.1242C23.721 17.5402 23.469 15.8242 23.469 13.9762C23.469 12.1282 23.721 10.4122 24.225 8.82817C24.753 7.24417 25.473 5.87617 26.385 4.72417C27.321 3.57217 28.413 2.67217 29.661 2.02417C30.933 1.35217 32.313 1.01617 33.801 1.01617C36.777 1.01617 39.237 2.25217 41.181 4.72417C42.237 6.04417 43.029 7.50817 43.557 9.11617C44.085 10.7002 44.349 12.3202 44.349 13.9762C44.349 15.6322 44.085 17.2522 43.557 18.8362C43.029 20.4202 42.237 21.8842 41.181 23.2282ZM37.365 8.07217C36.429 6.51217 35.241 5.73217 33.801 5.73217C33.081 5.73217 32.409 5.93617 31.785 6.34417C31.185 6.75217 30.657 7.32817 30.201 8.07217C29.769 8.81617 29.421 9.69217 29.157 10.7002C28.917 11.6842 28.797 12.7762 28.797 13.9762C28.797 15.1522 28.917 16.2442 29.157 17.2522C29.421 18.2602 29.769 19.1362 30.201 19.8802C30.657 20.6242 31.185 21.2002 31.785 21.6082C32.409 22.0162 33.081 22.2202 33.801 22.2202C35.241 22.2202 36.429 21.4402 37.365 19.8802C37.893 19.0162 38.289 18.0802 38.553 17.0722C38.817 16.0402 38.949 15.0082 38.949 13.9762C38.949 12.9442 38.817 11.9242 38.553 10.9162C38.289 9.88417 37.893 8.93617 37.365 8.07217ZM72.1748 23.2282C70.2308 25.7002 67.7708 26.9362 64.7948 26.9362C63.3068 26.9362 61.9268 26.6122 60.6548 25.9642C59.4068 25.2922 58.3148 24.3802 57.3788 23.2282C56.4668 22.0762 55.7468 20.7082 55.2188 19.1242C54.7148 17.5402 54.4628 15.8242 54.4628 13.9762C54.4628 12.1282 54.7148 10.4122 55.2188 8.82817C55.7468 7.24417 56.4668 5.87617 57.3788 4.72417C58.3148 3.57217 59.4068 2.67217 60.6548 2.02417C61.9268 1.35217 63.3068 1.01617 64.7948 1.01617C67.7708 1.01617 70.2308 2.25217 72.1748 4.72417C73.2308 6.04417 74.0228 7.50817 74.5508 9.11617C75.0788 10.7002 75.3428 12.3202 75.3428 13.9762C75.3428 15.6322 75.0788 17.2522 74.5508 18.8362C74.0228 20.4202 73.2308 21.8842 72.1748 23.2282ZM68.3588 8.07217C67.4228 6.51217 66.2348 5.73217 64.7948 5.73217C64.0748 5.73217 63.4028 5.93617 62.7788 6.34417C62.1788 6.75217 61.6508 7.32817 61.1948 8.07217C60.7628 8.81617 60.4148 9.69217 60.1508 10.7002C59.9108 11.6842 59.7908 12.7762 59.7908 13.9762C59.7908 15.1522 59.9108 16.2442 60.1508 17.2522C60.4148 18.2602 60.7628 19.1362 61.1948 19.8802C61.6508 20.6242 62.1788 21.2002 62.7788 21.6082C63.4028 22.0162 64.0748 22.2202 64.7948 22.2202C66.2348 22.2202 67.4228 21.4402 68.3588 19.8802C68.8868 19.0162 69.2828 18.0802 69.5468 17.0722C69.8108 16.0402 69.9428 15.0082 69.9428 13.9762C69.9428 12.9442 69.8108 11.9242 69.5468 10.9162C69.2828 9.88417 68.8868 8.93617 68.3588 8.07217ZM93.7888 23.2282C91.8448 25.7002 89.3848 26.9362 86.4088 26.9362C84.9208 26.9362 83.5408 26.6122 82.2688 25.9642C81.0208 25.2922 79.9288 24.3802 78.9928 23.2282C78.0808 22.0762 77.3608 20.7082 76.8328 19.1242C76.3288 17.5402 76.0768 15.8242 76.0768 13.9762C76.0768 12.1282 76.3288 10.4122 76.8328 8.82817C77.3608 7.24417 78.0808 5.87617 78.9928 4.72417C79.9288 3.57217 81.0208 2.67217 82.2688 2.02417C83.5408 1.35217 84.9208 1.01617 86.4088 1.01617C89.3848 1.01617 91.8448 2.25217 93.7888 4.72417C94.8448 6.04417 95.6368 7.50817 96.1648 9.11617C96.6928 10.7002 96.9568 12.3202 96.9568 13.9762C96.9568 15.6322 96.6928 17.2522 96.1648 18.8362C95.6368 20.4202 94.8448 21.8842 93.7888 23.2282ZM89.9728 8.07217C89.0368 6.51217 87.8488 5.73217 86.4088 5.73217C85.6888 5.73217 85.0168 5.93617 84.3928 6.34417C83.7928 6.75217 83.2648 7.32817 82.8088 8.07217C82.3768 8.81617 82.0288 9.69217 81.7648 10.7002C81.5248 11.6842 81.4048 12.7762 81.4048 13.9762C81.4048 15.1522 81.5248 16.2442 81.7648 17.2522C82.0288 18.2602 82.3768 19.1362 82.8088 19.8802C83.2648 20.6242 83.7928 21.2002 84.3928 21.6082C85.0168 22.0162 85.6888 22.2202 86.4088 22.2202C87.8488 22.2202 89.0368 21.4402 89.9728 19.8802C90.5008 19.0162 90.8968 18.0802 91.1608 17.0722C91.4248 16.0402 91.5568 15.0082 91.5568 13.9762C91.5568 12.9442 91.4248 11.9242 91.1608 10.9162C90.8968 9.88417 90.5008 8.93617 89.9728 8.07217ZM115.403 23.2282C113.459 25.7002 110.999 26.9362 108.023 26.9362C106.535 26.9362 105.155 26.6122 103.883 25.9642C102.635 25.2922 101.543 24.3802 100.607 23.2282C99.6949 22.0762 98.9749 20.7082 98.4469 19.1242C97.9429 17.5402 97.6909 15.8242 97.6909 13.9762C97.6909 12.1282 97.9429 10.4122 98.4469 8.82817C98.9749 7.24417 99.6949 5.87617 100.607 4.72417C101.543 3.57217 102.635 2.67217 103.883 2.02417C105.155 1.35217 106.535 1.01617 108.023 1.01617C110.999 1.01617 113.459 2.25217 115.403 4.72417C116.459 6.04417 117.251 7.50817 117.779 9.11617C118.307 10.7002 118.571 12.3202 118.571 13.9762C118.571 15.6322 118.307 17.2522 117.779 18.8362C117.251 20.4202 116.459 21.8842 115.403 23.2282ZM111.587 8.07217C110.651 6.51217 109.463 5.73217 108.023 5.73217C107.303 5.73217 106.631 5.93617 106.007 6.34417C105.407 6.75217 104.879 7.32817 104.423 8.07217C103.991 8.81617 103.643 9.69217 103.379 10.7002C103.139 11.6842 103.019 12.7762 103.019 13.9762C103.019 15.1522 103.139 16.2442 103.379 17.2522C103.643 18.2602 103.991 19.1362 104.423 19.8802C104.879 20.6242 105.407 21.2002 106.007 21.6082C106.631 22.0162 107.303 22.2202 108.023 22.2202C109.463 22.2202 110.651 21.4402 111.587 19.8802C112.115 19.0162 112.511 18.0802 112.775 17.0722C113.039 16.0402 113.171 15.0082 113.171 13.9762C113.171 12.9442 113.039 11.9242 112.775 10.9162C112.511 9.88417 112.115 8.93617 111.587 8.07217ZM146.613 14.9482L146.433 15.3802C145.713 17.0362 144.549 18.3802 142.941 19.4122C141.237 20.5402 139.365 21.1042 137.325 21.1042C134.469 21.1042 132.057 20.1202 130.089 18.1522C128.097 16.2082 127.101 13.8442 127.101 11.0602C127.101 8.22817 128.097 5.84017 130.089 3.89617C132.009 2.00017 134.421 1.05217 137.325 1.05217C139.533 1.05217 141.405 1.60417 142.941 2.70817C144.573 3.74017 145.737 5.06017 146.433 6.66817L146.613 7.06417L142.329 8.79217L142.149 8.39617C141.621 7.43617 140.997 6.70417 140.277 6.20017C139.461 5.62417 138.477 5.33617 137.325 5.33617C135.789 5.33617 134.517 5.88817 133.509 6.99217C132.453 8.04817 131.925 9.40417 131.925 11.0602C131.925 12.6202 132.453 13.9642 133.509 15.0922C134.517 16.1722 135.789 16.7122 137.325 16.7122C138.381 16.7122 139.365 16.4362 140.277 15.8842C140.997 15.3562 141.621 14.6122 142.149 13.6522L142.329 13.2922L146.613 14.9482ZM146.649 22.0042V26.5042L127.137 26.5042L127.101 22.0042L146.649 22.0042Z" fill="url(#paint0_linear_64_35474)"/>
</g>
<defs>
<filter id="filter0_d_64_35474" x="-2.36034e-05" y="-1.18017e-05" width="148.681" height="29.9847" filterUnits="userSpaceOnUse" color-interpolation-filters="sRGB">
<feFlood flood-opacity="0" result="BackgroundImageFix"/>
<feColorMatrix in="SourceAlpha" type="matrix" values="0 0 0 0 0 0 0 0 0 0 0 0 0 0 0 0 0 0 127 0" result="hardAlpha"/>
<feOffset dy="1.01613"/>
<feGaussianBlur stdDeviation="1.01613"/>
<feComposite in2="hardAlpha" operator="out"/>
<feColorMatrix type="matrix" values="0 0 0 0 0 0 0 0 0 0 0 0 0 0 0 0 0 0 0.25 0"/>
<feBlend mode="normal" in2="BackgroundImageFix" result="effect1_dropShadow_64_35474"/>
<feBlend mode="normal" in="SourceGraphic" in2="effect1_dropShadow_64_35474" result="shape"/>
</filter>
<linearGradient id="paint0_linear_64_35474" x1="74.6932" y1="-41.6455" x2="74.6932" y2="76.6509" gradientUnits="userSpaceOnUse">
<stop offset="0.33274" stop-color="#FFF4CD"/>
<stop offset="0.400099" stop-color="#FFE68E"/>
<stop offset="0.476571" stop-color="#FFA34E"/>
<stop offset="0.557142" stop-color="#FFF387"/>
<stop offset="0.725754" stop-color="#FFA841"/>
</linearGradient>
</defs>
</svg>
