<svg width="170" height="30" viewBox="0 0 170 30" fill="none" xmlns="http://www.w3.org/2000/svg">
<g filter="url(#filter0_d_64_39825)">
<path d="M9.73629 22.0042H20.4283V26.5762H2.14029L2.14029 22.6162L12.6883 12.8602C14.0803 11.5642 14.7763 10.2442 14.7763 8.90017C14.7763 7.89217 14.4403 7.11217 13.7683 6.56017C13.0963 6.00817 12.2203 5.73217 11.1403 5.73217C9.96429 5.73217 9.04029 6.09217 8.36829 6.81217C7.69629 7.50817 7.36029 8.50417 7.36029 9.80017H2.03229C2.03229 8.43217 2.24829 7.20817 2.68029 6.12817C3.13629 5.04817 3.77229 4.13617 4.58829 3.39217C5.40429 2.62417 6.37629 2.03617 7.50429 1.62817C8.65629 1.22017 9.91629 1.01617 11.2843 1.01617C12.6283 1.01617 13.8403 1.19617 14.9203 1.55617C16.0003 1.91617 16.9123 2.43217 17.6563 3.10417C18.4243 3.77617 19.0123 4.59217 19.4203 5.55217C19.8523 6.51217 20.0683 7.59217 20.0683 8.79217C20.0683 11.5042 18.7003 14.0722 15.9643 16.4962L9.73629 22.0042ZM38.9584 23.2282C37.0144 25.7002 34.5544 26.9362 31.5784 26.9362C30.0904 26.9362 28.7104 26.6122 27.4384 25.9642C26.1904 25.2922 25.0984 24.3802 24.1624 23.2282C23.2504 22.0762 22.5304 20.7082 22.0024 19.1242C21.4984 17.5402 21.2464 15.8242 21.2464 13.9762C21.2464 12.1282 21.4984 10.4122 22.0024 8.82817C22.5304 7.24417 23.2504 5.87617 24.1624 4.72417C25.0984 3.57217 26.1904 2.67217 27.4384 2.02417C28.7104 1.35217 30.0904 1.01617 31.5784 1.01617C34.5544 1.01617 37.0144 2.25217 38.9584 4.72417C40.0145 6.04417 40.8065 7.50817 41.3345 9.11617C41.8624 10.7002 42.1264 12.3202 42.1264 13.9762C42.1264 15.6322 41.8624 17.2522 41.3345 18.8362C40.8065 20.4202 40.0145 21.8842 38.9584 23.2282ZM35.1424 8.07217C34.2064 6.51217 33.0185 5.73217 31.5784 5.73217C30.8584 5.73217 30.1864 5.93617 29.5624 6.34417C28.9624 6.75217 28.4344 7.32817 27.9784 8.07217C27.5464 8.81617 27.1984 9.69217 26.9344 10.7002C26.6944 11.6842 26.5744 12.7762 26.5744 13.9762C26.5744 15.1522 26.6944 16.2442 26.9344 17.2522C27.1984 18.2602 27.5464 19.1362 27.9784 19.8802C28.4344 20.6242 28.9624 21.2002 29.5624 21.6082C30.1864 22.0162 30.8584 22.2202 31.5784 22.2202C33.0185 22.2202 34.2064 21.4402 35.1424 19.8802C35.6704 19.0162 36.0664 18.0802 36.3304 17.0722C36.5945 16.0402 36.7265 15.0082 36.7265 13.9762C36.7265 12.9442 36.5945 11.9242 36.3304 10.9162C36.0664 9.88417 35.6704 8.93617 35.1424 8.07217ZM60.5725 23.2282C58.6285 25.7002 56.1685 26.9362 53.1925 26.9362C51.7045 26.9362 50.3245 26.6122 49.0525 25.9642C47.8045 25.2922 46.7125 24.3802 45.7765 23.2282C44.8645 22.0762 44.1445 20.7082 43.6165 19.1242C43.1125 17.5402 42.8605 15.8242 42.8605 13.9762C42.8605 12.1282 43.1125 10.4122 43.6165 8.82817C44.1445 7.24417 44.8645 5.87617 45.7765 4.72417C46.7125 3.57217 47.8045 2.67217 49.0525 2.02417C50.3245 1.35217 51.7045 1.01617 53.1925 1.01617C56.1685 1.01617 58.6285 2.25217 60.5725 4.72417C61.6285 6.04417 62.4205 7.50817 62.9485 9.11617C63.4765 10.7002 63.7405 12.3202 63.7405 13.9762C63.7405 15.6322 63.4765 17.2522 62.9485 18.8362C62.4205 20.4202 61.6285 21.8842 60.5725 23.2282ZM56.7565 8.07217C55.8205 6.51217 54.6325 5.73217 53.1925 5.73217C52.4725 5.73217 51.8005 5.93617 51.1765 6.34417C50.5765 6.75217 50.0485 7.32817 49.5925 8.07217C49.1605 8.81617 48.8125 9.69217 48.5485 10.7002C48.3085 11.6842 48.1885 12.7762 48.1885 13.9762C48.1885 15.1522 48.3085 16.2442 48.5485 17.2522C48.8125 18.2602 49.1605 19.1362 49.5925 19.8802C50.0485 20.6242 50.5765 21.2002 51.1765 21.6082C51.8005 22.0162 52.4725 22.2202 53.1925 22.2202C54.6325 22.2202 55.8205 21.4402 56.7565 19.8802C57.2845 19.0162 57.6805 18.0802 57.9445 17.0722C58.2085 16.0402 58.3405 15.0082 58.3405 13.9762C58.3405 12.9442 58.2085 11.9242 57.9445 10.9162C57.6805 9.88417 57.2845 8.93617 56.7565 8.07217ZM91.5663 23.2282C89.6223 25.7002 87.1623 26.9362 84.1863 26.9362C82.6983 26.9362 81.3183 26.6122 80.0463 25.9642C78.7983 25.2922 77.7063 24.3802 76.7703 23.2282C75.8583 22.0762 75.1383 20.7082 74.6103 19.1242C74.1063 17.5402 73.8543 15.8242 73.8543 13.9762C73.8543 12.1282 74.1063 10.4122 74.6103 8.82817C75.1383 7.24417 75.8583 5.87617 76.7703 4.72417C77.7063 3.57217 78.7983 2.67217 80.0463 2.02417C81.3183 1.35217 82.6983 1.01617 84.1863 1.01617C87.1623 1.01617 89.6223 2.25217 91.5663 4.72417C92.6223 6.04417 93.4143 7.50817 93.9423 9.11617C94.4703 10.7002 94.7343 12.3202 94.7343 13.9762C94.7343 15.6322 94.4703 17.2522 93.9423 18.8362C93.4143 20.4202 92.6223 21.8842 91.5663 23.2282ZM87.7503 8.07217C86.8143 6.51217 85.6263 5.73217 84.1863 5.73217C83.4663 5.73217 82.7943 5.93617 82.1703 6.34417C81.5703 6.75217 81.0423 7.32817 80.5863 8.07217C80.1543 8.81617 79.8063 9.69217 79.5423 10.7002C79.3023 11.6842 79.1823 12.7762 79.1823 13.9762C79.1823 15.1522 79.3023 16.2442 79.5423 17.2522C79.8063 18.2602 80.1543 19.1362 80.5863 19.8802C81.0423 20.6242 81.5703 21.2002 82.1703 21.6082C82.7943 22.0162 83.4663 22.2202 84.1863 22.2202C85.6263 22.2202 86.8143 21.4402 87.7503 19.8802C88.2783 19.0162 88.6743 18.0802 88.9383 17.0722C89.2023 16.0402 89.3343 15.0082 89.3343 13.9762C89.3343 12.9442 89.2023 11.9242 88.9383 10.9162C88.6743 9.88417 88.2783 8.93617 87.7503 8.07217ZM113.18 23.2282C111.236 25.7002 108.776 26.9362 105.8 26.9362C104.312 26.9362 102.932 26.6122 101.66 25.9642C100.412 25.2922 99.3203 24.3802 98.3843 23.2282C97.4723 22.0762 96.7523 20.7082 96.2243 19.1242C95.7203 17.5402 95.4683 15.8242 95.4683 13.9762C95.4683 12.1282 95.7203 10.4122 96.2243 8.82817C96.7523 7.24417 97.4723 5.87617 98.3843 4.72417C99.3203 3.57217 100.412 2.67217 101.66 2.02417C102.932 1.35217 104.312 1.01617 105.8 1.01617C108.776 1.01617 111.236 2.25217 113.18 4.72417C114.236 6.04417 115.028 7.50817 115.556 9.11617C116.084 10.7002 116.348 12.3202 116.348 13.9762C116.348 15.6322 116.084 17.2522 115.556 18.8362C115.028 20.4202 114.236 21.8842 113.18 23.2282ZM109.364 8.07217C108.428 6.51217 107.24 5.73217 105.8 5.73217C105.08 5.73217 104.408 5.93617 103.784 6.34417C103.184 6.75217 102.656 7.32817 102.2 8.07217C101.768 8.81617 101.42 9.69217 101.156 10.7002C100.916 11.6842 100.796 12.7762 100.796 13.9762C100.796 15.1522 100.916 16.2442 101.156 17.2522C101.42 18.2602 101.768 19.1362 102.2 19.8802C102.656 20.6242 103.184 21.2002 103.784 21.6082C104.408 22.0162 105.08 22.2202 105.8 22.2202C107.24 22.2202 108.428 21.4402 109.364 19.8802C109.892 19.0162 110.288 18.0802 110.552 17.0722C110.816 16.0402 110.948 15.0082 110.948 13.9762C110.948 12.9442 110.816 11.9242 110.552 10.9162C110.288 9.88417 109.892 8.93617 109.364 8.07217ZM134.794 23.2282C132.85 25.7002 130.39 26.9362 127.414 26.9362C125.926 26.9362 124.546 26.6122 123.274 25.9642C122.026 25.2922 120.934 24.3802 119.998 23.2282C119.086 22.0762 118.366 20.7082 117.838 19.1242C117.334 17.5402 117.082 15.8242 117.082 13.9762C117.082 12.1282 117.334 10.4122 117.838 8.82817C118.366 7.24417 119.086 5.87617 119.998 4.72417C120.934 3.57217 122.026 2.67217 123.274 2.02417C124.546 1.35217 125.926 1.01617 127.414 1.01617C130.39 1.01617 132.85 2.25217 134.794 4.72417C135.85 6.04417 136.642 7.50817 137.17 9.11617C137.698 10.7002 137.962 12.3202 137.962 13.9762C137.962 15.6322 137.698 17.2522 137.17 18.8362C136.642 20.4202 135.85 21.8842 134.794 23.2282ZM130.978 8.07217C130.042 6.51217 128.854 5.73217 127.414 5.73217C126.694 5.73217 126.022 5.93617 125.398 6.34417C124.798 6.75217 124.27 7.32817 123.814 8.07217C123.382 8.81617 123.034 9.69217 122.77 10.7002C122.53 11.6842 122.41 12.7762 122.41 13.9762C122.41 15.1522 122.53 16.2442 122.77 17.2522C123.034 18.2602 123.382 19.1362 123.814 19.8802C124.27 20.6242 124.798 21.2002 125.398 21.6082C126.022 22.0162 126.694 22.2202 127.414 22.2202C128.854 22.2202 130.042 21.4402 130.978 19.8802C131.506 19.0162 131.902 18.0802 132.166 17.0722C132.43 16.0402 132.562 15.0082 132.562 13.9762C132.562 12.9442 132.43 11.9242 132.166 10.9162C131.902 9.88417 131.506 8.93617 130.978 8.07217ZM167.048 12.9322L159.308 12.9322V26.5042H154.196V12.9322H146.492V8.36017L167.048 8.36017V12.9322ZM167.048 1.37617V5.94817L146.492 5.94817V1.37617L167.048 1.37617Z" fill="url(#paint0_linear_64_39825)"/>
</g>
<defs>
<filter id="filter0_d_64_39825" x="-2.36034e-05" y="-1.18017e-05" width="169.08" height="29.9847" filterUnits="userSpaceOnUse" color-interpolation-filters="sRGB">
<feFlood flood-opacity="0" result="BackgroundImageFix"/>
<feColorMatrix in="SourceAlpha" type="matrix" values="0 0 0 0 0 0 0 0 0 0 0 0 0 0 0 0 0 0 127 0" result="hardAlpha"/>
<feOffset dy="1.01613"/>
<feGaussianBlur stdDeviation="1.01613"/>
<feComposite in2="hardAlpha" operator="out"/>
<feColorMatrix type="matrix" values="0 0 0 0 0 0 0 0 0 0 0 0 0 0 0 0 0 0 0.25 0"/>
<feBlend mode="normal" in2="BackgroundImageFix" result="effect1_dropShadow_64_39825"/>
<feBlend mode="normal" in="SourceGraphic" in2="effect1_dropShadow_64_39825" result="shape"/>
</filter>
<linearGradient id="paint0_linear_64_39825" x1="84.0483" y1="-41.6455" x2="84.0483" y2="76.6509" gradientUnits="userSpaceOnUse">
<stop offset="0.33274" stop-color="#FFF4CD"/>
<stop offset="0.400099" stop-color="#FFE68E"/>
<stop offset="0.476571" stop-color="#FFA34E"/>
<stop offset="0.557142" stop-color="#FFF387"/>
<stop offset="0.725754" stop-color="#FFA841"/>
</linearGradient>
</defs>
</svg>
