<svg width="24" height="16" viewBox="0 0 24 16" fill="none" xmlns="http://www.w3.org/2000/svg">
<rect width="24" height="16" rx="2" fill="#30C6E0"/>
<path d="M1.95312 13.8665C2.13713 13.8666 2.28613 14.0164 2.28613 14.2004V14.5999C2.2861 14.7839 2.13711 14.9328 1.95312 14.9329H1.47656C1.29264 14.9327 1.14359 14.7838 1.14355 14.5999V14.2004C1.14355 14.0165 1.29262 13.8666 1.47656 13.8665H1.95312ZM3.0957 12.8C3.27962 12.8001 3.42856 12.9492 3.42871 13.1331V13.5334C3.42862 13.7174 3.27965 13.8664 3.0957 13.8665H2.61914C2.43525 13.8663 2.28623 13.7174 2.28613 13.5334V13.1331C2.28628 12.9492 2.43529 12.8002 2.61914 12.8H3.0957ZM13.7539 4.60278L15.9199 3.41333L15.1592 5.64868L17.6641 5.45435L15.9395 7.16138L18.2861 8.00024L15.9395 8.83911L17.6641 10.5452L15.1592 10.3508L15.9199 12.5872L13.7539 11.3977L13.3994 13.72L12.001 11.7708L10.6016 13.72L10.248 11.3977L8.08105 12.5872L8.8418 10.3508L6.33691 10.5452L8.06152 8.83911L5.71484 8.00024L8.06152 7.16138L6.33691 5.45435L8.8418 5.64868L8.08105 3.41333L10.248 4.60278L10.6016 2.28052L12.001 4.22876L13.3994 2.28052L13.7539 4.60278ZM1.95312 11.7336C2.13713 11.7337 2.28613 11.8826 2.28613 12.0667V12.467C2.28589 12.6509 2.13698 12.7999 1.95312 12.8H1.47656C1.29277 12.7999 1.1438 12.6508 1.14355 12.467V12.0667C1.14355 11.8827 1.29262 11.7338 1.47656 11.7336H1.95312ZM3.0957 10.6663C3.27971 10.6664 3.42871 10.8162 3.42871 11.0002V11.3997C3.42868 11.5837 3.27969 11.7335 3.0957 11.7336H2.61914C2.43522 11.7335 2.28617 11.5836 2.28613 11.3997V11.0002C2.28613 10.8163 2.4352 10.6664 2.61914 10.6663H3.0957ZM12.001 4.26685C9.79184 4.26685 8.00098 5.93838 8.00098 8.00024C8.00116 10.062 9.79195 11.7336 12.001 11.7336C14.2098 11.7334 16.0008 10.0618 16.001 8.00024C16.001 5.93851 14.2099 4.26706 12.001 4.26685ZM12 4.80005C13.8935 4.80005 15.4287 6.23293 15.4287 8.00024C15.4285 9.76741 13.8934 11.1995 12 11.1995C10.1066 11.1995 8.57147 9.76741 8.57129 8.00024C8.57129 6.23293 10.1065 4.80005 12 4.80005ZM1.95312 9.59985C2.13698 9.59995 2.28589 9.74904 2.28613 9.93286V10.3333C2.2861 10.5173 2.13711 10.6662 1.95312 10.6663H1.47656C1.29264 10.6661 1.14359 10.5172 1.14355 10.3333V9.93286C1.1438 9.74908 1.29277 9.60003 1.47656 9.59985H1.95312ZM3.0957 8.53345C3.27965 8.53355 3.42861 8.6825 3.42871 8.86646V9.26685C3.42856 9.45075 3.27962 9.59975 3.0957 9.59985H2.61914C2.43529 9.59968 2.28628 9.45071 2.28613 9.26685V8.86646C2.28623 8.68255 2.43525 8.53362 2.61914 8.53345H3.0957ZM1.95312 7.46704C2.13713 7.46714 2.28613 7.61602 2.28613 7.80005V8.20044C2.28585 8.38423 2.13696 8.53335 1.95312 8.53345H1.47656C1.29279 8.53327 1.14383 8.38419 1.14355 8.20044V7.80005C1.14355 7.61606 1.29262 7.46722 1.47656 7.46704H1.95312ZM3.0957 6.39966C3.27971 6.39976 3.42871 6.54961 3.42871 6.73364V7.13306C3.42868 7.31706 3.27969 7.46694 3.0957 7.46704H2.61914C2.43522 7.46687 2.28617 7.31702 2.28613 7.13306V6.73364C2.28613 6.54966 2.4352 6.39983 2.61914 6.39966H3.0957ZM1.95312 5.33325C2.137 5.33335 2.28592 5.48241 2.28613 5.66626V6.06665C2.2861 6.25065 2.13711 6.39956 1.95312 6.39966H1.47656C1.29264 6.39948 1.14359 6.25061 1.14355 6.06665V5.66626C1.14377 5.48245 1.29275 5.33343 1.47656 5.33325H1.95312ZM3.0957 4.26685C3.27967 4.26695 3.42864 4.41588 3.42871 4.59985V5.00024C3.42854 5.18413 3.27961 5.33315 3.0957 5.33325H2.61914C2.4353 5.33308 2.28631 5.18408 2.28613 5.00024V4.59985C2.2862 4.41593 2.43524 4.26702 2.61914 4.26685H3.0957ZM1.95312 3.20044C2.13713 3.20054 2.28613 3.34941 2.28613 3.53345V3.93286C2.2861 4.11687 2.13711 4.26674 1.95312 4.26685H1.47656C1.29264 4.26667 1.14359 4.11682 1.14355 3.93286V3.53345C1.14355 3.34946 1.29262 3.20062 1.47656 3.20044H1.95312ZM3.0957 2.13306C3.27971 2.13316 3.42871 2.28301 3.42871 2.46704V2.86646C3.42868 3.05046 3.27969 3.20034 3.0957 3.20044H2.61914C2.43522 3.20026 2.28617 3.05041 2.28613 2.86646V2.46704C2.28613 2.28305 2.4352 2.13323 2.61914 2.13306H3.0957ZM1.95312 1.06665C2.13703 1.06675 2.28596 1.21578 2.28613 1.39966V1.80005C2.28606 1.98402 2.13709 2.13296 1.95312 2.13306H1.47656C1.29266 2.13288 1.14362 1.98398 1.14355 1.80005V1.39966C1.14373 1.21582 1.29273 1.06683 1.47656 1.06665H1.95312Z" fill="#FFCD4B"/>
</svg>
