<svg width="24" height="16" viewBox="0 0 24 16" fill="none" xmlns="http://www.w3.org/2000/svg">
<g clip-path="url(#clip0_106_27889)">
<path d="M23.1724 16H0.827625C0.370594 16 0 15.6229 0 15.1579V0.842145C0 0.377095 0.370594 0 0.827625 0H23.1724C23.6294 0 24 0.377095 24 0.842145V15.1579C23.9999 15.6231 23.6295 16 23.1724 16Z" fill="#000061"/>
<path d="M23.1725 0H21.735L14.069 5.11059V0H9.93107V5.11059L2.2651 0H0.827628C0.370595 0 0 0.377095 0 0.842145V1.5101L6.57706 5.89473H0V10.1053H6.57706L0 14.49V15.1579C0 15.6229 0.370595 16 0.827628 16H2.2651L9.93107 10.8894V16H14.069V10.8894L21.7349 16H23.1724C23.6294 16 24 15.6229 24 15.1579V14.4899L17.423 10.1053H24V5.89473H17.4229L24 1.5101V0.842145C24 0.377095 23.6296 0 23.1725 0Z" fill="#F5F5F5"/>
<path d="M0.984375 15.7246H0.828125C0.520249 15.7245 0.2627 15.5482 0.120117 15.2988L8.38867 9.93066H9.90918L0.984375 15.7246ZM13.2412 6.62109H24V9.10352H13.2412V15.7246H10.7588V9.10352H0V6.62109H10.7588V0H13.2412V6.62109ZM16.2373 9.93066L23.9873 14.9619C23.9624 15.2651 23.7812 15.5213 23.5176 15.6436L14.7168 9.93066H16.2373ZM9.10352 5.79297H7.58301L0 0.871094V0.828125C0 0.533469 0.162782 0.286367 0.394531 0.139648L9.10352 5.79297ZM23.1729 0C23.4763 0.00010042 23.7301 0.171516 23.874 0.415039L15.5889 5.79297H14.0693L22.9932 0H23.1729Z" fill="#FF4B55"/>
</g>
<defs>
<clipPath id="clip0_106_27889">
<rect width="24" height="16" rx="2" fill="white"/>
</clipPath>
</defs>
</svg>
