<svg width="24" height="16" viewBox="0 0 24 16" fill="none" xmlns="http://www.w3.org/2000/svg">
<g clip-path="url(#clip0_106_27930)">
<rect width="24" height="16" rx="2" fill="white"/>
<path fill-rule="evenodd" clip-rule="evenodd" d="M0 5.33333H24V0H0V5.33333Z" fill="#04AAC8"/>
<path fill-rule="evenodd" clip-rule="evenodd" d="M0 16.0001H24V10.6667H0V16.0001Z" fill="#23C840"/>
<path d="M3.99976 1.06665C4.35278 1.06665 4.68118 1.16643 4.95386 1.33716C4.92189 1.33516 4.88969 1.33325 4.85718 1.33325C4.06833 1.33325 3.42868 1.93005 3.42847 2.66626C3.42847 3.40264 4.0682 4.00024 4.85718 4.00024C4.8897 4.00024 4.92187 3.99736 4.95386 3.99536C4.68111 4.16622 4.35293 4.26685 3.99976 4.26685C3.05317 4.26663 2.28589 3.54979 2.28589 2.66626C2.28611 1.78291 3.05331 1.06686 3.99976 1.06665ZM6.28589 3.20044C6.60148 3.20044 6.85718 3.43909 6.85718 3.73364C6.85699 4.02804 6.60136 4.26685 6.28589 4.26685C5.97041 4.26685 5.71479 4.02804 5.7146 3.73364C5.7146 3.43909 5.9703 3.20044 6.28589 3.20044ZM8.57202 3.20044C8.88755 3.20051 9.14331 3.43913 9.14331 3.73364C9.14313 4.02801 8.88744 4.26678 8.57202 4.26685C8.25654 4.26685 8.00091 4.02805 8.00073 3.73364C8.00073 3.43909 8.25643 3.20044 8.57202 3.20044ZM10.8572 3.20044C11.1727 3.20051 11.4285 3.43913 11.4285 3.73364C11.4283 4.02801 11.1726 4.26678 10.8572 4.26685C10.5417 4.26685 10.2861 4.02805 10.2859 3.73364C10.2859 3.43909 10.5416 3.20044 10.8572 3.20044ZM8.57202 1.06665C8.8875 1.06672 9.14324 1.3054 9.14331 1.59985C9.14331 1.89436 8.88755 2.13299 8.57202 2.13306C8.25643 2.13306 8.00073 1.89441 8.00073 1.59985C8.00081 1.30536 8.25648 1.06665 8.57202 1.06665ZM10.8572 1.06665C11.1727 1.06672 11.4284 1.3054 11.4285 1.59985C11.4285 1.89436 11.1727 2.13299 10.8572 2.13306C10.5416 2.13306 10.2859 1.89441 10.2859 1.59985C10.286 1.30536 10.5416 1.06665 10.8572 1.06665Z" fill="white"/>
</g>
<defs>
<clipPath id="clip0_106_27930">
<rect width="24" height="16" rx="2" fill="white"/>
</clipPath>
</defs>
</svg>
